<svg height="512pt" viewBox="0 0 512 512" width="512pt" xmlns="http://www.w3.org/2000/svg"><path d="m121 90h30v242h-30zm0 0" fill="#444"/><path d="m512 302v210h-512v-210h61l30 30h330l30-30zm0 0" fill="#deecf1"/><path d="m512 302v210h-256v-180h165l30-30zm0 0" fill="#c6e2e7"/><path d="m61 302h390v90h-390zm0 0" fill="#5a5a5a"/><path d="m256 302h195v90h-195zm0 0" fill="#444"/><path d="m91 332h60v30h-60zm0 0" fill="#fdbf00"/><path d="m181 332h60v30h-60zm0 0" fill="#fdbf00"/><path d="m271 332h60v30h-60zm0 0" fill="#ff9f00"/><path d="m361 332h60v30h-60zm0 0" fill="#ff9f00"/><path d="m282.617188 233.230469-21.210938-21.210938c25.53125-25.515625 39.59375-59.398437 39.59375-95.402343 0-36.007813-14.0625-69.890626-39.59375-95.40625l21.210938-21.210938c31.199218 31.1875 48.382812 72.597656 48.382812 116.617188 0 44.015624-17.183594 85.429687-48.382812 116.613281zm0 0" fill="#25d9f8"/><path d="m271 116.699219c0 19.199219-5.097656 37.796875-15 53.699219-4.199219 7.5-9.601562 14.097656-15.902344 20.402343l-20.996094-21.304687c14.097657-14.097656 21.898438-32.996094 21.898438-52.796875 0-20.101563-7.800781-39-21.898438-53.101563l21-21.300781c6.300782 6.300781 11.699219 13.199219 15.898438 20.699219 9.902344 15.902344 15 34.503906 15 53.703125zm0 0" fill="#76e2f8"/><path d="m197.816406 148.433594-21.210937-21.210938c2.828125-2.84375 4.394531-6.605468 4.394531-10.605468 0-4.015626-1.554688-7.777344-4.378906-10.589844l21.179687-21.242188c8.511719 8.480469 13.199219 19.789063 13.199219 31.832032 0 12.011718-4.6875 23.320312-13.183594 31.816406zm0 0" fill="#76e2f8"/><path d="m61 422h30v30h-30zm0 0" fill="#a8d3d8"/><path d="m421 422h30v30h-30zm0 0" fill="#8ebac5"/><path d="m121 422h270v30h-270zm0 0" fill="#a8d3d8"/><path d="m271 116.699219c0 19.199219-5.097656 37.796875-15 53.699219v-107.398438c9.902344 15.898438 15 34.5 15 53.699219zm0 0" fill="#25d9f8"/><path d="m256 422h135v30h-135zm0 0" fill="#8ebac5"/></svg>