<svg height="512pt" viewBox="0 0 512 512" width="512pt" xmlns="http://www.w3.org/2000/svg"><g fill="#28384c"><path d="m70.621094 467.863281h70.621094v44.136719h-70.621094zm0 0"/><path d="m370.757812 467.863281h70.621094v44.136719h-70.621094zm0 0"/><path d="m273.65625 256h-35.3125v-238.34375c0-9.753906 7.902344-17.65625 17.65625-17.65625s17.65625 7.902344 17.65625 17.65625zm0 0"/></g><path d="m300.136719 414.898438h-123.585938c-4.871093 0-8.828125-3.957032-8.828125-8.828126 0-4.875 3.957032-8.828124 8.828125-8.828124h123.585938c4.875 0 8.828125 3.953124 8.828125 8.828124 0 4.871094-3.953125 8.828126-8.828125 8.828126zm0 0"/><path d="m35.308594 423.722656v17.65625c0 19.5 15.8125 35.3125 35.3125 35.3125h370.757812c19.5 0 35.3125-15.8125 35.3125-35.3125v-17.65625zm0 0" fill="#596d7f"/><path d="m441.378906 247.171875h-370.757812c-19.5 0-35.3125 15.8125-35.3125 35.3125v17.652344h441.382812v-17.652344c0-19.5-15.8125-35.3125-35.3125-35.3125zm0 0" fill="#596d7f"/><path d="m150.058594 185.378906c-1.648438 0-3.328125-.457031-4.808594-1.429687-30.597656-19.949219-48.148438-51.605469-48.148438-86.847657 0-35.238281 17.550782-66.894531 48.148438-86.84375 4.078125-2.65625 9.550781-1.507812 12.214844 2.578126 2.667968 4.085937 1.511718 9.558593-2.574219 12.214843-25.503906 16.632813-40.132813 42.894531-40.132813 72.050781 0 29.160157 14.628907 55.421876 40.132813 72.050782 4.085937 2.667968 5.234375 8.132812 2.574219 12.21875-1.691406 2.597656-4.519532 4.007812-7.40625 4.007812zm0 0" fill="#86b6e0"/><path d="m158.898438 150.070312c-2.226563 0-4.460938-.839843-6.179688-2.527343-13.09375-12.824219-20.304688-30.738281-20.304688-50.441407 0-19.703124 7.210938-37.613281 20.304688-50.4375 3.476562-3.417968 9.0625-3.363281 12.480469.132813 3.40625 3.484375 3.355469 9.0625-.132813 12.480469-9.664062 9.472656-14.996094 22.90625-14.996094 37.824218 0 14.921876 5.332032 28.355469 15.003907 37.835938 3.488281 3.417969 3.542969 9.003906.132812 12.484375-1.730469 1.765625-4.023437 2.648437-6.308593 2.648437zm0 0" fill="#5a93d1"/><path d="m185.378906 123.585938c-2.101562 0-4.203125-.742188-5.886718-2.25-5.484376-4.910157-11.769532-12.09375-11.769532-24.234376 0-12.136718 6.285156-19.320312 11.769532-24.230468 3.628906-3.246094 9.214843-2.9375 12.464843.6875 3.246094 3.628906 2.9375 9.21875-.691406 12.464844-4.402344 3.9375-5.886719 6.738281-5.886719 11.078124 0 4.34375 1.484375 7.144532 5.886719 11.082032 3.628906 3.246094 3.949219 8.824218.691406 12.464844-1.738281 1.949218-4.160156 2.9375-6.578125 2.9375zm0 0" fill="#366db6"/><path d="m361.941406 185.378906c-2.886718 0-5.714844-1.410156-7.40625-4.007812-2.667968-4.085938-1.511718-9.558594 2.574219-12.21875 25.503906-16.628906 40.132813-42.890625 40.132813-72.050782 0-29.15625-14.628907-55.417968-40.132813-72.050781-4.085937-2.664062-5.234375-8.128906-2.574219-12.214843 2.65625-4.085938 8.128906-5.234376 12.214844-2.578126 30.597656 19.949219 48.148438 51.605469 48.148438 86.84375 0 35.242188-17.550782 66.898438-48.148438 86.847657-1.480469.972656-3.160156 1.429687-4.808594 1.429687zm0 0" fill="#86b6e0"/><path d="m353.101562 150.070312c-2.285156 0-4.578124-.882812-6.300781-2.648437-3.40625-3.488281-3.355469-9.066406.132813-12.484375 9.664062-9.480469 14.996094-22.914062 14.996094-37.835938 0-14.917968-5.332032-28.351562-15.003907-37.832031-3.488281-3.417969-3.542969-9.003906-.132812-12.484375 3.40625-3.484375 9.003906-3.53125 12.480469-.132812 13.101562 12.835937 20.3125 30.746094 20.3125 50.449218 0 19.703126-7.210938 37.617188-20.304688 50.441407-1.71875 1.6875-3.953125 2.527343-6.179688 2.527343zm0 0" fill="#5a93d1"/><path d="m326.621094 123.585938c-2.417969 0-4.839844-.988282-6.578125-2.9375-3.246094-3.640626-2.9375-9.21875.691406-12.464844 4.402344-3.9375 5.886719-6.738282 5.886719-11.082032 0-4.339843-1.484375-7.140624-5.886719-11.078124-3.628906-3.246094-3.949219-8.828126-.691406-12.464844 3.25-3.644532 8.828125-3.945313 12.464843-.6875 5.484376 4.910156 11.769532 12.09375 11.769532 24.230468 0 12.140626-6.285156 19.324219-11.769532 24.234376-1.683593 1.507812-3.785156 2.25-5.886718 2.25zm0 0" fill="#366db6"/><path d="m483.308594 441.378906h-454.617188c-15.847656 0-28.691406-12.84375-28.691406-28.6875v-101.519531c0-15.84375 12.84375-28.6875 28.691406-28.6875h454.617188c15.847656 0 28.691406 12.84375 28.691406 28.6875v101.519531c0 15.84375-12.84375 28.6875-28.691406 28.6875zm0 0" fill="#28384c"/><path d="m335.449219 317.792969h141.242187v88.277343h-141.242187zm0 0" fill="#fff"/><path d="m388.414062 370.757812h-17.65625c-4.871093 0-8.828124-3.945312-8.828124-8.828124 0-4.878907 3.957031-8.828126 8.828124-8.828126h17.65625c4.871094 0 8.828126 3.949219 8.828126 8.828126 0 4.882812-3.957032 8.828124-8.828126 8.828124zm0 0" fill="#ed8a19"/><path d="m441.378906 370.757812h-17.65625c-4.871094 0-8.824218-3.945312-8.824218-8.828124 0-4.878907 3.953124-8.828126 8.824218-8.828126h17.65625c4.875 0 8.828125 3.949219 8.828125 8.828126 0 4.882812-3.953125 8.828124-8.828125 8.828124zm0 0" fill="#ed8a19"/><path d="m35.308594 414.898438c-4.871094 0-8.824219-3.949219-8.824219-8.828126v-88.277343c0-4.882813 3.953125-8.828125 8.824219-8.828125 4.875 0 8.828125 3.945312 8.828125 8.828125v88.277343c0 4.878907-3.953125 8.828126-8.828125 8.828126zm0 0" fill="#dd352e"/><path d="m70.621094 353.101562c-4.875 0-8.828125-3.945312-8.828125-8.824218v-26.484375c0-4.882813 3.953125-8.828125 8.828125-8.828125 4.871094 0 8.828125 3.945312 8.828125 8.828125v26.484375c0 4.878906-3.957031 8.824218-8.828125 8.824218zm0 0" fill="#ebba16"/><path d="m70.621094 414.898438c-4.875 0-8.828125-3.949219-8.828125-8.828126v-26.484374c0-4.882813 3.953125-8.828126 8.828125-8.828126 4.871094 0 8.828125 3.945313 8.828125 8.828126v26.484374c0 4.878907-3.957031 8.828126-8.828125 8.828126zm0 0" fill="#dc691d"/><path d="m141.242188 353.101562c-4.875 0-8.828126-3.945312-8.828126-8.824218v-26.484375c0-4.882813 3.953126-8.828125 8.828126-8.828125 4.871093 0 8.828124 3.945312 8.828124 8.828125v26.484375c0 4.878906-3.957031 8.824218-8.828124 8.824218zm0 0" fill="#dc691d"/><path d="m141.242188 414.898438c-4.875 0-8.828126-3.949219-8.828126-8.828126v-26.484374c0-4.882813 3.953126-8.828126 8.828126-8.828126 4.871093 0 8.828124 3.945313 8.828124 8.828126v26.484374c0 4.878907-3.957031 8.828126-8.828124 8.828126zm0 0" fill="#dd352e"/><path d="m105.929688 414.898438c-4.871094 0-8.828126-3.949219-8.828126-8.828126v-88.277343c0-4.882813 3.957032-8.828125 8.828126-8.828125 4.875 0 8.828124 3.945312 8.828124 8.828125v88.277343c0 4.878907-3.953124 8.828126-8.828124 8.828126zm0 0" fill="#ed8a19"/><path d="m300.136719 326.621094h-123.585938c-4.871093 0-8.828125-3.945313-8.828125-8.828125 0-4.882813 3.957032-8.828125 8.828125-8.828125h123.585938c4.875 0 8.828125 3.945312 8.828125 8.828125 0 4.882812-3.953125 8.828125-8.828125 8.828125zm0 0" fill="#7383bf"/><path d="m300.136719 414.898438h-123.585938c-4.871093 0-8.828125-3.949219-8.828125-8.828126 0-4.882812 3.957032-8.828124 8.828125-8.828124h123.585938c4.875 0 8.828125 3.945312 8.828125 8.828124 0 4.878907-3.953125 8.828126-8.828125 8.828126zm0 0" fill="#1081e0"/><path d="m194.207031 370.757812h-17.65625c-4.871093 0-8.828125-3.945312-8.828125-8.828124 0-4.878907 3.957032-8.828126 8.828125-8.828126h17.65625c4.871094 0 8.828125 3.949219 8.828125 8.828126 0 4.882812-3.957031 8.828124-8.828125 8.828124zm0 0" fill="#75348b"/><path d="m300.136719 370.757812h-17.652344c-4.875 0-8.828125-3.945312-8.828125-8.828124 0-4.878907 3.953125-8.828126 8.828125-8.828126h17.652344c4.875 0 8.828125 3.949219 8.828125 8.828126 0 4.882812-3.953125 8.828124-8.828125 8.828124zm0 0" fill="#57d8ab"/><path d="m247.171875 370.757812h-17.65625c-4.871094 0-8.824219-3.945312-8.824219-8.828124 0-4.878907 3.953125-8.828126 8.824219-8.828126h17.65625c4.875 0 8.828125 3.949219 8.828125 8.828126 0 4.882812-3.953125 8.828124-8.828125 8.828124zm0 0" fill="#fc3952"/></svg>