<svg height="464pt" viewBox="-48 0 464 464" width="464pt" xmlns="http://www.w3.org/2000/svg"><path d="m16 0h336c8.835938 0 16 7.164062 16 16v432c0 8.835938-7.164062 16-16 16h-336c-8.835938 0-16-7.164062-16-16v-432c0-8.835938 7.164062-16 16-16zm0 0" fill="#ffe477"/><path d="m16 0h336c8.835938 0 16 7.164062 16 16v432c0 8.835938-7.164062 16-16 16h-336c-8.835938 0-16-7.164062-16-16v-432c0-8.835938 7.164062-16 16-16zm0 0" fill="#ffe477"/><path d="m368 171.121094v276.878906c-.027344 8.824219-7.175781 15.972656-16 16h-320s222.480469-72 336-292.878906zm0 0" fill="#ffde55"/><path d="m184 136c-75.109375 0-136 60.890625-136 136s60.890625 136 136 136 136-60.890625 136-136-60.890625-136-136-136zm-24 136c0-13.253906 10.746094-24 24-24s24 10.746094 24 24-10.746094 24-24 24-24-10.746094-24-24zm0 0" fill="#d1d3d4"/><g fill="#ff7956"><path d="m64 416c0 8.835938-7.164062 16-16 16s-16-7.164062-16-16 7.164062-16 16-16 16 7.164062 16 16zm0 0"/><path d="m336 416c0 8.835938-7.164062 16-16 16s-16-7.164062-16-16 7.164062-16 16-16 16 7.164062 16 16zm0 0"/><path d="m64 48c0 8.835938-7.164062 16-16 16s-16-7.164062-16-16 7.164062-16 16-16 16 7.164062 16 16zm0 0"/><path d="m336 48c0 8.835938-7.164062 16-16 16s-16-7.164062-16-16 7.164062-16 16-16 16 7.164062 16 16zm0 0"/></g><path d="m208 272c0 13.253906-10.746094 24-24 24s-24-10.746094-24-24 10.746094-24 24-24 24 10.746094 24 24zm0 0" fill="#ffb655"/><path d="m184 384v-16c52.996094-.058594 95.941406-43.003906 96-96h16c-.066406 61.828125-50.171875 111.933594-112 112zm0 0" fill="#898890"/><path d="m88 40h192v16h-192zm0 0" fill="#ffb655"/><path d="m88 72h192v16h-192zm0 0" fill="#ffb655"/></svg>