<svg height="512pt" viewBox="-64 0 512 512.00002" width="512pt" xmlns="http://www.w3.org/2000/svg"><path d="m345.59375 11.285156v500.714844h-305.664062c-.347657 0-.679688 0-1.027344-.019531-21.179688-.546875-38.285156-17.589844-38.8906252-38.757813 0-.386718-.0117188-.773437-.0117188-1.164062l.03125-342.746094c0-1.96875.449219-3.894531 1.308594-5.632812.691406-1.421876 1.644531-2.71875 2.835937-3.820313l42.285157-38.964844 84.097656-77.492187c1.101562-1.003906 2.347656-1.8125 3.695312-2.375 1.570313-.671875 3.277344-1.027344 5.015625-1.027344h195.039063c6.238281 0 11.285156 5.054688 11.285156 11.285156zm0 0" fill="#ffcd71"/><path d="m345.59375 11.285156v491.0625h-259.222656c-.347656 0-.683594 0-1.027344-.019531-21.179688-.546875-38.285156-17.589844-38.890625-38.757813 0-.386718-.011719-.773437-.011719-1.164062l.019532-381.511719 84.097656-77.492187c1.101562-1.003906 2.347656-1.8125 3.695312-2.375 1.570313-.671875 3.277344-1.027344 5.015625-1.027344h195.039063c6.238281 0 11.285156 5.054688 11.285156 11.285156zm0 0" fill="#ffd993"/><path d="m384.277344 421.726562v51.839844c0 21.140625-17.292969 38.421875-38.433594 38.421875h-.523438c-.386718 0-.761718-.019531-1.148437-.03125v.03125h-300.148437c18.957031-2.3125 33.730468-18.886719 33.730468-38.421875v-51.839844c0-11.191406 9.078125-20.257812 20.269532-20.257812h265.984374c11.191407 0 20.269532 9.066406 20.269532 20.257812zm0 0" fill="#ffc14f"/><path d="m384.277344 432.875v40.691406c0 21.140625-17.292969 38.421875-38.433594 38.421875h-.523438c-.386718 0-.761718-.019531-1.148437-.03125v.03125h-227.273437c.417968-2.28125.636718-4.625.636718-7.011719v-51.84375c0-11.191406 9.078125-20.257812 20.269532-20.257812zm0 0" fill="#ffcd71"/><path d="m134.253906 1.027344v96.1875c0 14.617187-11.851562 26.464844-26.464844 26.464844h-106.449218c.691406-1.421876 1.644531-2.71875 2.835937-3.820313l126.382813-116.457031c1.101562-1.003906 2.347656-1.8125 3.695312-2.375zm0 0" fill="#ffc14f"/><g fill="#954c35"><path d="m90.890625 346.160156h-46.398437c-4.339844 0-7.851563 3.515625-7.851563 7.851563 0 4.339843 3.511719 7.851562 7.851563 7.851562h46.398437c4.339844 0 7.855469-3.511719 7.855469-7.851562 0-4.335938-3.515625-7.851563-7.855469-7.851563zm0 0"/><path d="m300.273438 346.160156h-177.972657c-4.339843 0-7.851562 3.515625-7.851562 7.851563 0 4.339843 3.511719 7.851562 7.851562 7.851562h177.972657c4.335937 0 7.851562-3.511719 7.851562-7.851562 0-4.335938-3.515625-7.851563-7.851562-7.851563zm0 0"/><path d="m300.273438 296.253906h-255.78125c-4.339844 0-7.851563 3.511719-7.851563 7.851563 0 4.335937 3.511719 7.851562 7.851563 7.851562h255.78125c4.335937 0 7.851562-3.515625 7.851562-7.851562 0-4.339844-3.515625-7.851563-7.851562-7.851563zm0 0"/><path d="m300.273438 246.34375h-255.78125c-4.339844 0-7.851563 3.515625-7.851563 7.851562 0 4.335938 3.511719 7.851563 7.851563 7.851563h255.78125c4.335937 0 7.851562-3.515625 7.851562-7.851563 0-4.335937-3.515625-7.851562-7.851562-7.851562zm0 0"/><path d="m300.273438 196.433594h-46.402344c-4.335938 0-7.851563 3.515625-7.851563 7.851562 0 4.339844 3.515625 7.855469 7.851563 7.855469h46.402344c4.335937 0 7.851562-3.515625 7.851562-7.855469 0-4.335937-3.515625-7.851562-7.851562-7.851562zm0 0"/><path d="m44.492188 212.140625h177.972656c4.339844 0 7.851562-3.515625 7.851562-7.855469 0-4.335937-3.511718-7.851562-7.851562-7.851562h-177.972656c-4.339844 0-7.851563 3.515625-7.851563 7.851562 0 4.339844 3.511719 7.855469 7.851563 7.855469zm0 0"/><path d="m300.273438 146.527344h-255.78125c-4.339844 0-7.851563 3.511718-7.851563 7.851562 0 4.335938 3.511719 7.851563 7.851563 7.851563h255.78125c4.335937 0 7.851562-3.515625 7.851562-7.851563 0-4.339844-3.515625-7.851562-7.851562-7.851562zm0 0"/><path d="m300.273438 96.617188h-121.652344c-4.335938 0-7.851563 3.515624-7.851563 7.851562s3.515625 7.851562 7.851563 7.851562h121.652344c4.335937 0 7.851562-3.515624 7.851562-7.851562s-3.515625-7.851562-7.851562-7.851562zm0 0"/><path d="m178.621094 62.410156h121.652344c4.335937 0 7.851562-3.511718 7.851562-7.851562 0-4.335938-3.515625-7.851563-7.851562-7.851563h-121.652344c-4.335938 0-7.851563 3.515625-7.851563 7.851563 0 4.339844 3.515625 7.851562 7.851563 7.851562zm0 0"/></g></svg>