<?xml version="1.0" encoding="iso-8859-1"?>
<!-- Generator: Adobe Illustrator 22.1.0, SVG Export Plug-In . SVG Version: 6.00 Build 0)  -->
<svg xmlns="http://www.w3.org/2000/svg" xmlns:xlink="http://www.w3.org/1999/xlink" version="1.1" id="Layer_1_1_" x="0px" y="0px" viewBox="0 0 64 64" style="enable-background:new 0 0 64 64;" xml:space="preserve" width="512" height="512">
<g>
	<g>
		<polygon style="fill:#F0BC5E;" points="51,15 19,15 19,22 19,25 19,36 29,36 29,25 51,25   "/>
	</g>
	<g>
		<path style="fill:#F0BC5E;" d="M30.237,7.61L26.39,3.763l-2.323,1.162c-1.109-0.652-2.291-1.144-3.525-1.466L19.721,1h-5.441    l-0.82,2.459c-1.234,0.322-2.416,0.813-3.525,1.466L7.61,3.763L3.763,7.61l1.162,2.323c-0.652,1.109-1.144,2.291-1.466,3.525    L1,14.279v5.441l2.459,0.82c0.322,1.234,0.813,2.416,1.466,3.525L3.763,26.39l3.848,3.848l2.323-1.162    c1.166,0.686,2.412,1.193,3.716,1.515l1.549,2.08L16,31v-9.101c-2.282-0.463-4-2.48-4-4.899c0-2.761,2.239-5,5-5    c0.551,0,1.072,0.111,1.568,0.276C19.014,12.104,19.494,12,20,12h9l0.922-0.371c-0.24-0.579-0.524-1.146-0.847-1.695L30.237,7.61z    "/>
	</g>
	<g>
		<g>
			<path style="fill:#F0BC5E;" d="M63,51H31V27h32V51z"/>
		</g>
	</g>
	<g>
		<path d="M58,11H24.977C23.091,8.494,20.154,7,17,7C11.486,7,7,11.486,7,17c0,4.802,3.382,8.865,8,9.799V53H3v5    c0,2.757,2.243,5,5,5h42c2.757,0,5-2.243,5-5v-7h-2v7c0,1.654-1.346,3-3,3s-3-1.346-3-3v-5H17V16c0-1.654,1.346-3,3-3h34.026    C53.391,13.838,53,14.87,53,16v11h2v-2h8v-9C63,13.243,60.757,11,58,11z M46.002,61H8c-1.654,0-3-1.346-3-3v-3h40v3    C45,59.125,45.373,60.164,46.002,61z M15,20.457c-1.205-0.701-2-2.004-2-3.457c0-1.813,1.22-3.331,2.877-3.82    C15.325,13.984,15,14.954,15,16V20.457z M18.583,11.23C18.068,11.089,17.539,11,17,11c-3.309,0-6,2.691-6,6    c0,2.559,1.643,4.805,4,5.642v2.098c-3.487-0.893-6-4.04-6-7.74c0-4.411,3.589-8,8-8c1.972,0,3.842,0.727,5.287,2H20    C19.504,11,19.035,11.095,18.583,11.23z M61,23h-6v-7c0-1.654,1.346-3,3-3s3,1.346,3,3V23z"/>
		<rect x="31" y="31" width="32" height="2"/>
		<polygon points="43.293,36.293 38.586,41 43.293,45.707 44.707,44.293 41.414,41 44.707,37.707   "/>
		<polygon points="50.707,45.707 55.414,41 50.707,36.293 49.293,37.707 52.586,41 49.293,44.293   "/>
		<rect x="40.917" y="40" transform="matrix(0.1644 -0.9864 0.9864 0.1644 -1.1689 80.6202)" width="12.166" height="2"/>
		<rect x="19" y="15" width="2" height="2"/>
		<rect x="23" y="15" width="28" height="2"/>
		<rect x="19" y="19" width="32" height="2"/>
		<rect x="19" y="23" width="12" height="2"/>
		<rect x="33" y="23" width="18" height="2"/>
		<rect x="19" y="27" width="10" height="2"/>
		<rect x="19" y="31" width="10" height="2"/>
		<rect x="19" y="35" width="10" height="2"/>
	</g>
</g>
</svg>
