<svg height="464pt" viewBox="0 -68 464 464" width="464pt" xmlns="http://www.w3.org/2000/svg"><path d="m440 48h-328l-16 32h-64v192h32v32h32v-32h32v32h48v-32h32v32h192v-32h32v32h32v-232zm0 0" fill="#ff9478"/><path d="m464 128v176h-32v-32h-32v32h-152s184-24 216-176zm0 0" fill="#ff9478"/><path d="m48 144v-64h-16v192h16zm0 0" fill="#ff7956"/><path d="m0 144h32v96h-32zm0 0" fill="#d1d3d4"/><path d="m304 80c-53.019531 0-96 42.980469-96 96s42.980469 96 96 96 96-42.980469 96-96-42.980469-96-96-96zm0 168c-39.765625 0-72-32.234375-72-72s32.234375-72 72-72 72 32.234375 72 72-32.234375 72-72 72zm0 0" fill="#ffe477"/><path d="m96 136h80v80h-80zm0 0" fill="#ffb655"/><path d="m176 136h8v80h-8zm0 0" fill="#ff7956"/><path d="m376 176c0 39.765625-32.234375 72-72 72s-72-32.234375-72-72 32.234375-72 72-72 72 32.234375 72 72zm0 0" fill="#ffb655"/><path d="m328 152c-.488281-13.046875-10.953125-23.511719-24-24v48c13.046875-.488281 23.511719-10.953125 24-24zm0 0" fill="#d1d3d4"/><path d="m271.199219 167.199219c-11.066407 6.945312-14.902344 21.25-8.800781 32.800781l41.601562-24c-6.941406-11.070312-21.25-14.90625-32.800781-8.800781zm0 0" fill="#d1d3d4"/><path d="m312.800781 208.800781c11.550781 6.105469 25.855469 2.269531 32.800781-8.800781l-41.601562-24c-6.101562 11.550781-2.265625 25.855469 8.800781 32.800781zm0 0" fill="#d1d3d4"/><g fill="#ff5023"><path d="m56 104h16v16h-16zm0 0"/><path d="m56 232h16v16h-16zm0 0"/><path d="m424 72h16v16h-16zm0 0"/><path d="m424 232h16v16h-16zm0 0"/></g><path d="m40 328h-16v-312h-24v-16h32c4.417969 0 8 3.582031 8 8zm0 0" fill="#787680"/><path d="m464 128v176h-32v-32h-32v32h-152s184-24 216-176zm0 0" fill="#ff7956"/></svg>