<?xml version="1.0" encoding="iso-8859-1"?>
<!-- Generator: Adobe Illustrator 19.1.0, SVG Export Plug-In . SVG Version: 6.00 Build 0)  -->
<svg version="1.1" id="Capa_1" xmlns="http://www.w3.org/2000/svg" xmlns:xlink="http://www.w3.org/1999/xlink" x="0px" y="0px"
	 viewBox="0 0 468.138 468.138" style="enable-background:new 0 0 468.138 468.138;" xml:space="preserve">
<g>
	<g>
		<g>
			<path d="M234.068,468.138c-62.522,0-121.302-24.348-165.511-68.558C24.347,355.37,0,296.591,0,234.068
				S24.347,112.768,68.557,68.558S171.546,0.001,234.068,0.001S355.37,24.348,399.58,68.558
				c44.21,44.209,68.558,102.989,68.558,165.511S443.79,355.37,399.58,399.581C355.37,443.79,296.59,468.138,234.068,468.138z
				 M234.068,20.001c-57.18,0-110.937,22.267-151.369,62.699S20,176.89,20,234.068c0,57.18,22.267,110.937,62.699,151.37
				c40.432,40.432,94.189,62.699,151.369,62.699s110.937-22.268,151.37-62.699c40.432-40.433,62.699-94.189,62.699-151.37
				c0-57.18-22.268-110.937-62.699-151.369C345.005,42.268,291.249,20.001,234.068,20.001z"/>
			<rect x="206.743" y="184.883" width="43.721" height="174.883"/>
			<rect x="206.743" y="119.303" width="43.721" height="43.721"/>
		</g>
	</g>
	<g>
	</g>
	<g>
	</g>
	<g>
	</g>
	<g>
	</g>
	<g>
	</g>
	<g>
	</g>
	<g>
	</g>
	<g>
	</g>
	<g>
	</g>
	<g>
	</g>
	<g>
	</g>
	<g>
	</g>
	<g>
	</g>
	<g>
	</g>
	<g>
	</g>
</g>
<g>
</g>
<g>
</g>
<g>
</g>
<g>
</g>
<g>
</g>
<g>
</g>
<g>
</g>
<g>
</g>
<g>
</g>
<g>
</g>
<g>
</g>
<g>
</g>
<g>
</g>
<g>
</g>
<g>
</g>
</svg>
