<?xml version="1.0" encoding="iso-8859-1"?>
<!-- Generator: Adobe Illustrator 19.0.0, SVG Export Plug-In . SVG Version: 6.00 Build 0)  -->
<svg version="1.1" id="Capa_1" xmlns="http://www.w3.org/2000/svg" xmlns:xlink="http://www.w3.org/1999/xlink" x="0px" y="0px"
	 viewBox="0 0 512 512" style="enable-background:new 0 0 512 512;" xml:space="preserve">
<g>
	<path style="fill:#FDD7AD;" d="M476.69,459.034V52.966C476.667,23.723,452.967,0.023,423.724,0H52.966
		C23.723,0.023,0.023,23.723,0,52.966h105.931v406.069c0.023,29.242,23.723,52.942,52.966,52.966h300.138
		c29.242-0.023,52.942-23.723,52.966-52.966H476.69z"/>
	<g>
		<path style="fill:#CBB292;" d="M105.931,52.966H0C0,23.713,23.713,0,52.966,0S105.931,23.713,105.931,52.966z"/>
		<path style="fill:#CBB292;" d="M512,459.034c-0.023,29.242-23.723,52.942-52.966,52.966H158.897
			c29.242-0.023,52.942-23.723,52.966-52.966H512z"/>
	</g>
	<path style="fill:#95A5A5;" d="M390.003,226.781h-20.568c-4.843,0.024-9.219-2.881-11.078-7.353s-0.83-9.623,2.603-13.039
		l14.566-14.566c2.825-2.829,2.825-7.411,0-10.24l-18.626-18.626c-2.829-2.825-7.411-2.825-10.24,0l-14.565,14.566
		c-3.415,3.433-8.567,4.461-13.039,2.603c-4.472-1.858-7.377-6.235-7.353-11.077V148.48c-0.018-3.99-3.248-7.221-7.239-7.239
		h-26.306c-3.99,0.018-7.221,3.248-7.239,7.239v20.568c0.024,4.842-2.881,9.219-7.353,11.077c-4.472,1.858-9.623,0.83-13.039-2.603
		l-14.566-14.566c-2.829-2.825-7.411-2.825-10.24,0l-18.626,18.626c-2.825,2.829-2.825,7.411,0,10.24l14.566,14.566
		c3.433,3.415,4.462,8.567,2.603,13.039c-1.858,4.472-6.235,7.377-11.078,7.353h-20.568c-3.99,0.018-7.221,3.248-7.239,7.239v26.306
		c0.018,3.99,3.248,7.221,7.239,7.239h20.568c4.843-0.024,9.219,2.881,11.078,7.353c1.858,4.472,0.83,9.623-2.603,13.039
		l-14.566,14.566c-2.825,2.829-2.825,7.411,0,10.24l18.626,18.626c2.829,2.825,7.411,2.825,10.24,0l14.566-14.566
		c3.415-3.433,8.567-4.462,13.039-2.603c4.472,1.858,7.377,6.235,7.353,11.078v20.568c0.018,3.99,3.248,7.221,7.239,7.239h26.306
		c3.99-0.018,7.221-3.248,7.239-7.239v-20.568c-0.024-4.843,2.881-9.219,7.353-11.078c4.472-1.858,9.623-0.83,13.039,2.603
		l14.565,14.566c2.829,2.825,7.411,2.825,10.24,0l18.626-18.626c2.825-2.829,2.825-7.411,0-10.24l-14.566-14.566
		c-3.433-3.415-4.462-8.567-2.603-13.039c1.858-4.472,6.235-7.377,11.078-7.353h20.568c3.99-0.018,7.221-3.248,7.239-7.239v-26.306
		C397.223,230.029,393.993,226.799,390.003,226.781z M291.31,279.746c-13.175,0-25.052-7.936-30.094-20.108
		c-5.042-12.172-2.255-26.183,7.061-35.499s23.327-12.103,35.499-7.061c12.172,5.042,20.108,16.919,20.108,30.094
		c0.006,8.641-3.424,16.93-9.534,23.04S299.951,279.752,291.31,279.746z"/>
</g>
<g>
</g>
<g>
</g>
<g>
</g>
<g>
</g>
<g>
</g>
<g>
</g>
<g>
</g>
<g>
</g>
<g>
</g>
<g>
</g>
<g>
</g>
<g>
</g>
<g>
</g>
<g>
</g>
<g>
</g>
</svg>
