<svg viewBox="1 0 511.99903 511" xmlns="http://www.w3.org/2000/svg"><path d="m256 .5c-141.382812 0-256 114.5625-256 255.882812 0 141.320313 114.617188 255.882813 256 255.882813s256-114.5625 256-255.882813c0-141.320312-114.617188-255.882812-256-255.882812zm0 458.3125c-111.851562 0-202.523438-90.628906-202.523438-202.429688 0-111.796874 90.671876-202.429687 202.523438-202.429687 111.847656 0 202.523438 90.628906 202.523438 202.429687 0 111.796876-90.671876 202.429688-202.523438 202.429688zm0 0" fill="#b9ebff"/><path d="m458.523438 256.382812c0-111.800781-90.675782-202.429687-202.523438-202.429687-111.851562 0-202.523438 90.628906-202.523438 202.429687 0 111.796876 90.671876 202.429688 202.523438 202.429688 111.847656 0 202.523438-90.632812 202.523438-202.429688zm0 0" fill="#71d8fd"/><path d="m256 46.113281c-115.996094 0-210.367188 94.324219-210.367188 210.269531 0 115.941407 94.371094 210.269532 210.367188 210.269532s210.367188-94.328125 210.367188-210.269532c0-115.945312-94.371094-210.269531-210.367188-210.269531zm114.378906 202.429688c-.492187-25.210938-3.359375-49.652344-8.40625-72.40625 12.046875 3.925781 23.332032 8.554687 33.652344 13.84375 31.714844 16.25 50.6875 36.804687 54.375 58.5625zm-15.691406 0h-90.84375v-88.007813c28.539062.5625 55.972656 4.183594 80.835938 10.574219 6.03125 23.949219 9.457031 50.1875 10.007812 77.433594zm-90.84375-103.691407v-82.421874c22.546875 3.59375 43.828125 22.605468 60.605469 54.464843 5.925781 11.246094 11.035156 23.636719 15.292969 36.90625-23.738282-5.390625-49.394532-8.445312-75.898438-8.949219zm-15.6875-82.421874v82.421874c-26.503906.503907-52.160156 3.558594-75.898438 8.949219 4.257813-13.269531 9.367188-25.660156 15.292969-36.90625 16.777344-31.859375 38.058594-50.871093 60.605469-54.464843zm0 98.101562v88.011719h-90.84375c.550781-27.246094 3.976562-53.484375 10.007812-77.4375 24.863282-6.386719 52.296876-10.007813 80.835938-10.574219zm-106.535156 88.011719h-79.621094c3.6875-21.757813 22.660156-42.3125 54.375-58.5625 10.320312-5.289063 21.605469-9.917969 33.652344-13.84375-5.046875 22.75-7.914063 47.195312-8.40625 72.40625zm0 15.679687c.492187 25.210938 3.359375 49.652344 8.40625 72.40625-12.046875-3.925781-23.332032-8.554687-33.652344-13.84375-31.714844-16.25-50.6875-36.804687-54.375-58.5625zm15.691406 0h90.84375v88.007813c-28.539062-.5625-55.972656-4.183594-80.835938-10.574219-6.03125-23.953125-9.457031-50.1875-10.007812-77.433594zm90.84375 103.691406v82.421876c-22.546875-3.59375-43.828125-22.605469-60.605469-54.46875-5.925781-11.242188-11.035156-23.632813-15.292969-36.902344 23.738282 5.390625 49.394532 8.445312 75.898438 8.949218zm15.6875 82.421876v-82.421876c26.503906-.503906 52.160156-3.558593 75.898438-8.949218-4.257813 13.269531-9.367188 25.660156-15.292969 36.902344-16.777344 31.863281-38.058594 50.875-60.605469 54.46875zm0-98.105469v-88.007813h90.84375c-.550781 27.246094-3.976562 53.480469-10.007812 77.433594-24.863282 6.390625-52.296876 10.011719-80.835938 10.574219zm106.535156-88.007813h79.621094c-3.6875 21.757813-22.660156 42.3125-54.375 58.5625-10.320312 5.289063-21.605469 9.917969-33.652344 13.84375 5.046875-22.753906 7.914063-47.195312 8.40625-72.40625zm73.574219-58.578125c-10.367187-10.914062-24.183594-20.914062-41.171875-29.617187-13.679688-7.011719-28.910156-12.921875-45.285156-17.65625-5.023438-17.703125-11.445313-34.128906-19.164063-48.777344-8.785156-16.683594-18.847656-30.308594-29.820312-40.601562 65.789062 18.441406 117.585937 70.648437 135.441406 136.652343zm-240.464844-136.652343c-10.972656 10.292968-21.035156 23.917968-29.820312 40.597656-7.71875 14.652344-14.140625 31.078125-19.164063 48.777344-16.375 4.734374-31.605468 10.648437-45.285156 17.65625-16.988281 8.707031-30.804688 18.703124-41.171875 29.617187 17.855469-66 69.652344-118.207031 135.441406-136.648437zm-135.441406 238.128906c10.367187 10.914062 24.183594 20.914062 41.171875 29.617187 13.679688 7.011719 28.910156 12.921875 45.285156 17.65625 5.023438 17.703125 11.445313 34.128907 19.164063 48.777344 8.785156 16.683594 18.847656 30.308594 29.820312 40.601563-65.789062-18.441407-117.585937-70.648438-135.441406-136.652344zm240.464844 136.652344c10.972656-10.292969 21.035156-23.917969 29.820312-40.597657 7.71875-14.652343 14.140625-31.078125 19.164063-48.78125 16.375-4.730469 31.605468-10.644531 45.285156-17.65625 16.988281-8.703125 30.804688-18.703125 41.171875-29.617187-17.855469 66.003906-69.652344 118.210937-135.441406 136.652344zm0 0" fill="#54a1ff"/><path d="m184.476562 165.453125c0-12.988281-10.535156-23.519531-23.53125-23.519531-12.992187 0-23.53125 10.53125-23.53125 23.519531 0 12.992187 10.539063 23.523437 23.53125 23.523437 12.996094 0 23.53125-10.53125 23.53125-23.523437zm0 0" fill="#a0ffaa"/><path d="m421.535156 112.671875c0-12.992187-10.535156-23.523437-23.53125-23.523437s-23.53125 10.53125-23.53125 23.523437c0 12.988281 10.535156 23.519531 23.53125 23.519531s23.53125-10.53125 23.53125-23.519531zm0 0" fill="#f9a1ff"/><path d="m416.886719 409.191406c0-12.992187-10.535157-23.523437-23.527344-23.523437-12.996094 0-23.53125 10.53125-23.53125 23.523437 0 12.988282 10.535156 23.519532 23.53125 23.519532 12.992187 0 23.527344-10.53125 23.527344-23.519532zm0 0" fill="#ff8d95"/><path d="m135.203125 401.351562c0-12.992187-10.535156-23.523437-23.53125-23.523437s-23.53125 10.53125-23.53125 23.523437c0 12.988282 10.535156 23.519532 23.53125 23.519532s23.53125-10.53125 23.53125-23.519532zm0 0" fill="#f9a1ff"/><path d="m279.53125 256.382812c0-12.992187-10.535156-23.523437-23.53125-23.523437s-23.53125 10.53125-23.53125 23.523437c0 12.988282 10.535156 23.519532 23.53125 23.519532s23.53125-10.53125 23.53125-23.519532zm0 0" fill="#fff"/><path d="m386.152344 256.382812c0-12.992187-10.535156-23.523437-23.53125-23.523437s-23.53125 10.53125-23.53125 23.523437c0 12.988282 10.535156 23.519532 23.53125 23.519532s23.53125-10.53125 23.53125-23.519532zm0 0" fill="#ffb96a"/><path d="m279.53125 360.15625c0-12.988281-10.535156-23.519531-23.53125-23.519531s-23.53125 10.53125-23.53125 23.519531c0 12.992188 10.535156 23.519531 23.53125 23.519531s23.53125-10.527343 23.53125-23.519531zm0 0" fill="#87b45f"/><path d="m77.007812 256.382812c0-12.992187-10.535156-23.523437-23.53125-23.523437-12.996093 0-23.53125 10.53125-23.53125 23.523437 0 12.988282 10.535157 23.519532 23.53125 23.519532 12.996094 0 23.53125-10.53125 23.53125-23.519532zm0 0" fill="#ffcd74"/></svg>