<?xml version="1.0" encoding="iso-8859-1"?>
<!-- Generator: Adobe Illustrator 19.0.0, SVG Export Plug-In . SVG Version: 6.00 Build 0)  -->
<svg version="1.1" id="Capa_1" xmlns="http://www.w3.org/2000/svg" xmlns:xlink="http://www.w3.org/1999/xlink" x="0px" y="0px"
	 viewBox="0 0 512 512" style="enable-background:new 0 0 512 512;" xml:space="preserve">
<g>
	<g transform="translate(1 1)">
		<path style="fill:#CFD8DC;" d="M468.333,451.267V58.733c-0.022-28.268-22.932-51.178-51.2-51.2h-358.4
			c-28.268,0.022-51.178,22.932-51.2,51.2h102.4v392.533c0.022,28.268,22.932,51.178,51.2,51.2h290.133
			c28.268-0.022,51.178-22.932,51.2-51.2H468.333z"/>
		<g>
			<path style="fill:#607D8B;" d="M109.933,58.733H7.533c0-28.277,22.923-51.2,51.2-51.2S109.933,30.456,109.933,58.733z"/>
			<path style="fill:#607D8B;" d="M502.467,451.267c-0.022,28.268-22.932,51.178-51.2,51.2H161.133
				c28.268-0.022,51.178-22.932,51.2-51.2H502.467z"/>
		</g>
		<path style="fill:#00BCD4;" d="M384.536,226.755h-19.883c-4.681,0.023-8.912-2.785-10.708-7.108
			c-1.796-4.323-0.802-9.303,2.516-12.604l14.08-14.08c2.731-2.734,2.731-7.164,0-9.899l-18.005-18.005
			c-2.735-2.73-7.164-2.73-9.899,0l-14.08,14.08c-3.302,3.319-8.281,4.313-12.604,2.516c-4.323-1.796-7.131-6.027-7.108-10.708
			v-19.883c-0.017-3.857-3.14-6.98-6.997-6.997h-25.429c-3.857,0.017-6.98,3.14-6.997,6.997v19.883
			c0.023,4.681-2.785,8.912-7.108,10.708c-4.323,1.796-9.302,0.802-12.604-2.516l-14.08-14.08c-2.735-2.73-7.164-2.73-9.899,0
			l-18.005,18.005c-2.731,2.734-2.731,7.164,0,9.899l14.08,14.08c3.319,3.301,4.313,8.281,2.516,12.604
			c-1.796,4.323-6.027,7.131-10.708,7.108h-19.883c-3.857,0.017-6.98,3.14-6.997,6.997v25.429c0.017,3.857,3.14,6.98,6.997,6.997
			h19.883c4.681-0.023,8.912,2.785,10.708,7.108c1.796,4.323,0.802,9.302-2.516,12.604l-14.08,14.08
			c-2.731,2.735-2.731,7.164,0,9.899l18.005,18.005c2.734,2.731,7.164,2.731,9.899,0l14.08-14.08
			c3.301-3.319,8.281-4.313,12.604-2.517c4.323,1.796,7.131,6.027,7.108,10.709v19.883c0.017,3.857,3.14,6.98,6.997,6.997h25.429
			c3.857-0.017,6.98-3.14,6.997-6.997v-19.883c-0.023-4.681,2.785-8.912,7.108-10.709c4.323-1.796,9.303-0.802,12.604,2.517
			l14.08,14.08c2.734,2.731,7.164,2.731,9.899,0l18.005-18.005c2.731-2.735,2.731-7.164,0-9.899l-14.08-14.08
			c-3.319-3.302-4.313-8.281-2.516-12.604s6.027-7.131,10.708-7.108h19.883c3.857-0.017,6.98-3.14,6.997-6.997v-25.429
			C391.516,229.895,388.393,226.772,384.536,226.755z M289.133,277.955c-12.736,0-24.217-7.672-29.091-19.438
			c-4.874-11.766-2.18-25.31,6.826-34.315c9.005-9.005,22.549-11.699,34.315-6.826c11.766,4.874,19.438,16.355,19.438,29.091
			c0.006,8.353-3.31,16.366-9.216,22.272S297.486,277.961,289.133,277.955z"/>
		<path style="fill:#607D8B;" d="M391.533,7.533h25.6c28.268,0.022,51.178,22.932,51.2,51.2v392.533h-25.6V58.733
			C442.711,30.466,419.801,7.556,391.533,7.533z"/>
		<path style="fill:#37474F;" d="M502.467,451.267c-0.022,28.268-22.932,51.178-51.2,51.2h-25.6
			c28.268-0.022,51.178-22.932,51.2-51.2H502.467z"/>
	</g>
	<g>
		<path d="M503.467,443.733h-25.6v-384C477.828,26.759,451.107,0.038,418.133,0h-358.4C26.759,0.038,0.038,26.759,0,59.733
			c-0.001,2.263,0.898,4.434,2.499,6.035c1.6,1.6,3.771,2.499,6.035,2.499H102.4v384c0.038,32.974,26.759,59.695,59.733,59.733
			h290.133c32.974-0.038,59.695-26.759,59.733-59.733c0.001-2.263-0.898-4.434-2.499-6.035
			C507.901,444.632,505.73,443.733,503.467,443.733z M17.925,51.2c4.057-19.866,21.533-34.133,41.808-34.133
			S97.485,31.334,101.542,51.2H17.925z M119.467,452.267V59.733c0.002-16.07-6.493-31.458-18.01-42.667h316.677
			c23.553,0.028,42.639,19.114,42.667,42.667v384H213.333c-2.263-0.001-4.434,0.898-6.035,2.499c-1.6,1.6-2.499,3.771-2.499,6.035
			c0,23.564-19.103,42.667-42.667,42.667S119.467,475.831,119.467,452.267z M452.267,494.933h-248.41
			c9.374-9.162,15.465-21.159,17.329-34.133h272.89C489.994,480.651,472.533,494.907,452.267,494.933z"/>
		<path d="M194.75,275.692h19.892c1.233-0.003,2.345,0.738,2.816,1.877c0.471,1.139,0.208,2.45-0.666,3.318l-14.067,14.067
			c-2.918,2.914-4.558,6.869-4.558,10.994c0,4.124,1.64,8.079,4.558,10.994l17.933,17.929c6.076,6.058,15.908,6.058,21.983,0
			l14.067-14.063c0.87-0.871,2.18-1.133,3.318-0.662c1.138,0.471,1.881,1.581,1.882,2.812v19.896
			c0.011,8.583,6.967,15.537,15.55,15.546h25.35c8.583-0.009,15.539-6.963,15.55-15.546v-19.896
			c0.002-1.231,0.744-2.341,1.881-2.812c1.138-0.471,2.447-0.212,3.319,0.658l14.067,14.067c6.074,6.062,15.909,6.062,21.983,0
			l17.933-17.925c2.918-2.914,4.558-6.869,4.558-10.994c0-4.124-1.64-8.079-4.558-10.994l-14.067-14.075
			c-0.874-0.868-1.136-2.179-0.665-3.317c0.471-1.138,1.584-1.879,2.815-1.875h19.891c8.583-0.009,15.539-6.963,15.55-15.546
			v-25.363c-0.011-8.582-6.968-15.535-15.55-15.542h-19.891c-1.233,0.002-2.346-0.74-2.817-1.88s-0.208-2.451,0.667-3.32
			l14.067-14.067c6.067-6.074,6.067-15.914,0-21.988l-17.933-17.925c-6.072-6.067-15.911-6.067-21.983,0l-14.067,14.058
			c-0.868,0.875-2.179,1.139-3.319,0.669s-1.883-1.582-1.881-2.815v-19.896c-0.011-8.583-6.967-15.537-15.55-15.546h-25.35
			c-8.583,0.009-15.539,6.963-15.55,15.546v19.896c0.001,1.233-0.741,2.344-1.88,2.815c-1.139,0.471-2.45,0.209-3.32-0.665
			l-14.067-14.063c-6.073-6.064-15.908-6.065-21.983-0.004l-17.933,17.929c-6.067,6.074-6.067,15.914,0,21.988l14.067,14.071
			c0.874,0.869,1.137,2.18,0.666,3.318c-0.471,1.139-1.584,1.88-2.816,1.877H194.75c-8.582,0.007-15.539,6.96-15.55,15.542v25.363
			C179.211,268.729,186.167,275.683,194.75,275.692z M196.267,236.308h18.375c8.135,0.001,15.469-4.9,18.581-12.416
			c3.112-7.516,1.39-16.167-4.365-21.917l-12.992-12.992l15.783-15.779l12.992,12.992c5.752,5.753,14.402,7.474,21.918,4.361
			c7.516-3.113,12.416-10.447,12.415-18.582V153.6h22.317v18.375c-0.001,8.135,4.899,15.47,12.416,18.582
			c7.516,3.112,16.167,1.389,21.918-4.365l12.992-12.988l15.783,15.779l-12.992,12.988c-5.755,5.751-7.478,14.402-4.366,21.919
			c3.112,7.517,10.446,12.418,18.582,12.418H384v22.317h-18.375c-8.134-0.002-15.468,4.898-18.581,12.414s-1.39,16.166,4.364,21.916
			l12.992,12.996l-15.783,15.779l-12.992-12.996c-5.754-5.749-14.403-7.467-21.917-4.354c-7.514,3.113-12.414,10.445-12.416,18.579
			v18.375h-22.317v-18.375c-0.001-8.134-4.902-15.466-12.416-18.579c-7.515-3.113-16.165-1.393-21.917,4.358l-12.992,12.992
			l-15.783-15.779l12.992-12.992c5.754-5.75,7.477-14.401,4.365-21.917c-3.112-7.516-10.446-12.417-18.581-12.416h-18.375V236.308z"
			/>
		<path d="M290.133,287.508c22.114,0,40.042-17.927,40.042-40.042s-17.927-40.042-40.042-40.042
			c-22.114,0-40.042,17.927-40.042,40.042C250.118,269.57,268.03,287.482,290.133,287.508z M290.133,224.492
			c12.689,0,22.975,10.286,22.975,22.975s-10.286,22.975-22.975,22.975c-12.689,0-22.975-10.286-22.975-22.975
			C267.174,234.784,277.451,224.507,290.133,224.492z"/>
	</g>
</g>
<g>
</g>
<g>
</g>
<g>
</g>
<g>
</g>
<g>
</g>
<g>
</g>
<g>
</g>
<g>
</g>
<g>
</g>
<g>
</g>
<g>
</g>
<g>
</g>
<g>
</g>
<g>
</g>
<g>
</g>
</svg>
