<?xml version="1.0" encoding="iso-8859-1"?>
<!-- Generator: Adobe Illustrator 19.0.0, SVG Export Plug-In . SVG Version: 6.00 Build 0)  -->
<svg version="1.1" id="Capa_1" xmlns="http://www.w3.org/2000/svg" xmlns:xlink="http://www.w3.org/1999/xlink" x="0px" y="0px"
	 viewBox="0 0 480 480" style="enable-background:new 0 0 480 480;" xml:space="preserve">
<path style="fill:#EA7E73;" d="M430,8.104C395.592,9.168,368,37.328,368,72v24h60c24.304,0,44-19.696,44-44
	C472,28.376,453.368,9.152,430,8.104z"/>
<path style="fill:#EFC062;" d="M430,8.104C430.672,8.08,431.328,8,432,8h-4H256h-88c-30.928,0-56,25.072-56,56v328h184
	c-17.672,0-32,14.328-32,32v1.776C264,451.304,284.696,472,310.224,472H312c30.928,0,56-25.072,56-56V96V72
	C368,37.328,395.592,9.168,430,8.104z"/>
<path style="fill:#EA7E73;" d="M264,425.776V424c0-17.672,14.328-32,32-32H112H48c-22.088,0-40,17.912-40,40s17.912,40,40,40h64
	h198.224C284.696,472,264,451.304,264,425.776z"/>
<g>
	<path style="fill:#122333;" d="M186.344,109.656l11.312-11.312L171.312,72l26.344-26.344l-11.312-11.312l-32,32
		c-3.128,3.128-3.128,8.184,0,11.312L186.344,109.656z"/>
	<path style="fill:#122333;" d="M293.656,109.656l32-32c3.128-3.128,3.128-8.184,0-11.312l-32-32l-11.312,11.312L308.688,72
		l-26.344,26.344L293.656,109.656z"/>
	<rect x="216" y="96" style="fill:#122333;" width="48" height="16"/>
	<rect x="136" y="144" style="fill:#122333;" width="32" height="16"/>
	<rect x="184" y="144" style="fill:#122333;" width="160" height="16"/>
	<rect x="136" y="192" style="fill:#122333;" width="32" height="16"/>
	<rect x="184" y="192" style="fill:#122333;" width="160" height="16"/>
	<rect x="136" y="240" style="fill:#122333;" width="32" height="16"/>
	<rect x="232" y="352" style="fill:#122333;" width="16" height="16"/>
	<rect x="264" y="352" style="fill:#122333;" width="16" height="16"/>
	<rect x="184" y="240" style="fill:#122333;" width="160" height="16"/>
	<path style="fill:#122333;" d="M170.344,290.344l-32,32c-3.128,3.128-3.128,8.184,0,11.312l32,32l11.312-11.312L155.312,328
		l26.344-26.344L170.344,290.344z"/>
	<path style="fill:#122333;" d="M309.656,290.344l-11.312,11.312L324.688,328l-26.344,26.344l11.312,11.312l32-32
		c3.128-3.128,3.128-8.184,0-11.312L309.656,290.344z"/>
	
		<rect x="168.006" y="312.014" transform="matrix(-0.3846 0.9231 -0.9231 -0.3846 600.0211 240.004)" style="fill:#122333;" width="104.002" height="16"/>
	<path style="fill:#122333;" d="M425.784,0c-0.6,0-1.184,0.072-1.784,0.088V0H168c-0.32,0-0.64,0.016-0.952,0.056
		c-34.104,1.4-61.592,28.888-62.992,63C104.016,63.36,104,63.68,104,64v320H48c-26.472,0-48,21.528-48,48s21.528,48,48,48h262.216
		C347.104,480,376,451.888,376,416V65.776C376,38.328,398.328,16,425.784,16C446.848,16,464,33.152,464,54.224
		C464,70.2,451,83.2,435.024,83.2c-11.904,0-21.584-9.68-21.584-21.584c0-8.64,7.032-15.664,15.672-15.664v-16
		c-17.464,0-31.672,14.2-31.672,31.664c0,20.72,16.856,37.584,37.584,37.584c24.8,0,44.976-20.176,44.976-44.976
		C480,24.328,455.68,0,425.784,0z M16,432c0-17.648,14.352-32,32-32h216.208c-5.08,6.704-8.208,14.96-8.208,24v1.776
		c0,14.904,6.048,28.416,15.808,38.224H48C30.352,464,16,449.648,16,432z M360.056,63.048C360.016,63.36,360,63.68,360,64v352
		c0,26.912-21.864,48-49.784,48C289.152,464,272,446.848,272,425.776V424c0-13.232,10.768-24,24-24s24,10.768,24,24h16
		c0-22.056-17.944-40-40-40H120V65.776C120,38.328,142.328,16,169.784,16h213.152C369.568,27.52,360.824,44.256,360.056,63.048z"/>
</g>
<g>
</g>
<g>
</g>
<g>
</g>
<g>
</g>
<g>
</g>
<g>
</g>
<g>
</g>
<g>
</g>
<g>
</g>
<g>
</g>
<g>
</g>
<g>
</g>
<g>
</g>
<g>
</g>
<g>
</g>
</svg>
