<svg height="480pt" viewBox="-64 0 480 480.00001" width="480pt" xmlns="http://www.w3.org/2000/svg"><path d="m344 408h-336l24-400h296zm0 0" fill="#cfdfe8"/><path d="m264 208c0 48.601562-39.398438 88-88 88s-88-39.398438-88-88 39.398438-88 88-88 88 39.398438 88 88zm0 0" fill="#aabece"/><path d="m8 408h336v64h-336zm0 0" fill="#5a6470"/><path d="m288 432h32v16h-32zm0 0" fill="#fff"/><path d="m256 432h16v16h-16zm0 0" fill="#fff"/><path d="m238.222656 145.777344-62.222656 62.222656 62.222656 62.222656c34.367188-34.363281 34.367188-90.082031 0-124.445312zm0 0" fill="#5a6470"/><path d="m208 208c0 17.671875-14.328125 32-32 32s-32-14.328125-32-32 14.328125-32 32-32 32 14.328125 32 32zm0 0" fill="#fff"/><path d="m32 432h16v16h-16zm0 0" fill="#fff"/><path d="m64 432h16v16h-16zm0 0" fill="#fff"/><g fill="#5a6470"><path d="m56 34.785156h16v16h-16zm0 0"/><path d="m288 34.785156h16v16h-16zm0 0"/><path d="m32 368h16v16h-16zm0 0"/><path d="m304 368h16v16h-16zm0 0"/></g><path d="m8 480h336c4.417969 0 8-3.582031 8-8v-64.320312l-16-400c-.171875-4.292969-3.703125-7.68359425-8-7.679688h-296c-4.238281-.0078125-7.746094 3.289062-8 7.519531l-24 400v.480469 64c0 4.417969 3.582031 8 8 8zm31.535156-464h280.800782l15.359374 384h-319.199218zm-23.535156 400h320v48h-320zm0 0"/><path d="m288 432h32v16h-32zm0 0"/><path d="m256 432h16v16h-16zm0 0"/><path d="m271.304688 196.878906c-.320313-2.75-.703126-5.488281-1.257813-8.191406l-.046875-.191406c-3.761719-18.34375-12.847656-35.167969-26.121094-48.375l-5.65625-5.65625-.292968.296875c-38.886719-32.953125-96.75-29.773438-131.785157 7.246093-35.039062 37.019532-35.039062 94.964844 0 131.984376 35.035157 37.019531 92.898438 40.199218 131.785157 7.246093l.292968.296875 5.65625-5.65625c13.273438-13.207031 22.359375-30.03125 26.121094-48.375l.046875-.191406c.554687-2.703125.9375-5.441406 1.257813-8.191406.046874-.472656.152343-.921875.199218-1.394532.660156-6.46875.660156-12.984374 0-19.453124-.046875-.472657-.152344-.921876-.199218-1.394532zm-95.304688 91.121094c-35.234375.035156-66.347656-22.984375-76.613281-56.691406-10.265625-33.707032 2.734375-70.164063 32.007812-89.773438 29.273438-19.609375 67.933594-17.757812 95.199219 4.5625l-28.570312 28.566406c-16.699219-11.074218-39.015626-8.082031-52.210938 6.996094-13.195312 15.082032-13.195312 37.597656 0 52.679688 13.195312 15.078125 35.511719 18.070312 52.210938 6.996094l28.570312 28.566406c-14.257812 11.714844-32.140625 18.113281-50.59375 18.097656zm24-80c-.015625 3.5625-.835938 7.078125-2.398438 10.28125l-10.289062-10.28125 10.289062-10.28125c1.5625 3.203125 2.382813 6.71875 2.398438 10.28125zm-13.71875 21.601562c-3.203125 1.5625-6.71875 2.382813-10.28125 2.398438-13.253906 0-24-10.746094-24-24s10.746094-24 24-24c3.5625.015625 7.078125.835938 10.28125 2.398438l-21.601562 21.601562zm69.328125-13.921874c-.066406.703124-.183594 1.398437-.265625 2.105468-.230469 1.855469-.496094 3.703125-.847656 5.519532-.136719.703124-.304688 1.390624-.457032 2.09375-.414062 1.859374-.871093 3.691406-1.414062 5.488281-.167969.5625-.335938 1.121093-.519531 1.671875-.648438 2-1.363281 4-2.160157 5.90625-.136718.328125-.265624.671875-.410156 1-2.957031 6.890625-6.871094 13.332031-11.625 19.136718l-28.574218-28.570312c8.886718-13.335938 8.886718-30.707031 0-44.046875l28.574218-28.570313c4.753906 5.804688 8.667969 12.246094 11.625 19.136719.144532.328125.273438.671875.410156 1 .796876 1.929688 1.511719 3.90625 2.160157 5.90625.183593.550781.351562 1.109375.519531 1.671875.542969 1.800782 1 3.632813 1.414062 5.488282.152344.703124.320313 1.390624.457032 2.09375.351562 1.816406.617187 3.664062.847656 5.519531.082031.707031.199219 1.402343.265625 2.105469.246094 2.527343.390625 5.078124.390625 7.671874s-.144531 5.136719-.390625 7.664063zm0 0"/><path d="m32 432h16v16h-16zm0 0"/><path d="m64 432h16v16h-16zm0 0"/><path d="m56 34.785156h16v16h-16zm0 0"/><path d="m288 34.785156h16v16h-16zm0 0"/><path d="m32 368h16v16h-16zm0 0"/><path d="m304 368h16v16h-16zm0 0"/></svg>