<?xml version="1.0" encoding="iso-8859-1"?>
<!-- Generator: Adobe Illustrator 19.0.0, SVG Export Plug-In . SVG Version: 6.00 Build 0)  -->
<svg version="1.1" id="Capa_1" xmlns="http://www.w3.org/2000/svg" xmlns:xlink="http://www.w3.org/1999/xlink" x="0px" y="0px"
	 viewBox="0 0 488 488" style="enable-background:new 0 0 488 488;" xml:space="preserve">
<path style="fill:#F6DDCB;" d="M112,488h192c35.344,0,64-28.656,64-64V64c0-31.912,25.864-57.776,57.776-57.776l0,0H168h1.776
	C137.864,6.224,112,32.088,112,64v-1.776V488z"/>
<path style="fill:#EA7E73;" d="M296,392H56c-26.512,0-48,21.488-48,48l0,0c0,26.512,21.488,48,48,48h256l0,0
	c-22.088,0-40-17.912-40-40v-32C272,402.744,282.744,392,296,392L296,392z"/>
<g>
	<path style="fill:#2A60A0;" d="M186.344,117.656l-32-32c-3.128-3.128-3.128-8.184,0-11.312l32-32l11.312,11.312L171.312,80
		l26.344,26.344L186.344,117.656z"/>
	<path style="fill:#2A60A0;" d="M293.656,117.656l-11.312-11.312L308.688,80l-26.344-26.344l11.312-11.312l32,32
		c3.128,3.128,3.128,8.184,0,11.312L293.656,117.656z"/>
	<rect x="216" y="104" style="fill:#2A60A0;" width="48" height="16"/>
	<rect x="136" y="152" style="fill:#2A60A0;" width="32" height="16"/>
	<rect x="184" y="152" style="fill:#2A60A0;" width="160" height="16"/>
	<rect x="136" y="200" style="fill:#2A60A0;" width="32" height="16"/>
	<rect x="184" y="200" style="fill:#2A60A0;" width="160" height="16"/>
	<rect x="136" y="248" style="fill:#2A60A0;" width="32" height="16"/>
	<rect x="232" y="360" style="fill:#2A60A0;" width="16" height="16"/>
	<rect x="264" y="360" style="fill:#2A60A0;" width="16" height="16"/>
	<rect x="184" y="248" style="fill:#2A60A0;" width="160" height="16"/>
	<path style="fill:#2A60A0;" d="M170.344,373.656l-32-32c-3.128-3.128-3.128-8.184,0-11.312l32-32l11.312,11.312L155.312,336
		l26.344,26.344L170.344,373.656z"/>
	<path style="fill:#2A60A0;" d="M309.656,373.656l-11.312-11.312L324.688,336l-26.344-26.344l11.312-11.312l32,32
		c3.128,3.128,3.128,8.184,0,11.312L309.656,373.656z"/>
	
		<rect x="167.997" y="320.025" transform="matrix(-0.3848 0.923 -0.923 -0.3848 607.4185 251.1917)" style="fill:#2A60A0;" width="104" height="16"/>
	<path style="fill:#2A60A0;" d="M310.216,488C280.32,488,256,463.672,256,433.776V432c0-22.056,17.944-40,40-40s40,17.944,40,40h-16
		c0-13.232-10.768-24-24-24s-24,10.768-24,24v1.776C272,454.848,289.152,472,310.216,472c27.92,0,49.784-21.088,49.784-48V64
		c0-0.32,0.016-0.64,0.056-0.952C361.496,28.04,390.424,0,425.784,0C455.68,0,480,24.328,480,54.224
		c0,24.8-20.176,44.976-44.976,44.976c-20.728,0-37.584-16.856-37.584-37.584c0-17.464,14.208-31.664,31.672-31.664v16
		c-8.64,0-15.672,7.024-15.672,15.664c0,11.896,9.68,21.584,21.584,21.584C451,83.2,464,70.2,464,54.224
		C464,33.152,446.848,16,425.784,16C398.328,16,376,38.328,376,65.776V424C376,459.888,347.104,488,310.216,488z"/>
</g>
<g>
</g>
<g>
</g>
<g>
</g>
<g>
</g>
<g>
</g>
<g>
</g>
<g>
</g>
<g>
</g>
<g>
</g>
<g>
</g>
<g>
</g>
<g>
</g>
<g>
</g>
<g>
</g>
<g>
</g>
</svg>
