<?xml version="1.0" encoding="iso-8859-1"?>
<!-- Generator: Adobe Illustrator 19.0.0, SVG Export Plug-In . SVG Version: 6.00 Build 0)  -->
<svg version="1.1" id="Capa_1" xmlns="http://www.w3.org/2000/svg" xmlns:xlink="http://www.w3.org/1999/xlink" x="0px" y="0px"
	 viewBox="0 0 498.558 498.558" style="enable-background:new 0 0 498.558 498.558;" xml:space="preserve">
<path style="fill:#FFCA19;" d="M454.079,220.891c0,112.64-92.16,204.8-204.8,204.8c-16.091,0-30.72-1.463-45.349-5.851
	l-95.086,64.366l14.629-100.937c-48.274-38.034-78.994-96.549-78.994-162.377c0-112.64,92.16-204.8,204.8-204.8
	S454.079,108.251,454.079,220.891z"/>
<g style="opacity:0.1;">
	<path style="fill:#030303;" d="M449.691,179.931c-36.571-32.183-83.383-51.2-136.046-51.2c-112.64,0-204.8,92.16-204.8,204.8
		c0,14.629,1.463,27.794,4.389,40.96c-42.423-38.034-68.754-92.16-68.754-152.137c0-112.64,92.16-204.8,204.8-204.8
		C348.753,16.091,430.673,86.309,449.691,179.931z"/>
</g>
<path style="fill:#77C587;" d="M123.473,383.269l-2.926,19.017c-2.926-8.777-5.851-19.017-7.314-27.794
	C117.622,377.417,120.548,380.343,123.473,383.269z"/>
<path d="M101.531,495.909c-4.389-2.926-7.314-8.777-7.314-14.629l14.629-93.623c-49.737-42.423-78.994-102.4-78.994-168.229
	C29.851,98.011,127.862,0,249.279,0s219.429,98.011,219.429,219.429s-98.011,219.429-219.429,219.429
	c-14.629,0-29.257-1.463-42.423-4.389l-89.234,59.977C111.771,498.834,105.919,500.297,101.531,495.909z M249.279,30.72
	c-105.326,0-190.171,84.846-190.171,190.171c0,58.514,26.331,114.103,73.143,150.674c4.389,2.926,5.851,8.777,5.851,13.166
	l-10.24,68.754l67.291-45.349c2.926-2.926,7.314-2.926,11.703-1.463c14.629,2.926,27.794,4.389,42.423,4.389
	c105.326,0,190.171-84.846,190.171-190.171S354.605,30.72,249.279,30.72z"/>
<path d="M249.279,299.886c-8.777,0-14.629-5.851-14.629-14.629v-48.274c0-8.777,5.851-14.629,14.629-14.629
	c20.48,0,36.571-16.091,36.571-36.571s-16.091-36.571-36.571-36.571s-36.571,16.091-36.571,36.571
	c0,8.777-5.851,14.629-14.629,14.629c-8.777,0-14.629-5.851-14.629-14.629c0-36.571,29.257-65.829,65.829-65.829
	s65.829,29.257,65.829,65.829c0,30.72-21.943,57.051-51.2,64.366v35.109C263.908,292.571,258.056,299.886,249.279,299.886z"/>
<path d="M239.039,337.92c-5.851-5.851-5.851-16.091,0-20.48c5.851-5.851,14.629-5.851,20.48,0c5.851,5.851,5.851,14.629,0,20.48
	C253.668,345.234,244.891,343.771,239.039,337.92z"/>
<g>
</g>
<g>
</g>
<g>
</g>
<g>
</g>
<g>
</g>
<g>
</g>
<g>
</g>
<g>
</g>
<g>
</g>
<g>
</g>
<g>
</g>
<g>
</g>
<g>
</g>
<g>
</g>
<g>
</g>
</svg>
