<?xml version="1.0" encoding="iso-8859-1"?>
<!-- Generator: Adobe Illustrator 19.0.0, SVG Export Plug-In . SVG Version: 6.00 Build 0)  -->
<svg version="1.1" id="Capa_1" xmlns="http://www.w3.org/2000/svg" xmlns:xlink="http://www.w3.org/1999/xlink" x="0px" y="0px"
	 viewBox="0 0 480 480" style="enable-background:new 0 0 480 480;" xml:space="preserve">
<linearGradient id="SVGID_1_" gradientUnits="userSpaceOnUse" x1="-58.9486" y1="595.875" x2="27.5844" y2="595.875" gradientTransform="matrix(8 0 0 -8 455.0042 4941)">
	<stop  offset="0" style="stop-color:#E93E3A"/>
	<stop  offset="0.366" style="stop-color:#ED683C"/>
	<stop  offset="0.715" style="stop-color:#F3903F"/>
	<stop  offset="1" style="stop-color:#FDC70C"/>
</linearGradient>
<path style="fill:url(#SVGID_1_);" d="M123.999,176c-11.046,0-20-8.954-20-20h-16c0,19.882,16.118,36,36,36s36-16.118,36-36h-16
	C143.999,167.046,135.045,176,123.999,176z"/>
<g>
	
		<linearGradient id="SVGID_2_" gradientUnits="userSpaceOnUse" x1="-58.9486" y1="587.625" x2="27.5844" y2="587.625" gradientTransform="matrix(8 0 0 -8 455.0042 4941)">
		<stop  offset="0" style="stop-color:#E93E3A"/>
		<stop  offset="0.366" style="stop-color:#ED683C"/>
		<stop  offset="0.715" style="stop-color:#F3903F"/>
		<stop  offset="1" style="stop-color:#FDC70C"/>
	</linearGradient>
	<path style="fill:url(#SVGID_2_);" d="M447.999,304c-0.044,39.746-32.254,71.956-72,72c-4.418,0-8,3.582-8,8v80h-176v-72h40v-16
		h-112c-22.08-0.026-39.974-17.92-40-40v-64c0-4.418-3.582-8-8-8h-36.92l52.312-157.984C108.971,52.061,161.019,16.497,219.127,16
		h108.872V0H219.127c-64.78,0.533-122.785,40.242-146.72,100.44l-56,169.048c-1.387,4.195,0.889,8.72,5.083,10.107
		C22.3,279.863,23.147,280,23.999,280h40v56c0.035,30.913,25.087,55.965,56,56h56v80c0,4.418,3.582,8,8,8h192c4.418,0,8-3.582,8-8
		v-80.36c45.288-4.191,79.946-42.159,80-87.64V136h-16V304z"/>
	
		<linearGradient id="SVGID_3_" gradientUnits="userSpaceOnUse" x1="-58.9486" y1="596.625" x2="27.5844" y2="596.625" gradientTransform="matrix(8 0 0 -8 455.0042 4941)">
		<stop  offset="0" style="stop-color:#E93E3A"/>
		<stop  offset="0.366" style="stop-color:#ED683C"/>
		<stop  offset="0.715" style="stop-color:#F3903F"/>
		<stop  offset="1" style="stop-color:#FDC70C"/>
	</linearGradient>
	<path style="fill:url(#SVGID_3_);" d="M439.999,32h-176c-13.255,0-24,10.745-24,24v200h-24c-4.418,0-8,3.582-8,8v14.64
		c0.018,13.999,11.361,25.342,25.36,25.36h174.64c13.255,0,24-10.745,24-24V80h24c4.418,0,8-3.582,8-8V56
		C463.999,42.745,453.254,32,439.999,32z M233.359,288c-5.168-0.004-9.356-4.192-9.36-9.36V272h160v8
		c-0.001,2.725,0.461,5.43,1.368,8H233.359z M415.999,280c0,4.418-3.582,8-8,8s-8-3.582-8-8v-16c0-4.418-3.582-8-8-8h-136V56
		c0-4.418,3.582-8,8-8h152V280z M447.999,64h-16V48h8c4.418,0,8,3.582,8,8V64z"/>
	
		<linearGradient id="SVGID_4_" gradientUnits="userSpaceOnUse" x1="-58.9486" y1="606.625" x2="27.5844" y2="606.625" gradientTransform="matrix(8 0 0 -8 455.0042 4941)">
		<stop  offset="0" style="stop-color:#E93E3A"/>
		<stop  offset="0.366" style="stop-color:#ED683C"/>
		<stop  offset="0.715" style="stop-color:#F3903F"/>
		<stop  offset="1" style="stop-color:#FDC70C"/>
	</linearGradient>
	<path style="fill:url(#SVGID_4_);" d="M271.999,80h128v16h-128V80z"/>
	
		<linearGradient id="SVGID_5_" gradientUnits="userSpaceOnUse" x1="-58.9486" y1="602.625" x2="27.5844" y2="602.625" gradientTransform="matrix(8 0 0 -8 455.0042 4941)">
		<stop  offset="0" style="stop-color:#E93E3A"/>
		<stop  offset="0.366" style="stop-color:#ED683C"/>
		<stop  offset="0.715" style="stop-color:#F3903F"/>
		<stop  offset="1" style="stop-color:#FDC70C"/>
	</linearGradient>
	<path style="fill:url(#SVGID_5_);" d="M271.999,112h128v16h-128V112z"/>
	
		<linearGradient id="SVGID_6_" gradientUnits="userSpaceOnUse" x1="-58.9486" y1="598.625" x2="27.5844" y2="598.625" gradientTransform="matrix(8 0 0 -8 455.0042 4941)">
		<stop  offset="0" style="stop-color:#E93E3A"/>
		<stop  offset="0.366" style="stop-color:#ED683C"/>
		<stop  offset="0.715" style="stop-color:#F3903F"/>
		<stop  offset="1" style="stop-color:#FDC70C"/>
	</linearGradient>
	<path style="fill:url(#SVGID_6_);" d="M271.999,144h128v16h-128V144z"/>
	
		<linearGradient id="SVGID_7_" gradientUnits="userSpaceOnUse" x1="-58.9486" y1="594.625" x2="27.5844" y2="594.625" gradientTransform="matrix(8 0 0 -8 455.0042 4941)">
		<stop  offset="0" style="stop-color:#E93E3A"/>
		<stop  offset="0.366" style="stop-color:#ED683C"/>
		<stop  offset="0.715" style="stop-color:#F3903F"/>
		<stop  offset="1" style="stop-color:#FDC70C"/>
	</linearGradient>
	<path style="fill:url(#SVGID_7_);" d="M271.999,176h128v16h-128V176z"/>
	
		<linearGradient id="SVGID_8_" gradientUnits="userSpaceOnUse" x1="-58.9486" y1="590.625" x2="27.5844" y2="590.625" gradientTransform="matrix(8 0 0 -8 455.0042 4941)">
		<stop  offset="0" style="stop-color:#E93E3A"/>
		<stop  offset="0.366" style="stop-color:#ED683C"/>
		<stop  offset="0.715" style="stop-color:#F3903F"/>
		<stop  offset="1" style="stop-color:#FDC70C"/>
	</linearGradient>
	<path style="fill:url(#SVGID_8_);" d="M271.999,208h128v16h-128V208z"/>
</g>
<g>
</g>
<g>
</g>
<g>
</g>
<g>
</g>
<g>
</g>
<g>
</g>
<g>
</g>
<g>
</g>
<g>
</g>
<g>
</g>
<g>
</g>
<g>
</g>
<g>
</g>
<g>
</g>
<g>
</g>
</svg>
