<svg height="475pt" viewBox="0 -50 475.90357 475" width="475pt" xmlns="http://www.w3.org/2000/svg"><path d="m466.402344 29.953125v187.601563c.003906 11.046874-8.953125 20.003906-20 20h-18.101563v47.5l-64.101562-47.5h-193c-11.046875.003906-20-8.953126-20-20v-187.601563c-.015625-5.308594 2.085937-10.40625 5.839843-14.160156 3.753907-3.753907 8.851563-5.855469 14.160157-5.839844h275.300781c11.015625.042969 19.914062 8.988281 19.902344 20zm0 0" fill="#00acea"/><path d="m295.601562 237.554688v62.601562c.003907 11.046875-8.953124 20-20 20h-170l-60.800781 44.699219v-44.699219h-15.199219c-11.046874 0-20.003906-8.953125-20-20v-194.203125c-.003906-11.046875 8.953126-20.003906 20-20h121.597657v131.601563c0 11.046874 8.953125 20.003906 20 20zm0 0" fill="#00efd1"/><g fill="#083863"><path d="m446.402344.453125h-275.203125c-16.597657 0-30.199219 13-30.199219 29.5v46.5h-111.398438c-7.859374-.089844-15.429687 2.984375-20.996093 8.535156-5.566407 5.546875-8.667969 13.105469-8.605469 20.964844v194.203125c0 16.5 13 30.199219 29.601562 30.199219h5.398438v34.5c-.027344 5.496093 4.40625 9.972656 9.902344 10 2.109375.066406 4.183594-.566407 5.898437-1.800781l58.101563-42.699219h166.597656c16.5 0 30.402344-13.699219 30.402344-30.199219v-52.703125h54.898437l61.5 45.601563c1.734375 1.292968 3.835938 1.996093 6 2 1.507813.027343 2.992188-.351563 4.300781-1.101563 3.335938-1.695313 5.398438-5.15625 5.300782-8.898437v-37.601563h8.398437c7.902344 0 15.476563-3.15625 21.039063-8.773437 5.558594-5.617188 8.640625-13.222657 8.5625-21.125v-187.601563c.101562-7.855469-2.972656-15.417969-8.527344-20.972656-5.554688-5.554688-13.117188-8.628907-20.972656-8.527344zm-160.402344 299.800781c-.1875 5.632813-4.765625 10.121094-10.398438 10.199219h-170c-2.101562-.003906-4.160156.625-5.902343 1.800781l-44.699219 32.902344v-24.902344c-.039062-2.640625-1.125-5.15625-3.019531-6.992187-1.894531-1.839844-4.441407-2.847657-7.078125-2.808594h-15.300782c-5.5 0-9.601562-4.699219-9.601562-10.199219v-194.300781c-.0625-2.554687.933594-5.023437 2.75-6.820313 1.816406-1.800781 4.296875-2.769531 6.851562-2.679687h111.398438v121.101563c.117188 16.582031 13.617188 29.949218 30.199219 29.898437h114.800781zm170-82.699218c.078125 2.597656-.898438 5.113281-2.707031 6.980468-1.808594 1.863282-4.292969 2.917969-6.890625 2.917969h-18.101563c-5.59375.039063-10.152343 4.507813-10.300781 10.101563v27.699218l-48-35.800781c-1.648438-1.304687-3.695312-2.007813-5.800781-2h-193c-5.546875.082031-10.113281-4.347656-10.199219-9.898437v-187.601563c0-5.5 4.601562-9.5 10.199219-9.5h275.300781c2.554688-.089844 5.035156.878906 6.851562 2.679687 1.816407 1.796876 2.8125 4.265626 2.75 6.820313v187.601563zm0 0"/><path d="m309 60.453125c-5.515625.015625-9.984375 4.484375-10 10v66c0 5.523437 4.476562 10 10 10s10-4.476563 10-10v-66c-.015625-5.515625-4.484375-9.984375-10-10zm0 0"/><path d="m309 150.453125c-5.515625.015625-9.984375 4.484375-10 10v16c0 5.523437 4.476562 10 10 10s10-4.476563 10-10v-16c-.015625-5.515625-4.484375-9.984375-10-10zm0 0"/></g></svg>