<svg height="512pt" viewBox="0 -117 512 512" width="512pt" xmlns="http://www.w3.org/2000/svg"><path d="m432.847656 123.582031-69.367187-51.507812-94.089844-18.542969-154.527344 34.339844-65.242187 88.597656 43.09375 101.476562h109.371094l53.914062-26.957031 53.914062 26.957031h109.371094l45.15625-45.847656zm0 0" fill="#efedee"/><path d="m363.480469 72.074219-94.089844-18.542969-154.527344 34.339844-65.242187 88.597656 43.09375 101.476562h25.757812v-21.945312c0-37.402344 14.816406-72.410156 41.726563-98.570312 25.84375-25.125 59.867187-38.957032 95.800781-38.957032s69.957031 13.832032 95.796875 38.953125c26.914063 26.167969 41.730469 61.171875 41.730469 98.574219v21.945312h25.757812l45.15625-45.847656-31.59375-108.511718zm0 0" fill="#d9d7d8"/><path d="m114.863281 87.871094-38.238281-14.53125c-.554688.542968-1.101562 1.089844-1.648438 1.636718-46.316406 46.328126-74.976562 110.320313-74.976562 181.023438v21.941406h92.714844v-21.941406c0-45.851562 18.996094-87.347656 49.53125-117.039062zm0 0" fill="#fb7073"/><path d="m397.136719 87.871094 38.238281-14.53125c.554688.542968 1.101562 1.089844 1.648438 1.636718 46.316406 46.328126 74.976562 110.320313 74.976562 181.023438v21.941406h-92.714844v-21.941406c0-45.851562-18.996094-87.347656-49.53125-117.039062zm0 0" fill="#5bb68d"/><path d="m265.601562 133.484375c-.582031-4.863281-4.703124-8.527344-9.601562-8.527344s-9.019531 3.664063-9.601562 8.527344l-13.75 115.4375h46.703124zm0 0" fill="#5bb68d"/><path d="m273.554688 200.25c-5.652344-1.277344-11.523438-1.972656-17.554688-1.972656s-11.902344.695312-17.554688 1.972656l-5.796874 48.671875h46.703124zm0 0" fill="#51a27d"/><path d="m202.085938 277.945312c0-29.777343 24.140624-53.914062 53.914062-53.914062s53.914062 24.136719 53.914062 53.914062zm0 0" fill="#596673"/><path d="m435.375 73.339844-65.621094 65.621094c-29.433594-28.609376-69.570312-46.246094-113.753906-46.246094s-84.320312 17.636718-113.753906 46.246094l-65.621094-65.621094c46.203125-45.359375 109.519531-73.339844 179.375-73.339844s133.171875 27.980469 179.375 73.339844zm0 0" fill="#f9db69"/><g fill="#464c51"><path d="m182.050781 67.441406c-4.269531 0-7.726562-3.460937-7.726562-7.726562v-13.382813c0-4.269531 3.457031-7.726562 7.726562-7.726562 4.265625 0 7.726563 3.457031 7.726563 7.726562v13.382813c0 4.265625-3.460938 7.726562-7.726563 7.726562zm0 0"/><path d="m329.949219 67.441406c-4.265625 0-7.726563-3.460937-7.726563-7.726562v-13.382813c0-4.269531 3.460938-7.726562 7.726563-7.726562 4.269531 0 7.726562 3.457031 7.726562 7.726562v13.382813c0 4.265625-3.457031 7.726562-7.726562 7.726562zm0 0"/><path d="m256 74.585938c-9.34375 0-18.117188-3.90625-24.070312-10.71875-2.808594-3.210938-2.480469-8.09375.734374-10.902344 3.210938-2.808594 8.09375-2.480469 10.902344.734375 3.019532 3.453125 7.550782 5.433593 12.433594 5.433593s9.414062-1.980468 12.433594-5.433593c2.808594-3.214844 7.691406-3.542969 10.902344-.734375 3.214843 2.808594 3.542968 7.691406.734374 10.902344-5.953124 6.8125-14.726562 10.71875-24.070312 10.71875zm0 0"/></g></svg>