<svg height="448pt" viewBox="0 -48 448 448" width="448pt" xmlns="http://www.w3.org/2000/svg"><path d="m304 0h-288c-8.835938 0-16 7.164062-16 16v287.199219l79.199219-79.199219h48.800781v-160c0-8.835938 7.164062-16 16-16h176v-32c0-8.835938-7.164062-16-16-16zm0 0" fill="#85eceb"/><path d="m432 48h-288c-8.835938 0-16 7.164062-16 16v287.199219l79.199219-79.199219h224.800781c8.835938 0 16-7.164062 16-16v-192c0-8.835938-7.164062-16-16-16zm0 0" fill="#ffc477"/><path d="m264 192v-72c0-13.253906-10.746094-24-24-24h-40c-13.253906 0-24 10.746094-24 24v72c0 13.253906 10.746094 24 24 24h40c3.5625-.015625 7.078125-.835938 10.28125-2.398438l13.320312 13.320313 11.308594-11.3125-13.308594-13.328125c1.5625-3.203125 2.382813-6.71875 2.398438-10.28125zm-64 8c-4.417969 0-8-3.582031-8-8v-72c0-4.417969 3.582031-8 8-8h40c4.417969 0 8 3.582031 8 8v68.6875l-18.34375-18.34375-11.3125 11.3125 18.34375 18.34375zm0 0" fill="#ff7956"/><path d="m280 152h32v16h-32zm0 0" fill="#ff7956"/><path d="m400 96h-64c-4.417969 0-8 3.582031-8 8v112h16v-56h48v56h16v-112c0-4.417969-3.582031-8-8-8zm-56 48v-32h48v32zm0 0" fill="#ff7956"/><g fill="#ff9478"><path d="m40 40h32v16h-32zm0 0"/><path d="m88 40h24v16h-24zm0 0"/><path d="m40 80h72v16h-72zm0 0"/><path d="m40 120h72v16h-72zm0 0"/><path d="m40 160h16v16h-16zm0 0"/><path d="m72 160h40v16h-40zm0 0"/></g></svg>