<?xml version="1.0" encoding="iso-8859-1"?>
<!-- Generator: Adobe Illustrator 19.0.0, SVG Export Plug-In . SVG Version: 6.00 Build 0)  -->
<svg version="1.1" id="Capa_1" xmlns="http://www.w3.org/2000/svg" xmlns:xlink="http://www.w3.org/1999/xlink" x="0px" y="0px"
	 viewBox="0 0 480 480" style="enable-background:new 0 0 480 480;" xml:space="preserve">
<path style="fill:#D1E7F8;" d="M183.999,472v-88h-64c0,0-48,0-48-48v-64h-48l56-168c0,0,40-96,136-96h176c0,0,64-8,64,64v240
	c0,0-8,72-80,72v88H183.999z"/>
<path style="fill:#FFC477;" d="M391.999,40h-128c-8.837,0-16,7.163-16,16v208h144v16c0,8.837,7.163,16,16,16s16-7.163,16-16V40
	H391.999z"/>
<path style="fill:#FFB655;" d="M439.999,40h-16v32h32V56C455.973,47.174,448.825,40.026,439.999,40z"/>
<path style="fill:#FFDAAA;" d="M391.999,280v-16h-176v14.64c-0.009,9.579,7.749,17.351,17.328,17.36c0.011,0,0.021,0,0.032,0h174.64
	C399.174,295.974,392.026,288.826,391.999,280z"/>
<g>
	<path style="fill:#353535;" d="M123.999,176c-11.046,0-20-8.954-20-20h-16c0,19.882,16.118,36,36,36s36-16.118,36-36h-16
		C143.999,167.046,135.045,176,123.999,176z"/>
	<path style="fill:#353535;" d="M447.999,304c-0.044,39.746-32.254,71.956-72,72c-4.418,0-8,3.582-8,8v80h-176v-72h40v-16h-112
		c-22.08-0.026-39.974-17.92-40-40v-64c0-4.418-3.582-8-8-8h-36.92l52.312-157.984C108.971,52.061,161.019,16.497,219.127,16
		h108.872V0H219.127c-64.78,0.533-122.785,40.242-146.72,100.44l-56,169.048c-1.387,4.195,0.889,8.72,5.083,10.107
		C22.3,279.863,23.147,280,23.999,280h40v56c0.035,30.913,25.087,55.965,56,56h56v80c0,4.418,3.582,8,8,8h192c4.418,0,8-3.582,8-8
		v-80.36c45.288-4.191,79.946-42.159,80-87.64V136h-16V304z"/>
	<path style="fill:#353535;" d="M439.999,32h-176c-13.255,0-24,10.745-24,24v200h-24c-4.418,0-8,3.582-8,8v14.64
		c0.018,13.999,11.361,25.342,25.36,25.36h174.64c13.255,0,24-10.745,24-24V80h24c4.418,0,8-3.582,8-8V56
		C463.999,42.745,453.254,32,439.999,32z M233.359,288c-5.168-0.004-9.356-4.192-9.36-9.36V272h160v8
		c-0.001,2.725,0.461,5.43,1.368,8H233.359z M415.999,280c0,4.418-3.582,8-8,8s-8-3.582-8-8v-16c0-4.418-3.582-8-8-8h-136V56
		c0-4.418,3.582-8,8-8h152V280z M447.999,64h-16V48h8c4.418,0,8,3.582,8,8V64z"/>
	<path style="fill:#353535;" d="M271.999,80h128v16h-128V80z"/>
	<path style="fill:#353535;" d="M271.999,112h128v16h-128V112z"/>
	<path style="fill:#353535;" d="M271.999,144h128v16h-128V144z"/>
	<path style="fill:#353535;" d="M271.999,176h128v16h-128V176z"/>
	<path style="fill:#353535;" d="M271.999,208h128v16h-128V208z"/>
</g>
<g>
</g>
<g>
</g>
<g>
</g>
<g>
</g>
<g>
</g>
<g>
</g>
<g>
</g>
<g>
</g>
<g>
</g>
<g>
</g>
<g>
</g>
<g>
</g>
<g>
</g>
<g>
</g>
<g>
</g>
</svg>
