<?xml version="1.0" encoding="iso-8859-1"?>
<!-- Generator: Adobe Illustrator 19.0.0, SVG Export Plug-In . SVG Version: 6.00 Build 0)  -->
<svg version="1.1" id="Capa_1" xmlns="http://www.w3.org/2000/svg" xmlns:xlink="http://www.w3.org/1999/xlink" x="0px" y="0px"
	 viewBox="0 0 512 512" style="enable-background:new 0 0 512 512;" xml:space="preserve">
<path style="fill:#57565C;" d="M512,512H0V0h512V512z"/>
<path style="fill:#3E3D42;" d="M512,512H256V0h256V512z"/>
<path style="fill:#E5E5E5;" d="M482,482H30V30h452V482z"/>
<path style="fill:#CCCCCC;" d="M482,482H256V30h226V482z"/>
<path style="fill:#57565C;" d="M422.17,273.678L280.749,132.257l0.001-0.001c11.695-11.697,11.695-30.729-0.001-42.426
	c-11.698-11.697-30.73-11.695-42.427,0l0,0l-127.28,127.28c-11.695,11.697-11.695,30.729,0.001,42.425l120.208,120.208l-0.001,0.001
	c-11.695,11.697-11.695,30.729,0.001,42.426c5.849,5.848,13.531,8.772,21.213,8.772c7.683,0,15.365-2.924,21.214-8.772l0,0
	L422.17,273.678z M132.256,238.322l21.214-21.213l21.213,21.213l84.853-84.853l120.209,120.208L273.678,379.744L132.256,238.322z"/>
<path style="fill:#3E3D42;" d="M280.749,132.257L280.749,132.257c11.696-11.698,11.696-30.729,0-42.427
	c-6.748-6.747-15.936-9.594-24.749-8.556v75.731l3.535-3.535l120.209,120.208L273.678,379.744L256,362.066v68.661
	c6.465-0.761,12.728-3.607,17.677-8.556l0,0L422.17,273.678L280.749,132.257z"/>
<g>
</g>
<g>
</g>
<g>
</g>
<g>
</g>
<g>
</g>
<g>
</g>
<g>
</g>
<g>
</g>
<g>
</g>
<g>
</g>
<g>
</g>
<g>
</g>
<g>
</g>
<g>
</g>
<g>
</g>
</svg>
