<svg height="512pt" viewBox="0 -4 512 511" width="512pt" xmlns="http://www.w3.org/2000/svg"><path d="m312.867188 426.238281c-3.167969-4.753906-8.492188-7.605469-14.199219-7.605469h-25.601563v-59.734374h-34.132812v59.734374h-25.601563c-5.707031 0-11.03125 2.851563-14.199219 7.605469l-34.132812 51.199219c-5.230469 7.839844-3.113281 18.441406 4.738281 23.660156 2.90625 1.949219 6.195313 2.867188 9.445313 2.867188 5.511718 0 10.929687-2.660156 14.214844-7.601563l29.066406-43.597656h16.46875v34.132813c0 9.421874 7.644531 17.066406 17.066406 17.066406s17.066406-7.644532 17.066406-17.066406v-34.132813h16.46875l29.066406 43.597656c3.285157 4.941407 8.695313 7.601563 14.214844 7.601563 3.25 0 6.546875-.917969 9.445313-2.867188 7.84375-5.230468 9.960937-15.820312 4.738281-23.660156zm0 0" fill="#556080"/><path d="m25.601562 26.101562v324.265626h460.796876v-324.265626zm0 0" fill="#e7eced"/><path d="m68.265625 333.300781h375.46875v34.132813h-375.46875zm0 0" fill="#7383bf"/><path d="m503.464844 34.632812h-494.929688c-4.710937 0-8.535156-3.824218-8.535156-8.53125 0-4.710937 3.824219-8.535156 8.535156-8.535156h494.929688c4.710937 0 8.535156 3.824219 8.535156 8.535156 0 4.707032-3.824219 8.53125-8.535156 8.53125zm0 0" fill="#7383bf"/><path d="m256 51.699219c-4.710938 0-8.535156-3.820313-8.535156-8.53125v-34.132813c0-4.710937 3.824218-8.535156 8.535156-8.535156s8.535156 3.824219 8.535156 8.535156v34.132813c0 4.710937-3.824218 8.53125-8.535156 8.53125zm0 0" fill="#556080"/><path d="m404.746094 282.101562h35.308594c2.03125 0 3.679687-1.648437 3.679687-3.679687v-120.644531c0-2.03125-1.648437-3.675782-3.679687-3.675782h-35.308594c-2.03125 0-3.679688 1.644532-3.679688 3.675782v120.644531c0 2.03125 1.648438 3.679687 3.679688 3.679687zm0 0" fill="#c5411e"/><path d="m327.945312 282.101562h35.308594c2.03125 0 3.679688-1.648437 3.679688-3.679687v-52.378906c0-2.03125-1.648438-3.675781-3.679688-3.675781h-35.308594c-2.03125 0-3.679687 1.644531-3.679687 3.675781v52.378906c0 2.03125 1.648437 3.679687 3.679687 3.679687zm0 0" fill="#dc691d"/><path d="m174.34375 282.101562h35.3125c2.03125 0 3.675781-1.648437 3.675781-3.679687v-26.777344c0-2.03125-1.644531-3.679687-3.675781-3.679687h-35.3125c-2.03125 0-3.675781 1.648437-3.675781 3.679687v26.777344c0 2.03125 1.644531 3.679687 3.675781 3.679687zm0 0" fill="#ebba16"/><path d="m251.144531 282.101562h35.3125c2.03125 0 3.675781-1.648437 3.675781-3.679687v-86.511719c0-2.03125-1.644531-3.675781-3.675781-3.675781h-35.3125c-2.03125 0-3.679687 1.644531-3.679687 3.675781v86.511719c0 2.03125 1.648437 3.679687 3.679687 3.679687zm0 0" fill="#ed8a19"/><g fill="#dd352e"><path d="m170.667969 213.832031c-2.1875 0-4.371094-.835937-6.035157-2.5-3.335937-3.335937-3.335937-8.730469 0-12.066406l93.867188-93.867187c2.875-2.875 7.382812-3.316407 10.769531-1.066407l70.367188 46.910157 71.898437-87.878907c2.988282-3.652343 8.363282-4.179687 12.007813-1.203125 3.644531 2.988282 4.183593 8.355469 1.203125 12.007813l-76.800782 93.867187c-2.773437 3.40625-7.679687 4.136719-11.339843 1.699219l-70.980469-47.320313-88.917969 88.917969c-1.671875 1.664063-3.855469 2.5-6.039062 2.5zm0 0"/><path d="m418.132812 77.300781h-42.667968c-4.707032 0-8.53125-3.824219-8.53125-8.535156s3.824218-8.53125 8.53125-8.53125h42.667968c4.710938 0 8.535157 3.820313 8.535157 8.53125s-3.824219 8.535156-8.535157 8.535156zm0 0"/><path d="m418.132812 119.964844c-4.710937 0-8.53125-3.820313-8.53125-8.53125v-42.667969c0-4.710937 3.820313-8.53125 8.53125-8.53125 4.710938 0 8.535157 3.820313 8.535157 8.53125v42.667969c0 4.710937-3.824219 8.53125-8.535157 8.53125zm0 0"/></g><path d="m128 256.5h-68.265625c-4.710937 0-8.535156-3.824219-8.535156-8.535156 0-4.707032 3.824219-8.53125 8.535156-8.53125h68.265625c4.710938 0 8.535156 3.824218 8.535156 8.53125 0 4.710937-3.824218 8.535156-8.535156 8.535156zm0 0" fill="#25ae88"/><path d="m93.867188 290.632812h-34.132813c-4.710937 0-8.535156-3.824218-8.535156-8.53125 0-4.710937 3.824219-8.535156 8.535156-8.535156h34.132813c4.710937 0 8.53125 3.824219 8.53125 8.535156 0 4.707032-3.820313 8.53125-8.53125 8.53125zm0 0" fill="#366db6"/><path d="m128 171.167969h-68.265625c-4.710937 0-8.535156-3.824219-8.535156-8.535157 0-4.710937 3.824219-8.53125 8.535156-8.53125h68.265625c4.710938 0 8.535156 3.820313 8.535156 8.53125 0 4.710938-3.824218 8.535157-8.535156 8.535157zm0 0" fill="#bf4d90"/><path d="m93.867188 205.300781h-34.132813c-4.710937 0-8.535156-3.824219-8.535156-8.535156s3.824219-8.53125 8.535156-8.53125h34.132813c4.710937 0 8.53125 3.820313 8.53125 8.53125s-3.820313 8.535156-8.53125 8.535156zm0 0" fill="#75348b"/><path d="m128 85.832031h-68.265625c-4.710937 0-8.535156-3.820312-8.535156-8.53125 0-4.710937 3.824219-8.535156 8.535156-8.535156h68.265625c4.710938 0 8.535156 3.824219 8.535156 8.535156 0 4.710938-3.824218 8.53125-8.535156 8.53125zm0 0" fill="#61b872"/><path d="m93.867188 119.964844h-34.132813c-4.710937 0-8.535156-3.820313-8.535156-8.53125 0-4.710938 3.824219-8.535156 8.535156-8.535156h34.132813c4.710937 0 8.53125 3.824218 8.53125 8.535156 0 4.710937-3.820313 8.53125-8.53125 8.53125zm0 0" fill="#ed8a19"/></svg>