<?xml version="1.0" encoding="iso-8859-1"?>
<!-- Generator: Adobe Illustrator 19.0.0, SVG Export Plug-In . SVG Version: 6.00 Build 0)  -->
<svg version="1.1" id="Layer_1" xmlns="http://www.w3.org/2000/svg" xmlns:xlink="http://www.w3.org/1999/xlink" x="0px" y="0px"
	 viewBox="0 0 512 512" style="enable-background:new 0 0 512 512;" xml:space="preserve">
<g>
	<path style="fill:#D37E53;" d="M423.724,512H88.276c-9.754,0-17.655-7.901-17.655-17.655V326.621h370.759v167.724
		C441.379,504.099,433.479,512,423.724,512"/>
	<path style="fill:#B55D37;" d="M450.207,326.621H61.793c-9.754,0-17.655-7.901-17.655-17.655v-35.31
		c0-9.754,7.901-17.655,17.655-17.655h388.414c9.754,0,17.655,7.901,17.655,17.655v35.31
		C467.862,318.72,459.961,326.621,450.207,326.621"/>
	<path style="fill:#D37E53;" d="M423.724,256H88.276c-9.754,0-17.655-7.901-17.655-17.655V70.621h370.759v167.724
		C441.379,248.099,433.479,256,423.724,256"/>
	<g>
		<path style="fill:#B55D37;" d="M450.207,70.621H61.793c-9.754,0-17.655-7.901-17.655-17.655v-35.31
			C44.138,7.901,52.039,0,61.793,0h388.414c9.754,0,17.655,7.901,17.655,17.655v35.31C467.862,62.72,459.961,70.621,450.207,70.621"
			/>
		<path style="fill:#B55D37;" d="M279.541,141.241h-47.078c-9.754,0-17.655-7.901-17.655-17.655s7.901-17.655,17.655-17.655h47.078
			c9.754,0,17.655,7.901,17.655,17.655S289.295,141.241,279.541,141.241"/>
		<path style="fill:#B55D37;" d="M279.541,397.241h-47.078c-9.754,0-17.655-7.901-17.655-17.655s7.901-17.655,17.655-17.655h47.078
			c9.754,0,17.655,7.901,17.655,17.655S289.295,397.241,279.541,397.241"/>
		<path style="fill:#B55D37;" d="M150.069,185.379h-44.138c-4.882,0-8.828-3.955-8.828-8.828c0-4.873,3.946-8.828,8.828-8.828
			h44.138c4.882,0,8.828,3.955,8.828,8.828C158.897,181.425,154.951,185.379,150.069,185.379"/>
		<path style="fill:#B55D37;" d="M132.414,220.69h-26.483c-4.882,0-8.828-3.955-8.828-8.828c0-4.873,3.946-8.828,8.828-8.828h26.483
			c4.882,0,8.828,3.955,8.828,8.828C141.241,216.735,137.295,220.69,132.414,220.69"/>
		<path style="fill:#B55D37;" d="M150.069,441.379h-44.138c-4.882,0-8.828-3.955-8.828-8.828s3.946-8.828,8.828-8.828h44.138
			c4.882,0,8.828,3.955,8.828,8.828S154.951,441.379,150.069,441.379"/>
		<path style="fill:#B55D37;" d="M132.414,476.69h-26.483c-4.882,0-8.828-3.955-8.828-8.828s3.946-8.828,8.828-8.828h26.483
			c4.882,0,8.828,3.955,8.828,8.828S137.295,476.69,132.414,476.69"/>
	</g>
</g>
<g>
</g>
<g>
</g>
<g>
</g>
<g>
</g>
<g>
</g>
<g>
</g>
<g>
</g>
<g>
</g>
<g>
</g>
<g>
</g>
<g>
</g>
<g>
</g>
<g>
</g>
<g>
</g>
<g>
</g>
</svg>
