<svg height="512pt" viewBox="0 -42 512 512" width="512pt" xmlns="http://www.w3.org/2000/svg"><path d="m504.5 385.984375h-497c0-137.25 111.261719-248.5 248.5-248.5s248.5 111.25 248.5 248.5zm0 0" fill="#abffdb"/><path d="m304.863281 385.984375h-96.132812c.171875-12.078125 4.859375-24.101563 14.050781-33.292969 9.085938-9.09375 21.160156-14.097656 34.011719-14.097656 12.847656 0 24.925781 5.003906 34.007812 14.097656 9.203125 9.191406 13.890625 21.214844 14.0625 33.292969zm0 0" fill="#abffdb"/><path d="m504.5 385.984375h-248.5v-248.5c41.039062 0 79.746094 9.949219 113.855469 27.5625 79.972656 41.289063 134.644531 124.726563 134.644531 220.9375zm0 0" fill="#f9b428"/><path d="m304.863281 385.984375h-48.863281v-47.378906c.261719-.011719.53125-.011719.792969-.011719 12.847656 0 24.925781 5.003906 34.007812 14.097656 9.203125 9.191406 13.890625 21.214844 14.0625 33.292969zm0 0" fill="#fea82f"/><path d="m369.855469 165.046875-91.199219 178.789063-21.496094 42.148437h-1.160156v-248.5c41.039062 0 79.746094 9.949219 113.855469 27.5625zm0 0" fill="#ffc850"/><path d="m278.65625 343.835938-21.496094 42.148437h-1.160156v-47.378906c.261719-.011719.53125-.011719.792969-.011719 7.726562 0 15.179687 1.8125 21.863281 5.242188zm0 0" fill="#f9b428"/><path d="m289.703125 386.699219c0 18.171875-14.734375 32.90625-32.910156 32.90625-18.171875 0-32.90625-14.734375-32.90625-32.90625 0-18.175781 14.734375-32.910157 32.90625-32.910157 18.175781 0 32.910156 14.734376 32.910156 32.910157zm0 0" fill="#fff"/><g fill="#474d54"><path d="m398.542969 173.316406c-42.214844-28.351562-91.503907-43.332031-142.542969-43.332031-32.035156 0-63.300781 5.851563-92.921875 17.394531-3.859375 1.503906-5.769531 5.855469-4.265625 9.710938 1.503906 3.859375 5.851562 5.773437 9.710938 4.265625 25.636718-9.988281 52.585937-15.4375 80.207031-16.253907v14.472657c0 4.140625 3.359375 7.5 7.5 7.5 4.144531 0 7.5-3.359375 7.5-7.5v-14.460938c45.285156 1.429688 88.851562 15.40625 126.449219 40.652344 1.285156.863281 2.734374 1.273437 4.175781 1.273437 2.414062 0 4.785156-1.164062 6.230469-3.316406 2.308593-3.4375 1.394531-8.097656-2.042969-10.40625zm0 0"/><path d="m423.808594 192.652344c-3.125-2.714844-7.863282-2.382813-10.582032.742187-2.714843 3.128907-2.382812 7.863281.742188 10.582031 6.742188 5.855469 13.101562 12.054688 19.09375 18.542969l-11.632812 11.632813c-2.929688 2.929687-2.929688 7.679687 0 10.605468 1.464843 1.46875 3.386718 2.199219 5.304687 2.199219s3.839844-.730469 5.304687-2.199219l10.871094-10.871093c33.171875 40.757812 52.324219 91.476562 53.976563 144.597656h-53.910157c-4.140624 0-7.5 3.359375-7.5 7.5s3.359376 7.5 7.5 7.5h61.523438c4.144531 0 7.5-3.359375 7.5-7.5 0-74.179687-32.144531-144.644531-88.191406-193.332031zm0 0"/><path d="m412.355469 378.484375h-116.019531c-1.054688-5.125-3.113282-10.078125-6.167969-14.554687l50.335937-50.335938c2.929688-2.929688 2.929688-7.679688 0-10.605469-2.929687-2.929687-7.679687-2.929687-10.605468 0l-50.335938 50.335938c-15.722656-10.734375-37.398438-9.140625-51.34375 4.800781-5.777344 5.78125-9.429688 12.894531-10.96875 20.359375h-202.132812c1.65625-53.371094 20.949218-103.824219 53.625-144.1875l10.457031 10.460937c1.464843 1.464844 3.386719 2.195313 5.304687 2.195313 1.917969 0 3.839844-.730469 5.304688-2.195313 2.929687-2.929687 2.929687-7.679687 0-10.605468l-11.246094-11.242188c17.441406-18.992187 38.066406-35.339844 61.359375-48.167968 3.628906-2 4.949219-6.558594 2.949219-10.1875-1.996094-3.628907-6.554688-4.949219-10.1875-2.953126-81.839844 45.074219-132.683594 131.050782-132.683594 224.382813 0 4.140625 3.355469 7.5 7.5 7.5h209.484375c1.351563 7.980469 5.089844 15.636719 11.238281 21.785156 7.875 7.878907 18.222656 11.816407 28.570313 11.816407 10.347656 0 20.695312-3.9375 28.570312-11.816407h.003907c6.148437-6.148437 9.882812-13.804687 11.234374-21.785156h115.753907c4.144531 0 7.5-3.359375 7.5-7.5 0-4.144531-3.355469-7.5-7.5-7.5zm-137.59375 26.179687c-9.90625 9.90625-26.027344 9.90625-35.933594 0s-9.90625-26.027343 0-35.933593c4.953125-4.953125 11.457031-7.429688 17.964844-7.429688 6.507812 0 13.015625 2.476563 17.96875 7.429688 9.902343 9.90625 9.902343 26.027343 0 35.933593zm0 0"/><path d="m95.136719 47.207031h321.726562c4.144531 0 7.5-3.355469 7.5-7.5 0-4.140625-3.355469-7.5-7.5-7.5h-303.621093l19.40625-19.402343c2.929687-2.929688 2.929687-7.679688 0-10.609376-2.925782-2.925781-7.675782-2.925781-10.605469 0l-32.210938 32.210938c-2.144531 2.144531-2.785156 5.371094-1.625 8.171875 1.160157 2.804687 3.898438 4.628906 6.929688 4.628906zm0 0"/><path d="m95.136719 77.894531h303.621093l-19.40625 19.40625c-2.929687 2.929688-2.929687 7.679688 0 10.605469 1.464844 1.464844 3.382813 2.199219 5.300782 2.199219 1.921875 0 3.839844-.734375 5.304687-2.199219l32.210938-32.207031c2.144531-2.144531 2.785156-5.371094 1.625-8.171875-1.160157-2.804688-3.894531-4.632813-6.929688-4.632813h-321.726562c-4.144531 0-7.5 3.359375-7.5 7.5 0 4.144531 3.355469 7.5 7.5 7.5zm0 0"/></g><path d="m79.679688 340.957031v.96875c0 4.140625 3.355468 7.5 7.5 7.5 4.140624 0 7.5-3.359375 7.5-7.5v-.96875c0-4.140625-3.359376-7.5-7.5-7.5-4.144532 0-7.5 3.359375-7.5 7.5zm0 0" fill="#48c397"/><path d="m110.914062 340.957031v.96875c0 4.140625 3.355469 7.5 7.5 7.5 4.144532 0 7.5-3.359375 7.5-7.5v-.96875c0-4.140625-3.355468-7.5-7.5-7.5-4.144531 0-7.5 3.359375-7.5 7.5zm0 0" fill="#48c397"/><path d="m142.148438 340.957031v.96875c0 4.140625 3.359374 7.5 7.5 7.5 4.144531 0 7.5-3.359375 7.5-7.5v-.96875c0-4.140625-3.355469-7.5-7.5-7.5-4.140626 0-7.5 3.359375-7.5 7.5zm0 0" fill="#48c397"/><path d="m354.851562 340.957031v.96875c0 4.140625 3.355469 7.5 7.5 7.5 4.140626 0 7.5-3.359375 7.5-7.5v-.96875c0-4.140625-3.359374-7.5-7.5-7.5-4.144531 0-7.5 3.359375-7.5 7.5zm0 0" fill="#ff8031"/><path d="m393.585938 333.457031c-4.144532 0-7.5 3.359375-7.5 7.5v.96875c0 4.140625 3.355468 7.5 7.5 7.5 4.144531 0 7.5-3.359375 7.5-7.5v-.96875c0-4.140625-3.355469-7.5-7.5-7.5zm0 0" fill="#ff8031"/><path d="m424.820312 333.457031c-4.140624 0-7.5 3.359375-7.5 7.5v.96875c0 4.140625 3.359376 7.5 7.5 7.5 4.144532 0 7.5-3.359375 7.5-7.5v-.96875c0-4.140625-3.355468-7.5-7.5-7.5zm0 0" fill="#ff8031"/></svg>