<svg height="512pt" viewBox="0 -17 512 512" width="512pt" xmlns="http://www.w3.org/2000/svg"><path d="m324.265625 384h-136.53125c-4.710937 0-8.535156-3.824219-8.535156-8.535156 0-4.707032 3.824219-8.53125 8.535156-8.53125h136.53125c4.710937 0 8.535156 3.824218 8.535156 8.53125 0 4.710937-3.824219 8.535156-8.535156 8.535156zm0 0" fill="#be6e41"/><path d="m392.542969 477.867188c-2.714844 0-5.386719-1.289063-7.042969-3.703126l-91.320312-132.832031h-76.359376l-91.320312 132.832031c-2.671875 3.882813-7.980469 4.871094-11.871094 2.199219-3.882812-2.667969-4.863281-7.984375-2.195312-11.867187l93.867187-136.535156c1.597657-2.3125 4.226563-3.695313 7.03125-3.695313h85.335938c2.804687 0 5.433593 1.382813 7.03125 3.703125l93.867187 136.535156c2.667969 3.882813 1.6875 9.199219-2.195312 11.871094-1.476563 1.003906-3.164063 1.492188-4.828125 1.492188zm0 0" fill="#6c4127"/><path d="m25.601562 0v324.265625h460.796876v-324.265625zm0 0" fill="#e7eced"/><path d="m332.800781 119.464844h-34.132812c-4.710938 0-8.535157-3.820313-8.535157-8.53125 0-4.710938 3.824219-8.535156 8.535157-8.535156h34.132812c4.710938 0 8.53125 3.824218 8.53125 8.535156 0 4.710937-3.820312 8.53125-8.53125 8.53125zm0 0" fill="#dd352e"/><path d="m392.535156 162.132812h-93.867187c-4.710938 0-8.535157-3.824218-8.535157-8.53125 0-4.710937 3.824219-8.535156 8.535157-8.535156h93.867187c4.707032 0 8.53125 3.824219 8.53125 8.535156 0 4.707032-3.824218 8.53125-8.53125 8.53125zm0 0" fill="#366db6"/><path d="m443.734375 162.132812h-17.066406c-4.710938 0-8.535157-3.824218-8.535157-8.53125 0-4.710937 3.824219-8.535156 8.535157-8.535156h17.066406c4.710937 0 8.53125 3.824219 8.53125 8.535156 0 4.707032-3.820313 8.53125-8.53125 8.53125zm0 0" fill="#dc691d"/><path d="m443.734375 204.800781h-145.066406c-4.710938 0-8.535157-3.824219-8.535157-8.535156s3.824219-8.53125 8.535157-8.53125h145.066406c4.710937 0 8.53125 3.820313 8.53125 8.53125s-3.820313 8.535156-8.53125 8.535156zm0 0" fill="#ebba16"/><path d="m392.535156 247.464844h-93.867187c-4.710938 0-8.535157-3.820313-8.535157-8.53125 0-4.710938 3.824219-8.535156 8.535157-8.535156h93.867187c4.707032 0 8.53125 3.824218 8.53125 8.535156 0 4.710937-3.824218 8.53125-8.53125 8.53125zm0 0" fill="#61b872"/><path d="m443.734375 247.464844h-17.066406c-4.710938 0-8.535157-3.820313-8.535157-8.53125 0-4.710938 3.824219-8.535156 8.535157-8.535156h17.066406c4.710937 0 8.53125 3.824218 8.53125 8.535156 0 4.710937-3.820313 8.53125-8.53125 8.53125zm0 0" fill="#57abc1"/><path d="m98.789062 215.296875-13.457031-10.496094 54.8125-68.265625 13.457031 10.496094zm0 0" fill="#afb6bb"/><path d="m207.820312 231.570312-54.21875-77.96875 14.042969-9.703124 54.222657 77.96875zm0 0" fill="#afb6bb"/><path d="m170.667969 332.800781h-162.132813c-4.710937 0-8.535156-3.824219-8.535156-8.535156s3.824219-8.53125 8.535156-8.53125h162.132813c4.710937 0 8.53125 3.820313 8.53125 8.53125s-3.820313 8.535156-8.53125 8.535156zm0 0" fill="#6c4127"/><path d="m503.464844 332.800781h-162.132813c-4.710937 0-8.53125-3.824219-8.53125-8.535156s3.820313-8.53125 8.53125-8.53125h162.132813c4.710937 0 8.535156 3.820313 8.535156 8.53125s-3.824219 8.535156-8.535156 8.535156zm0 0" fill="#6c4127"/><path d="m119.464844 0h17.070312v25.601562h-17.070312zm0 0" fill="#6c797a"/><path d="m145.066406 59.734375h-34.132812c-9.429688 0-17.066406-7.636719-17.066406-17.066406 0-9.429688 7.636718-17.066407 17.066406-17.066407h34.132812c9.429688 0 17.066406 7.636719 17.066406 17.066407 0 9.429687-7.636718 17.066406-17.066406 17.066406zm0 0" fill="#afb6bb"/><path d="m375.464844 0h17.070312v25.601562h-17.070312zm0 0" fill="#6c797a"/><path d="m401.066406 59.734375h-34.132812c-9.429688 0-17.066406-7.636719-17.066406-17.066406 0-9.429688 7.636718-17.066407 17.066406-17.066407h34.132812c9.429688 0 17.066406 7.636719 17.066406 17.066407 0 9.429687-7.636718 17.066406-17.066406 17.066406zm0 0" fill="#afb6bb"/><path d="m170.667969 307.199219h170.664062v34.132812h-170.664062zm0 0" fill="#be6e41"/><g fill="#7383bf"><path d="m110.933594 221.867188c0 14.136718-11.460938 25.597656-25.601563 25.597656-14.136719 0-25.597656-11.460938-25.597656-25.597656 0-14.140626 11.460937-25.601563 25.597656-25.601563 14.140625 0 25.601563 11.460937 25.601563 25.601563zm0 0"/><path d="m247.464844 238.933594c0 14.136718-11.460938 25.601562-25.597656 25.601562-14.140626 0-25.601563-11.464844-25.601563-25.601562 0-14.140625 11.460937-25.601563 25.601563-25.601563 14.136718 0 25.597656 11.460938 25.597656 25.601563zm0 0"/><path d="m179.199219 136.535156c0 14.136719-11.460938 25.597656-25.597657 25.597656-14.140624 0-25.601562-11.460937-25.601562-25.597656 0-14.140625 11.460938-25.601562 25.601562-25.601562 14.136719 0 25.597657 11.460937 25.597657 25.601562zm0 0"/></g></svg>