<?xml version="1.0" encoding="iso-8859-1"?>
<!-- Generator: Adobe Illustrator 19.0.0, SVG Export Plug-In . SVG Version: 6.00 Build 0)  -->
<svg version="1.1" id="Layer_1" xmlns="http://www.w3.org/2000/svg" xmlns:xlink="http://www.w3.org/1999/xlink" x="0px" y="0px"
	 viewBox="0 0 512 512" style="enable-background:new 0 0 512 512;" xml:space="preserve">
<path style="fill:#5C5F66;" d="M176,128H32c-17.673,0-32-14.327-32-32V80C0,35.817,35.817,0,80,0h80c17.673,0,32,14.327,32,32v80
	C192,120.837,184.837,128,176,128z"/>
<path style="fill:#45C1F1;" d="M480,128H160V0h272c44.183,0,80,35.817,80,80v16C512,113.673,497.673,128,480,128z"/>
<path style="fill:#44A4EC;" d="M432,0H256v128h224c17.672,0,32-14.313,32-32V80C512,35.813,476.188,0,432,0z"/>
<path style="fill:#E6EEFF;" d="M512,432c0,44.183-35.817,80-80,80H80c-44.183,0-80-35.817-80-80V96h512V432z"/>
<path style="fill:#DAE2F2;" d="M256,512h176c44.188,0,80-35.813,80-80V96H256V512z"/>
<path style="fill:#9DA1A9;" d="M352.5,416c-8.271,0-15-6.729-15-15s6.729-15,15-15h66c8.271,0,15,6.729,15,15s-6.729,15-15,15H352.5
	z"/>
<path style="fill:#4DB5FF;" d="M256,161c-46.844,0-91.063,18.219-124.531,51.344l-0.047,0.063c-0.023,0.031-0.055,0.031-0.078,0.063
	c-0.461,0.467-0.914,0.939-1.361,1.415c-7.822,8.346-7.603,21.371,0.486,29.459l38.125,38.125c4.008,4.008,9.457,6.236,15.125,6.188
	c5.667-0.048,11.083-2.368,15.02-6.445c0.241-0.25,0.485-0.497,0.73-0.743C214.375,265.563,235,257,256,257
	c0.234,0,0.469,0.001,0.703,0.003c8.275,0.079,16.237-3.153,22.116-8.977c5.878-5.824,9.181-13.757,9.181-22.032v-33.99
	c0-17.016-13.716-30.855-30.732-30.999C256.846,161.002,256.423,161,256,161z"/>
<path style="fill:#B999FF;" d="M131.469,212.344l-0.047,0.063c-0.023,0.031-0.055,0.031-0.078,0.063
	C98.219,245.969,80,290.188,80,337c0,8.844,7.156,16,16,16h64c8.844,0,16-7.156,16-16c0-21,8.563-41.625,23.469-56.531
	c0.023-0.031,0.047-0.031,0.07-0.063L131.469,212.344z"/>
<path style="fill:#FFBC33;" d="M312.531,280.469c4.228,4.228,9.961,6.603,15.938,6.603c5.978,0,11.71-2.376,15.937-6.603
	l36.146-36.146c8.783-8.783,8.832-23.01,0.107-31.85c-0.001-0.001-0.002-0.002-0.003-0.003c-0.023-0.031-0.055-0.031-0.078-0.063
	l-0.047-0.063C347.063,179.219,302.844,161,256,161v96C277,257,297.625,265.563,312.531,280.469
	C312.531,280.469,312.532,280.469,312.531,280.469z"/>
<path style="fill:#F23051;" d="M312.531,280.469C327.438,295.375,336,316,336,337c0,8.844,7.156,16,16,16h64c8.844,0,16-7.156,16-16
	c0-46.813-18.219-91.031-51.344-124.531c-0.023-0.031-0.055-0.031-0.078-0.063l-0.047-0.063l-68.07,68.063
	C312.484,280.438,312.508,280.438,312.531,280.469z"/>
<path style="fill:#A1A7B3;" d="M96.5,416c-8.271,0-15-6.729-15-15s6.729-15,15-15h66c8.271,0,15,6.729,15,15s-6.729,15-15,15H96.5z"
	/>
<path style="fill:#5C5F66;" d="M256,384c-8.271,0-15-6.729-15-15v-65c0-8.271,6.729-15,15-15s15,6.729,15,15v65
	C271,377.271,264.271,384,256,384z"/>
<path style="fill:#53565C;" d="M271,369v-65c0-8.271-6.729-15-15-15v95C264.271,384,271,377.271,271,369z"/>
<path style="fill:#7F838C;" d="M256,449c-26.469,0-48-21.531-48-48s21.531-48,48-48s48,21.531,48,48S282.469,449,256,449z M256,385
	c-8.813,0-16,7.188-16,16s7.188,16,16,16c8.812,0,16-7.188,16-16S264.813,385,256,385z"/>
<path style="fill:#757982;" d="M272,401c0,8.813-7.188,16-16,16v32c26.469,0,48-21.531,48-48s-21.531-48-48-48v32
	C264.813,385,272,392.188,272,401z"/>
<g>
</g>
<g>
</g>
<g>
</g>
<g>
</g>
<g>
</g>
<g>
</g>
<g>
</g>
<g>
</g>
<g>
</g>
<g>
</g>
<g>
</g>
<g>
</g>
<g>
</g>
<g>
</g>
<g>
</g>
</svg>
