<svg height="512pt" viewBox="-67 0 511 512" width="512pt" xmlns="http://www.w3.org/2000/svg"><path d="m369.21875 110.484375v394.015625h-361.21875v-477.625h277.609375zm0 0" fill="#fff"/><path d="m369.21875 110.484375v394.015625h-32.5v-426.519531zm0 0" fill="#e1eaf8"/><path d="m286.246094 109.847656 82.972656.636719-83.609375-83.609375zm0 0" fill="#e1eaf8"/><path d="m53.664062 366.878906h43.867188v43.867188h-43.867188zm0 0" fill="#5de0bf"/><path d="m216.378906 58.742188h-44.15625l-5.765625-51.242188h55.691407zm0 0" fill="#ffc843"/><g fill="#434c54"><path d="m376.699219 110.070312c-.113281-1.890624-.835938-3.523437-2.175781-4.894531l-83.609376-83.609375c-1.40625-1.40625-3.3125-2.199218-5.304687-2.199218h-57.25l1.238281-11.03125c.238282-2.121094-.4375-4.242188-1.859375-5.835938-1.421875-1.589844-3.457031-2.5-5.59375-2.5h-55.6875c-2.136719 0-4.167969.910156-5.59375 2.503906-1.421875 1.589844-2.097656 3.714844-1.859375 5.835938l1.242188 11.03125h-21.636719c-4.140625 0-7.5 3.355468-7.5 7.5 0 4.140625 3.359375 7.5 7.5 7.5h23.324219l2.835937 25.207031c.425781 3.796875 3.636719 6.664063 7.453125 6.664063h44.160156c3.816407 0 7.023438-2.867188 7.453126-6.664063l2.835937-25.207031h51.496094l.578125 75.535156c.03125 4.097656 3.347656 7.410156 7.441406 7.441406l75.535156.578125v225.074219c0 4.140625 3.355469 7.5 7.5 7.5 4.140625 0 7.5-3.359375 7.5-7.5v-232.519531c-.007812-.136719-.015625-.273438-.023437-.410157-.042969-.84375.007812.136719 0 0zm-197.773438-58.828124-2.820312-25.070313c-.003907-.058594-.011719-.117187-.019531-.175781l-1.238282-10.996094h38.90625l-4.078125 36.242188zm114.324219-6.125 57.726562 57.726562-57.289062-.4375zm0 0"/><path d="m8 453.832031c4.144531 0 7.5-3.355469 7.5-7.5v-411.957031h92.777344c4.144531 0 7.5-3.359375 7.5-7.5s-3.355469-7.5-7.5-7.5h-100.277344c-4.144531 0-7.5 3.359375-7.5 7.5v419.457031c0 4.144531 3.355469 7.5 7.5 7.5zm0 0"/><path d="m369.21875 366.5c-4.140625 0-7.5 3.359375-7.5 7.5v123h-346.21875v-21.332031c0-4.144531-3.355469-7.5-7.5-7.5s-7.5 3.355469-7.5 7.5v28.832031c0 4.140625 3.355469 7.5 7.5 7.5h361.21875c4.144531 0 7.5-3.359375 7.5-7.5v-130.5c0-4.140625-3.355469-7.5-7.5-7.5zm0 0"/></g><path d="m80.636719 265.199219c-2.929688 2.929687-2.929688 7.675781 0 10.605469 2.929687 2.925781 7.675781 2.929687 10.605469 0l26.066406-26.066407 36.070312 36.074219c1.40625 1.40625 3.3125 2.195312 5.300782 2.195312 1.992187 0 3.898437-.789062 5.304687-2.195312l78.144531-78.144531 9.691406 9.691406c1.40625 1.40625 3.316407 2.199219 5.304688 2.199219s3.894531-.792969 5.304688-2.199219l40.941406-40.941406v9.667969c0 4.140624 3.355468 7.5 7.5 7.5 4.144531 0 7.5-3.359376 7.5-7.5v-27.773438c0-4.140625-3.355469-7.5-7.5-7.5h-27.773438c-4.140625 0-7.5 3.359375-7.5 7.5s3.359375 7.5 7.5 7.5h9.667969l-35.640625 35.636719-9.691406-9.691407c-1.40625-1.40625-3.316406-2.195312-5.304688-2.195312-1.988281 0-3.894531.789062-5.304687 2.195312l-78.144531 78.144532-36.070313-36.070313c-2.925781-2.929687-7.675781-2.929687-10.605469 0zm0 0" fill="#5de0bf"/><path d="m318.371094 328.09375c0-4.144531-3.355469-7.5-7.5-7.5h-249.703125v-70.402344h7.140625c4.140625 0 7.5-3.359375 7.5-7.5 0-4.144531-3.359375-7.5-7.5-7.5h-7.140625v-48.445312h7.140625c4.140625 0 7.5-3.355469 7.5-7.5 0-4.140625-3.359375-7.5-7.5-7.5h-7.140625v-48.441406h7.140625c4.140625 0 7.5-3.359376 7.5-7.5 0-4.140626-3.359375-7.5-7.5-7.5h-7.140625v-43.742188c0-4.140625-3.359375-7.5-7.5-7.5-4.144531 0-7.5 3.359375-7.5 7.5v263.53125c0 4.140625 3.355469 7.5 7.5 7.5h257.203125c4.144531 0 7.5-3.359375 7.5-7.5zm0 0" fill="#969ba1"/><path d="m257.414062 426.75h-203.746093c-4.144531 0-7.5 3.359375-7.5 7.5s3.355469 7.5 7.5 7.5h203.746093c4.144532 0 7.5-3.359375 7.5-7.5s-3.355468-7.5-7.5-7.5zm0 0" fill="#969ba1"/><path d="m257.414062 456.019531h-203.746093c-4.144531 0-7.5 3.359375-7.5 7.5s3.355469 7.5 7.5 7.5h203.746093c4.144532 0 7.5-3.359375 7.5-7.5s-3.355468-7.5-7.5-7.5zm0 0" fill="#969ba1"/></svg>