<svg height="504pt" viewBox="-30 0 504 504.04231" width="504pt" xmlns="http://www.w3.org/2000/svg"><path d="m339.433594 134.898438 38.03125-39.828126 37.65625 35.957032-38.03125 39.828125zm0 0" fill="#35495e"/><path d="m29.753906 131.117188 37.660156-35.960938 33.890626 35.492188-37.660157 35.960937zm0 0" fill="#35495e"/><path d="m187.78125 0h69.421875c9.585937 0 17.355469 7.769531 17.355469 17.355469v17.355469c0 9.585937-7.769532 17.355468-17.355469 17.355468h-69.421875c-9.585938 0-17.355469-7.769531-17.355469-17.355468v-17.355469c0-9.585938 7.769531-17.355469 17.355469-17.355469zm0 0" fill="#bdc3c7"/><path d="m196.457031 43.390625h52.070313v52.066406h-52.070313zm0 0" fill="#bdc3c7"/><path d="m222.847656 504.042969c-84.386718 0-160.460937-50.835938-192.753906-128.796875-32.292969-77.964844-14.441406-167.703125 45.230469-227.371094s149.410156-77.515625 227.371093-45.21875c77.960938 32.292969 128.792969 108.371094 128.789063 192.757812-.136719 115.171876-93.46875 208.5-208.636719 208.628907zm0 0" fill="#35495e"/><path d="m389.160156 70.242188 50.210938 47.945312c6.933594 6.621094 7.1875 17.605469.566406 24.539062-6.621094 6.929688-17.605469 7.183594-24.539062.566407l-50.210938-47.945313c-6.929688-6.621094-7.183594-17.605468-.566406-24.539062 6.621094-6.933594 17.609375-7.1875 24.539062-.566406zm0 0" fill="#bdc3c7"/><path d="m79.589844 95.347656-50.210938 47.941406c-6.933594 6.621094-17.917968 6.367188-24.539062-.566406-6.617188-6.929687-6.367188-17.917968.566406-24.535156l50.210938-47.945312c6.929687-6.621094 17.917968-6.367188 24.539062.566406 6.617188 6.933594 6.363281 17.917968-.566406 24.539062zm0 0" fill="#bdc3c7"/><path d="m370.363281 385.910156c-31.511719 51.457032-87.527343 82.820313-147.871093 82.785156-1.390626 0-2.863282 0-4.253907-.085937 8.515625-9.492187 16.019531-19.847656 22.390625-30.894531 18.878906-32.75 27.042969-70.589844 23.34375-108.210938-.945312-9.425781-2.597656-18.769531-4.945312-27.945312-3.070313-11.859375-7.34375-23.375-12.757813-34.363282 29.804688 8.152344 57.023438 23.808594 79.054688 45.472657 11.597656 11.371093 21.582031 24.277343 29.679687 38.355469 6.308594 11.070312 11.457032 22.757812 15.359375 34.886718zm0 0" fill="#f18d46"/><path d="m375.3125 212.871094c-28.527344-6.164063-58.125-5.332032-86.261719 2.429687-20.632812 5.566407-40.070312 14.859375-57.359375 27.421875-7.734375 5.480469-14.992187 11.605469-21.695312 18.3125-8.710938 8.589844-16.53125 18.039063-23.34375 28.203125-2.433594-9.160156-4.089844-18.507812-4.945313-27.945312-.710937-6.6875-1.027343-13.410157-.957031-20.132813.144531-14.554687 2.066406-29.039062 5.726562-43.128906 7.355469-28.410156 21.535157-54.59375 41.308594-76.28125 61.933594 1.800781 118.1875 36.546875 147.527344 91.121094zm0 0" fill="#cc66a1"/><path d="m186.476562 198.03125c-3.660156 14.089844-5.582031 28.574219-5.726562 43.128906-.070312 6.722656.246094 13.445313.957031 20.132813.855469 9.4375 2.511719 18.785156 4.945313 27.945312 3.039062 11.855469 7.285156 23.371094 12.667968 34.363281-9.125-2.453124-18.03125-5.648437-26.640624-9.546874-19.449219-8.796876-37.191407-20.960938-52.414063-35.925782-20.863281-20.664062-36.433594-46.054687-45.386719-74.023437l-.085937-.085938c31.566406-51.273437 87.488281-82.488281 147.699219-82.441406 1.734374 0 3.558593 0 5.292968.171875-19.773437 21.6875-33.953125 47.871094-41.308594 76.28125zm0 0" fill="#8697cb"/><path d="m235.59375 329.761719c-6.699219 6.703125-13.957031 12.832031-21.691406 18.3125-41.636719 29.800781-93.917969 40.644531-143.96875 29.851562v-.085937c-29.648438-54.625-27.792969-120.9375 4.859375-173.820313l.085937.085938c8.953125 27.96875 24.523438 53.359375 45.386719 74.023437 15.222656 14.964844 32.964844 27.128906 52.414063 35.925782 8.609374 3.898437 17.515624 7.09375 26.640624 9.546874 11.847657 3.300782 24.003907 5.363282 36.273438 6.160157zm0 0" fill="#3b97d3"/><path d="m259.027344 301.558594c-6.871094 10.144531-14.71875 19.59375-23.433594 28.203125-12.269531-.796875-24.425781-2.859375-36.273438-6.160157-5.382812-10.992187-9.628906-22.507812-12.667968-34.363281 6.8125-10.164062 14.632812-19.613281 23.34375-28.203125 12.273437.78125 24.429687 2.84375 36.273437 6.160156 5.414063 10.988282 9.6875 22.503907 12.757813 34.363282zm0 0" fill="#35495e"/><path d="m396.050781 295.136719c.058594 32.058593-8.839843 63.496093-25.6875 90.773437-3.902343-12.128906-9.050781-23.816406-15.359375-34.886718-8.097656-14.078126-18.082031-26.984376-29.679687-38.355469-22.03125-21.664063-49.25-37.320313-79.054688-45.472657-11.84375-3.316406-24-5.378906-36.273437-6.160156 6.703125-6.707031 13.960937-12.832031 21.695312-18.3125 17.289063-12.5625 36.726563-21.855468 57.359375-27.421875 28.136719-7.761719 57.734375-8.59375 86.261719-2.429687 13.675781 25.257812 20.804688 53.542968 20.738281 82.265625zm0 0" fill="#cc4b4c"/><path d="m259.027344 392.765625c-4.058594 15.75-10.246094 30.875-18.398438 44.949219-6.371094 11.046875-13.875 21.402344-22.390625 30.894531-62.113281-1.460937-118.695312-36.058594-148.304687-90.683594 50.050781 10.914063 102.382812.0625 143.96875-29.851562 7.734375-5.480469 14.992187-11.609375 21.691406-18.3125 8.714844-8.609375 16.5625-18.058594 23.433594-28.203125 2.347656 9.175781 4 18.519531 4.945312 27.945312 2.160156 21.210938.484375 42.640625-4.945312 63.261719zm0 0" fill="#f3d55b"/><g fill="#cc66a1"><path d="m218.238281 468.609375-.519531.519531"/><path d="m370.625 386.691406-.261719-.78125"/><path d="m227.871094 121.664062-.085938.085938"/><path d="m375.832031 212.957031c-.175781 0-.347656-.085937-.519531-.085937"/></g><path d="m222.492188 477.332031c-100.648438 0-182.238282-81.589843-182.238282-182.238281 0-100.644531 81.589844-182.238281 182.238282-182.238281 100.648437 0 182.238281 81.59375 182.238281 182.238281-.117188 100.601562-81.640625 182.121094-182.238281 182.238281zm0-347.121093c-91.0625 0-164.882813 73.820312-164.882813 164.882812s73.820313 164.882812 164.882813 164.882812 164.882812-73.820312 164.882812-164.882812c-.101562-91.019531-73.863281-164.78125-164.882812-164.882812zm0 0" fill="#3f5c6c"/></svg>