<svg height="479pt" viewBox="-56 0 479 479.99333" width="479pt" xmlns="http://www.w3.org/2000/svg" xmlns:xlink="http://www.w3.org/1999/xlink"><linearGradient id="a"><stop offset="0" stop-color="#fff33b"/><stop offset=".014" stop-color="#fee72e"/><stop offset=".042" stop-color="#fed51b"/><stop offset=".07" stop-color="#fdca10"/><stop offset=".1" stop-color="#fdc70c"/><stop offset=".4" stop-color="#f3903f"/><stop offset=".8" stop-color="#ed683c"/><stop offset="1" stop-color="#e93e3a"/></linearGradient><linearGradient id="b" gradientUnits="userSpaceOnUse" x1="184.462776" x2="184.462776" xlink:href="#a" y1="-18.670666" y2="519.145334"/><linearGradient id="c" gradientUnits="userSpaceOnUse" x1="128.462776" x2="128.462776" xlink:href="#a" y1="-18.670666" y2="519.145334"/><linearGradient id="d" gradientUnits="userSpaceOnUse" x1="240.462776" x2="240.462776" xlink:href="#a" y1="-18.670666" y2="519.145334"/><linearGradient id="e" gradientUnits="userSpaceOnUse" x1="104.462776" x2="104.462776" xlink:href="#a" y1="-18.670666" y2="519.145334"/><linearGradient id="f" gradientUnits="userSpaceOnUse" x1="204.462776" x2="204.462776" xlink:href="#a" y1="-18.670666" y2="519.145334"/><path d="m272.261719 48.386719c-22.355469-35.378907-63.757813-53.886719-105.027344-46.949219-41.273437 6.9375-74.347656 37.964844-83.90625 78.707031-47.507813 2.796875-84.183594 42.851563-82.792969 90.417969 1.386719 47.566406 40.339844 85.414062 87.925782 85.429688 4.421874 0 8-3.582032 8-8 0-4.417969-3.578126-8-8-8-39.761719-.046876-71.960938-32.316407-71.914063-72.082032s32.320313-71.964844 72.082031-71.917968c.121094 0 .976563.058593 1.128906.058593 3.964844.09375 7.386719-2.761719 8-6.679687 6.113282-36.636719 34.605469-65.472656 71.164063-72.03125 36.558594-6.554688 73.292969 10.585937 91.757813 42.8125 1.378906 2.394531 3.898437 3.910156 6.664062 4 43.742188 1.421875 79.789062 34.792968 84.574219 78.296875 4.785156 43.507812-23.144531 83.910156-65.535157 94.808593-4.28125 1.105469-6.855468 5.46875-5.753906 9.75 1.105469 4.28125 5.472656 6.859376 9.753906 5.753907 49.324219-12.648438 82.226563-59.160157 77.730469-109.882813-4.496093-50.722656-45.070312-90.71875-95.851562-94.492187zm0 0" fill="url(#b)"/><path d="m112.460938 263.992188h32c4.421874 0 8-3.582032 8-8v-88h21.257812c3.234375 0 6.152344-1.949219 7.390625-4.9375 1.238281-2.988282.550781-6.429688-1.734375-8.71875l-45.257812-45.253907c-3.171876-3-8.136719-3-11.308594 0l-45.257813 45.253907c-2.289062 2.289062-2.972656 5.730468-1.734375 8.71875 1.238282 2.988281 4.15625 4.9375 7.390625 4.9375h21.253907v88c0 4.417968 3.582031 8 8 8zm-9.941407-112 25.941407-25.941407 25.945312 25.941407h-9.945312c-4.417969 0-8 3.582031-8 8v88h-16v-88c0-4.417969-3.578126-8-8-8zm0 0" fill="url(#c)"/><path d="m256.460938 103.992188h-32c-4.417969 0-8 3.582031-8 8v88h-21.253907c-3.234375 0-6.152343 1.949218-7.390625 4.941406-1.238281 2.988281-.554687 6.429687 1.734375 8.714844l45.257813 45.257812c3.121094 3.121094 8.1875 3.121094 11.308594 0l45.257812-45.257812c2.285156-2.285157 2.972656-5.726563 1.734375-8.714844-1.238281-2.992188-4.15625-4.941406-7.390625-4.941406h-21.257812v-88c0-4.417969-3.578126-8-8-8zm9.945312 112-25.945312 25.945312-25.941407-25.945312h9.941407c4.421874 0 8-3.582032 8-8v-88h16v88c0 4.417968 3.582031 8 8 8zm0 0" fill="url(#d)"/><path d="m296.460938 271.992188h-224c-4.417969 0-8 3.582031-8 8v48c0 4.417968 3.582031 8 8 8h224c4.421874 0 8-3.582032 8-8v-48c0-4.417969-3.578126-8-8-8zm-8 48h-208v-32h208zm0 0" fill="url(#b)"/><path d="m96.460938 311.992188h16c4.421874 0 8-3.582032 8-8 0-4.417969-3.578126-8-8-8h-16c-4.417969 0-8 3.582031-8 8 0 4.417968 3.582031 8 8 8zm0 0" fill="url(#e)"/><path d="m136.460938 311.992188h136c4.421874 0 8-3.582032 8-8 0-4.417969-3.578126-8-8-8h-136c-4.417969 0-8 3.582031-8 8 0 4.417968 3.582031 8 8 8zm0 0" fill="url(#f)"/><path d="m296.460938 343.992188h-224c-4.417969 0-8 3.582031-8 8v48c0 4.417968 3.582031 8 8 8h224c4.421874 0 8-3.582032 8-8v-48c0-4.417969-3.578126-8-8-8zm-8 48h-208v-32h208zm0 0" fill="url(#b)"/><path d="m96.460938 383.992188h16c4.421874 0 8-3.582032 8-8 0-4.417969-3.578126-8-8-8h-16c-4.417969 0-8 3.582031-8 8 0 4.417968 3.582031 8 8 8zm0 0" fill="url(#e)"/><path d="m136.460938 383.992188h136c4.421874 0 8-3.582032 8-8 0-4.417969-3.578126-8-8-8h-136c-4.417969 0-8 3.582031-8 8 0 4.417968 3.582031 8 8 8zm0 0" fill="url(#f)"/><path d="m296.460938 415.992188h-224c-4.417969 0-8 3.582031-8 8v48c0 4.417968 3.582031 8 8 8h224c4.421874 0 8-3.582032 8-8v-48c0-4.417969-3.578126-8-8-8zm-8 48h-208v-32h208zm0 0" fill="url(#b)"/><path d="m96.460938 455.992188h16c4.421874 0 8-3.582032 8-8 0-4.417969-3.578126-8-8-8h-16c-4.417969 0-8 3.582031-8 8 0 4.417968 3.582031 8 8 8zm0 0" fill="url(#e)"/><path d="m136.460938 455.992188h136c4.421874 0 8-3.582032 8-8 0-4.417969-3.578126-8-8-8h-136c-4.417969 0-8 3.582031-8 8 0 4.417968 3.582031 8 8 8zm0 0" fill="url(#f)"/></svg>