<svg height="480pt" viewBox="0 0 480 480.06553" width="480pt" xmlns="http://www.w3.org/2000/svg" xmlns:xlink="http://www.w3.org/1999/xlink"><linearGradient id="a"><stop offset="0" stop-color="#fff33b"/><stop offset=".014" stop-color="#fee72e"/><stop offset=".042" stop-color="#fed51b"/><stop offset=".07" stop-color="#fdca10"/><stop offset=".1" stop-color="#fdc70c"/><stop offset=".4" stop-color="#f3903f"/><stop offset=".8" stop-color="#ed683c"/><stop offset="1" stop-color="#e93e3a"/></linearGradient><linearGradient id="b" gradientUnits="userSpaceOnUse" x1="240.032765" x2="240.032765" xlink:href="#a" y1="-18.664092" y2="510.919908"/><linearGradient id="c" gradientUnits="userSpaceOnUse" x1="64.032765" x2="64.032765" xlink:href="#a" y1="-18.664092" y2="510.919908"/><linearGradient id="d" gradientUnits="userSpaceOnUse" x1="416.032765" x2="416.032765" xlink:href="#a" y1="-18.664092" y2="510.919908"/><linearGradient id="e" gradientUnits="userSpaceOnUse" x1="156.032765" x2="156.032765" xlink:href="#a" y1="-18.664092" y2="510.919908"/><linearGradient id="f" gradientUnits="userSpaceOnUse" x1="324.032765" x2="324.032765" xlink:href="#a" y1="-18.664092" y2="510.919908"/><path d="m144.03125 256h176c55.914062.035156 101.839844-44.167969 103.941406-100.042969 2.097656-55.875-40.378906-103.398437-96.140625-107.558593-22.347656-35.382813-63.753906-53.898438-105.027343-46.960938-41.273438 6.933594-74.351563 37.96875-83.90625 78.714844-47.507813 2.796875-84.183594 42.847656-82.792969 90.417968 1.386719 47.566407 40.339843 85.410157 87.925781 85.429688zm.160156-160c.191406 0 1.074219.054688 1.234375.054688 3.90625 0 7.242188-2.824219 7.886719-6.679688 6.101562-36.648438 34.589844-65.503906 71.160156-72.066406 36.570313-6.5625 73.316406 10.578125 91.785156 42.820312 1.382813 2.398438 3.910157 3.914063 6.679688 4 24.097656.679688 46.851562 11.261719 62.90625 29.253906 16.050781 17.988282 23.980469 41.796876 21.925781 65.816407-4.59375 46.28125-43.808593 81.363281-90.3125 80.800781h-171.128906c-36.214844.5-67.398437-25.445312-73.496094-61.144531-3.132812-20.777344 2.953125-41.886719 16.664063-57.804688 13.710937-15.921875 33.6875-25.070312 54.695312-25.050781zm0 0" fill="url(#b)"/><path d="m248.03125 368.640625v-96.640625h-16v96.640625c-29.070312 4.195313-49.957031 30.140625-47.855469 59.433594 2.105469 29.296875 26.484375 51.992187 55.855469 51.992187 29.375 0 53.753906-22.695312 55.859375-51.992187 2.101563-29.292969-18.789063-55.238281-47.859375-59.433594zm-8 95.359375c-22.089844 0-40-17.910156-40-40s17.910156-40 40-40c22.09375 0 40 17.910156 40 40-.023438 22.082031-17.917969 39.972656-40 40zm0 0" fill="url(#b)"/><path d="m64.03125 368.640625v-64.640625h56c4.417969 0 8-3.582031 8-8v-24h-16v16h-56c-4.417969 0-8 3.582031-8 8v72.640625c-29.070312 4.195313-49.957031 30.140625-47.855469 59.433594 2.105469 29.296875 26.484375 51.992187 55.855469 51.992187 29.375 0 53.753906-22.695312 55.859375-51.992187 2.101563-29.292969-18.789063-55.238281-47.859375-59.433594zm-8 95.359375c-22.089844 0-40-17.910156-40-40s17.910156-40 40-40c22.09375 0 40 17.910156 40 40-.023438 22.082031-17.917969 39.972656-40 40zm0 0" fill="url(#c)"/><path d="m432.03125 368.640625v-72.640625c0-4.417969-3.582031-8-8-8h-56v-16h-16v24c0 4.417969 3.582031 8 8 8h56v64.640625c-29.070312 4.195313-49.957031 30.140625-47.855469 59.433594 2.105469 29.296875 26.484375 51.992187 55.855469 51.992187 29.375 0 53.753906-22.695312 55.859375-51.992187 2.101563-29.292969-18.789063-55.238281-47.859375-59.433594zm-8 95.359375c-22.089844 0-40-17.910156-40-40s17.910156-40 40-40c22.09375 0 40 17.910156 40 40-.023438 22.082031-17.917969 39.972656-40 40zm0 0" fill="url(#d)"/><path d="m160.03125 320.800781v-16.800781h32c4.417969 0 8-3.582031 8-8v-24h-16v16h-32c-4.417969 0-8 3.582031-8 8v24.800781c-20.117188 4.105469-33.859375 22.78125-31.796875 43.210938 2.066406 20.429687 19.265625 35.980469 39.796875 35.980469 20.535156 0 37.734375-15.550782 39.800781-35.980469 2.0625-20.429688-11.679687-39.105469-31.800781-43.210938zm-8 63.199219c-13.253906 0-24-10.746094-24-24s10.746094-24 24-24c13.257812 0 24 10.746094 24 24s-10.742188 24-24 24zm0 0" fill="url(#e)"/><path d="m336.03125 320.800781v-24.800781c0-4.417969-3.582031-8-8-8h-32v-16h-16v24c0 4.417969 3.582031 8 8 8h32v16.800781c-20.117188 4.105469-33.859375 22.78125-31.796875 43.210938 2.066406 20.429687 19.265625 35.980469 39.796875 35.980469 20.535156 0 37.734375-15.550782 39.800781-35.980469 2.0625-20.429688-11.679687-39.105469-31.800781-43.210938zm-8 63.199219c-13.253906 0-24-10.746094-24-24s10.746094-24 24-24c13.257812 0 24 10.746094 24 24s-10.742188 24-24 24zm0 0" fill="url(#f)"/></svg>