<svg xmlns="http://www.w3.org/2000/svg" height="512pt" version="1.1" viewBox="-125 0 512 512" width="512pt">
<g id="surface1">
<path d="M 234.019531 4 L 234.019531 172 L 27.980469 172 L 27.980469 4 C 27.980469 1.789062 29.769531 0 31.980469 0 L 230.019531 0 C 232.230469 0 234.019531 1.789062 234.019531 4 Z M 234.019531 4 " style=" stroke:none;fill-rule:nonzero;fill:rgb(67.843137%,90.588235%,100%);fill-opacity:1;" />
<path d="M 234.019531 172 L 203.113281 172 L 203.113281 0 L 230.019531 0 C 232.226562 0 234.019531 1.789062 234.019531 4 Z M 234.019531 172 " style=" stroke:none;fill-rule:nonzero;fill:rgb(50.980392%,82.352941%,96.078431%);fill-opacity:1;" />
<path d="M 199.214844 94.382812 L 176.109375 94.382812 C 173.953125 94.382812 172.207031 92.636719 172.207031 90.484375 L 172.207031 50.894531 C 172.207031 48.742188 173.953125 46.996094 176.109375 46.996094 L 199.214844 46.996094 C 201.367188 46.996094 203.113281 48.742188 203.113281 50.894531 L 203.113281 90.484375 C 203.113281 92.636719 201.367188 94.382812 199.214844 94.382812 Z M 199.214844 94.382812 " style=" stroke:none;fill-rule:nonzero;fill:rgb(34.901961%,30.980392%,41.176471%);fill-opacity:1;" />
<path d="M 85.894531 94.382812 L 62.789062 94.382812 C 60.632812 94.382812 58.886719 92.636719 58.886719 90.484375 L 58.886719 50.894531 C 58.886719 48.742188 60.632812 46.996094 62.789062 46.996094 L 85.894531 46.996094 C 88.046875 46.996094 89.792969 48.742188 89.792969 50.894531 L 89.792969 90.484375 C 89.792969 92.636719 88.046875 94.382812 85.894531 94.382812 Z M 85.894531 94.382812 " style=" stroke:none;fill-rule:nonzero;fill:rgb(34.901961%,30.980392%,41.176471%);fill-opacity:1;" />
<path d="M 145.140625 52.019531 L 145.140625 89.199219 C 145.140625 93.351562 141.78125 96.699219 137.640625 96.699219 L 131.859375 96.699219 L 131.859375 172 L 116.859375 172 L 116.859375 89.199219 C 116.859375 85.058594 120.21875 81.699219 124.359375 81.699219 L 130.140625 81.699219 L 130.140625 59.519531 L 124.628906 59.519531 C 120.488281 59.519531 117.128906 56.171875 117.128906 52.019531 L 117.128906 0 L 132.128906 0 L 132.128906 44.519531 L 137.640625 44.519531 C 141.78125 44.519531 145.140625 47.878906 145.140625 52.019531 Z M 145.140625 52.019531 " style=" stroke:none;fill-rule:nonzero;fill:rgb(34.901961%,30.980392%,41.176471%);fill-opacity:1;" />
<path d="M 256 512 L 6 512 C 2.6875 512 0 509.3125 0 506 L 0 147.378906 C 0 144.066406 2.6875 141.378906 6 141.378906 L 256 141.378906 C 259.3125 141.378906 262 144.066406 262 147.378906 L 262 506 C 262 509.3125 259.3125 512 256 512 Z M 256 512 " style=" stroke:none;fill-rule:nonzero;fill:rgb(40.784314%,36.078431%,47.45098%);fill-opacity:1;" />
<path d="M 256 512 L 230.929688 512 L 230.929688 141.378906 L 256 141.378906 C 259.3125 141.378906 262 144.066406 262 147.378906 L 262 506 C 262 509.3125 259.3125 512 256 512 Z M 256 512 " style=" stroke:none;fill-rule:nonzero;fill:rgb(34.901961%,30.980392%,41.176471%);fill-opacity:1;" />
<path d="M 230.929688 254.46875 L 230.929688 372.910156 C 230.929688 375.21875 229.601562 377.328125 227.511719 378.320312 L 200.488281 391.230469 L 133.429688 423.269531 C 132.648438 423.621094 131.820312 423.78125 131 423.78125 C 130.179688 423.78125 129.359375 423.621094 128.578125 423.269531 L 34.488281 378.320312 C 32.398438 377.328125 31.070312 375.21875 31.070312 372.910156 L 31.070312 254.46875 C 31.070312 253.269531 31.429688 252.128906 32.070312 251.171875 C 32.648438 250.269531 33.480469 249.539062 34.488281 249.058594 L 102.328125 216.640625 L 128.511719 204.140625 C 130.089844 203.421875 131.898438 203.421875 133.480469 204.128906 L 227.511719 249.058594 C 228.519531 249.539062 229.351562 250.269531 229.929688 251.171875 C 230.570312 252.128906 230.929688 253.269531 230.929688 254.46875 Z M 230.929688 254.46875 " style=" stroke:none;fill-rule:nonzero;fill:rgb(100%,17.254902%,36.078431%);fill-opacity:1;" />
<path d="M 229.929688 251.171875 L 200.019531 265.449219 L 102.328125 216.640625 L 128.511719 204.140625 C 130.089844 203.421875 131.898438 203.421875 133.480469 204.128906 L 227.511719 249.058594 C 228.519531 249.539062 229.351562 250.269531 229.929688 251.171875 Z M 229.929688 251.171875 " style=" stroke:none;fill-rule:nonzero;fill:rgb(90.196078%,15.294118%,32.54902%);fill-opacity:1;" />
<path d="M 131 298.429688 L 131 423.78125 C 130.179688 423.78125 129.359375 423.621094 128.578125 423.269531 L 34.488281 378.320312 C 32.398438 377.328125 31.070312 375.21875 31.070312 372.910156 L 31.070312 254.46875 C 31.070312 253.269531 31.429688 252.128906 32.070312 251.171875 Z M 131 298.429688 " style=" stroke:none;fill-rule:nonzero;fill:rgb(30.980392%,69.411765%,96.078431%);fill-opacity:1;" />
<path d="M 230.929688 254.46875 L 230.929688 372.910156 C 230.929688 375.21875 229.601562 377.328125 227.511719 378.320312 L 200.488281 391.230469 L 133.429688 423.269531 C 132.648438 423.621094 131.820312 423.78125 131 423.78125 L 131 298.429688 L 200.019531 265.460938 L 200.019531 265.449219 L 229.929688 251.171875 C 230.570312 252.128906 230.929688 253.269531 230.929688 254.46875 Z M 230.929688 254.46875 " style=" stroke:none;fill-rule:nonzero;fill:rgb(100%,83.921569%,34.901961%);fill-opacity:1;" />
<path d="M 230.929688 254.46875 L 230.929688 372.910156 C 230.929688 375.21875 229.601562 377.328125 227.511719 378.320312 L 200.488281 391.238281 L 200.488281 391.230469 L 200.019531 265.460938 L 200.019531 265.449219 L 229.929688 251.171875 C 230.570312 252.128906 230.929688 253.269531 230.929688 254.46875 Z M 230.929688 254.46875 " style=" stroke:none;fill-rule:nonzero;fill:rgb(100%,74.117647%,32.941176%);fill-opacity:1;" />
</g>
</svg>