<svg height="512pt" viewBox="-124 0 512 512" width="512pt" xmlns="http://www.w3.org/2000/svg"><path d="m44.136719 0h176.554687v132.414062h-176.554687zm0 0" fill="#e7eced"/><path d="m79.449219 44.136719h35.308593v35.3125h-35.308593zm0 0" fill="#afb6bb"/><path d="m150.070312 44.136719h35.308594v35.3125h-35.308594zm0 0" fill="#afb6bb"/><path d="m26.484375 123.585938h211.859375v44.136718h-211.859375zm0 0" fill="#afb6bb"/><path d="m229.507812 512h-194.1875c-19.511718 0-35.320312-15.808594-35.320312-35.320312v-317.78125h264.828125v317.78125c0 19.511718-15.8125 35.320312-35.320313 35.320312zm0 0" fill="#366db6"/><path d="m44.136719 203.035156h176.554687v264.828125h-176.554687zm0 0" fill="#1f436d"/><g fill="#fff"><path d="m132.414062 441.378906c-19.472656 0-35.3125-15.835937-35.3125-35.308594 0-19.476562 15.839844-35.3125 35.3125-35.3125 19.472657 0 35.308594 15.835938 35.308594 35.3125 0 19.472657-15.835937 35.308594-35.308594 35.308594zm0-52.964844c-9.738281 0-17.65625 7.917969-17.65625 17.65625 0 9.734376 7.917969 17.652344 17.65625 17.652344 9.738282 0 17.65625-7.917968 17.65625-17.652344 0-9.738281-7.917968-17.65625-17.65625-17.65625zm0 0"/><path d="m132.414062 388.414062c-4.875 0-8.828124-3.945312-8.828124-8.828124v-141.242188c0-4.878906 3.953124-8.828125 8.828124-8.828125 4.871094 0 8.828126 3.949219 8.828126 8.828125v141.242188c0 4.882812-3.957032 8.828124-8.828126 8.828124zm0 0"/><path d="m132.414062 344.277344c-29.203124 0-52.964843-23.757813-52.964843-52.96875v-26.480469c0-4.882813 3.953125-8.828125 8.828125-8.828125 4.871094 0 8.824218 3.945312 8.824218 8.828125v26.480469c0 19.476562 15.839844 35.3125 35.3125 35.3125 4.871094 0 8.828126 3.945312 8.828126 8.828125 0 4.878906-3.957032 8.828125-8.828126 8.828125zm0 0"/><path d="m132.414062 353.101562c-4.875 0-8.828124-3.945312-8.828124-8.824218 0-4.882813 3.953124-8.828125 8.828124-8.828125 14.601563 0 26.484376-11.882813 26.484376-26.484375v-17.65625c0-4.878906 3.953124-8.824219 8.824218-8.824219 4.875 0 8.828125 3.945313 8.828125 8.824219v17.65625c0 24.339844-19.800781 44.136718-44.136719 44.136718zm0 0"/></g></svg>