<svg height="479pt" viewBox="0 0 479 479.99514" width="479pt" xmlns="http://www.w3.org/2000/svg"><path d="m368.496094 311.996094h-256v-152l128-112 128 112zm0 0" fill="#ffc170"/><path d="m8.496094 215.996094h44.640625l187.359375-168 187.359375 168h44.640625l-232-208zm0 0" fill="#ffda44"/><path d="m64.496094 391.996094c0 44.183594 35.816406 80 80 80h176c43.4375.023437 81.46875-29.140625 92.71875-71.09375 11.246094-41.953125-7.097656-86.230469-44.71875-107.9375-13.664063-7.902344-29.070313-12.300782-44.847656-12.800782-20.160157-35.140624-60.230469-53.816406-100.101563-46.65625-39.875 7.160157-70.945313 38.609376-77.617187 78.566407-.480469 0-.945313-.070313-1.433594-.070313-11.015625-.003906-21.910156 2.28125-32 6.703125-29.144532 12.71875-47.988282 41.492188-48 73.289063zm0 0" fill="#66a7f6"/><path d="m240.496094 127.996094c0-8.835938-7.164063-16-16-16-8.835938 0-16 7.164062-16 16v32h32zm0 0" fill="#ffda44"/><path d="m272.496094 159.996094v-32c0-8.835938-7.164063-16-16-16-8.835938 0-16 7.164062-16 16v32zm0 0" fill="#ffcd00"/><path d="m477.832031 210.042969-232-208c-3.039062-2.722657-7.640625-2.722657-10.679687 0l-232 208c-2.464844 2.214843-3.3125 5.71875-2.125 8.8125 1.183594 3.09375 4.15625 5.140625 7.46875 5.140625h44.640625c.398437-.050782.789062-.128906 1.175781-.242188.566406-.050781 1.121094-.160156 1.664062-.335937.546876-.242188 1.066407-.546875 1.542969-.910157.335938-.167968.65625-.355468.960938-.570312l46.015625-41.253906v133.03125c-36.230469 18.46875-55.070313 59.371094-45.558594 98.910156s44.890625 67.398438 85.558594 67.371094h176c46.210937.007812 86.882812-30.476563 99.84375-74.832032 12.960937-44.355468-4.898438-91.941406-43.84375-116.816406v-107.664062l46.015625 41.261718c.390625.308594.8125.578126 1.257812.800782.355469.261718.730469.492187 1.125.6875.9375.386718 1.941407.589844 2.953125.601562h44.648438c3.3125-.003906 6.28125-2.046875 7.460937-5.140625 1.183594-3.09375.339844-6.597656-2.125-8.8125zm-69.335937 165.953125c-.054688 48.578125-39.421875 87.945312-88 88h-176c-39.765625-.046875-71.960938-32.320313-71.914063-72.085938.042969-39.761718 32.316407-71.960937 72.082031-71.914062.136719 0 .976563.054687 1.128907.054687 3.960937.085938 7.375-2.765625 8-6.679687 6.113281-36.636719 34.601562-65.472656 71.164062-72.027344 36.558594-6.558594 73.292969 10.582031 91.753907 42.8125 1.382812 2.394531 3.902343 3.90625 6.664062 4 14.234375.4375 28.152344 4.3125 40.5625 11.292969.507812.410156 1.066406.75 1.664062 1.019531 26.671876 15.792969 42.992188 44.527344 42.894532 75.527344zm-48-95.921875c-10.253906-4.261719-21.125-6.859375-32.199219-7.695313-22.355469-35.378906-63.757813-53.886718-105.03125-46.949218-41.269531 6.9375-74.347656 37.964843-83.90625 78.710937-6.386719.390625-12.714844 1.480469-18.863281 3.253906v-141.054687l120-107.601563 120 107.601563zm70.398437-72.078125-185.0625-165.953125c-3.039062-2.722657-7.640625-2.722657-10.679687 0l-185.054688 165.953125h-20.699218l211.097656-189.257813 211.097656 189.257813zm0 0"/><path d="m224.496094 103.996094c-13.253906 0-24 10.746094-24 24v32c0 4.417968 3.582031 8 8 8h64c4.417968 0 8-3.582032 8-8v-32c.042968-9.484375-5.53125-18.097656-14.199219-21.945313-8.667969-3.851562-18.792969-2.207031-25.800781 4.183594-4.371094-3.996094-10.078125-6.222656-16-6.238281zm-8 24c0-4.417969 3.582031-8 8-8 4.417968 0 8 3.582031 8 8v24h-16zm40-8c4.417968 0 8 3.582031 8 8v24h-16v-24c0-4.417969 3.582031-8 8-8zm0 0"/></svg>