<svg height="480pt" viewBox="0 0 480.09942 480" width="480pt" xmlns="http://www.w3.org/2000/svg" xmlns:xlink="http://www.w3.org/1999/xlink"><linearGradient id="a"><stop offset="0" stop-color="#fff33b"/><stop offset=".014" stop-color="#fee72e"/><stop offset=".042" stop-color="#fed51b"/><stop offset=".07" stop-color="#fdca10"/><stop offset=".1" stop-color="#fdc70c"/><stop offset=".4" stop-color="#f3903f"/><stop offset=".8" stop-color="#ed683c"/><stop offset="1" stop-color="#e93e3a"/></linearGradient><linearGradient id="b" gradientUnits="userSpaceOnUse" x1="136" x2="136" xlink:href="#a" y1="-7.95029" y2="516.45771"/><linearGradient id="c" gradientUnits="userSpaceOnUse" x1="80" x2="80" xlink:href="#a" y1="-7.95029" y2="516.45771"/><linearGradient id="d" gradientUnits="userSpaceOnUse" x1="39" x2="39" xlink:href="#a" y1="-7.95029" y2="516.45771"/><linearGradient id="e" gradientUnits="userSpaceOnUse" x1="24" x2="24" xlink:href="#a" y1="-7.95029" y2="516.45771"/><linearGradient id="f" gradientUnits="userSpaceOnUse" x1="313.568" x2="313.568" xlink:href="#a" y1="-7.95029" y2="516.45771"/><linearGradient id="g" gradientUnits="userSpaceOnUse" x1="352" x2="352" xlink:href="#a" y1="-7.95029" y2="516.45771"/><linearGradient id="h" gradientUnits="userSpaceOnUse" x1="328" x2="328" xlink:href="#a" y1="-7.95029" y2="516.45771"/><linearGradient id="i" gradientUnits="userSpaceOnUse" x1="296" x2="296" xlink:href="#a" y1="-7.95029" y2="516.45771"/><path d="m160 304.050781c9.9375.035157 18.859375-6.078125 22.417969-15.359375 3.554687-9.277344 1-19.789062-6.417969-26.402344v-20.480468c5.351562-4.734375 8.285156-11.628906 7.980469-18.769532-.300781-7.136718-3.800781-13.761718-9.53125-18.03125l6.3125-12.671874c23.992187-19.039063 33.3125-51.171876 23.230469-80.097657-10.082032-28.921875-37.359376-48.300781-67.988282-48.300781s-57.90625 19.378906-67.988281 48.300781c-10.082031 28.925781-.761719 61.058594 23.230469 80.097657l6.304687 12.65625c-5.734375 4.269531-9.242187 10.894531-9.542969 18.039062-.300781 7.144531 2.636719 14.042969 7.992188 18.777344v20.480468c-7.417969 6.613282-9.972656 17.125-6.417969 26.402344 3.558594 9.28125 12.480469 15.394532 22.417969 15.359375zm-56-80c0-4.417969 3.582031-8 8-8h48c4.417969 0 8 3.582031 8 8s-3.582031 8-8 8h-48c-4.417969 0-8-3.582031-8-8zm-24-88c0-26.335937 18.347656-49.113281 44.078125-54.71875 25.734375-5.605469 51.894531 7.476563 62.847656 31.421875 10.953125 23.949219 3.742188 52.296875-17.324219 68.097656-.378906.289063-.734374.613282-1.066406.957032-.546875.582031-1.007812 1.238281-1.367187 1.953125l-8.128907 16.289062h-46.078124l-8.113282-16.289062c-.359375-.714844-.820312-1.371094-1.367187-1.953125l-.082031-.078125c-.300782-.320313-.632813-.613281-.984376-.878907-14.152343-10.535156-22.46875-27.160156-22.414062-44.800781zm32 112h48v8h-48zm-8 32c0-4.417969 3.582031-8 8-8h48c4.417969 0 8 3.582031 8 8s-3.582031 8-8 8h-48c-4.417969 0-8-3.582031-8-8zm0 0" fill="url(#b)"/><path d="m81.070312 56.914062c2.226563 3.792969 7.09375 5.082032 10.902344 2.882813s5.128906-7.058594 2.957032-10.882813l-16-27.710937c-2.226563-3.796875-7.09375-5.082031-10.902344-2.882813-3.808594 2.199219-5.128906 7.058594-2.957032 10.882813zm0 0" fill="url(#c)"/><path d="m56.855469 81.121094-27.710938-16c-3.824219-2.171875-8.683593-.851563-10.882812 2.953125-2.199219 3.808593-.910157 8.679687 2.882812 10.902343l27.710938 16c3.824219 2.175782 8.683593.855469 10.882812-2.953124 2.199219-3.808594.910157-8.675782-2.882812-10.902344zm0 0" fill="url(#d)"/><path d="m40 128.050781h-32c-4.417969 0-8 3.582031-8 8s3.582031 8 8 8h32c4.417969 0 8-3.582031 8-8s-3.582031-8-8-8zm0 0" fill="url(#e)"/><path d="m136 48.050781c4.417969 0 8-3.582031 8-8v-32c0-4.417969-3.582031-7.9999998-8-7.9999998s-8 3.5820308-8 7.9999998v32c0 4.417969 3.582031 8 8 8zm0 0" fill="url(#b)"/><path d="m369.472656 64.050781h-121.472656c-.253906.035157-.503906.085938-.753906.152344-1.523438-.136719-3.054688.183594-4.398438.917969l-27.710937 16c-3.792969 2.226562-5.082031 7.09375-2.882813 10.902344 2.199219 3.808593 7.058594 5.128906 10.882813 2.953124l25.863281-14.925781h120.480469c3.894531 11.019531 15.164062 17.628907 26.683593 15.652344 11.523438-1.976563 19.941407-11.964844 19.941407-23.652344 0-11.691406-8.417969-21.679687-19.941407-23.65625-11.519531-1.976562-22.789062 4.636719-26.683593 15.65625zm30.527344 8c0 4.417969-3.582031 8-8 8s-8-3.582031-8-8 3.582031-8 8-8 8 3.582031 8 8zm0 0" fill="url(#f)"/><path d="m456 112.050781c-10.132812.039063-19.148438 6.445313-22.527344 16h-201.472656c-4.417969 0-8 3.582031-8 8s3.582031 8 8 8h201.472656c4.085938 11.476563 16.136719 18.058594 28.003906 15.292969 11.863282-2.761719 19.769532-13.988281 18.367188-26.089844-1.402344-12.101562-11.660156-21.226562-23.84375-21.203125zm0 32c-4.417969 0-8-3.582031-8-8s3.582031-8 8-8 8 3.582031 8 8-3.582031 8-8 8zm0 0" fill="url(#g)"/><path d="m180 58.738281c3.828125 2.203125 8.714844.886719 10.921875-2.9375l13.703125-23.75h228.847656c3.894532 11.019531 15.164063 17.628907 26.683594 15.652344 11.523438-1.976563 19.941406-11.964844 19.941406-23.652344 0-11.691406-8.417968-21.679687-19.941406-23.65625-11.519531-1.976562-22.789062 4.636719-26.683594 15.65625h-233.472656c-2.859375 0-5.5 1.523438-6.929688 4l-16 27.757813c-2.207031 3.828125-.894531 8.71875 2.929688 10.929687zm276-42.6875c4.417969 0 8 3.582031 8 8s-3.582031 8-8 8-8-3.582031-8-8 3.582031-8 8-8zm0 0" fill="url(#h)"/><path d="m383.800781 272.449219c-22.351562-35.386719-63.753906-53.898438-105.03125-46.964844-41.273437 6.9375-74.351562 37.96875-83.90625 78.71875-47.503906 2.792969-84.179687 42.847656-82.792969 90.414063 1.390626 47.570312 40.34375 85.414062 87.929688 85.433593h176c55.914062.035157 101.839844-44.167969 103.9375-100.042969 2.101562-55.875-40.378906-103.398437-96.136719-107.558593zm79.933594 110.800781c-4.59375 46.277344-43.808594 81.363281-90.308594 80.800781h-171.128906c-36.214844.5-67.402344-25.445312-73.496094-61.144531-3.132812-20.777344 2.953125-41.886719 16.664063-57.804688 13.710937-15.921874 33.683594-25.070312 54.695312-25.050781l1.230469.054688c3.910156 0 7.246094-2.824219 7.890625-6.679688 6.117188-36.628906 34.601562-65.457031 71.152344-72.019531 36.550781-6.558594 73.285156 10.566406 91.757812 42.78125 1.382813 2.398438 3.910156 3.910156 6.679688 4 24.105468.671875 46.867187 11.25 62.925781 29.238281s23.992187 41.796875 21.9375 65.824219zm0 0" fill="url(#i)"/></svg>