<svg height="511pt" viewBox="0 -21 511.998 511" width="511pt" xmlns="http://www.w3.org/2000/svg"><path d="m370.476562 54.230469c0 29.671875-82.933593 57.398437-185.238281 57.398437-102.304687 0-185.238281-27.726562-185.238281-57.398437 0-29.675781 82.933594-53.730469 185.238281-53.730469 102.304688 0 185.238281 24.054688 185.238281 53.730469zm0 0" fill="#616377"/><path d="m23.570312 54.230469c0-28.527344 76.644532-51.855469 173.453126-53.621094-3.898438-.070313-7.824219-.109375-11.785157-.109375-102.304687 0-185.238281 24.054688-185.238281 53.730469 0 30.828125 89.5 59.523437 197.023438 57.273437-96.808594-2.027344-173.453126-28.75-173.453126-57.273437zm0 0" fill="#525468"/><path d="m294.21875 328.433594c0-4.515625.414062-8.929688 1.164062-13.226563-121.550781 26.117188-295.382812.882813-295.382812-43.199219v108.886719c0 29.671875 82.933594 53.730469 185.238281 53.730469 75.222657 0 139.96875-13.007812 168.980469-31.6875-34.304688-7.453125-60-37.96875-60-74.503906zm0 0" fill="#3e4151"/><path d="m23.570312 298.246094c-15.003906-7.761719-23.570312-16.710938-23.570312-26.238282v108.886719c0 9.53125 8.566406 18.480469 23.570312 26.242188zm0 0" fill="#353744"/><path d="m185.238281 107.960938c-102.304687 0-185.238281-24.058594-185.238281-53.730469v108.886719c0 29.675781 82.933594 53.730468 185.238281 53.730468 102.304688 0 185.238281-24.054687 185.238281-53.730468v-108.886719c0 29.671875-82.933593 53.730469-185.238281 53.730469zm0 0" fill="#3e4151"/><path d="m23.570312 80.46875c-15.003906-7.757812-23.570312-16.707031-23.570312-26.238281v108.886719c0 9.53125 8.566406 18.480468 23.570312 26.242187zm0 0" fill="#353744"/><path d="m370.476562 252.171875v-92.726563c0 29.675782-82.933593 53.730469-185.238281 53.730469-102.304687 0-185.238281-24.054687-185.238281-53.730469v116.234376c0 43.945312 172.980469 69.292968 294.820312 43.316406 4.648438-37.660156 36.734376-66.824219 75.65625-66.824219zm0 0" fill="#525468"/><path d="m23.570312 185.6875c-15.003906-7.761719-23.570312-16.710938-23.570312-26.242188v116.230469c0 9.53125 8.566406 18.480469 23.570312 26.242188zm0 0" fill="#3e4151"/><path d="m406.160156 326.316406-16.0625-27.820312c-.734375-1.273438-2.089844-2.054688-3.558594-2.054688h-32.125c-1.46875 0-2.824218.78125-3.558593 2.054688l-16.0625 27.820312c-.734375 1.273438-.734375 2.839844 0 4.109375l16.0625 27.820313c.734375 1.273437 2.089843 2.054687 3.558593 2.054687h32.125c1.46875 0 2.824219-.78125 3.558594-2.054687l16.0625-27.820313c.734375-1.273437.734375-2.835937 0-4.109375zm0 0" fill="#ffc964"/><path d="m505.734375 306.144531h-24.003906c-2.882813 0-5.363281-1.976562-6.078125-4.769531-2.578125-10.058594-6.558594-19.554688-11.722656-28.269531-1.472657-2.484375-1.117188-5.636719.925781-7.679688l16.980469-16.980469c2.445312-2.449218 2.445312-6.414062 0-8.859374l-22.574219-22.574219c-2.445313-2.445313-6.414063-2.445313-8.859375 0l-16.980469 16.980469c-2.039063 2.042968-5.195313 2.398437-7.679687.925781-8.714844-5.164063-18.207032-9.144531-28.269532-11.722657-2.792968-.714843-4.769531-3.195312-4.769531-6.078124v-24.007813c0-3.457031-2.804687-6.261719-6.261719-6.261719h-31.925781c-3.460937 0-6.265625 2.804688-6.265625 6.261719v24.007813c0 2.882812-1.976562 5.363281-4.769531 6.078124-10.058594 2.578126-19.554688 6.558594-28.265625 11.722657-2.484375 1.472656-5.640625 1.117187-7.683594-.925781l-16.980469-16.980469c-2.445312-2.445313-6.410156-2.445313-8.859375 0l-22.574218 22.574219c-2.445313 2.445312-2.445313 6.410156 0 8.859374l16.984374 16.980469c2.039063 2.039063 2.394532 5.195313.925782 7.679688-5.164063 8.710937-9.148438 18.207031-11.722656 28.269531-.714844 2.792969-3.195313 4.769531-6.082032 4.769531h-24.003906c-3.460938 0-6.265625 2.804688-6.265625 6.261719v31.925781c0 3.460938 2.808594 6.265625 6.265625 6.265625h24.003906c2.886719 0 5.367188 1.976563 6.082032 4.769532 2.574218 10.058593 6.554687 19.554687 11.722656 28.269531 1.46875 2.480469 1.113281 5.636719-.925782 7.679687l-16.984374 16.980469c-2.445313 2.445313-2.445313 6.414063 0 8.859375l22.574218 22.574219c2.445313 2.445312 6.414063 2.445312 8.859375 0l16.980469-16.984375c2.042969-2.039063 5.195312-2.394532 7.679688-.921875 8.714843 5.164062 18.207031 9.144531 28.269531 11.722656 2.792969.714844 4.769531 3.195313 4.769531 6.078125v24.007812c0 3.457032 2.804688 6.261719 6.261719 6.261719h31.925781c3.460938 0 6.261719-2.804687 6.261719-6.261719v-24.007812c0-2.882812 1.980469-5.363281 4.773437-6.078125 10.058594-2.578125 19.554688-6.558594 28.265625-11.722656 2.484375-1.472657 5.640625-1.117188 7.683594.921875l16.980469 16.984375c2.445312 2.445312 6.410156 2.445312 8.859375 0l22.574219-22.574219c2.445312-2.445312 2.445312-6.414062 0-8.859375l-16.984376-16.980469c-2.039062-2.042968-2.394531-5.199218-.925781-7.679687 5.167969-8.714844 9.148438-18.210938 11.722657-28.269531.714843-2.796876 3.199218-4.769532 6.082031-4.769532h24.003906c3.457031 0 6.261719-2.808594 6.261719-6.265625v-31.925781c.003906-3.457031-2.800782-6.261719-6.261719-6.261719zm-135.257813 90.277344c-37.585937 0-68.050781-30.46875-68.050781-68.050781 0-37.585938 30.464844-68.050782 68.050781-68.050782 37.582032 0 68.050782 30.464844 68.050782 68.050782 0 37.582031-30.46875 68.050781-68.050782 68.050781zm0 0" fill="#ffc964"/><g fill="#f3a334"><path d="m371.460938 358.246094-16.066407-27.820313c-.734375-1.269531-.734375-2.835937 0-4.109375l16.066407-27.820312c.730468-1.273438 2.089843-2.054688 3.558593-2.054688h-20.605469c-1.46875 0-2.824218.78125-3.558593 2.054688l-16.0625 27.820312c-.734375 1.273438-.734375 2.839844 0 4.109375l16.0625 27.820313c.734375 1.273437 2.089843 2.054687 3.558593 2.054687h20.605469c-1.46875 0-2.828125-.78125-3.558593-2.054687zm0 0"/><path d="m276.097656 265.425781c2.042969 2.042969 2.394532 5.195313.925782 7.679688-5.164063 8.710937-9.144532 18.210937-11.722657 28.269531-.714843 2.792969-3.195312 4.769531-6.078125 4.769531h20.601563c2.886719 0 5.367187-1.976562 6.082031-4.769531 2.574219-10.058594 6.558594-19.554688 11.722656-28.269531 1.46875-2.484375 1.113282-5.636719-.925781-7.679688l-16.984375-16.980469c-2.445312-2.445312-2.445312-6.414062 0-8.859374l16.703125-16.699219-5.875-5.875c-2.445313-2.445313-6.410156-2.445313-8.855469 0l-22.574218 22.574219c-2.445313 2.445312-2.445313 6.414062 0 8.859374zm0 0"/><path d="m279.722656 417.15625c-2.449218-2.445312-2.449218-6.414062 0-8.859375l16.980469-16.980469c2.039063-2.042968 2.394531-5.195312.925781-7.679687-5.164062-8.710938-9.148437-18.207031-11.722656-28.269531-.714844-2.792969-3.195312-4.769532-6.082031-4.769532h-20.601563c2.882813 0 5.367188 1.976563 6.078125 4.769532 2.578125 10.0625 6.558594 19.558593 11.722657 28.269531 1.472656 2.484375 1.117187 5.636719-.925782 7.679687l-16.980468 16.980469c-2.445313 2.445313-2.445313 6.414063 0 8.859375l22.574218 22.574219c2.445313 2.445312 6.414063 2.445312 8.859375 0l5.871094-5.871094zm0 0"/><path d="m249.558594 344.332031v-31.925781c0-3.457031 2.804687-6.261719 6.261718-6.261719h-20.601562c-3.460938 0-6.265625 2.804688-6.265625 6.261719v31.925781c0 3.460938 2.804687 6.265625 6.265625 6.265625h20.601562c-3.460937 0-6.261718-2.804687-6.261718-6.265625zm0 0"/><path d="m354.515625 186.847656c-3.460937 0-6.265625 2.804688-6.265625 6.265625v24.003907c0 1.683593-.691406 3.222656-1.808594 4.359374 2.929688-1.429687 8.113282-3.339843 15.859375-4.0625 3.722657-.351562 6.550781-3.511718 6.550781-7.253906v-17.046875c0-3.460937 2.804688-6.265625 6.265626-6.265625zm0 0"/><path d="m368.855469 463.632812v-17.777343c0-3.390625-2.621094-6.191407-6-6.464844-8.058594-.65625-13.320313-2.546875-16.300781-4 1.050781 1.125 1.695312 2.609375 1.695312 4.238281v24.003906c0 3.457032 2.804688 6.261719 6.261719 6.261719h20.605469c-3.460938 0-6.261719-2.804687-6.261719-6.261719zm0 0"/></g></svg>