<?xml version="1.0" encoding="iso-8859-1"?>
<!-- Generator: Adobe Illustrator 21.0.0, SVG Export Plug-In . SVG Version: 6.00 Build 0)  -->
<svg xmlns="http://www.w3.org/2000/svg" xmlns:xlink="http://www.w3.org/1999/xlink" version="1.1" id="Capa_1" x="0px" y="0px" viewBox="0 0 511.969 511.969" style="enable-background:new 0 0 511.969 511.969;" xml:space="preserve" width="512" height="512">
<g>
	<g>
		<path style="fill:#616377;" d="M367.044,80.781c0,28.804-80.501,55.717-179.804,55.717S7.436,109.585,7.436,80.781    S87.937,28.628,187.24,28.628S367.044,51.978,367.044,80.781z"/>
		<path style="fill:#525468;" d="M30.316,80.781c0-27.689,74.393-50.333,168.364-52.045c-3.784-0.069-7.596-0.108-11.44-0.108    c-99.303,0-179.804,23.35-179.804,52.154c0,29.926,86.874,57.779,191.245,55.593C104.709,134.407,30.316,108.47,30.316,80.781z"/>
		<path style="fill:#3E4151;" d="M293.022,346.941c0-4.381,0.402-8.666,1.132-12.838C176.169,359.455,7.436,334.959,7.436,292.17    v105.695c0,28.803,80.501,52.153,179.804,52.153c73.016,0,135.864-12.625,164.022-30.758    C317.966,412.027,293.022,382.404,293.022,346.941z"/>
		<path style="fill:#353744;" d="M30.316,317.641c-14.565-7.533-22.881-16.22-22.881-25.471v105.695    c0,9.251,8.316,17.938,22.881,25.471V317.641z"/>
		<path style="fill:#3E4151;" d="M187.24,132.935c-99.303,0-179.804-23.349-179.804-52.153v105.695    c0,28.804,80.501,52.153,179.804,52.153s179.804-23.349,179.804-52.153V80.781C367.044,109.585,286.543,132.935,187.24,132.935z"/>
		<path style="fill:#353744;" d="M30.316,106.253C15.751,98.72,7.436,90.033,7.436,80.781v105.694    c0,9.252,8.316,17.939,22.881,25.472V106.253z"/>
		<path style="fill:#525468;" d="M367.044,272.918v-90.006c0,28.804-80.501,52.154-179.804,52.154S7.436,211.716,7.436,182.912    v112.822c0,42.656,167.906,67.26,286.17,42.049C298.12,301.226,329.266,272.918,367.044,272.918z"/>
		<path style="fill:#3E4151;" d="M30.316,208.384c-14.565-7.533-22.881-16.22-22.881-25.471v112.821    c0,9.251,8.316,17.938,22.881,25.471V208.384z"/>
		<path style="fill:#FFC964;" d="M401.682,344.887l-15.591-27.004c-0.713-1.235-2.03-1.995-3.455-1.995h-31.182    c-1.425,0-2.743,0.76-3.455,1.995l-15.591,27.004c-0.713,1.235-0.713,2.755,0,3.99l15.591,27.004    c0.713,1.235,2.03,1.995,3.455,1.995h31.182c1.425,0,2.743-0.76,3.455-1.995l15.591-27.004    C402.394,347.642,402.394,346.121,401.682,344.887z"/>
		<path style="fill:#FFC964;" d="M498.337,325.307h-23.301c-2.799,0-5.208-1.919-5.902-4.63c-2.5-9.765-6.364-18.983-11.378-27.44    c-1.428-2.41-1.084-5.473,0.897-7.454l16.483-16.483c2.374-2.374,2.374-6.225,0-8.599l-21.912-21.913    c-2.374-2.374-6.225-2.374-8.599,0l-16.484,16.483c-1.981,1.981-5.044,2.326-7.454,0.897c-8.457-5.013-17.674-8.877-27.439-11.378    c-2.712-0.694-4.631-3.103-4.631-5.902v-23.3c0-3.358-2.722-6.08-6.079-6.08H351.55c-3.358,0-6.081,2.722-6.081,6.08v23.3    c0,2.799-1.918,5.208-4.63,5.902c-9.765,2.5-18.982,6.364-27.439,11.378c-2.411,1.429-5.473,1.084-7.455-0.897l-16.483-16.483    c-2.374-2.374-6.224-2.374-8.599,0l-21.912,21.913c-2.374,2.374-2.374,6.224,0,8.599l16.483,16.484    c1.981,1.98,2.325,5.043,0.897,7.454c-5.013,8.457-8.878,17.675-11.378,27.44c-0.694,2.711-3.103,4.63-5.902,4.63h-23.3    c-3.358,0-6.081,2.722-6.081,6.08v30.988c0,3.358,2.722,6.081,6.081,6.081h23.3c2.799,0,5.208,1.918,5.902,4.63    c2.5,9.765,6.365,18.982,11.378,27.44c1.428,2.41,1.084,5.473-0.897,7.454l-16.483,16.484c-2.374,2.374-2.374,6.224,0,8.599    l21.912,21.913c2.374,2.374,6.225,2.374,8.599,0l16.483-16.484c1.982-1.981,5.044-2.325,7.455-0.897    c8.457,5.013,17.674,8.877,27.439,11.378c2.712,0.694,4.63,3.103,4.63,5.902v23.3c0,3.358,2.722,6.08,6.081,6.08h30.989    c3.357,0,6.079-2.722,6.079-6.08v-23.3c0-2.799,1.919-5.208,4.631-5.902c9.765-2.5,18.982-6.365,27.439-11.378    c2.41-1.429,5.473-1.084,7.454,0.897l16.484,16.484c2.374,2.374,6.224,2.374,8.599,0l21.912-21.913    c2.374-2.374,2.374-6.224,0-8.599l-16.483-16.483c-1.981-1.982-2.325-5.044-0.897-7.454c5.013-8.458,8.878-17.675,11.378-27.44    c0.694-2.712,3.103-4.63,5.902-4.63h23.301c3.357,0,6.08-2.723,6.08-6.081v-30.988    C504.417,328.029,501.694,325.307,498.337,325.307z M367.044,412.936c-36.481,0-66.055-29.574-66.055-66.055    s29.574-66.055,66.055-66.055s66.055,29.574,66.055,66.055S403.525,412.936,367.044,412.936z"/>
		<path style="fill:#F3A334;" d="M367.998,375.881l-15.591-27.004c-0.712-1.235-0.712-2.755,0-3.99l15.591-27.004    c0.712-1.235,2.03-1.995,3.455-1.995h-20c-1.425,0-2.743,0.76-3.455,1.995l-15.591,27.004c-0.712,1.235-0.712,2.755,0,3.99    l15.591,27.004c0.712,1.235,2.03,1.995,3.455,1.995h20C370.028,377.876,368.71,377.116,367.998,375.881z"/>
		<path style="fill:#F3A334;" d="M275.435,285.784c1.981,1.98,2.325,5.043,0.897,7.454c-5.013,8.457-8.878,17.675-11.378,27.439    c-0.693,2.711-3.103,4.63-5.902,4.63h20c2.799,0,5.208-1.919,5.902-4.63c2.5-9.765,6.365-18.983,11.378-27.439    c1.428-2.41,1.083-5.473-0.897-7.454L278.952,269.3c-2.375-2.375-2.375-6.225,0-8.599l16.211-16.212l-5.701-5.701    c-2.374-2.375-6.224-2.375-8.599,0l-21.912,21.913c-2.375,2.374-2.375,6.224,0,8.599L275.435,285.784z"/>
		<path style="fill:#F3A334;" d="M278.952,433.062c-2.375-2.374-2.375-6.224,0-8.598l16.483-16.484    c1.981-1.981,2.325-5.043,0.897-7.454c-5.013-8.458-8.878-17.675-11.378-27.439c-0.693-2.712-3.103-4.63-5.902-4.63h-20    c2.799,0,5.208,1.918,5.902,4.63c2.5,9.765,6.365,18.982,11.378,27.439c1.428,2.41,1.083,5.473-0.897,7.454l-16.483,16.484    c-2.375,2.374-2.375,6.224,0,8.598l21.912,21.913c2.375,2.375,6.225,2.375,8.599,0l5.701-5.701L278.952,433.062z"/>
		<path style="fill:#F3A334;" d="M249.672,362.376v-30.988c0-3.358,2.722-6.08,6.081-6.08h-20c-3.358,0-6.081,2.722-6.081,6.08    v30.988c0,3.358,2.722,6.081,6.081,6.081h20C252.394,368.456,249.672,365.734,249.672,362.376z"/>
		<path style="fill:#F3A334;" d="M351.55,209.51c-3.358,0-6.081,2.722-6.081,6.081v23.3c0,1.636-0.668,3.127-1.755,4.232    c2.846-1.386,7.874-3.24,15.396-3.944c3.613-0.338,6.359-3.409,6.359-7.038v-16.55c0-3.358,2.722-6.08,6.081-6.08H351.55z"/>
		<path style="fill:#F3A334;" d="M365.469,478.174v-17.256c0-3.291-2.543-6.007-5.823-6.273c-7.824-0.636-12.93-2.472-15.821-3.885    c1.019,1.093,1.644,2.535,1.644,4.114v23.3c0,3.358,2.722,6.08,6.08,6.08h20.001C368.192,484.254,365.469,481.532,365.469,478.174    z"/>
	</g>
	<g>
		<path d="M498.389,317.465h-22.2c-2.56-9.622-6.391-18.862-11.402-27.497l15.708-15.708c5.293-5.295,5.292-13.91-0.001-19.203    l-21.914-21.915c-5.295-5.293-13.91-5.292-19.203,0.001l-15.708,15.707c-8.635-5.011-17.875-8.843-27.497-11.401v-22.201    c0-7.487-6.092-13.579-13.58-13.579h-7.994V80.346c0-17.852-20.079-33.128-58.067-44.176    c-34.621-10.068-80.517-15.613-129.23-15.613C97.415,20.557,0,40.867,0,80.346c0,7.446,0,314.063,0,317.906    c0,45.754,121.064,58.098,169.576,59.542c0.075,0.002,0.151,0.003,0.227,0.003c4.039,0,7.372-3.213,7.493-7.277    c0.123-4.14-3.134-7.596-7.274-7.72C76.697,440.024,15,417.183,15,398.252v-81.169c41.791,31.527,145.441,37.493,207.224,33.994    v10.956c0,7.488,6.093,13.581,13.581,13.581h22.2c2.559,9.621,6.391,18.861,11.402,27.497L253.7,418.817    c-2.564,2.565-3.978,5.976-3.978,9.604c0,4.849,2.099,7.722,5.125,10.75c-16.11,1.944-32.949,3.175-50.259,3.661    c-4.141,0.116-7.403,3.566-7.287,7.707c0.114,4.069,3.448,7.29,7.493,7.29c0.071,0,0.143-0.001,0.214-0.003    c21.946-0.615,43.171-2.408,63.188-5.305l7.416,7.416c5.296,5.296,13.912,5.293,19.206-0.001l15.706-15.707    c8.632,5.01,17.872,8.842,27.497,11.403v22.2c0,7.488,6.093,13.58,13.581,13.58h30.988c7.488,0,13.58-6.092,13.58-13.58v-22.2    c9.623-2.561,18.864-6.392,27.498-11.402l15.706,15.707c5.293,5.291,13.907,5.295,19.206-0.001l21.912-21.912    c5.293-5.294,5.294-13.909,0-19.206l-15.707-15.706c5.012-8.637,8.843-17.875,11.402-27.497h22.2    c7.488,0,13.58-6.093,13.58-13.581v-30.988C511.969,323.557,505.877,317.465,498.389,317.465z M15,105.146    c61.476,46.39,282.647,46.748,344.597,0v81.169c0,18.702-65.548,44.789-172.298,44.789C80.548,231.104,15,205.017,15,186.314    V105.146z M316.529,230.49c7.961-2.315,15.125-4.818,21.492-7.49v14.448c-9.622,2.56-18.863,6.392-27.497,11.401l-13.437-13.438    C303.889,233.916,310.39,232.276,316.529,230.49z M187.299,35.557c106.75,0,172.298,26.087,172.298,44.789    s-65.548,44.789-172.298,44.789C80.548,125.135,15,99.048,15,80.346S80.548,35.557,187.299,35.557z M15,292.283v-81.169    c44.18,33.338,166.846,41.95,253.134,29.508l-14.432,14.433c-5.308,5.306-5.312,13.896-0.002,19.206l15.707,15.708    c-5.012,8.634-8.843,17.874-11.402,27.496h-22.2c-7.488,0-13.581,6.092-13.581,13.58v5.004C103.324,342.952,15,314.622,15,292.283    z M496.969,360.614h-21.881c-6.207,0-11.621,4.224-13.167,10.27c-2.288,8.938-5.843,17.509-10.565,25.478    c-3.183,5.373-2.341,12.191,2.047,16.58l15.479,15.479l-19.904,19.904l-15.481-15.481c-4.389-4.388-11.207-5.228-16.58-2.044    c-7.963,4.721-16.534,8.274-25.474,10.564c-6.048,1.546-10.271,6.961-10.271,13.167v21.881h-28.149v-21.881    c0-6.207-4.225-11.622-10.269-13.167c-8.941-2.29-17.513-5.844-25.477-10.564c-5.374-3.187-12.191-2.344-16.582,2.046    l-15.479,15.479l-19.903-19.904l15.479-15.479c4.388-4.389,5.229-11.207,2.046-16.582c-4.722-7.967-8.276-16.538-10.563-25.473    c-1.547-6.049-6.961-10.272-13.168-10.272h-21.882v-28.149h21.882c6.206,0,11.621-4.224,13.167-10.27    c2.289-8.939,5.843-17.511,10.565-25.478c3.184-5.374,2.341-12.192-2.047-16.578l-15.479-15.48l19.904-19.905l15.479,15.479    c4.391,4.389,11.209,5.229,16.583,2.046c7.964-4.721,16.534-8.274,25.474-10.563c6.047-1.548,10.271-6.963,10.271-13.168v-21.88    h28.149v21.88c0,6.204,4.223,11.619,10.27,13.168c8.94,2.289,17.512,5.843,25.476,10.563c5.372,3.188,12.191,2.344,16.581-2.045    l15.48-15.479l19.904,19.904l-15.479,15.479c-4.388,4.389-5.229,11.207-2.046,16.582c4.722,7.965,8.275,16.536,10.564,25.474    c1.546,6.048,6.961,10.271,13.167,10.271h21.881V360.614z"/>
		<path d="M367.097,272.984c-40.559,0-73.555,32.996-73.555,73.555s32.996,73.555,73.555,73.555s73.555-32.996,73.555-73.555    S407.655,272.984,367.097,272.984z M367.097,405.094c-32.287,0-58.555-26.268-58.555-58.555s26.268-58.555,58.555-58.555    s58.555,26.268,58.555,58.555S399.384,405.094,367.097,405.094z"/>
		<path d="M380.661,323.045l5.626,9.744c2.072,3.588,6.659,4.814,10.245,2.745c3.587-2.071,4.816-6.658,2.745-10.245l-6.638-11.496    c-2.045-3.546-5.858-5.748-9.952-5.748h-31.182c-4.092,0-7.904,2.201-9.951,5.745l-15.591,27.004    c-2.046,3.543-2.046,7.945,0,11.491l15.591,27.005c2.047,3.543,5.859,5.744,9.951,5.744h31.182c4.094,0,7.907-2.202,9.95-5.745    l6.64-11.5c2.071-3.587,0.842-8.174-2.745-10.245c-3.59-2.071-8.176-0.844-10.245,2.745l-5.627,9.745h-27.128l-13.564-23.494    l13.564-23.495H380.661z"/>
	</g>
</g>















</svg>
