<svg height="480pt" viewBox="0 0 480 480" width="480pt" xmlns="http://www.w3.org/2000/svg" xmlns:xlink="http://www.w3.org/1999/xlink"><linearGradient id="a"><stop offset="0" stop-color="#e93e3a"/><stop offset=".359" stop-color="#ed683c"/><stop offset=".705" stop-color="#f3903f"/><stop offset="1" stop-color="#fdc70c"/></linearGradient><linearGradient id="b" gradientUnits="userSpaceOnUse" x1="240" x2="240" xlink:href="#a" y1="479.04" y2="-41.928"/><linearGradient id="c" gradientUnits="userSpaceOnUse" x1="112" x2="112" xlink:href="#a" y1="479.04" y2="-41.928"/><linearGradient id="d" gradientUnits="userSpaceOnUse" x1="368" x2="368" xlink:href="#a" y1="479.04" y2="-41.928"/><linearGradient id="e" gradientUnits="userSpaceOnUse" x1="328" x2="328" xlink:href="#a" y1="479.04" y2="-41.928"/><linearGradient id="f" gradientUnits="userSpaceOnUse" x1="384" x2="384" xlink:href="#a" y1="479.04" y2="-41.928"/><path d="m440 80h-178.878906c-3.804688.003906-7.089844-2.671875-7.847656-6.398438l-8.28125-41.441406c-3.773438-18.675781-20.167969-32.1210935-39.222657-32.160156h-165.769531c-22.082031.0273438-39.9726562 17.917969-40 40v400c.0273438 22.082031 17.917969 39.972656 40 40h400c22.082031-.027344 39.972656-17.917969 40-40v-320c-.027344-22.082031-17.917969-39.972656-40-40zm-400-64h165.769531c11.429688.03125 21.261719 8.09375 23.535157 19.296875l8.296874 41.414063c2.261719 11.199218 12.09375 19.261718 23.519532 19.289062h178.878906c13.253906 0 24 10.746094 24 24v104h-56v-56c0-13.253906-10.746094-24-24-24h-288c-13.253906 0-24 10.746094-24 24v56h-56v-184c0-13.253906 10.746094-24 24-24zm352 208h-304v-56c0-4.417969 3.582031-8 8-8h288c4.417969 0 8 3.582031 8 8zm72 216c0 13.253906-10.746094 24-24 24h-400c-13.253906 0-24-10.746094-24-24v-200h448zm0 0" fill="url(#b)"/><path d="m40 96h144c4.417969 0 8-3.582031 8-8v-48c0-4.417969-3.582031-8-8-8h-144c-4.417969 0-8 3.582031-8 8v48c0 4.417969 3.582031 8 8 8zm8-48h128v32h-128zm0 0" fill="url(#c)"/><path d="m288 368v64c0 8.835938 7.164062 16 16 16h128c8.835938 0 16-7.164062 16-16v-64c0-8.835938-7.164062-16-16-16h-128c-8.835938 0-16 7.164062-16 16zm144 64h-128v-64h128zm0 0" fill="url(#d)"/><path d="m320 384h16v16h-16zm0 0" fill="url(#e)"/><path d="m352 384h64v16h-64zm0 0" fill="url(#f)"/></svg>