<svg height="464pt" viewBox="0 0 464 464" width="464pt" xmlns="http://www.w3.org/2000/svg"><path d="m432 80h-178.878906c-7.632813.003906-14.203125-5.382812-15.695313-12.863281l-8.28125-41.410157c-2.992187-14.957031-16.121093-25.726562-31.375-25.726562h-165.769531c-17.671875 0-32 14.328125-32 32v192h72v-64c0-8.835938 7.164062-16 16-16h288c8.835938 0 16 7.164062 16 16v64h72v-112c0-17.671875-14.328125-32-32-32zm-256 0h-144v-48h144zm0 0" fill="#ffb655"/><path d="m72 224h-72v208c0 17.671875 14.328125 32 32 32h400c17.671875 0 32-14.328125 32-32v-208zm360 136v64c0 4.417969-3.582031 8-8 8h-128c-4.417969 0-8-3.582031-8-8v-64c0-4.417969 3.582031-8 8-8h128c4.417969 0 8 3.582031 8 8zm0 0" fill="#ffc477"/><path d="m408 160v64h-16v-64c-.027344-8.824219-7.175781-15.972656-16-16h16c8.824219.027344 15.972656 7.175781 16 16zm0 0" fill="#ffa733"/><path d="m32 32h144v48h-144zm0 0" fill="#ff9478"/><path d="m296 352h128c4.417969 0 8 3.582031 8 8v64c0 4.417969-3.582031 8-8 8h-128c-4.417969 0-8-3.582031-8-8v-64c0-4.417969 3.582031-8 8-8zm0 0" fill="#ff9478"/><path d="m312 376h16v16h-16zm0 0" fill="#ffde55"/><path d="m344 376h64v16h-64zm0 0" fill="#ffde55"/><g fill="#ffa733"><path d="m0 216h72v8h-72zm0 0"/><path d="m392 216h72v8h-72zm0 0"/></g></svg>