<svg height="464pt" viewBox="-48 0 464 464" width="464pt" xmlns="http://www.w3.org/2000/svg"><path d="m16 0h336c8.835938 0 16 7.164062 16 16v432c0 8.835938-7.164062 16-16 16h-336c-8.835938 0-16-7.164062-16-16v-432c0-8.835938 7.164062-16 16-16zm0 0" fill="#ff9478"/><path d="m368 249.199219v198.800781c-.027344 8.824219-7.175781 15.972656-16 16h-168s184-45.679688 184-214.800781zm0 0" fill="#ff9478"/><path d="m56 32h80c4.417969 0 8 3.582031 8 8v80c0 4.417969-3.582031 8-8 8h-80c-4.417969 0-8-3.582031-8-8v-80c0-4.417969 3.582031-8 8-8zm0 0" fill="#ffc477"/><path d="m320 296c0 75.109375-60.890625 136-136 136s-136-60.890625-136-136 60.890625-136 136-136 136 60.890625 136 136zm0 0" fill="#e6e7e8"/><path d="m126 128h.03125l-6.199219-30.558594-12.992187-12.296875-30.070313 10.945313-2.042969 17.765625 77.273438 142.144531-17.585938-86.648438-.015624.007813.015624-.007813-8.382812-41.351562zm0 0" fill="#ffeb99"/><path d="m208 296c0 13.253906-10.746094 24-24 24s-24-10.746094-24-24 10.746094-24 24-24 24 10.746094 24 24zm0 0" fill="#ff7956"/><path d="m184 408v-16c52.996094-.058594 95.941406-43.003906 96-96h16c-.066406 61.828125-50.171875 111.933594-112 112zm0 0" fill="#acabb1"/><path d="m368 248v200c-.027344 8.824219-7.175781 15.972656-16 16h-168s184-46.878906 184-216zm0 0" fill="#ff7956"/></svg>