<svg height="464pt" viewBox="-48 0 464 464" width="464pt" xmlns="http://www.w3.org/2000/svg"><path d="m288 0h-272l-16 16v432l16 16h336l16-16v-352zm0 0" fill="#ff9478"/><path d="m368 96v352l-16 16h-336l-16-16v-432l16-16h272zm0 0" fill="#ff9478"/><path d="m368 200.160156v247.839844l-16 16h-304s202.800781-65.601562 320-263.839844zm0 0" fill="#ff7956"/><g fill="#ffb655"><path d="m32 32h32v96h-32zm0 0"/><path d="m96 32h32v96h-32zm0 0"/><path d="m160 32h32v96h-32zm0 0"/><path d="m224 32h32v96h-32zm0 0"/><path d="m288 88h32v64h-32zm0 0"/></g><path d="m40 224h288c4.417969 0 8 3.582031 8 8v160c0 4.417969-3.582031 8-8 8h-288c-4.417969 0-8-3.582031-8-8v-160c0-4.417969 3.582031-8 8-8zm0 0" fill="#e6e7e8"/></svg>