<svg height="480pt" viewBox="-48 0 480 480" width="480pt" xmlns="http://www.w3.org/2000/svg"><path d="m24 8h336c8.835938 0 16 7.164062 16 16v432c0 8.835938-7.164062 16-16 16h-336c-8.835938 0-16-7.164062-16-16v-432c0-8.835938 7.164062-16 16-16zm0 0" fill="#ff9478"/><path d="m64 40h80c4.417969 0 8 3.582031 8 8v80c0 4.417969-3.582031 8-8 8h-80c-4.417969 0-8-3.582031-8-8v-80c0-4.417969 3.582031-8 8-8zm0 0" fill="#ffc477"/><path d="m328 304c0 75.109375-60.890625 136-136 136s-136-60.890625-136-136 60.890625-136 136-136 136 60.890625 136 136zm0 0" fill="#e6e7e8"/><path d="m134 136h.03125l-6.199219-30.558594-12.992187-12.296875-30.070313 10.945313-2.042969 17.765625 77.273438 142.144531-17.585938-86.648438-.015624.007813.015624-.007813-8.382812-41.351562zm0 0" fill="#ffeb99"/><path d="m216 304c0 13.253906-10.746094 24-24 24s-24-10.746094-24-24 10.746094-24 24-24 24 10.746094 24 24zm0 0" fill="#ff7956"/><g fill="#3e3d42"><path d="m360 0h-336c-13.253906 0-24 10.746094-24 24v432c0 13.253906 10.746094 24 24 24h336c13.253906 0 24-10.746094 24-24v-432c0-13.253906-10.746094-24-24-24zm8 456c0 4.417969-3.582031 8-8 8h-336c-4.417969 0-8-3.582031-8-8v-432c0-4.417969 3.582031-8 8-8h336c4.417969 0 8 3.582031 8 8zm0 0"/><path d="m192 160c-14.785156.011719-29.476562 2.324219-43.550781 6.847656l-4.632813-22.847656h.183594c8.835938 0 16-7.164062 16-16v-80c0-8.835938-7.164062-16-16-16h-80c-8.835938 0-16 7.164062-16 16v80c0 8.835938 7.164062 16 16 16h21.65625l23.144531 42.566406c-57.84375 41.070313-77.121093 118.167969-45.421875 181.632813 31.699219 63.460937 104.921875 94.351562 172.5 72.773437s109.347656-89.191406 98.402344-159.28125-71.339844-121.746094-142.28125-121.691406zm-109.96875-63.433594c-2.84375 1.039063-4.859375 3.59375-5.207031 6.601563l-2.046875 17.777343c-.195313 1.632813.128906 3.289063.917968 4.734376l1.265626 2.320312h-12.960938v-80h80v80h-3.433594l-4.902344-24.152344c-.328124-1.609375-1.144531-3.082031-2.335937-4.214844l-12.992187-12.296874c-2.199219-2.082032-5.386719-2.746094-8.230469-1.710938zm8.929688 23.699219 1.191406-10.355469 20.800781-7.566406 7.566406 7.199219 21.054688 103.816406zm101.039062 311.734375c-55.363281-.027344-104.4375-35.644531-121.617188-88.273438-17.183593-52.628906 1.414063-110.339843 46.097657-143.03125l36.496093 67.128907c1.894532 3.476562 6.046876 5.042969 9.765626 3.6875 3.722656-1.359375 5.886718-5.230469 5.097656-9.113281l-16.183594-79.757813c13-4.382813 26.625-6.628906 40.34375-6.640625 70.691406 0 128 57.308594 128 128s-57.308594 128-128 128zm0 0"/><path d="m192 400v16c61.828125-.066406 111.933594-50.171875 112-112h-16c-.058594 52.996094-43.003906 95.941406-96 96zm0 0"/><path d="m224 304c0-17.671875-14.328125-32-32-32s-32 14.328125-32 32 14.328125 32 32 32 32-14.328125 32-32zm-48 0c0-8.835938 7.164062-16 16-16s16 7.164062 16 16-7.164062 16-16 16-16-7.164062-16-16zm0 0"/></g></svg>