<svg height="480pt" viewBox="0 -16 480 480" width="480pt" xmlns="http://www.w3.org/2000/svg"><path d="m456 152h-432c-8.835938 0-16 7.164062-16 16v80c0 8.835938 7.164062 16 16 16h432c8.835938 0 16-7.164062 16-16v-80c0-8.835938-7.164062-16-16-16zm-376 80c-13.253906 0-24-10.746094-24-24s10.746094-24 24-24 24 10.746094 24 24-10.746094 24-24 24zm104-8c0 4.417969-3.582031 8-8 8h-16c-4.417969 0-8-3.582031-8-8v-32c0-4.417969 3.582031-8 8-8h16c4.417969 0 8 3.582031 8 8zm64 0c0 4.417969-3.582031 8-8 8h-16c-4.417969 0-8-3.582031-8-8v-32c0-4.417969 3.582031-8 8-8h16c4.417969 0 8 3.582031 8 8zm0 0" fill="#acabb1"/><path d="m456 296h-432c-8.835938 0-16 7.164062-16 16v80c0 8.835938 7.164062 16 16 16h432c8.835938 0 16-7.164062 16-16v-80c0-8.835938-7.164062-16-16-16zm-376 80c-13.253906 0-24-10.746094-24-24s10.746094-24 24-24 24 10.746094 24 24-10.746094 24-24 24zm104-8c0 4.417969-3.582031 8-8 8h-16c-4.417969 0-8-3.582031-8-8v-32c0-4.417969 3.582031-8 8-8h16c4.417969 0 8 3.582031 8 8zm0 0" fill="#acabb1"/><path d="m472 320v-8c.023438-1.398438-.183594-2.789062-.617188-4.121094.410157 4.027344.613282 8.074219.617188 12.121094zm0 0" fill="#78b9eb"/><path d="m471.359375 307.761719c.011719-.164063-.015625-.332031-.078125-.480469.0625.148438.089844.316406.078125.480469v.117187c-6.714844-64.742187-63.820313-112.328125-128.714844-107.253906s-113.910156 60.960938-110.476562 125.960938c3.433593 65.003906 58.058593 115.414062 123.128906 113.628906 65.066406-1.789063 116.84375-55.125 116.703125-120.214844-.003906-4.046875-.207031-8.09375-.617188-12.121094zm-119.359375 108.238281c-53.019531 0-96-42.980469-96-96s42.980469-96 96-96 96 42.980469 96 96-42.980469 96-96 96zm0 0" fill="#ff7956"/><path d="m448 320c0 53.019531-42.980469 96-96 96s-96-42.980469-96-96 42.980469-96 96-96 96 42.980469 96 96zm0 0" fill="#ffb655"/><path d="m456 8h-432c-8.835938 0-16 7.164062-16 16v80c0 8.835938 7.164062 16 16 16h432c8.835938 0 16-7.164062 16-16v-80c0-8.835938-7.164062-16-16-16zm-376 80c-13.253906 0-24-10.746094-24-24s10.746094-24 24-24 24 10.746094 24 24-10.746094 24-24 24zm104-8c0 4.417969-3.582031 8-8 8h-16c-4.417969 0-8-3.582031-8-8v-32c0-4.417969 3.582031-8 8-8h16c4.417969 0 8 3.582031 8 8zm64 0c0 4.417969-3.582031 8-8 8h-16c-4.417969 0-8-3.582031-8-8v-32c0-4.417969 3.582031-8 8-8h16c4.417969 0 8 3.582031 8 8zm64 0c0 4.417969-3.582031 8-8 8h-16c-4.417969 0-8-3.582031-8-8v-32c0-4.417969 3.582031-8 8-8h16c4.417969 0 8 3.582031 8 8zm0 0" fill="#acabb1"/><path d="m48 440h48c4.417969 0 8-3.582031 8-8v-24h-64v24c0 4.417969 3.582031 8 8 8zm0 0" fill="#787680"/><path d="m40 264h64v32h-64zm0 0" fill="#787680"/><path d="m40 120h64v32h-64zm0 0" fill="#787680"/><path d="m376 120h64v32h-64zm0 0" fill="#787680"/><path d="m104 64c0 13.253906-10.746094 24-24 24s-24-10.746094-24-24 10.746094-24 24-24 24 10.746094 24 24zm0 0" fill="#ff9478"/><path d="m160 40h16c4.417969 0 8 3.582031 8 8v32c0 4.417969-3.582031 8-8 8h-16c-4.417969 0-8-3.582031-8-8v-32c0-4.417969 3.582031-8 8-8zm0 0" fill="#ffe477"/><path d="m224 40h16c4.417969 0 8 3.582031 8 8v32c0 4.417969-3.582031 8-8 8h-16c-4.417969 0-8-3.582031-8-8v-32c0-4.417969 3.582031-8 8-8zm0 0" fill="#ffe477"/><path d="m288 40h16c4.417969 0 8 3.582031 8 8v32c0 4.417969-3.582031 8-8 8h-16c-4.417969 0-8-3.582031-8-8v-32c0-4.417969 3.582031-8 8-8zm0 0" fill="#ffe477"/><path d="m104 208c0 13.253906-10.746094 24-24 24s-24-10.746094-24-24 10.746094-24 24-24 24 10.746094 24 24zm0 0" fill="#ff9478"/><path d="m160 184h16c4.417969 0 8 3.582031 8 8v32c0 4.417969-3.582031 8-8 8h-16c-4.417969 0-8-3.582031-8-8v-32c0-4.417969 3.582031-8 8-8zm0 0" fill="#ffe477"/><path d="m224 184h16c4.417969 0 8 3.582031 8 8v32c0 4.417969-3.582031 8-8 8h-16c-4.417969 0-8-3.582031-8-8v-32c0-4.417969 3.582031-8 8-8zm0 0" fill="#ffe477"/><path d="m104 352c0 13.253906-10.746094 24-24 24s-24-10.746094-24-24 10.746094-24 24-24 24 10.746094 24 24zm0 0" fill="#ff9478"/><path d="m160 328h16c4.417969 0 8 3.582031 8 8v32c0 4.417969-3.582031 8-8 8h-16c-4.417969 0-8-3.582031-8-8v-32c0-4.417969 3.582031-8 8-8zm0 0" fill="#ffe477"/><g fill="#3e3d42"><path d="m368 281.472656v-9.472656h-16v8h-8v-8h-16v8c-4.417969 0-8 3.582031-8 8v64c0 4.417969 3.582031 8 8 8v8h16v-8h8v8h16v-9.472656c7.566406-2.617188 13.308594-8.867188 15.273438-16.628906 1.96875-7.761719-.105469-15.992188-5.511719-21.898438 5.40625-5.90625 7.480469-14.136719 5.511719-21.898438-1.964844-7.761718-7.707032-14.011718-15.273438-16.628906zm-32 14.527344h24c4.417969 0 8 3.582031 8 8s-3.582031 8-8 8h-24zm24 48h-24v-16h24c4.417969 0 8 3.582031 8 8s-3.582031 8-8 8zm0 0"/><path d="m352 216c-57.4375 0-104 46.5625-104 104s46.5625 104 104 104 104-46.5625 104-104c-.066406-57.410156-46.589844-103.933594-104-104zm0 192c-48.601562 0-88-39.398438-88-88s39.398438-88 88-88 88 39.398438 88 88c-.058594 48.578125-39.421875 87.941406-88 88zm0 0"/><path d="m456 128c13.253906 0 24-10.746094 24-24v-80c0-13.253906-10.746094-24-24-24h-432c-13.253906 0-24 10.746094-24 24v80c0 13.253906 10.746094 24 24 24h8v16h-8c-13.253906 0-24 10.746094-24 24v80c0 13.253906 10.746094 24 24 24h8v16h-8c-13.253906 0-24 10.746094-24 24v80c0 13.253906 10.746094 24 24 24h8v16c0 8.835938 7.164062 16 16 16h48c8.835938 0 16-7.164062 16-16v-16h155.625c48.152344 42.683594 120.597656 42.683594 168.75 0h19.625c13.253906 0 24-10.746094 24-24v-80c-.003906-1.816406-.242188-3.621094-.710938-5.375-1.410156-13.316406-4.921874-26.320312-10.402343-38.535156 6.875-4.378906 11.058593-11.941406 11.113281-20.089844v-80c0-13.253906-10.746094-24-24-24h-8v-16zm-440-24v-80c0-4.417969 3.582031-8 8-8h432c4.417969 0 8 3.582031 8 8v80c0 4.417969-3.582031 8-8 8h-432c-4.417969 0-8-3.582031-8-8zm96 40v-16h256v16zm-64-16h48v16h-48zm0 144h48v16h-48zm185.425781 0c-2.089843 5.214844-3.828125 10.558594-5.210937 16h-116.214844v-16zm-217.425781 120v-80c0-4.417969 3.582031-8 8-8h201.113281c-4.609375 34.375 5.207031 69.121094 27.125 96h-228.238281c-4.417969 0-8-3.582031-8-8zm80 40h-48v-16h48zm256 0c-61.855469 0-112-50.144531-112-112s50.144531-112 112-112 112 50.144531 112 112c-.066406 61.828125-50.171875 111.933594-112 112zm112-40c0 4.417969-3.582031 8-8 8h-4.238281c4.585937-5.699219 8.679687-11.777344 12.238281-18.167969zm0-224v80c-.03125 2.21875-1 4.320312-2.664062 5.785156-23.339844-38.726562-65.421876-62.21875-110.632813-61.761718-45.210937.453124-86.8125 24.789062-109.367187 63.976562h-217.335938c-4.417969 0-8-3.582031-8-8v-80c0-4.417969 3.582031-8 8-8h432c4.417969 0 8 3.582031 8 8zm-32-24h-48v-16h48zm0 0"/><path d="m80 96c17.671875 0 32-14.328125 32-32s-14.328125-32-32-32-32 14.328125-32 32 14.328125 32 32 32zm0-48c8.835938 0 16 7.164062 16 16s-7.164062 16-16 16-16-7.164062-16-16 7.164062-16 16-16zm0 0"/><path d="m160 96h16c8.835938 0 16-7.164062 16-16v-32c0-8.835938-7.164062-16-16-16h-16c-8.835938 0-16 7.164062-16 16v32c0 8.835938 7.164062 16 16 16zm0-48h16v32h-16zm0 0"/><path d="m224 96h16c8.835938 0 16-7.164062 16-16v-32c0-8.835938-7.164062-16-16-16h-16c-8.835938 0-16 7.164062-16 16v32c0 8.835938 7.164062 16 16 16zm0-48h16v32h-16zm0 0"/><path d="m288 96h16c8.835938 0 16-7.164062 16-16v-32c0-8.835938-7.164062-16-16-16h-16c-8.835938 0-16 7.164062-16 16v32c0 8.835938 7.164062 16 16 16zm0-48h16v32h-16zm0 0"/><path d="m352 40h80v16h-80zm0 0"/><path d="m352 72h80v16h-80zm0 0"/><path d="m80 176c-17.671875 0-32 14.328125-32 32s14.328125 32 32 32 32-14.328125 32-32-14.328125-32-32-32zm0 48c-8.835938 0-16-7.164062-16-16s7.164062-16 16-16 16 7.164062 16 16-7.164062 16-16 16zm0 0"/><path d="m176 176h-16c-8.835938 0-16 7.164062-16 16v32c0 8.835938 7.164062 16 16 16h16c8.835938 0 16-7.164062 16-16v-32c0-8.835938-7.164062-16-16-16zm-16 48v-32h16v32zm0 0"/><path d="m240 176h-16c-8.835938 0-16 7.164062-16 16v32c0 8.835938 7.164062 16 16 16h16c8.835938 0 16-7.164062 16-16v-32c0-8.835938-7.164062-16-16-16zm-16 48v-32h16v32zm0 0"/><path d="m80 384c17.671875 0 32-14.328125 32-32s-14.328125-32-32-32-32 14.328125-32 32 14.328125 32 32 32zm0-48c8.835938 0 16 7.164062 16 16s-7.164062 16-16 16-16-7.164062-16-16 7.164062-16 16-16zm0 0"/><path d="m160 384h16c8.835938 0 16-7.164062 16-16v-32c0-8.835938-7.164062-16-16-16h-16c-8.835938 0-16 7.164062-16 16v32c0 8.835938 7.164062 16 16 16zm0-48h16v32h-16zm0 0"/><path d="m400 312h16v16h-16zm0 0"/><path d="m288 312h16v16h-16zm0 0"/></g></svg>