<?xml version="1.0" encoding="iso-8859-1"?>
<!-- Generator: Adobe Illustrator 19.0.0, SVG Export Plug-In . SVG Version: 6.00 Build 0)  -->
<svg version="1.1" id="Capa_1" xmlns="http://www.w3.org/2000/svg" xmlns:xlink="http://www.w3.org/1999/xlink" x="0px" y="0px"
	 viewBox="0 0 512 512" style="enable-background:new 0 0 512 512;" xml:space="preserve">
<linearGradient id="SVGID_1_" gradientUnits="userSpaceOnUse" x1="445.2669" y1="491.0166" x2="103.3869" y2="149.1386" gradientTransform="matrix(1.0667 0 0 -1.0667 3.2666 557.5334)">
	<stop  offset="0" style="stop-color:#5B6A6A"/>
	<stop  offset="0.311" style="stop-color:#C2CECE;stop-opacity:0"/>
	<stop  offset="0.348" style="stop-color:#CAD5D5;stop-opacity:0.157"/>
	<stop  offset="0.47" style="stop-color:#E0E8E7;stop-opacity:0.669"/>
	<stop  offset="0.549" style="stop-color:#E8EFEE"/>
	<stop  offset="0.788" style="stop-color:#97AAAA"/>
	<stop  offset="0.861" style="stop-color:#9CAEAE;stop-opacity:0.724"/>
	<stop  offset="0.946" style="stop-color:#AAB9B9;stop-opacity:0.402"/>
	<stop  offset="1" style="stop-color:#B7C3C3;stop-opacity:0.196"/>
</linearGradient>
<path style="fill:url(#SVGID_1_);" d="M228.223,512c-14.901,0-27.026-12.124-27.026-27.026V472.33
	c0-7.733-4.97-14.606-12.365-17.099c-8.919-3.007-17.723-6.656-26.167-10.848c-2.531-1.257-5.351-1.921-8.157-1.921
	c-4.815,0-9.331,1.866-12.717,5.251l-8.947,8.947c-5.104,5.105-11.891,7.917-19.11,7.917c-7.22,0-14.007-2.812-19.111-7.916
	l-39.281-39.283c-5.105-5.104-7.917-11.891-7.917-19.11c0-7.218,2.811-14.005,7.917-19.11l8.947-8.947
	c5.472-5.472,6.811-13.86,3.328-20.874c-4.191-8.442-7.84-17.246-10.846-26.166c-2.493-7.396-9.365-12.365-17.1-12.365H27.027
	c-14.901-0.002-27.026-12.126-27.026-27.028v-55.554c0-14.902,12.125-27.026,27.026-27.026H39.67c7.734,0,14.607-4.97,17.1-12.365
	c3.006-8.921,6.655-17.725,10.846-26.166c3.483-7.013,2.144-15.402-3.328-20.874l-8.947-8.948
	c-5.105-5.104-7.917-11.891-7.917-19.11s2.811-14.006,7.917-19.111L94.621,55.34c5.104-5.105,11.891-7.917,19.111-7.917
	c7.218,0,14.006,2.812,19.11,7.916l8.947,8.948c3.386,3.385,7.902,5.25,12.717,5.25c2.805,0,5.626-0.665,8.157-1.921
	c8.445-4.191,17.248-7.841,26.167-10.848c7.396-2.493,12.365-9.364,12.365-17.099V27.026C201.197,12.124,213.322,0,228.223,0h55.554
	c14.901,0,27.026,12.124,27.026,27.026V39.67c0,7.734,4.97,14.606,12.365,17.099c8.919,3.007,17.723,6.656,26.167,10.848
	c2.531,1.257,5.351,1.921,8.157,1.921c4.815-0.001,9.331-1.866,12.717-5.251l8.947-8.947c5.104-5.105,11.891-7.917,19.111-7.917
	c7.218,0,14.005,2.812,19.11,7.916l39.281,39.283c5.105,5.104,7.917,11.891,7.917,19.11c0,7.218-2.811,14.006-7.917,19.11
	l-8.947,8.947c-5.472,5.472-6.811,13.86-3.328,20.874c4.191,8.442,7.84,17.246,10.846,26.166c2.493,7.396,9.365,12.365,17.1,12.365
	h12.643c14.901,0,27.026,12.124,27.026,27.026v55.554c0,14.902-12.125,27.026-27.026,27.026H472.33
	c-7.734,0-14.607,4.97-17.1,12.365c-3.006,8.921-6.655,17.725-10.846,26.166c-3.483,7.013-2.144,15.402,3.328,20.874l8.947,8.948
	c5.105,5.104,7.917,11.891,7.917,19.11c0,7.219-2.811,14.006-7.917,19.111l-39.281,39.282c-5.104,5.105-11.891,7.917-19.11,7.917
	c-7.22,0-14.007-2.812-19.111-7.916l-8.947-8.948c-3.386-3.385-7.902-5.25-12.717-5.25c-2.805,0-5.626,0.664-8.157,1.921
	c-8.445,4.191-17.248,7.841-26.167,10.848c-7.396,2.493-12.365,9.364-12.365,17.099v12.644c0,14.902-12.125,27.026-27.026,27.026
	L228.223,512L228.223,512z M256.001,173.42c-19.774,0-39.988,7.07-58.459,20.445c-1.413,1.024-2.651,2.261-3.676,3.677
	c-22.533,31.117-26.714,66.09-11.469,95.951c14.198,27.811,42.402,45.089,73.604,45.089c19.774,0,39.988-7.07,58.459-20.445
	c1.413-1.024,2.651-2.261,3.676-3.677c22.533-31.117,26.714-66.09,11.469-95.951C315.406,190.697,287.203,173.42,256.001,173.42z"/>
<linearGradient id="SVGID_2_" gradientUnits="userSpaceOnUse" x1="236.938" y1="360.1175" x2="236.938" y2="54.8275" gradientTransform="matrix(1.0667 0 0 -1.0667 3.2666 557.5334)">
	<stop  offset="0" style="stop-color:#C2CECE"/>
	<stop  offset="1" style="stop-color:#97AAAA"/>
</linearGradient>
<path style="fill:url(#SVGID_2_);" d="M507.496,283.777v-55.554c0-12.438-10.083-22.522-22.522-22.522H472.33
	c-9.705,0-18.268-6.235-21.366-15.431c-2.972-8.817-6.525-17.365-10.613-25.602c-4.323-8.708-2.695-19.187,4.179-26.062l8.948-8.948
	c8.796-8.796,8.796-23.056,0-31.851l-39.283-39.283c-8.796-8.796-23.056-8.796-31.851,0l-8.948,8.948
	c-6.875,6.875-17.354,8.501-26.062,4.179c-8.237-4.089-16.785-7.642-25.602-10.613c-9.197-3.1-15.431-11.662-15.431-21.366V27.026
	c0-12.438-10.083-22.522-22.522-22.522h-55.554c-12.438,0-22.522,10.083-22.522,22.522V39.67c0,9.705-6.235,18.267-15.431,21.366
	c-8.817,2.972-17.365,6.525-25.602,10.613c-8.708,4.323-19.187,2.695-26.062-4.179l-8.948-8.948c-8.796-8.796-23.056-8.796-31.851,0
	L58.525,97.807c-8.796,8.796-8.796,23.056,0,31.851l8.948,8.948c6.875,6.875,8.501,17.354,4.179,26.062
	c-4.089,8.237-7.642,16.785-10.613,25.602c-3.1,9.197-11.662,15.431-21.366,15.431H27.027c-12.438,0-22.522,10.083-22.522,22.522
	v55.554c0,12.438,10.083,22.522,22.522,22.522h12.644c9.705,0,18.267,6.235,21.366,15.431c2.972,8.817,6.525,17.365,10.613,25.602
	c4.323,8.708,2.695,19.187-4.179,26.062l-8.948,8.948c-8.796,8.796-8.796,23.056,0,31.851l39.283,39.283
	c8.796,8.796,23.056,8.796,31.851,0l8.948-8.948c6.875-6.875,17.354-8.501,26.062-4.179c8.237,4.089,16.785,7.642,25.602,10.613
	c9.197,3.1,15.431,11.662,15.431,21.366v12.644c0,12.438,10.083,22.522,22.522,22.522h55.554c12.438,0,22.522-10.083,22.522-22.522
	v-12.644c0-9.705,6.235-18.268,15.431-21.366c8.817-2.972,17.365-6.525,25.602-10.613c8.708-4.323,19.187-2.695,26.062,4.179
	l8.948,8.948c8.796,8.796,23.056,8.796,31.851,0l39.283-39.283c8.796-8.796,8.796-23.056,0-31.851l-8.948-8.948
	c-6.875-6.875-8.501-17.354-4.179-26.062c4.089-8.237,7.642-16.785,10.613-25.602c3.1-9.197,11.662-15.431,21.366-15.431h12.644
	C497.413,306.299,507.496,296.215,507.496,283.777z M317.101,321.783c-91.617,66.345-193.229-35.267-126.884-126.884
	c1.3-1.796,2.886-3.382,4.683-4.683c91.617-66.345,193.229,35.267,126.884,126.884C320.484,318.897,318.898,320.483,317.101,321.783
	z"/>
<linearGradient id="SVGID_3_" gradientUnits="userSpaceOnUse" x1="383.6279" y1="135.9974" x2="99.2179" y2="420.4074" gradientTransform="matrix(1.0667 0 0 -1.0667 3.2666 557.5334)">
	<stop  offset="0" style="stop-color:#363F3E;stop-opacity:0"/>
	<stop  offset="1" style="stop-color:#303033"/>
</linearGradient>
<path style="fill:url(#SVGID_3_);" d="M507.31,286.535c-0.077-0.074-0.149-0.153-0.227-0.226c-1.555-1.623-3.146-3.214-4.769-4.769
	c-1.555-1.623-3.146-3.214-4.769-4.769c-1.555-1.623-3.146-3.214-4.769-4.769c-1.555-1.623-3.146-3.214-4.769-4.769
	c-1.555-1.623-3.146-3.214-4.769-4.769c-1.555-1.623-3.146-3.214-4.769-4.769c-1.555-1.623-3.146-3.214-4.769-4.769
	c-1.555-1.623-3.146-3.214-4.769-4.769c-1.555-1.623-3.146-3.214-4.769-4.769c-1.555-1.623-3.146-3.214-4.769-4.769
	c-1.555-1.623-3.146-3.214-4.769-4.769c-1.555-1.623-3.146-3.214-4.769-4.769c-1.555-1.623-3.146-3.214-4.769-4.769
	c-1.555-1.623-3.146-3.214-4.769-4.769c-1.555-1.623-3.146-3.214-4.769-4.769c-1.555-1.623-3.146-3.214-4.769-4.769
	c-1.555-1.623-3.146-3.214-4.769-4.769c-1.555-1.623-3.146-3.214-4.769-4.769c-1.555-1.623-3.146-3.214-4.769-4.769
	c-1.555-1.623-3.146-3.214-4.769-4.769c-1.555-1.623-3.146-3.214-4.769-4.769c-1.555-1.623-3.146-3.214-4.769-4.769
	c-1.555-1.623-3.146-3.214-4.769-4.769c-1.555-1.623-3.146-3.214-4.769-4.769c-1.555-1.623-3.146-3.214-4.769-4.769
	c-1.555-1.623-3.146-3.214-4.769-4.769c-1.555-1.623-3.146-3.214-4.769-4.769c-1.555-1.623-3.146-3.214-4.769-4.769
	c-1.555-1.623-3.146-3.214-4.769-4.769c-28.433-29.68-68.448-48.159-112.779-48.159c-86.237,0-156.153,69.916-156.153,156.153
	c0,44.332,18.479,84.347,48.15,112.771c1.555,1.623,3.146,3.214,4.769,4.769c1.555,1.623,3.146,3.214,4.769,4.769
	c1.555,1.623,3.146,3.214,4.769,4.769c1.555,1.623,3.146,3.214,4.769,4.769c1.555,1.623,3.146,3.214,4.769,4.769
	c1.555,1.623,3.146,3.214,4.769,4.769c1.555,1.623,3.146,3.214,4.769,4.769c1.555,1.623,3.146,3.214,4.769,4.769
	c1.555,1.623,3.146,3.214,4.769,4.769c1.555,1.623,3.146,3.214,4.769,4.769c1.555,1.623,3.146,3.214,4.769,4.769
	c1.555,1.623,3.146,3.214,4.769,4.769c1.555,1.623,3.146,3.214,4.769,4.769c1.555,1.623,3.146,3.214,4.769,4.769
	c1.555,1.623,3.146,3.214,4.769,4.769c1.555,1.623,3.146,3.214,4.769,4.769c1.555,1.623,3.146,3.214,4.769,4.769
	c1.555,1.623,3.146,3.214,4.769,4.769c1.555,1.623,3.146,3.214,4.769,4.769c1.555,1.623,3.146,3.214,4.769,4.769
	c1.555,1.623,3.146,3.214,4.769,4.769c1.555,1.623,3.146,3.214,4.769,4.769c1.555,1.623,3.146,3.214,4.769,4.769
	c1.555,1.623,3.146,3.214,4.769,4.769c1.555,1.623,3.146,3.214,4.769,4.769c1.555,1.623,3.146,3.214,4.769,4.769
	c1.555,1.623,3.146,3.214,4.769,4.769c1.555,1.623,3.146,3.214,4.769,4.769c1.555,1.623,3.146,3.214,4.769,4.769
	c0.074,0.077,0.153,0.149,0.226,0.227c11.135-1.363,19.763-10.833,19.763-22.336v-12.644c0-9.705,6.235-18.268,15.431-21.367
	c8.817-2.972,17.365-6.525,25.602-10.613c8.708-4.323,19.187-2.695,26.062,4.179l8.948,8.948c8.796,8.796,23.055,8.796,31.851,0
	l39.283-39.283c8.796-8.796,8.796-23.055,0-31.851l-8.948-8.948c-6.875-6.875-8.501-17.354-4.179-26.062
	c4.089-8.237,7.642-16.785,10.613-25.602c3.1-9.197,11.662-15.431,21.367-15.431h12.644
	C496.476,306.299,505.947,297.67,507.31,286.535z M321.784,317.101c-1.3,1.796-2.886,3.382-4.683,4.683
	c-91.617,66.345-193.229-35.267-126.884-126.884c1.3-1.796,2.886-3.382,4.683-4.683
	C286.517,123.872,388.129,225.484,321.784,317.101z"/>
<linearGradient id="SVGID_4_" gradientUnits="userSpaceOnUse" x1="310.808" y1="208.8175" x2="153.058" y2="366.5675" gradientTransform="matrix(1.0667 0 0 -1.0667 3.2666 557.5334)">
	<stop  offset="0" style="stop-color:#C2CECE"/>
	<stop  offset="0.293" style="stop-color:#BBC8C8"/>
	<stop  offset="0.72" style="stop-color:#A8B8B8"/>
	<stop  offset="1" style="stop-color:#97AAAA"/>
</linearGradient>
<path style="fill:url(#SVGID_4_);" d="M256.001,412.153c86.237,0,156.153-69.916,156.153-156.153S342.237,99.847,256.001,99.847
	S99.848,169.763,99.848,256S169.764,412.153,256.001,412.153z M256.001,148.18c59.542,0,107.82,48.277,107.82,107.82
	s-48.277,107.82-107.82,107.82S148.181,315.542,148.181,256S196.458,148.18,256.001,148.18z"/>
<linearGradient id="SVGID_5_" gradientUnits="userSpaceOnUse" x1="342.5779" y1="388.3276" x2="116.3079" y2="162.0576" gradientTransform="matrix(1.0667 0 0 -1.0667 3.2666 557.5334)">
	<stop  offset="0" style="stop-color:#00A6F9"/>
	<stop  offset="1" style="stop-color:#0071E2"/>
</linearGradient>
<path style="fill:url(#SVGID_5_);" d="M256.001,107.283c-82.13,0-148.717,66.586-148.717,148.717s66.587,148.717,148.717,148.717
	S404.717,338.13,404.717,256S338.131,107.283,256.001,107.283z M256.001,332.218c-42.091,0-76.218-34.127-76.218-76.218
	s34.127-76.218,76.218-76.218s76.218,34.127,76.218,76.218S298.091,332.218,256.001,332.218z"/>
<linearGradient id="SVGID_6_" gradientUnits="userSpaceOnUse" x1="369.1071" y1="150.5166" x2="248.8971" y2="270.7266" gradientTransform="matrix(1.0667 0 0 -1.0667 3.2666 557.5334)">
	<stop  offset="1.000000e-004" style="stop-color:#008BF2;stop-opacity:0"/>
	<stop  offset="1" style="stop-color:#0046E2"/>
</linearGradient>
<path style="fill:url(#SVGID_6_);" d="M410.985,275.13c-0.974-0.986-1.963-1.955-2.978-2.898c-1.636-1.762-3.337-3.463-5.099-5.099
	c-1.635-1.762-3.335-3.462-5.098-5.098c-1.635-1.762-3.335-3.462-5.099-5.098c-1.635-1.762-3.335-3.462-5.099-5.099
	c-1.635-1.762-3.335-3.462-5.098-5.098c-1.635-1.762-3.335-3.462-5.099-5.098c-1.635-1.762-3.335-3.462-5.098-5.098
	c-1.636-1.762-3.337-3.463-5.099-5.099c-1.635-1.762-3.335-3.462-5.099-5.098c-1.635-1.762-3.335-3.462-5.098-5.098
	c-1.636-1.762-3.337-3.463-5.099-5.099c-1.636-1.762-3.337-3.463-5.099-5.099c-1.635-1.762-3.335-3.462-5.098-5.098
	c-1.635-1.762-3.335-3.462-5.098-5.098c-1.635-1.762-3.336-3.462-5.099-5.098c-1.635-1.762-3.335-3.462-5.098-5.099
	c-17.549-18.91-42.605-30.756-70.436-30.756c-53.069,0-96.094,43.025-96.094,96.094c0,27.831,11.846,52.886,30.756,70.436
	c1.635,1.762,3.335,3.462,5.099,5.098c1.635,1.762,3.335,3.462,5.098,5.099c1.635,1.762,3.335,3.462,5.098,5.098
	c1.635,1.762,3.335,3.462,5.098,5.098c1.635,1.762,3.337,3.463,5.099,5.099c1.636,1.762,3.337,3.463,5.099,5.099
	c1.635,1.762,3.335,3.462,5.098,5.098c1.635,1.762,3.335,3.462,5.098,5.099c1.636,1.762,3.337,3.463,5.099,5.099
	c1.635,1.762,3.335,3.462,5.098,5.098c1.635,1.762,3.335,3.462,5.098,5.099c1.635,1.762,3.335,3.462,5.098,5.098
	c1.635,1.762,3.335,3.462,5.099,5.099c1.635,1.762,3.335,3.462,5.098,5.099c1.635,1.762,3.335,3.461,5.098,5.098
	c1.635,1.762,3.337,3.463,5.099,5.099c0.943,1.015,1.913,2.004,2.898,2.978C346.073,402.317,402.317,346.073,410.985,275.13z
	 M256.001,332.218c-42.091,0-76.218-34.127-76.218-76.218s34.127-76.218,76.218-76.218s76.218,34.127,76.218,76.218
	S298.091,332.218,256.001,332.218z"/>
<linearGradient id="SVGID_7_" gradientUnits="userSpaceOnUse" x1="236.938" y1="303.3675" x2="236.938" y2="208.8275" gradientTransform="matrix(1.0667 0 0 -1.0667 3.2666 557.5334)">
	<stop  offset="0" style="stop-color:#C2CECE"/>
	<stop  offset="1" style="stop-color:#97AAAA"/>
</linearGradient>
<path style="fill:url(#SVGID_7_);" d="M256.001,164.482c-50.542,0-91.518,40.976-91.518,91.518s40.976,91.518,91.518,91.518
	s91.518-40.976,91.518-91.518S306.542,164.482,256.001,164.482z M256.001,302.903c-25.902,0-46.903-21.002-46.903-46.903
	s21.002-46.903,46.903-46.903s46.903,21.002,46.903,46.903S281.902,302.903,256.001,302.903z"/>
<linearGradient id="SVGID_8_" gradientUnits="userSpaceOnUse" x1="282.398" y1="237.2275" x2="185.318" y2="334.3075" gradientTransform="matrix(1.0667 0 0 -1.0667 3.2666 557.5334)">
	<stop  offset="0" style="stop-color:#C2CECE"/>
	<stop  offset="0.293" style="stop-color:#BBC8C8"/>
	<stop  offset="0.72" style="stop-color:#A8B8B8"/>
	<stop  offset="1" style="stop-color:#97AAAA"/>
</linearGradient>
<path style="fill:url(#SVGID_8_);" d="M256.001,352.094c53.069,0,96.094-43.025,96.094-96.094s-43.025-96.094-96.094-96.094
	S159.907,202.931,159.907,256S202.932,352.094,256.001,352.094z M256.001,189.649c36.641,0,66.351,29.709,66.351,66.351
	c0,36.642-29.71,66.351-66.351,66.351S189.65,292.641,189.65,256S219.359,189.649,256.001,189.649z"/>
<g>
</g>
<g>
</g>
<g>
</g>
<g>
</g>
<g>
</g>
<g>
</g>
<g>
</g>
<g>
</g>
<g>
</g>
<g>
</g>
<g>
</g>
<g>
</g>
<g>
</g>
<g>
</g>
<g>
</g>
</svg>
