<svg height="512pt" viewBox="0 0 511 512" width="512pt" xmlns="http://www.w3.org/2000/svg"><path d="m15.808594 95.71875 75.921875-75.152344c9.027343-8.933594 23.664062-8.933594 32.691406 0l43.996094 43.554688 36.207031 35.839844 232.628906 230.277343 66.371094 173.226563-72.207031-27.109375-102.777344-38.59375-232.636719-230.300781-36.207031-35.839844-43.996094-43.554688c-9.019531-8.925781-9.019531-23.414062.007813-32.347656zm0 0" fill="#e7eced"/><path d="m332.71875 439.296875c13.601562-18.664063 31.546875-31.933594 50.015625-45.953125 11.109375-8.429688 24.652344-17.648438 32.691406-29.320312 5.964844-8.667969 8.832031-17.425782 16.339844-25.207032 2.183594-2.261718 4.515625-3.796875 6.894531-4.914062l-1.40625-3.664063-232.636718-230.289062-108.613282 107.523437 232.636719 230.289063zm0 0" fill="#ebba16"/><path d="m59.796875 171.632812 108.613281-107.523437-43.996094-43.550781c-9.03125-8.9375-23.664062-8.9375-32.691406 0l-75.921875 75.152344c-9.027343 8.933593-9.027343 23.421874 0 32.367187zm0 0" fill="#cb465f"/><path d="m450.703125 480.957031c.238281-.34375.449219-.699219.714844-1.023437.625-.777344 1.339843-1.46875 2.082031-2.160156.164062-.144532.308594-.308594.476562-.453126.863282-.75 1.820313-1.398437 2.828126-1.996093.050781-.027344.101562-.058594.152343-.09375 1.074219-.632813 2.234375-1.152344 3.480469-1.585938 2.867188-2.671875 6.546875-4.636719 11.1875-5.292969 1.410156-6.816406 5.488281-12.980468 12.5-15.769531l-46.113281-120.355469-107.367188 106.285157 118.648438 44.550781c.410156-.742188.921875-1.414062 1.410156-2.105469zm0 0" fill="#f7e6a1"/><path d="m480.398438 442.835938 23.226562 60.628906-61.242188-22.996094zm0 0" fill="#bf5a45"/><path d="m96.003906 207.472656 108.613282-107.523437-36.207032-35.839844-108.613281 107.523437zm0 0" fill="#e7eced"/><path d="m461.300781 171.878906 30.171875-30.175781c16.667969-16.664063 16.667969-43.671875 0-60.335937l-60.335937 60.335937-60.339844-60.335937 60.339844-60.339844c-16.667969-16.667969-43.675781-16.667969-60.339844 0l-30.175781 30.171875c-17.425782 17.425781-21.570313 38.101562-18.464844 59.589843 2.386719 16.546876-3.226562 33.21875-15.863281 44.160157l-275.421875 236.664062c-27.820313 24.285157-29.269532 67.054688-3.15625 93.164063 26.109375 26.113281 68.878906 24.671875 93.164062-3.15625l236.664063-275.414063c10.941406-12.636719 27.613281-18.25 44.160156-15.863281 21.503906 3.105469 42.179687-1.039062 59.597656-18.464844zm0 0" fill="#e7eced"/><path d="m95.5625 442.546875c0 14.140625-11.460938 25.601563-25.601562 25.601563-14.136719 0-25.597657-11.460938-25.597657-25.601563 0-14.136719 11.460938-25.601563 25.597657-25.601563 14.140624 0 25.601562 11.464844 25.601562 25.601563zm0 0" fill="#afb6bb"/><path d="m112.191406 400.308594c6.367188 6.363281 8.738282 16.332031 12.066406 24.132812l138.777344-150.855468-24.128906-24.132813-150.84375 138.789063c7.796875 3.316406 17.765625 5.699218 24.128906 12.066406zm0 0" fill="#afb6bb"/><g fill="#4d007e"><path d="m96.003906 212.640625c-2.261718 0-4.4375-.894531-6.03125-2.5l-36.207031-36.207031c-3.335937-3.335938-3.335937-8.726563 0-12.066406l108.613281-108.601563c1.601563-1.605469 3.769532-2.5 6.03125-2.5 2.261719 0 4.4375.894531 6.035156 2.5l36.195313 36.207031c3.335937 3.335938 3.335937 8.730469 0 12.066406l-108.601563 108.601563c-1.605468 1.605469-3.773437 2.5-6.035156 2.5zm-24.140625-44.730469 24.132813 24.140625 96.539062-96.546875-24.132812-24.140625zm0 0"/><path d="m59.796875 176.445312c-2.183594 0-4.367187-.835937-6.03125-2.5l-44-43.992187c-5.972656-5.980469-9.265625-13.925781-9.265625-22.382813 0-8.457031 3.292969-16.398437 9.265625-22.382812l75.921875-75.921875c12.339844-12.335937 32.417969-12.335937 44.757812 0l44 43.992187c1.601563 1.601563 2.5 3.769532 2.5 6.03125 0 2.261719-.898437 4.4375-2.5 6.035157l-108.613281 108.621093c-1.664062 1.664063-3.847656 2.5-6.035156 2.5zm48.273437-159.371093c-3.738281 0-7.464843 1.425781-10.308593 4.269531l-75.917969 75.917969c-2.757812 2.75-4.277344 6.410156-4.277344 10.308593 0 3.902344 1.519532 7.5625 4.277344 10.308594l37.953125 37.957032 96.546875-96.539063-37.957031-37.964844c-2.847657-2.839843-6.578125-4.257812-10.316407-4.257812zm0 0"/><path d="m364.839844 409.078125c-2.183594 0-4.371094-.835937-6.035156-2.5l-54.304688-54.304687c-3.335938-3.335938-3.335938-8.730469 0-12.066407 3.328125-3.335937 8.730469-3.335937 12.066406 0l54.304688 54.304688c3.335937 3.335937 3.335937 8.730469 0 12.066406-1.664063 1.664063-3.847656 2.5-6.03125 2.5zm0 0"/><path d="m503.625 511.660156c-1.015625 0-2.039062-.179687-3.019531-.554687l-61.246094-23.238281c-2.703125-1.03125-4.707031-3.363282-5.316406-6.1875-.605469-2.832032.265625-5.777344 2.3125-7.824219l38.019531-38.015625c2.046875-2.046875 4.988281-2.917969 7.824219-2.3125 2.832031.605468 5.160156 2.609375 6.1875 5.316406l23.226562 61.242188c1.183594 3.140624.425781 6.683593-1.945312 9.0625-1.640625 1.640624-3.824219 2.511718-6.042969 2.511718zm-45.875-35.066406 31.171875 11.828125-11.828125-31.171875zm0 0"/><path d="m503.625 511.660156c-1.015625 0-2.039062-.179687-3.019531-.554687l-172.980469-65.613281c-2.703125-1.035157-4.710938-3.363282-5.316406-6.1875-.605469-2.832032.265625-5.777344 2.3125-7.824219l107.367187-107.367188c2.046875-2.046875 4.992188-2.917969 7.824219-2.3125s5.164062 2.609375 6.1875 5.316407l65.613281 172.980468c1.183594 3.136719.425781 6.679688-1.945312 9.0625-1.640625 1.628906-3.824219 2.5-6.042969 2.5zm-157.609375-77.449218 142.90625 54.210937-54.210937-142.90625zm0 0"/><path d="m72.734375 512c-19.285156 0-37.332031-7.464844-51.046875-21.1875-14.316406-14.320312-21.828125-33.359375-21.144531-53.589844.683593-20.234375 9.464843-38.722656 24.722656-52.046875l275.460937-236.695312c10.148438-8.78125 15.011719-22.425781 12.980469-36.472657-3.839843-26.65625 3.183594-49.144531 20.882813-66.839843l30.164062-30.175781c9.675782-9.667969 22.527344-14.992188 36.207032-14.992188 13.679687 0 26.53125 5.324219 36.199218 14.992188 3.335938 3.335937 3.335938 8.730468 0 12.066406l-54.308594 54.308594 48.273438 48.269531 54.308594-54.304688c3.328125-3.335937 8.726562-3.335937 12.066406 0 19.957031 19.960938 19.957031 52.445313 0 72.40625l-30.175781 30.171875c-17.699219 17.707032-40.191407 24.714844-66.839844 20.882813-14.046875-2.015625-27.683594 2.839843-36.488281 13.003906l-236.632813 275.398437c-13.359375 15.296876-31.84375 24.078126-52.085937 24.761719-.84375.035157-1.699219.042969-2.542969.042969zm328.226563-494.933594c-9.121094 0-17.691407 3.550782-24.140626 9.992188l-30.164062 30.175781c-13.886719 13.875-19.132812 31-16.0625 52.34375 2.859375 19.828125-4.136719 39.199219-18.730469 51.828125l-275.429687 236.671875c-11.605469 10.140625-18.3125 24.253906-18.832032 39.722656-.519531 15.464844 5.214844 30.003907 16.152344 40.945313 10.941406 10.9375 25.5 16.707031 40.953125 16.152344 15.460938-.527344 29.585938-7.234376 39.753907-18.882813l236.621093-275.363281c12.65625-14.609375 32.027344-21.605469 51.851563-18.746094 21.324218 3.070312 38.449218-2.1875 52.332031-16.0625l30.175781-30.171875c11.222656-11.222656 12.980469-28.390625 5.265625-41.472656l-53.546875 53.539062c-3.328125 3.335938-8.730468 3.335938-12.066406 0l-60.339844-60.339843c-1.605468-1.605469-2.5-3.773438-2.5-6.03125 0-2.261719.894532-4.4375 2.5-6.035157l53.546875-53.554687c-5.195312-3.074219-11.144531-4.710938-17.339843-4.710938zm0 0"/><path d="m69.960938 476.65625c-8.738282 0-17.484376-3.328125-24.132813-9.976562-6.449219-6.441407-10-15.019532-10-24.140626 0-9.113281 3.550781-17.691406 10-24.132812 13.3125-13.3125 34.960937-13.3125 48.273437 0 6.453126 6.441406 10 15.019531 10 24.132812 0 9.121094-3.546874 17.6875-10 24.140626-6.664062 6.65625-15.402343 9.976562-24.140624 9.976562zm0-51.167969c-4.367188 0-8.738282 1.664063-12.066407 4.984375-3.226562 3.226563-5 7.507813-5 12.066406 0 4.566407 1.773438 8.847657 5 12.074219 6.65625 6.648438 17.484375 6.648438 24.140625 0 3.226563-3.226562 5-7.507812 5-12.074219 0-4.558593-1.773437-8.839843-5-12.066406-3.335937-3.320312-7.703125-4.984375-12.074218-4.984375zm0 0"/><path d="m273.566406 247.464844c-2.183594 0-4.367187-.835938-6.03125-2.5-3.339844-3.335938-3.339844-8.726563 0-12.066406l59.730469-59.730469c3.328125-3.335938 8.738281-3.335938 12.066406 0 3.335938 3.335937 3.335938 8.730469 0 12.066406l-59.730469 59.730469c-1.664062 1.664062-3.851562 2.5-6.035156 2.5zm0 0"/><path d="m358.898438 162.132812c-2.183594 0-4.367188-.835937-6.03125-2.5-3.335938-3.335937-3.335938-8.730468 0-12.066406l17.066406-17.066406c3.328125-3.335938 8.738281-3.335938 12.066406 0 3.335938 3.335938 3.335938 8.730469 0 12.066406l-17.066406 17.066406c-1.664063 1.664063-3.847656 2.5-6.035156 2.5zm0 0"/><path d="m124.265625 432.972656c-.476563 0-.960937-.042968-1.449219-.128906-2.859375-.492188-5.265625-2.398438-6.398437-5.058594-.878907-2.046875-1.691407-4.242187-2.519531-6.476562-2.097657-5.660156-4.257813-11.496094-7.730469-14.96875-3.472657-3.464844-9.316407-5.632813-14.96875-7.730469-2.234375-.828125-4.425781-1.648437-6.484375-2.519531-2.660156-1.132813-4.574219-3.546875-5.066406-6.398438-.496094-2.851562.5-5.757812 2.636718-7.722656l150.851563-138.777344c3.371093-3.089844 8.574219-2.988281 11.808593.246094l24.132813 24.132812c3.234375 3.234376 3.34375 8.449219.246094 11.8125l-138.785157 150.84375c-1.621093 1.765626-3.90625 2.746094-6.273437 2.746094zm-20.339844-47.726562c5.042969 2.132812 10.109375 4.828125 14.308594 9.027344 4.199219 4.199218 6.902344 9.269531 9.035156 14.3125l123.964844-134.742188-12.558594-12.5625zm0 0"/><path d="m166.746094 283.390625c-2.191406 0-4.378906-.835937-6.03125-2.5l-70.742188-70.75c-3.335937-3.335937-3.335937-8.726563 0-12.066406l108.613282-108.609375c3.199218-3.203125 8.863281-3.203125 12.066406 0l78.957031 78.957031c1.679687 1.679687 2.585937 3.984375 2.492187 6.359375-.085937 2.371094-1.160156 4.605469-2.960937 6.152344l-116.832031 100.394531c-1.601563 1.382813-3.582032 2.0625-5.5625 2.0625zm-58.675782-79.28125 59.113282 59.117187 103.847656-89.242187-66.421875-66.421875zm0 0"/><path d="m503.625 511.660156c-1.015625 0-2.039062-.179687-3.019531-.554687l-174.984375-66.375c-1.128906-.425781-2.152344-1.089844-3.003906-1.945313l-91.007813-91c-3.160156-3.15625-3.347656-8.207031-.445313-11.59375l100.394532-116.832031c1.546875-1.800781 3.78125-2.875 6.152344-2.96875 2.414062-.136719 4.675781.820313 6.359374 2.492187l99.214844 99.207032c.855469.855468 1.519532 1.878906 1.945313 3.011718l66.375 174.984376c1.183593 3.140624.425781 6.683593-1.945313 9.0625-1.632812 1.640624-3.816406 2.511718-6.035156 2.511718zm-170.25-82.238281 155.546875 59-59-155.546875-91.40625-91.40625-89.234375 103.851562zm0 0"/></g></svg>