<?xml version="1.0" encoding="iso-8859-1"?>
<!-- Generator: Adobe Illustrator 21.0.0, SVG Export Plug-In . SVG Version: 6.00 Build 0)  -->
<svg xmlns="http://www.w3.org/2000/svg" xmlns:xlink="http://www.w3.org/1999/xlink" version="1.1" id="Capa_1" x="0px" y="0px" viewBox="0 0 512 512" style="enable-background:new 0 0 512 512;" xml:space="preserve" width="512" height="512">
<g>
	<path style="fill:#E4EAF8;" d="M495.797,89.117H297.101c2.108,4.98,3.275,10.455,3.275,16.203c0,5.748-1.167,11.224-3.275,16.203   h198.696c8.949,0,16.203-7.255,16.203-16.203S504.745,89.117,495.797,89.117z"/>
	<path style="fill:#E4EAF8;" d="M495.797,239.8H395.715c2.108,4.98,3.275,10.455,3.275,16.203c0,5.748-1.167,11.224-3.275,16.203   h100.082c8.949,0,16.203-7.255,16.203-16.203C512,247.054,504.745,239.8,495.797,239.8z"/>
	<path style="fill:#E4EAF8;" d="M495.797,390.483h-307.54c2.109,4.98,3.275,10.456,3.275,16.203c0,5.748-1.167,11.224-3.275,16.203   h307.54c8.949,0,16.203-7.254,16.203-16.203C512,397.737,504.745,390.483,495.797,390.483z"/>
	<path style="fill:#FF6B6B;" d="M227.501,105.32c0-5.748,1.167-11.224,3.275-16.203H16.203C7.255,89.117,0,96.372,0,105.32   s7.255,16.203,16.203,16.203h214.573C228.668,116.544,227.501,111.068,227.501,105.32z"/>
	<path style="fill:#FECA57;" d="M326.115,256.003c0-5.748,1.166-11.224,3.275-16.203H16.203C7.255,239.8,0,247.054,0,256.003   c0,8.949,7.255,16.203,16.203,16.203H329.39C327.282,267.227,326.115,261.752,326.115,256.003z"/>
	<path style="fill:#1DD1A1;" d="M118.658,406.686c0-5.748,1.166-11.223,3.275-16.203H16.203C7.255,390.483,0,397.737,0,406.686   c0,8.949,7.255,16.203,16.203,16.203h105.73C119.824,417.91,118.658,412.434,118.658,406.686z"/>
	<g>
		<path style="fill:#CCD2DB;" d="M495.797,101.434H300.188c0.119,1.28,0.187,2.575,0.187,3.886c0,5.748-1.167,11.224-3.275,16.203    h198.696c8.948,0,16.203-7.255,16.203-16.203c0-3.798-1.316-7.282-3.504-10.045C505.528,99.022,500.948,101.434,495.797,101.434z"/>
	</g>
	<g>
		<path style="fill:#CCD2DB;" d="M495.797,252.117h-96.994c0.119,1.28,0.187,2.575,0.187,3.887c0,5.748-1.167,11.224-3.275,16.203    h100.082c8.948,0,16.203-7.255,16.203-16.203c0-3.798-1.316-7.283-3.504-10.045C505.528,249.705,500.948,252.117,495.797,252.117z    "/>
	</g>
	<g>
		<path style="fill:#CCD2DB;" d="M495.797,402.799H191.345c0.119,1.28,0.187,2.575,0.187,3.887c0,5.748-1.167,11.224-3.276,16.203    h307.54c8.948,0,16.203-7.254,16.203-16.203c0-3.798-1.316-7.282-3.504-10.045C505.528,400.388,500.948,402.799,495.797,402.799z"/>
	</g>
	<g>
		<path style="fill:#EE5253;" d="M227.688,101.434H16.203c-5.151,0-9.731-2.411-12.699-6.158C1.316,98.038,0,101.523,0,105.32    c0,8.949,7.254,16.203,16.203,16.203h214.573c-2.108-4.98-3.275-10.455-3.275-16.203    C227.501,104.009,227.569,102.714,227.688,101.434z"/>
	</g>
	<g>
		<path style="fill:#F4B537;" d="M326.302,252.117H16.203c-5.151,0-9.731-2.411-12.699-6.159C1.316,248.721,0,252.206,0,256.003    c0,8.949,7.254,16.203,16.203,16.203H329.39c-2.109-4.98-3.275-10.455-3.275-16.203    C326.115,254.692,326.184,253.397,326.302,252.117z"/>
	</g>
	<g>
		<path style="fill:#15BA8B;" d="M118.845,402.799H16.203c-5.151,0-9.731-2.411-12.699-6.158C1.316,399.404,0,402.888,0,406.686    c0,8.949,7.254,16.203,16.203,16.203h105.73c-2.109-4.979-3.275-10.455-3.275-16.203    C118.658,405.375,118.726,404.08,118.845,402.799z"/>
	</g>
	<circle style="fill:#576574;" cx="263.938" cy="105.32" r="41.588"/>
	<path style="fill:#3E4B5A;" d="M253.257,105.32c0-17.506,10.821-32.474,26.135-38.61c-4.779-1.915-9.991-2.979-15.454-2.979   c-22.969,0-41.588,18.62-41.588,41.588c0,22.969,18.62,41.588,41.588,41.588c5.463,0,10.675-1.064,15.454-2.979   C264.079,137.795,253.257,122.826,253.257,105.32z"/>
	<circle style="fill:#3E4B5A;" cx="263.938" cy="105.32" r="16.203"/>
	<path style="fill:#303F49;" d="M274.241,92.814c-9.941-8.198-25.012-1.965-26.404,10.666c-1.077,9.773,6.546,18.044,16.102,18.044   c3.913,0,7.502-1.387,10.302-3.697C266.372,111.338,266.373,99.302,274.241,92.814z"/>
	<circle style="fill:#576574;" cx="362.553" cy="256" r="41.588"/>
	<path style="fill:#3E4B5A;" d="M351.872,256c0-17.506,10.821-32.474,26.135-38.61c-4.779-1.915-9.991-2.979-15.454-2.979   c-22.969,0-41.588,18.62-41.588,41.588c0,22.969,18.62,41.588,41.588,41.588c5.463,0,10.675-1.064,15.454-2.979   C362.693,288.474,351.872,273.506,351.872,256z"/>
	<circle style="fill:#3E4B5A;" cx="362.553" cy="256" r="16.203"/>
	<path style="fill:#303F49;" d="M372.855,243.494c-9.941-8.198-25.012-1.965-26.404,10.666c-1.077,9.773,6.546,18.044,16.102,18.044   c3.913,0,7.502-1.387,10.302-3.697C364.987,262.017,364.988,249.982,372.855,243.494z"/>
	<circle style="fill:#576574;" cx="155.095" cy="406.68" r="41.588"/>
	<path style="fill:#3E4B5A;" d="M144.414,406.68c0-17.506,10.821-32.474,26.135-38.61c-4.779-1.915-9.991-2.979-15.454-2.979   c-22.969,0-41.588,18.62-41.588,41.588c0,22.969,18.62,41.588,41.588,41.588c5.463,0,10.675-1.064,15.454-2.979   C155.235,439.154,144.414,424.185,144.414,406.68z"/>
	<circle style="fill:#3E4B5A;" cx="155.095" cy="406.68" r="16.203"/>
	<path style="fill:#303F49;" d="M165.398,394.173c-9.941-8.198-25.012-1.965-26.404,10.666c-1.077,9.773,6.546,18.044,16.102,18.044   c3.913,0,7.502-1.387,10.302-3.697C157.529,412.697,157.53,400.662,165.398,394.173z"/>
</g>















</svg>
