<?xml version="1.0" encoding="iso-8859-1"?>
<!-- Generator: Adobe Illustrator 19.0.0, SVG Export Plug-In . SVG Version: 6.00 Build 0)  -->
<svg version="1.1" id="Capa_1" xmlns="http://www.w3.org/2000/svg" xmlns:xlink="http://www.w3.org/1999/xlink" x="0px" y="0px"
	 viewBox="0 0 511.999 511.999" style="enable-background:new 0 0 511.999 511.999;" xml:space="preserve">
<path style="fill:#707487;" d="M262.678,197.043c-2.195,0.239-4.421,0.37-6.679,0.37c-2.258,0-4.484-0.132-6.679-0.37
	l-16.648,50.872h46.653L262.678,197.043z"/>
<path style="fill:#5E6377;" d="M262.678,197.043c-2.195,0.239-4.421,0.37-6.679,0.37c-2.258,0-4.484-0.132-6.679-0.37
	l-16.648,50.872h21.902l12.376-37.817L262.678,197.043z"/>
<g>
	<path style="fill:#00C3FF;" d="M370.829,486.35l-15.244-46.582c-1.308-3.996,0.871-8.295,4.867-9.602
		c3.995-1.309,8.294,0.871,9.602,4.866l15.244,46.582c1.308,3.996-0.871,8.295-4.867,9.602
		C376.453,492.521,372.141,490.36,370.829,486.35z"/>
	<path style="fill:#00C3FF;" d="M131.47,491.217c-3.996-1.307-6.175-5.606-4.867-9.602l15.244-46.582
		c1.307-3.994,5.608-6.175,9.602-4.866c3.996,1.307,6.175,5.606,4.867,9.602l-15.244,46.582
		C139.762,490.353,135.455,492.523,131.47,491.217z"/>
</g>
<path style="fill:#008CFF;" d="M255.999,84.675c4.331,0,8.549,0.478,12.616,1.361v-73.42C268.616,5.648,262.967,0,255.999,0
	c-6.967,0-12.616,5.648-12.616,12.616v73.419C247.449,85.153,251.667,84.675,255.999,84.675z"/>
<path style="fill:#0385DD;" d="M259.318,12.616c0-3.945,1.813-7.465,4.649-9.779C261.794,1.065,259.022,0,255.999,0
	c-6.967,0-12.616,5.648-12.616,12.616v73.419c4.067-0.883,8.285-1.361,12.616-1.361c1.114,0,2.22,0.034,3.318,0.096V12.616z"/>
<g>
	<path style="fill:#E4EAF8;" d="M213.693,181.57l-78.865,240.995c-3.412,10.425,2.274,21.642,12.699,25.054l0,0
		c10.425,3.411,21.641-2.274,25.053-12.699l77.056-235.468C235.527,197.918,222.94,191.343,213.693,181.57z"/>
	<path style="fill:#E4EAF8;" d="M377.171,422.564L298.306,181.57c-9.247,9.774-21.834,16.348-35.943,17.881l77.056,235.468
		c3.411,10.425,14.628,16.11,25.053,12.699l0,0C374.897,444.206,380.582,432.99,377.171,422.564z"/>
</g>
<g>
	<path style="fill:#D8DCE5;" d="M154.245,422.564l75.027-229.266c-5.837-3.023-11.103-6.996-15.58-11.728l-78.865,240.995
		c-3.412,10.425,2.274,21.642,12.699,25.053h0.001c5.491,1.797,11.192,1.05,15.866-1.564
		C155.285,441.508,151.245,431.733,154.245,422.564z"/>
	<path style="fill:#D8DCE5;" d="M359.542,433.69l-78.409-239.601c-5.792,2.778-12.108,4.639-18.771,5.363l77.056,235.468
		c3.411,10.425,14.628,16.11,25.053,12.699l0,0c1.613-0.528,3.096-1.261,4.466-2.131
		C364.645,442.901,361.223,438.826,359.542,433.69z"/>
</g>
<path style="fill:#E4EAF8;" d="M429.161,491.595H82.837c-4.204,0-7.612-3.408-7.612-7.612s3.408-7.612,7.612-7.612h346.326
	c4.204,0,7.612,3.408,7.612,7.612S433.366,491.595,429.161,491.595z"/>
<path style="fill:#C3C8D1;" d="M255.999,511.999c-4.204,0-7.612-3.408-7.612-7.612v-40.574c0-4.204,3.408-7.612,7.612-7.612
	s7.612,3.408,7.612,7.612v40.574C263.611,508.592,260.203,511.999,255.999,511.999z"/>
<circle style="fill:#00C3FF;" cx="255.999" cy="142.1" r="58.79"/>
<path style="fill:#00AAF0;" d="M217.507,142.101c0-29.006,21.012-53.088,48.641-57.899c-3.299-0.574-6.686-0.891-10.149-0.891
	c-32.469,0-58.79,26.321-58.79,58.79s26.321,58.79,58.79,58.79c3.463,0,6.85-0.317,10.149-0.891
	C238.52,195.189,217.507,171.107,217.507,142.101z"/>
<circle style="fill:#008CFF;" cx="255.999" cy="142.1" r="28.721"/>
<path style="fill:#0385DD;" d="M247.576,142.101c0-12.288,7.719-22.769,18.571-26.87c-3.156-1.193-6.575-1.851-10.149-1.851
	c-15.862,0-28.721,12.859-28.721,28.721s12.859,28.721,28.721,28.721c3.574,0,6.993-0.658,10.149-1.851
	C255.296,164.869,247.576,154.389,247.576,142.101z"/>
<g>
</g>
<g>
</g>
<g>
</g>
<g>
</g>
<g>
</g>
<g>
</g>
<g>
</g>
<g>
</g>
<g>
</g>
<g>
</g>
<g>
</g>
<g>
</g>
<g>
</g>
<g>
</g>
<g>
</g>
</svg>
