<svg height="512pt" viewBox="0 0 512 512" width="512pt" xmlns="http://www.w3.org/2000/svg"><path d="m299.125 342.25-38.925781-59.550781-4.199219-.148438v-4.050781l-119.398438-119.402344s-.300781 0-.601562 0l-30.9375 53.777344-4.6875 189.4375 35.625 63.785156h120l45.9375-32.847656zm0 0" fill="#fdbf00"/><path d="m136 159.097656v307h-114.402344v-301c0-.296875 104.800782-5.398437 114.402344-6zm0 0" fill="#90e36a"/><path d="m376 166.898438v299.199218h-120v-187.597656l4.199219 4.199219zm0 0" fill="#7cc8f0"/><path d="m256 307.210938-126.210938-126.210938h-114.789062v-30h127.210938l113.789062 113.789062 230.394531-229.394531 21.210938 21.210938zm0 0" fill="#ff4b00"/><path d="m507.605469 56.605469-21.210938-21.210938-230.394531 229.394531v42.421876zm0 0" fill="#dd3400"/><path d="m61 467h30v45h-30zm0 0" fill="#54469d"/><path d="m121 467h30v45h-30zm0 0" fill="#54469d"/><path d="m181 467h30v45h-30zm0 0" fill="#54469d"/><path d="m241 467h30v45h-30zm0 0" fill="#54469d"/><g fill="#463b85"><path d="m256 467h15v45h-15zm0 0"/><path d="m301 467h30v45h-30zm0 0"/><path d="m421 467h30v45h-30zm0 0"/><path d="m482 467h30v45h-30zm0 0"/><path d="m361 467h30v45h-30zm0 0"/></g><path d="m512 121h-30v-60h-61v-30h91zm0 0" fill="#dd3400"/><path d="m512 452h-482v-452h-30v512h30v-30h482zm0 0" fill="#54469d"/><path d="m256 452h256v30h-256zm0 0" fill="#463b85"/><path d="m136 211c-24.8125 0-45-20.1875-45-45s20.1875-45 45-45 45 20.1875 45 45-20.1875 45-45 45zm0 0" fill="#ff7816"/><path d="m376 211c-24.8125 0-45-20.1875-45-45s20.1875-45 45-45 45 20.1875 45 45-20.1875 45-45 45zm0 0" fill="#ff4b00"/><path d="m256 331c-24.8125 0-45-20.1875-45-45s20.1875-45 45-45 45 20.1875 45 45-20.1875 45-45 45zm0 0" fill="#ff7816"/><path d="m301 286c0-24.8125-20.1875-45-45-45v90c24.8125 0 45-20.1875 45-45zm0 0" fill="#ff4b00"/></svg>