<?xml version="1.0" encoding="iso-8859-1"?>
<!-- Generator: Adobe Illustrator 19.0.0, SVG Export Plug-In . SVG Version: 6.00 Build 0)  -->
<svg version="1.1" id="Layer_1" xmlns="http://www.w3.org/2000/svg" xmlns:xlink="http://www.w3.org/1999/xlink" x="0px" y="0px"
	 viewBox="0 0 512 512" style="enable-background:new 0 0 512 512;" xml:space="preserve">
<g>
	<rect x="282.483" y="380.941" style="fill:#EAEAEA;" width="17.655" height="17.655"/>
	<path style="fill:#EAEAEA;" d="M150.069,433.912h194.207V266.187H150.069V433.912z M264.828,372.118
		c0-4.875,3.948-8.828,8.828-8.828h35.31c4.879,0,8.828,3.953,8.828,8.828v35.31c0,4.875-3.948,8.828-8.828,8.828h-35.31
		c-4.879,0-8.828-3.953-8.828-8.828V372.118z M176.552,372.118c0-4.875,3.948-8.828,8.828-8.828h35.31
		c4.879,0,8.828,3.953,8.828,8.828v35.31c0,4.875-3.948,8.828-8.828,8.828h-35.31c-4.879,0-8.828-3.953-8.828-8.828V372.118z"/>
	<rect x="194.207" y="380.941" style="fill:#EAEAEA;" width="17.655" height="17.655"/>
</g>
<path style="fill:#E65F58;" d="M383.569,125.623c-21.483,0-42.328,6.121-60.276,17.694l-8.707,5.616l-4.164-9.491
	c-16.345-37.272-53.354-61.353-94.293-61.353c-51.25,0-94.534,36.875-102.914,87.677L112,173.157h-7.491
	c-47.888,0-86.854,38.685-86.854,86.237s38.965,86.237,86.854,86.237h27.905V257.36c0-4.875,3.948-8.828,8.828-8.828h211.862
	c4.879,0,8.828,3.953,8.828,8.828v88.271h21.638c61.086,0,110.776-49.349,110.776-110.004S444.655,125.623,383.569,125.623z
	 M459.034,244.118c-4.879,0-8.828-3.953-8.828-8.828c0-36.509-29.698-66.207-66.207-66.207c-4.879,0-8.828-3.953-8.828-8.828
	s3.948-8.828,8.828-8.828c46.241,0,83.862,37.621,83.862,83.862C467.862,240.166,463.914,244.118,459.034,244.118z"/>
<g>
	<path style="fill:#314E55;" d="M383.569,107.968c-21.56,0-42.569,5.323-61.328,15.474c-20.879-38.578-61.509-63.009-106.112-63.009
		c-57.509,0-106.423,39.664-118.94,95.319C42.966,159.502,0,204.554,0,259.394c0,57.284,46.879,103.892,104.509,103.892h27.905
		v79.453c0,4.875,3.948,8.828,8.828,8.828h211.862c4.879,0,8.828-3.953,8.828-8.828v-79.453h21.638
		c70.819,0,128.431-57.267,128.431-127.659S454.388,107.968,383.569,107.968z M344.276,433.912H150.069V266.187h194.207V433.912z
		 M383.569,345.631h-21.638V257.36c0-4.875-3.948-8.828-8.828-8.828H141.241c-4.879,0-8.828,3.953-8.828,8.828v88.271h-27.905
		c-47.888,0-86.854-38.685-86.854-86.237s38.965-86.237,86.854-86.237H112l1.216-7.392c8.379-50.802,51.664-87.677,102.914-87.677
		c40.94,0,77.948,24.082,94.293,61.353l4.164,9.491l8.707-5.616c17.948-11.573,38.793-17.694,60.276-17.694
		c61.086,0,110.776,49.349,110.776,110.004S444.655,345.631,383.569,345.631z"/>
	<path style="fill:#314E55;" d="M384,151.429c-4.879,0-8.828,3.953-8.828,8.828s3.948,8.828,8.828,8.828
		c36.509,0,66.207,29.698,66.207,66.207c0,4.875,3.948,8.828,8.828,8.828s8.828-3.953,8.828-8.828
		C467.862,189.049,430.241,151.429,384,151.429z"/>
	<path style="fill:#314E55;" d="M185.379,416.256h35.31c4.879,0,8.828-3.953,8.828-8.828v-35.31c0-4.875-3.948-8.828-8.828-8.828
		h-35.31c-4.879,0-8.828,3.953-8.828,8.828v35.31C176.552,412.304,180.5,416.256,185.379,416.256z M194.207,380.946h17.655v17.655
		h-17.655V380.946z"/>
	<path style="fill:#314E55;" d="M273.655,416.256h35.31c4.879,0,8.828-3.953,8.828-8.828v-35.31c0-4.875-3.948-8.828-8.828-8.828
		h-35.31c-4.879,0-8.828,3.953-8.828,8.828v35.31C264.828,412.304,268.776,416.256,273.655,416.256z M282.483,380.946h17.655v17.655
		h-17.655V380.946z"/>
</g>
<g>
</g>
<g>
</g>
<g>
</g>
<g>
</g>
<g>
</g>
<g>
</g>
<g>
</g>
<g>
</g>
<g>
</g>
<g>
</g>
<g>
</g>
<g>
</g>
<g>
</g>
<g>
</g>
<g>
</g>
</svg>
