<?xml version="1.0" encoding="iso-8859-1"?>
<!-- Generator: Adobe Illustrator 19.0.0, SVG Export Plug-In . SVG Version: 6.00 Build 0)  -->
<svg version="1.1" id="Layer_1" xmlns="http://www.w3.org/2000/svg" xmlns:xlink="http://www.w3.org/1999/xlink" x="0px" y="0px"
	 viewBox="0 0 512 512" style="enable-background:new 0 0 512 512;" xml:space="preserve">
<path style="fill:#73C9C9;" d="M322.553,65.11l-26.561,115.487c27.781,14.711,45.342,43.544,45.342,75.408
	c0,47.053-38.281,85.333-85.333,85.333s-85.333-38.281-85.333-85.333c0-31.864,17.561-60.697,45.342-75.408L189.447,65.11
	C109.175,93.136,53.895,170.289,53.895,256.004c0,111.443,90.667,202.105,202.105,202.105s202.105-90.662,202.105-202.105
	C458.105,170.289,402.825,93.136,322.553,65.11z"/>
<g>
	<path style="fill:#FFFFFF;" d="M256,296.421c22.29,0,40.421-18.132,40.421-40.421S278.29,215.579,256,215.579
		S215.579,233.71,215.579,256S233.71,296.421,256,296.421z"/>
	<path style="fill:#FFFFFF;" d="M256,17.965C124.746,17.965,17.965,124.746,17.965,256S124.746,494.035,256,494.035
		S494.035,387.254,494.035,256S387.254,17.965,256,17.965z M314.386,256c0,32.193-26.193,58.386-58.386,58.386
		S197.614,288.193,197.614,256s26.193-58.386,58.386-58.386S314.386,223.807,314.386,256z M256,476.075
		c-121.351,0-220.07-98.724-220.07-220.07c0-96.825,64.781-183.614,157.526-211.057l9.167-2.71l34.202,148.719l-6.956,2.93
		c-25.053,10.557-41.237,34.938-41.237,62.118c0,37.149,30.219,67.368,67.368,67.368s67.368-30.219,67.368-67.368
		c0-27.18-16.184-51.561-41.237-62.118l-6.956-2.93l34.202-148.719l9.167,2.71C411.289,72.39,476.07,159.18,476.07,256.004
		C476.07,377.351,377.351,476.075,256,476.075z"/>
</g>
<g>
	<path style="fill:#314E55;" d="M256,0C114.842,0,0,114.842,0,256s114.842,256,256,256s256-114.842,256-256S397.158,0,256,0z
		 M256,494.035C124.746,494.035,17.965,387.254,17.965,256S124.746,17.965,256,17.965S494.035,124.746,494.035,256
		S387.254,494.035,256,494.035z"/>
	<path style="fill:#314E55;" d="M318.544,44.947l-9.167-2.71l-34.202,148.719l6.956,2.93c25.053,10.557,41.237,34.938,41.237,62.118
		c0,37.149-30.219,67.368-67.368,67.368s-67.368-30.219-67.368-67.368c0-27.18,16.184-51.561,41.237-62.118l6.956-2.93
		L202.623,42.237l-9.167,2.71C100.711,72.39,35.93,159.18,35.93,256.004c0,121.346,98.719,220.07,220.07,220.07
		s220.07-98.724,220.07-220.07C476.07,159.18,411.289,72.39,318.544,44.947z M256,458.11c-111.439,0-202.105-90.662-202.105-202.105
		c0-85.715,55.281-162.868,135.553-190.895l26.561,115.487c-27.781,14.711-45.342,43.544-45.342,75.408
		c0,47.053,38.281,85.333,85.333,85.333s85.333-38.281,85.333-85.333c0-31.864-17.561-60.697-45.342-75.408L322.553,65.11
		c80.272,28.026,135.553,105.18,135.553,190.895C458.105,367.447,367.439,458.11,256,458.11z"/>
	<path style="fill:#314E55;" d="M197.614,256c0,32.193,26.193,58.386,58.386,58.386s58.386-26.193,58.386-58.386
		S288.193,197.614,256,197.614S197.614,223.807,197.614,256z M256,215.579c22.29,0,40.421,18.132,40.421,40.421
		S278.29,296.421,256,296.421S215.579,278.29,215.579,256S233.71,215.579,256,215.579z"/>
</g>
<g>
</g>
<g>
</g>
<g>
</g>
<g>
</g>
<g>
</g>
<g>
</g>
<g>
</g>
<g>
</g>
<g>
</g>
<g>
</g>
<g>
</g>
<g>
</g>
<g>
</g>
<g>
</g>
<g>
</g>
</svg>
