<?xml version="1.0" encoding="iso-8859-1"?>
<!-- Generator: Adobe Illustrator 19.0.0, SVG Export Plug-In . SVG Version: 6.00 Build 0)  -->
<svg version="1.1" id="Layer_1" xmlns="http://www.w3.org/2000/svg" xmlns:xlink="http://www.w3.org/1999/xlink" x="0px" y="0px"
	 viewBox="0 0 512 512" style="enable-background:new 0 0 512 512;" xml:space="preserve">
<rect x="137.846" y="49.231" style="fill:#D8D8D8;" width="29.538" height="59.077"/>
<path style="fill:#E9E7D1;" d="M88.615,295.385v196.923h334.769V295.385H88.615z M393.846,423.385H118.154v-19.692h275.692V423.385z
	 M393.846,384H118.154v-19.692h275.692V384z M393.846,344.615H118.154v-19.692h275.692V344.615z"/>
<path style="fill:#D8D8D8;" d="M393.846,137.846V19.692H108.308v118.154H393.846z M118.154,29.538h68.923V128h-68.923V29.538z"/>
<path style="fill:#E4AD40;" d="M413.538,19.724v137.815H88.615V19.692H29.538v472.615h39.385V275.692h374.154v216.615h39.385V89.216
	C482.462,51.084,451.594,20.053,413.538,19.724z"/>
<g>
	<path style="fill:#314E55;" d="M413.538,0.031V0h-0.606H88.615H9.846v512h59.077h374.154h59.077V89.216
		C502.154,40.228,462.45,0.362,413.538,0.031z M393.846,19.692v118.154H108.308V19.692H393.846z M88.615,492.308V295.385h334.769
		v196.923H88.615z M482.462,492.308h-39.385V275.692H68.923v216.615H29.538V19.692h59.077v137.846h324.923V19.724
		c38.055,0.329,68.923,31.36,68.923,69.493V492.308z"/>
	<path style="fill:#314E55;" d="M187.077,29.538h-68.923V128h68.923V29.538z M167.385,108.308h-29.538V49.231h29.538V108.308z"/>
	<rect x="118.154" y="324.923" style="fill:#314E55;" width="275.692" height="19.692"/>
	<rect x="118.154" y="364.308" style="fill:#314E55;" width="275.692" height="19.692"/>
	<rect x="118.154" y="403.692" style="fill:#314E55;" width="275.692" height="19.692"/>
</g>
<g>
</g>
<g>
</g>
<g>
</g>
<g>
</g>
<g>
</g>
<g>
</g>
<g>
</g>
<g>
</g>
<g>
</g>
<g>
</g>
<g>
</g>
<g>
</g>
<g>
</g>
<g>
</g>
<g>
</g>
</svg>
