<?xml version="1.0" encoding="iso-8859-1"?>
<!-- Generator: Adobe Illustrator 19.0.0, SVG Export Plug-In . SVG Version: 6.00 Build 0)  -->
<svg version="1.1" id="Layer_1" xmlns="http://www.w3.org/2000/svg" xmlns:xlink="http://www.w3.org/1999/xlink" x="0px" y="0px"
	 viewBox="0 0 512 512" style="enable-background:new 0 0 512 512;" xml:space="preserve">
<g>
	<path style="fill:#E9E7D1;" d="M58.185,160.351c-2.475,2.828-3.103,6.955-1.136,10.373l83.049,143.843l29.406-130.376
		L58.185,160.351z"/>
	<path style="fill:#E9E7D1;" d="M247.927,192.73c-1.22,3.769-4.722,6.222-8.539,6.222c-0.623,0-1.255-0.066-1.887-0.197
		l-50.42-10.799l-29.878,132.472l236.249-136.399l-129.666-40.363L247.927,192.73z"/>
	<path style="fill:#E9E7D1;" d="M304.328,18.237l-35.016,108.331l127.618,39.724L313.878,22.444
		C311.91,19.031,308.024,17.497,304.328,18.237z"/>
	<polygon style="fill:#E9E7D1;" points="281.372,30.826 180.966,88.793 80.562,146.761 233.323,179.478 	"/>
</g>
<g>
	<path style="fill:#314E55;" d="M417.479,181.804c1.887-6.972,0.939-14.252-2.668-20.492L329.447,13.458
		c-7.421-12.848-23.889-17.256-36.781-9.897c-0.016,0.009-0.035,0.011-0.051,0.02l-0.024,0.013
		c-0.012,0.009-0.025,0.011-0.037,0.018L68.508,132.965l-17.164,9.908c-0.043,0.024-0.07,0.066-0.112,0.09
		c-12.755,7.503-17.141,23.928-9.752,36.743l85.364,147.858c3.598,6.227,9.417,10.68,16.394,12.541
		c2.326,0.623,4.686,0.93,7.03,0.93c4.686,0,9.311-1.229,13.471-3.629l241.147-139.222
		C411.125,194.577,415.601,188.763,417.479,181.804z M180.966,88.793l100.406-57.968l-48.049,148.652L80.562,146.761L180.966,88.793
		z M140.098,314.567L57.049,170.724c-1.967-3.418-1.339-7.545,1.136-10.373l111.319,23.84L140.098,314.567z M157.203,320.427
		l29.878-132.472l50.42,10.799c0.632,0.132,1.264,0.197,1.887,0.197c3.818,0,7.319-2.453,8.539-6.222l15.859-49.064l129.666,40.363
		L157.203,320.427z M269.312,126.568l35.016-108.331c3.696-0.739,7.582,0.794,9.551,4.208l83.052,143.847L269.312,126.568z"/>
	<path style="fill:#314E55;" d="M467.449,246.114l-52.077-13.958c-4.792-1.268-9.715,1.562-11.005,6.354
		c-1.29,4.792,1.562,9.719,6.354,11.005l29.474,7.901l-149.381,86.244l8.987,15.569l151.469-87.451l-8.78,32.772
		c-1.281,4.796,1.562,9.724,6.354,11.005c0.781,0.211,1.562,0.312,2.334,0.312c3.967-0.005,7.6-2.65,8.671-6.665l13.954-52.081
		C475.085,252.327,472.241,247.4,467.449,246.114z"/>
	<path style="fill:#314E55;" d="M377.583,398.887l-52.077-13.958c-4.774-1.29-9.715,1.558-11.005,6.354
		c-1.29,4.792,1.562,9.719,6.354,11.005l29.474,7.901l-149.381,86.244L209.935,512l151.469-87.451l-8.78,32.772
		c-1.281,4.796,1.562,9.724,6.354,11.005c0.781,0.211,1.562,0.312,2.335,0.312c3.967-0.005,7.6-2.65,8.671-6.665l13.954-52.081
		C385.218,405.1,382.375,400.172,377.583,398.887z"/>
</g>
<g>
</g>
<g>
</g>
<g>
</g>
<g>
</g>
<g>
</g>
<g>
</g>
<g>
</g>
<g>
</g>
<g>
</g>
<g>
</g>
<g>
</g>
<g>
</g>
<g>
</g>
<g>
</g>
<g>
</g>
</svg>
