<?xml version="1.0" encoding="iso-8859-1"?>
<!-- Generator: Adobe Illustrator 19.0.0, SVG Export Plug-In . SVG Version: 6.00 Build 0)  -->
<svg version="1.1" id="Layer_1" xmlns="http://www.w3.org/2000/svg" xmlns:xlink="http://www.w3.org/1999/xlink" x="0px" y="0px"
	 viewBox="0 0 512 512" style="enable-background:new 0 0 512 512;" xml:space="preserve">
<g>
	<path style="fill:#D8D8D8;" d="M320.162,254.903c-10.106,0-18.332,8.226-18.332,18.332s8.226,18.332,18.332,18.332
		s18.332-8.226,18.332-18.332S330.268,254.903,320.162,254.903z"/>
	<circle style="fill:#D8D8D8;" cx="375.163" cy="172.41" r="9.166"/>
	<path style="fill:#D8D8D8;" d="M127.676,163.244c-10.106,0-18.332,8.226-18.332,18.332s8.226,18.332,18.332,18.332
		s18.332-8.226,18.332-18.332S137.782,163.244,127.676,163.244z"/>
	<path style="fill:#D8D8D8;" d="M201.004,254.903v-18.332h-9.166v18.332c0,5.066-4.1,9.166-9.166,9.166H164.34v9.166h18.332
		c5.066,0,9.166,4.1,9.166,9.166v18.332h9.166v-18.332c0-5.066,4.1-9.166,9.166-9.166h18.332v-9.166H210.17
		C205.104,264.069,201.004,259.97,201.004,254.903z"/>
</g>
<path style="fill:#5ECC66;" d="M450.115,124.279c-14.823-5.791-66.435-25.197-93.289-25.197c-13.534,0-29.333,12.925-44.613,25.43
	c-17.759,14.537-36.136,29.566-56.213,29.566s-38.454-15.029-56.213-29.566c-15.28-12.505-31.078-25.43-44.613-25.43
	c-26.854,0-78.466,19.406-93.289,25.198c-6.149,21.062-33.075,114.897-39.698,163.931c-4.225,31.248-3.849,94.291-3.84,94.927
	c-0.179,15.405,3.491,26.182,9.82,29.002c6.382,2.829,16.828-1.674,28.044-12.012c1.897-2.086,58.818-62.73,103.547-62.73h192.486
	c44.729,0,101.64,60.644,104.039,63.231c10.92,9.712,21.518,14.152,27.784,11.341c6.141-2.784,9.721-13.471,9.587-28.581
	c0.009-0.779,0.385-63.929-3.84-95.178C483.189,239.167,456.264,145.341,450.115,124.279z M91.012,181.576
	c0-20.221,16.443-36.664,36.664-36.664s36.664,16.443,36.664,36.664s-16.443,36.664-36.664,36.664S91.012,201.796,91.012,181.576z
	 M246.834,282.401c0,5.066-4.1,9.166-9.166,9.166h-18.332v18.332c0,5.066-4.1,9.166-9.166,9.166h-27.498
	c-5.066,0-9.166-4.1-9.166-9.166v-18.332h-18.332c-5.066,0-9.166-4.1-9.166-9.166v-27.498c0-5.066,4.1-9.166,9.166-9.166h18.332
	v-18.332c0-5.066,4.1-9.166,9.166-9.166h27.498c5.066,0,9.166,4.1,9.166,9.166v18.332h18.332c5.066,0,9.166,4.1,9.166,9.166V282.401
	z M320.162,309.899c-20.221,0-36.664-16.443-36.664-36.664s16.443-36.664,36.664-36.664s36.664,16.443,36.664,36.664
	S340.382,309.899,320.162,309.899z M347.66,172.41c0-15.163,12.335-27.498,27.498-27.498c15.163,0,27.498,12.335,27.498,27.498
	c0,15.163-12.335,27.498-27.498,27.498C359.994,199.908,347.66,187.573,347.66,172.41z M411.822,254.903
	c-15.163,0-27.498-12.335-27.498-27.498s12.335-27.498,27.498-27.498c15.163,0,27.498,12.335,27.498,27.498
	C439.319,242.569,426.985,254.903,411.822,254.903z"/>
<circle style="fill:#D8D8D8;" cx="411.827" cy="227.406" r="9.166"/>
<g>
	<path style="fill:#314E55;" d="M237.668,245.738h-18.332v-18.332c0-5.066-4.1-9.166-9.166-9.166h-27.498
		c-5.066,0-9.166,4.1-9.166,9.166v18.332h-18.332c-5.066,0-9.166,4.1-9.166,9.166v27.498c0,5.066,4.1,9.166,9.166,9.166h18.332
		v18.332c0,5.066,4.1,9.166,9.166,9.166h27.498c5.066,0,9.166-4.1,9.166-9.166v-18.332h18.332c5.066,0,9.166-4.1,9.166-9.166
		v-27.498C246.834,249.837,242.734,245.738,237.668,245.738z M228.502,273.235H210.17c-5.066,0-9.166,4.1-9.166,9.166v18.332h-9.166
		v-18.332c0-5.066-4.1-9.166-9.166-9.166H164.34v-9.166h18.332c5.066,0,9.166-4.1,9.166-9.166v-18.332h9.166v18.332
		c0,5.066,4.1,9.166,9.166,9.166h18.332V273.235z"/>
	<path style="fill:#314E55;" d="M320.162,236.572c-20.221,0-36.664,16.443-36.664,36.664s16.443,36.664,36.664,36.664
		s36.664-16.443,36.664-36.664S340.382,236.572,320.162,236.572z M320.162,291.567c-10.106,0-18.332-8.226-18.332-18.332
		s8.226-18.332,18.332-18.332s18.332,8.226,18.332,18.332S330.268,291.567,320.162,291.567z"/>
	<path style="fill:#314E55;" d="M164.34,181.576c0-20.221-16.443-36.664-36.664-36.664s-36.664,16.443-36.664,36.664
		s16.443,36.664,36.664,36.664S164.34,201.796,164.34,181.576z M127.676,199.908c-10.106,0-18.332-8.226-18.332-18.332
		s8.226-18.332,18.332-18.332s18.332,8.226,18.332,18.332S137.782,199.908,127.676,199.908z"/>
	<path style="fill:#314E55;" d="M402.656,172.41c0-15.163-12.335-27.498-27.498-27.498c-15.163,0-27.498,12.335-27.498,27.498
		c0,15.163,12.335,27.498,27.498,27.498C390.321,199.908,402.656,187.573,402.656,172.41z M375.158,181.576
		c-5.057,0-9.166-4.109-9.166-9.166c0-5.057,4.109-9.166,9.166-9.166c5.057,0,9.166,4.109,9.166,9.166
		C384.324,177.467,380.215,181.576,375.158,181.576z"/>
	<path style="fill:#314E55;" d="M411.822,199.908c-15.163,0-27.498,12.335-27.498,27.498c0,15.163,12.335,27.498,27.498,27.498
		c15.163,0,27.498-12.335,27.498-27.498S426.985,199.908,411.822,199.908z M411.822,236.572c-5.057,0-9.166-4.109-9.166-9.166
		s4.109-9.166,9.166-9.166c5.057,0,9.166,4.109,9.166,9.166S416.879,236.572,411.822,236.572z"/>
	<path style="fill:#314E55;" d="M507.984,285.758c-7.644-56.58-40.164-166.312-41.542-170.958c-0.797-2.659-2.748-4.816-5.317-5.872
		c-2.811-1.146-69.291-28.178-104.299-28.178c-20.077,0-38.454,15.029-56.213,29.566c-15.28,12.505-31.078,25.43-44.613,25.43
		c-13.534,0-29.333-12.925-44.613-25.43c-17.759-14.537-36.136-29.566-56.213-29.566c-35.008,0-101.488,27.033-104.299,28.178
		c-2.569,1.056-4.52,3.213-5.317,5.872C44.18,119.446,11.66,229.178,4.016,285.758c-4.395,32.537-4.019,94.864-4.001,97.335
		c-0.367,31.66,12.809,42.285,20.695,45.794c2.775,1.235,6.633,2.363,11.493,2.363c9.014,0,21.483-3.876,36.932-18.135
		c14.859-15.96,60.116-57.386,90.621-57.386h192.486c30.506,0,75.754,41.426,91.212,57.968
		c23.747,21.241,40.379,18.493,48.166,14.966c7.725-3.5,20.65-14.053,20.364-45.293C512.003,380.73,512.379,318.296,507.984,285.758
		z M493.653,383.388c0.134,15.11-3.446,25.797-9.587,28.581c-6.266,2.811-16.864-1.629-27.784-11.341
		c-2.399-2.587-59.311-63.231-104.039-63.231H159.757c-44.729,0-101.649,60.644-103.547,62.73
		c-11.216,10.339-21.662,14.841-28.044,12.012c-6.328-2.82-9.998-13.597-9.82-29.002c-0.009-0.635-0.385-63.679,3.84-94.927
		c6.624-49.035,33.549-142.869,39.699-163.931c14.823-5.791,66.435-25.197,93.289-25.197c13.534,0,29.333,12.925,44.613,25.43
		c17.759,14.537,36.136,29.566,56.213,29.566s38.454-15.029,56.213-29.566c15.28-12.505,31.079-25.43,44.613-25.43
		c26.854,0,78.466,19.406,93.289,25.198c6.149,21.062,33.074,114.888,39.698,163.931
		C494.038,319.459,493.662,382.61,493.653,383.388z"/>
</g>
<g>
</g>
<g>
</g>
<g>
</g>
<g>
</g>
<g>
</g>
<g>
</g>
<g>
</g>
<g>
</g>
<g>
</g>
<g>
</g>
<g>
</g>
<g>
</g>
<g>
</g>
<g>
</g>
<g>
</g>
</svg>
