<?xml version="1.0" encoding="iso-8859-1"?>
<!-- Generator: Adobe Illustrator 19.0.0, SVG Export Plug-In . SVG Version: 6.00 Build 0)  -->
<svg version="1.1" id="Layer_1" xmlns="http://www.w3.org/2000/svg" xmlns:xlink="http://www.w3.org/1999/xlink" x="0px" y="0px"
	 viewBox="0 0 512 512" style="enable-background:new 0 0 512 512;" xml:space="preserve">
<g>
	<rect x="100.462" y="201.203" style="fill:#E4AD40;" width="18.266" height="18.266"/>
	<path style="fill:#E4AD40;" d="M310.518,173.804c0,23.977,9.361,45.76,24.529,62.072c4.233,2.715,7.887,6.16,11.015,10.077
		c15.449,11.973,34.771,19.179,55.784,19.179c50.36,0,91.329-40.973,91.329-91.329s-40.969-91.329-91.329-91.329
		S310.518,123.448,310.518,173.804z M401.847,246.867c-15.109,0-27.399-12.29-27.399-27.399s12.29-27.399,27.399-27.399
		c15.109,0,27.399,12.29,27.399,27.399C429.246,234.577,416.955,246.867,401.847,246.867z M456.644,146.405
		c15.109,0,27.399,12.29,27.399,27.399c0,15.109-12.29,27.399-27.399,27.399c-15.109,0-27.399-12.29-27.399-27.399
		C429.246,158.695,441.536,146.405,456.644,146.405z M401.847,100.741c15.109,0,27.399,12.29,27.399,27.399
		s-12.29,27.399-27.399,27.399c-15.109,0-27.399-12.29-27.399-27.399S386.738,100.741,401.847,100.741z M374.448,173.804
		c0,15.109-12.29,27.399-27.399,27.399c-15.109,0-27.399-12.29-27.399-27.399c0-15.109,12.29-27.399,27.399-27.399
		C362.158,146.405,374.448,158.695,374.448,173.804z"/>
	<rect x="100.462" y="164.671" style="fill:#E4AD40;" width="18.266" height="18.266"/>
	<rect x="136.993" y="164.671" style="fill:#E4AD40;" width="18.266" height="18.266"/>
	<rect x="100.462" y="128.14" style="fill:#E4AD40;" width="18.266" height="18.266"/>
	<circle style="fill:#E4AD40;" cx="347.05" cy="173.804" r="9.133"/>
	<circle style="fill:#E4AD40;" cx="401.847" cy="219.468" r="9.133"/>
	<circle style="fill:#E4AD40;" cx="401.847" cy="128.14" r="9.133"/>
	<circle style="fill:#E4AD40;" cx="456.644" cy="173.804" r="9.133"/>
	<rect x="63.93" y="164.671" style="fill:#E4AD40;" width="18.266" height="18.266"/>
</g>
<path style="fill:#DDD158;" d="M333.392,259.253c-3.477-2.791-6.779-5.778-9.89-8.965c-3.882-2.112-8.262-3.421-12.984-3.421
	c-15.109,0-27.399,12.29-27.399,27.399c0,15.109,12.29,27.399,27.399,27.399c14.979,0,27.152-12.09,27.36-27.02l-2.74-12.179
	C334.607,261.362,334.061,260.268,333.392,259.253z"/>
<path style="fill:#E4AD40;" d="M401.847,283.399c-16.257,0-31.645-3.654-45.533-10.032l26.71,118.717
	c4.566,20.299,25.994,37.441,46.793,37.441h9.115c20.491,0,38.355-16.634,39.818-37.085l10.957-153.403
	C469.712,265.894,437.825,283.399,401.847,283.399z"/>
<path style="fill:#DDD158;" d="M200.923,246.867c-4.723,0-9.102,1.31-12.984,3.422c-3.112,3.186-6.413,6.174-9.89,8.964
	c-0.302,0.458-0.514,0.973-0.788,1.449l-3.525,15.666c1.095,14.113,12.797,25.297,27.186,25.297
	c15.109,0,27.399-12.29,27.399-27.399C228.322,259.157,216.032,246.867,200.923,246.867z"/>
<g>
	<path style="fill:#E4AD40;" d="M292.252,173.804c0-23.869,7.756-45.912,20.76-63.93H198.429
		c13.004,18.018,20.76,40.061,20.76,63.93c0,20.109-5.536,38.908-15.027,55.124c20.573,1.476,37.472,16.435,41.503,36.204h20.112
		c4.03-19.77,20.93-34.728,41.503-36.204C297.789,212.712,292.252,193.913,292.252,173.804z M273.987,155.538h-36.532v-18.266
		h36.532V155.538z"/>
	<path style="fill:#E4AD40;" d="M155.362,273.254c-13.95,6.447-29.418,10.145-45.767,10.145c-35.607,0-67.207-17.145-87.238-43.531
		L33.254,392.44c1.458,20.451,19.323,37.085,39.818,37.085h9.115c20.799,0,42.226-17.142,46.793-37.441l26.35-117.118
		c-0.004-0.239-0.071-0.46-0.071-0.7C155.259,273.919,155.354,273.599,155.362,273.254z"/>
	<path style="fill:#E4AD40;" d="M109.595,265.133c21.014,0,40.335-7.206,55.785-19.179c3.128-3.918,6.782-7.362,11.015-10.077
		c15.168-16.312,24.529-38.095,24.529-62.072c0-50.356-40.969-91.329-91.329-91.329s-91.329,40.973-91.329,91.329
		S59.235,265.133,109.595,265.133z M45.664,155.538c0-5.048,4.089-9.133,9.133-9.133h27.399v-27.399
		c0-5.048,4.089-9.133,9.133-9.133h36.532c5.044,0,9.133,4.085,9.133,9.133v27.399h27.399c5.044,0,9.133,4.085,9.133,9.133v36.532
		c0,5.048-4.089,9.133-9.133,9.133h-27.399v27.399c0,5.048-4.089,9.133-9.133,9.133H91.329c-5.044,0-9.133-4.085-9.133-9.133
		v-27.399H54.797c-5.044,0-9.133-4.085-9.133-9.133V155.538z"/>
</g>
<g>
	<path style="fill:#314E55;" d="M401.847,155.538c15.109,0,27.399-12.29,27.399-27.399s-12.29-27.399-27.399-27.399
		c-15.109,0-27.399,12.29-27.399,27.399S386.738,155.538,401.847,155.538z M401.847,119.007c5.035,0,9.133,4.094,9.133,9.133
		c0,5.039-4.098,9.133-9.133,9.133c-5.035,0-9.133-4.094-9.133-9.133C392.714,123.1,396.812,119.007,401.847,119.007z"/>
	<path style="fill:#314E55;" d="M401.847,192.07c-15.109,0-27.399,12.29-27.399,27.399c0,15.109,12.29,27.399,27.399,27.399
		c15.109,0,27.399-12.29,27.399-27.399S416.955,192.07,401.847,192.07z M401.847,228.601c-5.035,0-9.133-4.094-9.133-9.133
		c0-5.039,4.098-9.133,9.133-9.133c5.035,0,9.133,4.094,9.133,9.133C410.98,224.507,406.882,228.601,401.847,228.601z"/>
	<path style="fill:#314E55;" d="M319.651,173.804c0,15.109,12.29,27.399,27.399,27.399c15.109,0,27.399-12.29,27.399-27.399
		c0-15.109-12.29-27.399-27.399-27.399C331.941,146.405,319.651,158.695,319.651,173.804z M347.05,164.671
		c5.035,0,9.133,4.094,9.133,9.133c0,5.039-4.098,9.133-9.133,9.133c-5.035,0-9.133-4.094-9.133-9.133
		C337.917,168.765,342.015,164.671,347.05,164.671z"/>
	<path style="fill:#314E55;" d="M456.644,201.203c15.109,0,27.399-12.29,27.399-27.399c0-15.109-12.29-27.399-27.399-27.399
		c-15.109,0-27.399,12.29-27.399,27.399C429.246,188.913,441.536,201.203,456.644,201.203z M456.644,164.671
		c5.035,0,9.133,4.094,9.133,9.133c0,5.039-4.098,9.133-9.133,9.133c-5.035,0-9.133-4.094-9.133-9.133
		C447.511,168.765,451.609,164.671,456.644,164.671z"/>
	<path style="fill:#314E55;" d="M511.16,179.369c0.094-1.856,0.282-3.687,0.282-5.565c0-60.434-49.165-109.595-109.595-109.595
		c-27.734,0-53.02,10.439-72.345,27.486c-0.152-0.007-0.279-0.087-0.433-0.087H182.658c-0.236,0-0.435,0.116-0.667,0.134
		c-19.332-17.075-44.637-27.533-72.396-27.533C49.165,64.209,0,113.37,0,173.804c0,2.413,0.208,4.774,0.362,7.149
		c-0.195,0.857-0.405,1.714-0.34,2.636l15.01,210.155c2.127,29.798,28.166,54.048,58.039,54.048h9.115
		c29.709,0,58.088-22.707,64.612-51.693l20.514-91.176c8.357,9.156,20.267,15.009,33.61,15.009
		c22.051,0,40.498-15.715,44.741-36.532h20.112c4.244,20.817,22.691,36.532,44.741,36.532c13.592,0,25.68-6.089,34.052-15.544
		l20.634,91.711c6.524,28.986,34.904,51.693,64.612,51.693h9.115c29.869,0,55.908-24.241,58.039-54.048l15.01-210.155
		C512.089,182.073,511.725,180.673,511.16,179.369z M493.176,173.804c0,50.356-40.969,91.329-91.329,91.329
		c-21.014,0-40.335-7.206-55.785-19.179c-3.128-3.918-6.782-7.362-11.015-10.077c-15.168-16.312-24.529-38.095-24.529-62.072
		c0-50.356,40.969-91.329,91.329-91.329S493.176,123.448,493.176,173.804z M109.595,82.475c50.36,0,91.329,40.973,91.329,91.329
		c0,23.977-9.361,45.76-24.529,62.072c-4.233,2.715-7.887,6.16-11.015,10.077c-15.449,11.973-34.77,19.179-55.784,19.179
		c-50.36,0-91.329-40.973-91.329-91.329S59.235,82.475,109.595,82.475z M128.98,392.084c-4.566,20.299-25.994,37.441-46.793,37.441
		h-9.115c-20.496,0-38.36-16.634-39.818-37.085L22.356,239.867c20.031,26.386,51.631,43.531,87.238,43.531
		c16.349,0,31.817-3.698,45.767-10.145c-0.008,0.345-0.103,0.665-0.103,1.012c0,0.24,0.067,0.461,0.071,0.7L128.98,392.084z
		 M200.923,301.664c-14.389,0-26.092-11.184-27.186-25.297l3.525-15.666c0.274-0.476,0.486-0.99,0.788-1.449
		c3.477-2.791,6.778-5.778,9.89-8.964c3.883-2.112,8.262-3.422,12.984-3.422c15.109,0,27.399,12.29,27.399,27.399
		C228.322,289.374,216.032,301.664,200.923,301.664z M265.777,265.133h-20.112c-4.03-19.77-20.93-34.728-41.503-36.204
		c9.491-16.217,15.027-35.015,15.027-55.124c0-23.869-7.756-45.912-20.76-63.93h114.584c-13.004,18.018-20.76,40.061-20.76,63.93
		c0,20.109,5.536,38.908,15.027,55.124C286.707,230.405,269.807,245.363,265.777,265.133z M310.518,301.664
		c-15.109,0-27.399-12.29-27.399-27.399c0-15.109,12.29-27.399,27.399-27.399c4.722,0,9.101,1.309,12.984,3.421
		c3.111,3.186,6.414,6.174,9.89,8.965c0.669,1.015,1.215,2.109,1.746,3.212l2.74,12.179
		C337.67,289.574,325.497,301.664,310.518,301.664z M438.931,429.525h-9.115c-20.799,0-42.226-17.142-46.793-37.441l-26.71-118.717
		c13.888,6.378,29.276,10.032,45.533,10.032c35.979,0,67.866-17.504,87.859-44.361L478.75,392.44
		C477.287,412.891,459.422,429.525,438.931,429.525z"/>
	<path style="fill:#314E55;" d="M54.797,201.203h27.399v27.399c0,5.048,4.089,9.133,9.133,9.133h36.532
		c5.044,0,9.133-4.085,9.133-9.133v-27.399h27.399c5.044,0,9.133-4.085,9.133-9.133v-36.532c0-5.048-4.089-9.133-9.133-9.133
		h-27.399v-27.399c0-5.048-4.089-9.133-9.133-9.133H91.329c-5.044,0-9.133,4.085-9.133,9.133v27.399H54.797
		c-5.044,0-9.133,4.085-9.133,9.133v36.532C45.664,197.118,49.754,201.203,54.797,201.203z M118.727,219.468h-18.266v-18.266h18.266
		V219.468z M100.462,182.937v-18.266h18.266v18.266H100.462z M155.259,164.671v18.266h-18.266v-18.266H155.259z M100.462,128.14
		h18.266v18.266h-18.266V128.14z M63.93,164.671h18.266v18.266H63.93V164.671z"/>
	<rect x="237.455" y="137.272" style="fill:#314E55;" width="36.532" height="18.266"/>
</g>
<g>
</g>
<g>
</g>
<g>
</g>
<g>
</g>
<g>
</g>
<g>
</g>
<g>
</g>
<g>
</g>
<g>
</g>
<g>
</g>
<g>
</g>
<g>
</g>
<g>
</g>
<g>
</g>
<g>
</g>
</svg>
