<?xml version="1.0" encoding="iso-8859-1"?>
<!-- Generator: Adobe Illustrator 19.0.0, SVG Export Plug-In . SVG Version: 6.00 Build 0)  -->
<svg version="1.1" id="Layer_1" xmlns="http://www.w3.org/2000/svg" xmlns:xlink="http://www.w3.org/1999/xlink" x="0px" y="0px"
	 viewBox="0 0 512 512" style="enable-background:new 0 0 512 512;" xml:space="preserve">
<g>
	<path style="fill:#73C9C9;" d="M247.245,238.491V125.572c-35.125,6.725-63.271,53.37-68.914,112.919L247.245,238.491
		L247.245,238.491z"/>
	<path style="fill:#73C9C9;" d="M247.245,395.182V256h-69.907c-0.027,1.466-0.129,2.9-0.129,4.377
		C177.21,330.099,207.907,387.651,247.245,395.182z"/>
	<path style="fill:#73C9C9;" d="M264.754,395.182c39.338-7.531,70.036-65.083,70.036-134.805c0-1.477-0.102-2.911-0.129-4.377
		h-69.907V395.182z"/>
	<path style="fill:#73C9C9;" d="M351.25,238.491h43.606c-6.86-54.643-45.219-99.596-96.348-115.924
		C326.696,144.164,346.774,186.77,351.25,238.491z"/>
	<path style="fill:#73C9C9;" d="M264.754,125.572v112.919h68.914C328.025,178.942,299.879,132.296,264.754,125.572z"/>
	<path style="fill:#73C9C9;" d="M352.299,260.377c0,51.016-14.987,95.327-38.412,123.02c48.399-22.084,82.184-70.819,82.184-127.397
		h-43.907C352.19,257.469,352.299,258.897,352.299,260.377z"/>
	<path style="fill:#73C9C9;" d="M160.749,238.491c4.476-51.721,24.554-94.327,52.742-115.924
		c-51.129,16.328-89.488,61.281-96.348,115.924H160.749z"/>
	<path style="fill:#73C9C9;" d="M159.701,260.377c0-1.48,0.109-2.908,0.135-4.377h-43.907c0,56.578,33.786,105.313,82.184,127.397
		C174.688,355.704,159.701,311.393,159.701,260.377z"/>
</g>
<g>
	<path style="fill:#314E55;" d="M264.754,98.863v-0.443h-17.509v0.443C164.438,103.447,98.419,172.068,98.419,256
		c0,86.886,70.694,157.581,157.581,157.581S413.58,342.886,413.58,256C413.58,172.068,347.562,103.447,264.754,98.863z
		 M394.856,238.491H351.25c-4.476-51.721-24.554-94.327-52.742-115.924C349.637,138.895,387.996,183.848,394.856,238.491z
		 M334.79,260.377c0,69.722-30.698,127.274-70.036,134.805V256h69.907C334.689,257.466,334.79,258.9,334.79,260.377z M177.338,256
		h69.907v139.183c-39.338-7.531-70.036-65.083-70.036-134.805C177.21,258.9,177.311,257.466,177.338,256z M247.245,125.572v112.919
		h-68.914C183.975,178.942,212.121,132.296,247.245,125.572z M264.754,238.491V125.572c35.125,6.725,63.271,53.37,68.914,112.919
		L264.754,238.491L264.754,238.491z M213.492,122.567c-28.188,21.597-48.266,64.204-52.742,115.924h-43.606
		C124.004,183.848,162.363,138.895,213.492,122.567z M115.928,256h43.907c-0.025,1.469-0.135,2.897-0.135,4.377
		c0,51.016,14.987,95.327,38.411,123.02C149.714,361.313,115.928,312.577,115.928,256z M313.887,383.397
		c23.425-27.693,38.412-72.004,38.412-123.02c0-1.48-0.109-2.908-0.135-4.377h43.907
		C396.072,312.578,362.286,361.313,313.887,383.397z"/>
	<path style="fill:#314E55;" d="M257.467,37.175l22.231-22.231c3.42-3.42,3.42-8.96,0-12.379s-8.96-3.42-12.379,0l-37.138,37.138
		c-3.42,3.42-3.42,8.96,0,12.379l37.138,37.138c1.71,1.71,3.95,2.565,6.19,2.565s4.48-0.855,6.19-2.565
		c3.42-3.42,3.42-8.96,0-12.379l-22.155-22.155C367.862,55.523,457.353,145.488,457.353,256c0,4.839,3.916,8.754,8.754,8.754
		s8.754-3.916,8.754-8.754C474.862,135.81,377.473,37.972,257.467,37.175z"/>
	<path style="fill:#314E55;" d="M244.681,422.78c-3.42-3.42-8.96-3.42-12.379,0c-3.419,3.42-3.42,8.96,0,12.379l22.155,22.155
		C144.138,456.477,54.647,366.512,54.647,256c0-4.839-3.916-8.754-8.754-8.754s-8.754,3.916-8.754,8.754
		c0,120.19,97.389,218.028,217.395,218.824l-22.231,22.231c-3.42,3.42-3.42,8.96,0,12.379c1.71,1.71,3.95,2.565,6.19,2.565
		c2.24,0,4.48-0.855,6.19-2.565l37.138-37.138c3.42-3.42,3.42-8.96,0-12.379L244.681,422.78z"/>
</g>
<g>
</g>
<g>
</g>
<g>
</g>
<g>
</g>
<g>
</g>
<g>
</g>
<g>
</g>
<g>
</g>
<g>
</g>
<g>
</g>
<g>
</g>
<g>
</g>
<g>
</g>
<g>
</g>
<g>
</g>
</svg>
