<?xml version="1.0" encoding="iso-8859-1"?>
<!-- Generator: Adobe Illustrator 19.0.0, SVG Export Plug-In . SVG Version: 6.00 Build 0)  -->
<svg version="1.1" id="Layer_1" xmlns="http://www.w3.org/2000/svg" xmlns:xlink="http://www.w3.org/1999/xlink" x="0px" y="0px"
	 viewBox="0 0 512 512" style="enable-background:new 0 0 512 512;" xml:space="preserve">
<path style="fill:#E4D759;" d="M356.571,54.857H155.429v210.286h201.143V54.857z M230.464,93.321l-32.326,32.326
	c-1.786,1.786-4.125,2.679-6.464,2.679s-4.679-0.893-6.464-2.679c-3.571-3.571-3.571-9.357,0-12.928l32.326-32.326
	c3.571-3.571,9.357-3.571,12.928,0C234.035,83.964,234.036,89.75,230.464,93.321z"/>
<path style="fill:#5ECC66;" d="M256,329.143c-35.29,0-64,28.714-64,64s28.71,64,64,64s64-28.714,64-64S291.29,329.143,256,329.143z
	 M256,438.857c-25.205,0-45.714-20.509-45.714-45.714c0-25.205,20.509-45.714,45.714-45.714s45.714,20.509,45.714,45.714
	C301.714,418.348,281.205,438.857,256,438.857z"/>
<path style="fill:#E1E2E2;" d="M256,365.714c-15.125,0-27.429,12.304-27.429,27.429s12.304,27.429,27.429,27.429
	c15.125,0,27.429-12.304,27.429-27.429S271.125,365.714,256,365.714z M256,411.429c-10.085,0-18.286-8.205-18.286-18.286
	c0-10.08,8.201-18.286,18.286-18.286c10.085,0,18.286,8.205,18.286,18.286C274.286,403.223,266.085,411.429,256,411.429z"/>
<path style="fill:#D8D8D8;" d="M383.982,18.286H128.018c-5.049,0-9.161,4.112-9.161,9.161v457.107c0,5.053,4.112,9.161,9.161,9.161
	h255.964c5.049,0,9.161-4.107,9.161-9.161V27.446C393.143,22.397,389.031,18.286,383.982,18.286z M256,475.429
	c-45.371,0-82.286-36.911-82.286-82.286s36.915-82.286,82.286-82.286s82.286,36.911,82.286,82.286S301.371,475.429,256,475.429z
	 M374.857,283.429H137.143V36.571h237.714V283.429z"/>
<g>
	<path style="fill:#314E55;" d="M383.982,0H128.018c-15.134,0-27.446,12.312-27.446,27.446v457.107
		c0,15.134,12.312,27.446,27.446,27.446h255.964c15.134,0,27.446-12.312,27.446-27.446V27.446C411.429,12.312,399.116,0,383.982,0z
		 M393.143,484.554c0,5.053-4.112,9.161-9.161,9.161H128.018c-5.049,0-9.161-4.107-9.161-9.161V27.446
		c0-5.049,4.112-9.161,9.161-9.161h255.964c5.049,0,9.161,4.112,9.161,9.161V484.554z"/>
	<path style="fill:#314E55;" d="M137.143,283.429h237.714V36.571H137.143V283.429z M155.429,54.857h201.143v210.286H155.429V54.857z
		"/>
	<path style="fill:#314E55;" d="M256,310.857c-45.371,0-82.286,36.911-82.286,82.286s36.915,82.286,82.286,82.286
		s82.286-36.911,82.286-82.286S301.371,310.857,256,310.857z M256,457.143c-35.29,0-64-28.714-64-64s28.71-64,64-64s64,28.714,64,64
		S291.29,457.143,256,457.143z"/>
	<path style="fill:#314E55;" d="M256,347.429c-25.205,0-45.714,20.509-45.714,45.714c0,25.205,20.509,45.714,45.714,45.714
		s45.714-20.509,45.714-45.714C301.714,367.938,281.205,347.429,256,347.429z M256,420.571c-15.125,0-27.429-12.304-27.429-27.429
		s12.304-27.429,27.429-27.429c15.125,0,27.429,12.304,27.429,27.429S271.125,420.571,256,420.571z"/>
	<path style="fill:#314E55;" d="M256,374.857c-10.085,0-18.286,8.205-18.286,18.286c0,10.08,8.201,18.286,18.286,18.286
		c10.085,0,18.286-8.205,18.286-18.286C274.286,383.062,266.085,374.857,256,374.857z"/>
	<path style="fill:#314E55;" d="M217.536,80.393l-32.326,32.326c-3.571,3.571-3.571,9.357,0,12.928
		c1.786,1.786,4.125,2.679,6.464,2.679c2.339,0,4.679-0.893,6.464-2.679l32.326-32.326c3.571-3.571,3.571-9.357,0-12.928
		C226.893,76.822,221.107,76.821,217.536,80.393z"/>
</g>
<g>
</g>
<g>
</g>
<g>
</g>
<g>
</g>
<g>
</g>
<g>
</g>
<g>
</g>
<g>
</g>
<g>
</g>
<g>
</g>
<g>
</g>
<g>
</g>
<g>
</g>
<g>
</g>
<g>
</g>
</svg>
