<?xml version="1.0" encoding="iso-8859-1"?>
<!-- Generator: Adobe Illustrator 19.0.0, SVG Export Plug-In . SVG Version: 6.00 Build 0)  -->
<svg version="1.1" id="Layer_1" xmlns="http://www.w3.org/2000/svg" xmlns:xlink="http://www.w3.org/1999/xlink" x="0px" y="0px"
	 viewBox="0 0 512 512" style="enable-background:new 0 0 512 512;" xml:space="preserve">
<g>
	<rect x="225.627" y="147.525" style="fill:#F28544;" width="60.746" height="112.814"/>
	<path style="fill:#F28544;" d="M459.932,95.458H60.746v216.949h399.187V95.458z M190.915,199.593v17.356v52.068h-17.356v-52.068
		h-43.39h-17.356v-17.356v-60.746h17.356v60.746h43.39v-60.746h17.356V199.593z M303.729,269.017c0,4.797-3.886,8.678-8.678,8.678
		h-78.102c-4.792,0-8.678-3.881-8.678-8.678v-130.17c0-4.797,3.886-8.678,8.678-8.678h78.102c4.792,0,8.678,3.881,8.678,8.678
		V269.017z M407.865,269.017c0,4.797-3.886,8.678-8.678,8.678h-78.102c-4.792,0-8.678-3.881-8.678-8.678v-130.17
		c0-4.797,3.886-8.678,8.678-8.678h78.102c4.792,0,8.678,3.881,8.678,8.678V269.017z"/>
	<rect x="329.763" y="147.525" style="fill:#F28544;" width="60.746" height="112.814"/>
</g>
<path style="fill:#D8D8D8;" d="M57.852,329.763l-36.157,86.78h469.589l-28.928-86.78H57.852z M164.881,407.864h-43.39v-17.356h43.39
	V407.864z M329.763,407.864H182.237v-17.356h147.525V407.864z M390.509,407.864h-43.39v-17.356h43.39V407.864z"/>
<g>
	<path style="fill:#314E55;" d="M511.556,422.475l-34.267-102.801V86.78c0-4.797-3.886-8.678-8.678-8.678H52.068
		c-4.792,0-8.678,3.881-8.678,8.678v232.573L0.67,421.881c-1.119,2.678-0.822,5.737,0.788,8.152c1.61,2.415,4.318,3.865,7.22,3.865
		h494.644c2.788,0,5.407-1.339,7.038-3.602S512.437,425.119,511.556,422.475z M60.746,95.458h399.187v216.949H60.746V95.458z
		 M21.695,416.542l36.157-86.78h404.504l28.928,86.78H21.695z"/>
	<rect x="182.237" y="390.508" style="fill:#314E55;" width="147.525" height="17.356"/>
	<rect x="347.119" y="390.508" style="fill:#314E55;" width="43.39" height="17.356"/>
	<rect x="121.492" y="390.508" style="fill:#314E55;" width="43.39" height="17.356"/>
	<polygon style="fill:#314E55;" points="173.559,199.593 130.17,199.593 130.17,138.847 112.814,138.847 112.814,199.593 
		112.814,216.949 130.17,216.949 173.559,216.949 173.559,269.017 190.915,269.017 190.915,216.949 190.915,199.593 
		190.915,138.847 173.559,138.847 	"/>
	<path style="fill:#314E55;" d="M295.051,130.169h-78.102c-4.792,0-8.678,3.881-8.678,8.678v130.17c0,4.797,3.886,8.678,8.678,8.678
		h78.102c4.792,0,8.678-3.881,8.678-8.678v-130.17C303.729,134.051,299.843,130.169,295.051,130.169z M286.373,260.339h-60.746
		V147.525h60.746V260.339z"/>
	<path style="fill:#314E55;" d="M399.187,130.169h-78.102c-4.792,0-8.678,3.881-8.678,8.678v130.17c0,4.797,3.886,8.678,8.678,8.678
		h78.102c4.792,0,8.678-3.881,8.678-8.678v-130.17C407.865,134.051,403.979,130.169,399.187,130.169z M390.509,260.339h-60.746
		V147.525h60.746V260.339z"/>
</g>
<g>
</g>
<g>
</g>
<g>
</g>
<g>
</g>
<g>
</g>
<g>
</g>
<g>
</g>
<g>
</g>
<g>
</g>
<g>
</g>
<g>
</g>
<g>
</g>
<g>
</g>
<g>
</g>
<g>
</g>
</svg>
