<?xml version="1.0" encoding="iso-8859-1"?>
<!-- Generator: Adobe Illustrator 19.0.0, SVG Export Plug-In . SVG Version: 6.00 Build 0)  -->
<svg version="1.1" id="Layer_1" xmlns="http://www.w3.org/2000/svg" xmlns:xlink="http://www.w3.org/1999/xlink" x="0px" y="0px"
	 viewBox="0 0 512 512" style="enable-background:new 0 0 512 512;" xml:space="preserve">
<path style="fill:#73C9C9;" d="M459.932,95.458H60.746v216.949h399.187V95.458z M156.203,109.22l12.271,12.271l-70.161,70.161
	l-12.271-12.271L156.203,109.22z M95.458,237.898l-12.271-12.271L199.593,109.22l12.271,12.271L95.458,237.898z"/>
<path style="fill:#D8D8D8;" d="M57.852,329.763l-36.157,86.78h469.589l-28.928-86.78H57.852z M164.881,407.864h-43.39v-17.356h43.39
	V407.864z M329.763,407.864H182.237v-17.356h147.525V407.864z M390.509,407.864h-43.39v-17.356h43.39V407.864z"/>
<g>
	<path style="fill:#314E55;" d="M511.556,422.475l-34.267-102.801V86.78c0-4.797-3.886-8.678-8.678-8.678H52.068
		c-4.792,0-8.678,3.881-8.678,8.678v232.573L0.67,421.881c-1.119,2.678-0.822,5.737,0.788,8.152c1.61,2.415,4.318,3.865,7.22,3.865
		h494.644c2.788,0,5.407-1.339,7.038-3.602S512.437,425.119,511.556,422.475z M60.746,95.458h399.187v216.949H60.746V95.458z
		 M21.695,416.542l36.157-86.78h404.504l28.928,86.78H21.695z"/>
	
		<rect x="77.646" y="141.752" transform="matrix(-0.7071 0.7071 -0.7071 -0.7071 323.6095 166.8143)" style="fill:#314E55;" width="99.221" height="17.354"/>
	
		<rect x="65.213" y="164.882" transform="matrix(-0.7071 0.7071 -0.7071 -0.7071 374.5636 191.9687)" style="fill:#314E55;" width="164.622" height="17.354"/>
	<rect x="182.237" y="390.508" style="fill:#314E55;" width="147.525" height="17.356"/>
	<rect x="347.119" y="390.508" style="fill:#314E55;" width="43.39" height="17.356"/>
	<rect x="121.492" y="390.508" style="fill:#314E55;" width="43.39" height="17.356"/>
</g>
<g>
</g>
<g>
</g>
<g>
</g>
<g>
</g>
<g>
</g>
<g>
</g>
<g>
</g>
<g>
</g>
<g>
</g>
<g>
</g>
<g>
</g>
<g>
</g>
<g>
</g>
<g>
</g>
<g>
</g>
</svg>
