<?xml version="1.0" encoding="iso-8859-1"?>
<!-- Generator: Adobe Illustrator 19.0.0, SVG Export Plug-In . SVG Version: 6.00 Build 0)  -->
<svg version="1.1" id="Layer_1" xmlns="http://www.w3.org/2000/svg" xmlns:xlink="http://www.w3.org/1999/xlink" x="0px" y="0px"
	 viewBox="0 0 512 512" style="enable-background:new 0 0 512 512;" xml:space="preserve">
<path style="fill:#E4AD40;" d="M269.017,186.576h-26.034h-17.356h-8.678v34.712c0,19.144,15.576,34.712,34.72,34.712h8.661
	c19.144,0,34.72-15.568,34.72-34.712v-34.712h-8.678H269.017z"/>
<path style="fill:#5ECC66;" d="M459.932,99.796H60.746v208.271h399.187V99.796z M312.407,221.288
	c0,28.712-23.36,52.068-52.076,52.068h-8.661c-28.716,0-52.076-23.356-52.076-52.068v-43.39c0-4.797,3.886-8.678,8.678-8.678h17.356
	v-43.39h17.356v43.39h26.034v-43.39h17.356v43.39h17.356c4.792,0,8.678,3.881,8.678,8.678V221.288z"/>
<path style="fill:#D8D8D8;" d="M57.852,325.424l-36.157,86.78h469.589l-28.928-86.78H57.852z M164.881,403.525h-43.39v-17.356h43.39
	V403.525z M329.763,403.525H182.237v-17.356h147.525V403.525z M390.509,403.525h-43.39v-17.356h43.39V403.525z"/>
<g>
	<path style="fill:#314E55;" d="M511.556,418.136l-34.267-102.801V91.119c0-4.797-3.886-8.678-8.678-8.678H52.068
		c-4.792,0-8.678,3.881-8.678,8.678v223.895L0.67,417.542c-1.119,2.678-0.822,5.737,0.788,8.153c1.61,2.415,4.318,3.865,7.22,3.865
		h494.644c2.788,0,5.407-1.339,7.038-3.602S512.437,420.78,511.556,418.136z M60.746,99.796h399.187v208.271H60.746V99.796z
		 M21.695,412.203l36.157-86.78h404.504l28.928,86.78H21.695z"/>
	<rect x="182.237" y="386.169" style="fill:#314E55;" width="147.525" height="17.356"/>
	<rect x="347.119" y="386.169" style="fill:#314E55;" width="43.39" height="17.356"/>
	<rect x="121.492" y="386.169" style="fill:#314E55;" width="43.39" height="17.356"/>
	<path style="fill:#314E55;" d="M303.729,169.22h-17.356v-43.39h-17.356v43.39h-26.034v-43.39h-17.356v43.39h-17.356
		c-4.792,0-8.678,3.881-8.678,8.678v43.39c0,28.712,23.36,52.068,52.076,52.068h8.661c28.716,0,52.076-23.356,52.076-52.068v-43.39
		C312.407,173.102,308.521,169.22,303.729,169.22z M295.051,221.288c0,19.144-15.576,34.712-34.72,34.712h-8.661
		c-19.144,0-34.72-15.568-34.72-34.712v-34.712h8.678h17.356h26.034h17.356h8.678V221.288z"/>
</g>
<g>
</g>
<g>
</g>
<g>
</g>
<g>
</g>
<g>
</g>
<g>
</g>
<g>
</g>
<g>
</g>
<g>
</g>
<g>
</g>
<g>
</g>
<g>
</g>
<g>
</g>
<g>
</g>
<g>
</g>
</svg>
