<?xml version="1.0" encoding="iso-8859-1"?>
<!-- Generator: Adobe Illustrator 19.0.0, SVG Export Plug-In . SVG Version: 6.00 Build 0)  -->
<svg version="1.1" id="Layer_1" xmlns="http://www.w3.org/2000/svg" xmlns:xlink="http://www.w3.org/1999/xlink" x="0px" y="0px"
	 viewBox="0 0 512 512" style="enable-background:new 0 0 512 512;" xml:space="preserve">
<path style="fill:#E4D759;" d="M255.997,17.965c-89.154,0-161.684,72.535-161.684,161.684c0,6.702,1.123,13.404,2.316,20.5
	l0.746,4.544c3.675,13.579,14.61,50.114,22.974,62.982c0.298,0.456,0.553,0.939,0.759,1.439l60.035,144.079h149.711l60.035-144.079
	c0.206-0.5,0.461-0.982,0.759-1.439c8.825-13.57,16.838-41.912,21.149-57.14l1.855-6.482c0-0.009,0-0.009,0-0.009
	c3.057-10.325,3.048-14.676,3.035-22.588l-0.005-1.807C417.681,90.5,345.151,17.965,255.997,17.965z M327.857,188.632h-62.877
	v62.877h-17.965v-62.877h-62.877v-17.965h62.877v-62.877h17.965v62.877h62.877V188.632z M390.734,188.632
	c-4.961,0-8.982-4.018-8.982-8.982c0-69.342-56.412-125.754-125.754-125.754c-4.961,0-8.982-4.018-8.982-8.982
	s4.022-8.982,8.982-8.982c79.246,0,143.719,64.474,143.719,143.719C399.716,184.614,395.694,188.632,390.734,188.632z"/>
<g>
	<path style="fill:#314E55;" d="M435.646,179.649C435.646,80.588,355.054,0,255.997,0S76.348,80.588,76.348,179.649
		c0,8.193,1.303,15.956,2.561,23.465L79.712,208c0.048,0.316,0.114,0.623,0.197,0.93c0.544,2.026,13.303,49.228,24.912,67.807
		l62.044,148.895c1.395,3.342,4.662,5.526,8.289,5.526h161.684c3.627,0,6.895-2.184,8.289-5.526l62.04-148.886
		c10.096-16.026,18.412-45.421,22.912-61.316l1.798-6.29c3.803-12.833,3.785-19.403,3.772-27.719L435.646,179.649z M414.651,204.044
		c0,0,0,0,0,0.009l-1.855,6.482c-4.311,15.228-12.325,43.57-21.149,57.14c-0.298,0.456-0.553,0.939-0.759,1.439l-60.035,144.079
		H181.142l-60.035-144.079c-0.206-0.5-0.461-0.982-0.759-1.439c-8.364-12.868-19.298-49.404-22.974-62.982l-0.746-4.544
		c-1.193-7.096-2.316-13.798-2.316-20.5c0-89.149,72.531-161.684,161.684-161.684S417.681,90.5,417.681,179.649l0.004,1.807
		C417.699,189.368,417.707,193.719,414.651,204.044z"/>
	<path style="fill:#314E55;" d="M337.089,440.14H175.155c-4.961,0-8.982,4.018-8.982,8.982s4.022,8.982,8.982,8.982h161.934
		c4.961,0,8.982-4.018,8.982-8.982S342.05,440.14,337.089,440.14z"/>
	<path style="fill:#314E55;" d="M337.089,467.088H175.155c-4.961,0-8.982,4.018-8.982,8.982s4.022,8.982,8.982,8.982h161.934
		c4.961,0,8.982-4.018,8.982-8.982S342.05,467.088,337.089,467.088z"/>
	<path style="fill:#314E55;" d="M337.089,494.035H175.155c-4.961,0-8.982,4.018-8.982,8.982s4.022,8.982,8.982,8.982h161.934
		c4.961,0,8.982-4.018,8.982-8.982S342.05,494.035,337.089,494.035z"/>
	<polygon style="fill:#314E55;" points="264.979,107.789 247.015,107.789 247.015,170.667 184.137,170.667 184.137,188.632 
		247.015,188.632 247.015,251.509 264.979,251.509 264.979,188.632 327.857,188.632 327.857,170.667 264.979,170.667 	"/>
	<path style="fill:#314E55;" d="M255.997,35.93c-4.961,0-8.982,4.018-8.982,8.982s4.022,8.982,8.982,8.982
		c69.342,0,125.754,56.412,125.754,125.754c0,4.965,4.022,8.982,8.982,8.982c4.961,0,8.982-4.018,8.982-8.982
		C399.716,100.403,335.243,35.93,255.997,35.93z"/>
</g>
<g>
</g>
<g>
</g>
<g>
</g>
<g>
</g>
<g>
</g>
<g>
</g>
<g>
</g>
<g>
</g>
<g>
</g>
<g>
</g>
<g>
</g>
<g>
</g>
<g>
</g>
<g>
</g>
<g>
</g>
</svg>
