<?xml version="1.0" encoding="iso-8859-1"?>
<!-- Generator: Adobe Illustrator 19.0.0, SVG Export Plug-In . SVG Version: 6.00 Build 0)  -->
<svg version="1.1" id="Layer_1" xmlns="http://www.w3.org/2000/svg" xmlns:xlink="http://www.w3.org/1999/xlink" x="0px" y="0px"
	 viewBox="0 0 512 512" style="enable-background:new 0 0 512 512;" xml:space="preserve">
<path style="fill:#EAEAEA;" d="M137.846,275.606v157.721c0,5.375,4.447,9.75,9.918,9.75h226.317c5.471,0,9.918-4.375,9.918-9.75
	V275.606c0-5.385-4.447-9.76-9.918-9.76H147.764C142.293,265.846,137.846,270.221,137.846,275.606z M157.538,285.538h118.154v19.692
	H157.538V285.538z M157.538,324.923h167.385v19.692H157.538V324.923z M157.538,364.308h167.385V384H157.538V364.308z
	 M157.538,403.692h167.385v19.692H157.538V403.692z"/>
<path style="fill:#73C9C9;" d="M68.923,83.144v409.164h374.154V19.692H139.101L68.923,83.144z M108.308,78.769H128v74.211h-19.692
	V78.769z M384,49.231h19.692v76.375H384V49.231z M403.692,275.606v157.721c0,16.231-13.284,29.442-29.611,29.442H147.764
	c-16.327,0-29.611-13.212-29.611-29.442V275.606c0-16.24,13.284-29.452,29.611-29.452h226.317
	C390.409,246.154,403.692,259.365,403.692,275.606z M344.615,49.231h19.692v76.375h-19.692V49.231z M305.231,49.231h19.692v76.375
	h-19.692V49.231z M265.846,49.231h19.692v76.375h-19.692V49.231z M226.462,49.231h19.692v76.375h-19.692V49.231z M187.077,49.231
	h19.692v76.375h-19.692V49.231z M147.692,49.231h19.692v76.375h-19.692V49.231z"/>
<g>
	<path style="fill:#314E55;" d="M131.514,0L49.231,74.394V512h413.538V0H131.514z M443.077,492.308H68.923V83.144l70.178-63.452
		h303.976V492.308z"/>
	<rect x="108.308" y="78.769" style="fill:#314E55;" width="19.692" height="74.215"/>
	<rect x="226.462" y="49.231" style="fill:#314E55;" width="19.692" height="76.382"/>
	<rect x="147.692" y="49.231" style="fill:#314E55;" width="19.692" height="76.382"/>
	<rect x="305.231" y="49.231" style="fill:#314E55;" width="19.692" height="76.382"/>
	<rect x="265.846" y="49.231" style="fill:#314E55;" width="19.692" height="76.382"/>
	<rect x="187.077" y="49.231" style="fill:#314E55;" width="19.692" height="76.382"/>
	<rect x="344.615" y="49.231" style="fill:#314E55;" width="19.692" height="76.382"/>
	<rect x="384" y="49.231" style="fill:#314E55;" width="19.692" height="76.382"/>
	<path style="fill:#314E55;" d="M118.154,275.606v157.721c0,16.231,13.284,29.442,29.611,29.442h226.317
		c16.327,0,29.611-13.212,29.611-29.442V275.606c0-16.24-13.284-29.452-29.611-29.452H147.764
		C131.438,246.154,118.154,259.365,118.154,275.606z M384,275.606v157.721c0,5.375-4.447,9.75-9.918,9.75H147.764
		c-5.471,0-9.918-4.375-9.918-9.75V275.606c0-5.385,4.447-9.76,9.918-9.76h226.317C379.553,265.846,384,270.221,384,275.606z"/>
	<rect x="157.538" y="285.538" style="fill:#314E55;" width="118.154" height="19.692"/>
	<rect x="157.538" y="324.923" style="fill:#314E55;" width="167.385" height="19.692"/>
	<rect x="157.538" y="364.308" style="fill:#314E55;" width="167.385" height="19.692"/>
	<rect x="157.538" y="403.692" style="fill:#314E55;" width="167.385" height="19.692"/>
</g>
<g>
</g>
<g>
</g>
<g>
</g>
<g>
</g>
<g>
</g>
<g>
</g>
<g>
</g>
<g>
</g>
<g>
</g>
<g>
</g>
<g>
</g>
<g>
</g>
<g>
</g>
<g>
</g>
<g>
</g>
</svg>
