<?xml version="1.0" encoding="iso-8859-1"?>
<!-- Generator: Adobe Illustrator 19.0.0, SVG Export Plug-In . SVG Version: 6.00 Build 0)  -->
<svg version="1.1" id="Layer_1" xmlns="http://www.w3.org/2000/svg" xmlns:xlink="http://www.w3.org/1999/xlink" x="0px" y="0px"
	 viewBox="0 0 512 512" style="enable-background:new 0 0 512 512;" xml:space="preserve">
<g>
	<rect x="211.862" y="401.655" style="fill:#E4D759;" width="88.276" height="35.31"/>
	<rect x="211.862" y="75.034" style="fill:#E4D759;" width="88.276" height="52.966"/>
	<rect x="114.759" y="242.759" style="fill:#E4D759;" width="88.276" height="35.31"/>
	<rect x="17.655" y="401.655" style="fill:#E4D759;" width="88.276" height="35.31"/>
	<rect x="406.069" y="401.655" style="fill:#E4D759;" width="88.276" height="35.31"/>
	<rect x="308.966" y="242.759" style="fill:#E4D759;" width="88.276" height="35.31"/>
</g>
<path style="fill:#314E55;" d="M503.172,384h-44.138V260.414c0-4.879-3.948-8.828-8.828-8.828h-35.31v-17.655
	c0-4.879-3.948-8.828-8.828-8.828h-44.138V101.517c0-4.879-3.948-8.828-8.828-8.828h-35.31V66.207c0-4.879-3.948-8.828-8.828-8.828
	H203.034c-4.879,0-8.828,3.948-8.828,8.828V92.69h-35.31c-4.879,0-8.828,3.948-8.828,8.828v123.586h-44.138
	c-4.879,0-8.828,3.948-8.828,8.828v17.655h-35.31c-4.879,0-8.828,3.948-8.828,8.828V384H8.828C3.948,384,0,387.948,0,392.828v52.966
	c0,4.879,3.948,8.828,8.828,8.828h105.931c4.879,0,8.828-3.948,8.828-8.828v-52.966c0-4.879-3.948-8.828-8.828-8.828H70.621V269.241
	h26.483v17.655c0,4.879,3.948,8.828,8.828,8.828h105.931c4.879,0,8.828-3.948,8.828-8.828v-17.655h26.483V384h-44.138
	c-4.879,0-8.828,3.948-8.828,8.828v52.966c0,4.879,3.948,8.828,8.828,8.828h105.931c4.879,0,8.828-3.948,8.828-8.828v-52.966
	c0-4.879-3.948-8.828-8.828-8.828h-44.138V269.241h26.483v17.655c0,4.879,3.948,8.828,8.828,8.828h105.931
	c4.879,0,8.828-3.948,8.828-8.828v-17.655h26.483V384h-44.138c-4.879,0-8.828,3.948-8.828,8.828v52.966
	c0,4.879,3.948,8.828,8.828,8.828h105.931c4.879,0,8.828-3.948,8.828-8.828v-52.966C512,387.948,508.052,384,503.172,384z
	 M105.931,436.966H17.655v-35.31h88.276V436.966z M300.138,436.966h-88.276v-35.31h88.276V436.966z M211.862,75.034h88.276V128
	h-88.276V75.034z M203.034,278.069h-88.276v-35.31h88.276V278.069z M291.31,233.931v17.655h-26.483h-17.655H220.69v-17.655
	c0-4.879-3.948-8.828-8.828-8.828h-44.138V110.345h26.483v26.483c0,4.879,3.948,8.828,8.828,8.828h105.931
	c4.879,0,8.828-3.948,8.828-8.828v-26.483h26.483v114.759h-44.138C295.259,225.103,291.31,229.052,291.31,233.931z M397.241,278.069
	h-88.276v-35.31h88.276V278.069z M494.345,436.966h-88.276v-35.31h88.276V436.966z"/>
<g>
</g>
<g>
</g>
<g>
</g>
<g>
</g>
<g>
</g>
<g>
</g>
<g>
</g>
<g>
</g>
<g>
</g>
<g>
</g>
<g>
</g>
<g>
</g>
<g>
</g>
<g>
</g>
<g>
</g>
</svg>
