<?xml version="1.0" encoding="iso-8859-1"?>
<!-- Generator: Adobe Illustrator 19.0.0, SVG Export Plug-In . SVG Version: 6.00 Build 0)  -->
<svg version="1.1" id="Layer_1" xmlns="http://www.w3.org/2000/svg" xmlns:xlink="http://www.w3.org/1999/xlink" x="0px" y="0px"
	 viewBox="0 0 512 512" style="enable-background:new 0 0 512 512;" xml:space="preserve">
<g>
	<path style="fill:#F28544;" d="M207.689,244.248c-1.692-1.683-3.906-2.534-6.128-2.534c-2.214,0-4.436,0.85-6.128,2.542
		l-6.036,6.027c-3.376,3.384-3.376,8.881,0,12.257l42.191,42.191c3.376,3.359,8.864,3.384,12.257-0.008l6.019-6.027
		c1.65-1.641,2.559-3.822,2.559-6.128c-0.008-2.315-0.909-4.487-2.551-6.128L207.689,244.248z"/>
	<path style="fill:#F28544;" d="M152.829,299.109c-1.641-1.641-3.813-2.542-6.128-2.542c-2.315,0-4.487,0.901-6.128,2.542
		l-6.036,6.036c-3.376,3.376-3.367,8.881,0.008,12.257l42.183,42.183c3.384,3.384,8.889,3.376,12.257,0l6.027-6.036
		c1.65-1.641,2.551-3.822,2.551-6.128s-0.901-4.478-2.542-6.12L152.829,299.109z"/>
	<path style="fill:#F28544;" d="M262.541,189.397c-1.641-1.641-3.813-2.542-6.12-2.542h-0.008c-2.306,0-4.478,0.901-6.12,2.542
		l-6.036,6.036c-1.641,1.641-2.551,3.822-2.551,6.128c0.008,2.307,0.909,4.478,2.551,6.12l42.191,42.191
		c1.641,1.641,3.813,2.542,6.12,2.542h0.008c2.307,0,4.478-0.901,6.12-2.542l6.036-6.036c1.641-1.641,2.551-3.813,2.551-6.12
		c0-2.315-0.909-4.487-2.551-6.12L262.541,189.397z"/>
	<path style="fill:#F28544;" d="M97.969,353.969c-1.641-1.641-3.813-2.542-6.128-2.542c-2.307,0-4.478,0.901-6.111,2.542
		l-6.044,6.036c-1.641,1.641-2.551,3.813-2.551,6.12c0,2.315,0.909,4.487,2.551,6.12v0.008l42.191,42.191
		c1.641,1.641,3.813,2.542,6.12,2.542h0.008c2.307,0,4.478-0.901,6.12-2.542l6.036-6.036c1.641-1.641,2.542-3.822,2.542-6.128
		s-0.901-4.478-2.542-6.12L97.969,353.969z"/>
	<path style="fill:#F28544;" d="M317.401,134.537c-1.641-1.641-3.813-2.542-6.128-2.542c-2.315,0-4.487,0.901-6.128,2.542
		l-6.019,6.036c-1.65,1.641-2.559,3.813-2.559,6.12c0,2.315,0.909,4.487,2.551,6.12v0.008l42.183,42.191
		c1.641,1.641,3.813,2.542,6.128,2.542s4.487-0.901,6.128-2.542l6.036-6.036c1.641-1.641,2.542-3.822,2.542-6.128
		s-0.901-4.478-2.542-6.12L317.401,134.537z"/>
</g>
<path style="fill:#E4D759;" d="M466.295,112.763L377.91,24.379L24.379,377.901l91.428,91.436L274.284,310.86l36.576-36.576
	l158.473-158.473l-3.043-3.043L466.295,112.763z M152.349,420.597l-6.036,6.036c-4.891,4.891-11.39,7.593-18.301,7.593
	c-0.008,0-0.008,0-0.017,0c-6.911,0-13.41-2.694-18.309-7.593l-42.191-42.191c-4.899-4.891-7.601-11.398-7.601-18.318
	c0-6.911,2.702-13.418,7.601-18.318l6.036-6.027c4.882-4.891,11.39-7.593,18.301-7.593h0.008c6.92,0,13.418,2.694,18.318,7.593
	l42.191,42.191C162.451,394.072,162.451,410.496,152.349,420.597z M207.209,365.737l-6.027,6.044
	c-5.059,5.042-11.693,7.568-18.326,7.568c-6.642,0-13.275-2.525-18.326-7.576l-42.174-42.183
	c-10.093-10.093-10.102-26.534-0.017-36.635l6.044-6.036c10.102-10.102,26.534-10.102,36.635,0l42.191,42.191
	c4.891,4.891,7.593,11.398,7.593,18.301C214.811,354.331,212.109,360.838,207.209,365.737z M262.061,310.885l-6.019,6.036
	c-5.059,5.042-11.701,7.568-18.334,7.568c-6.633,0-13.267-2.517-18.309-7.568l-42.191-42.191
	c-10.093-10.093-10.093-26.525-0.008-36.635l6.044-6.036c10.102-10.102,26.534-10.102,36.635,0l42.183,42.191
	c4.899,4.891,7.593,11.398,7.601,18.301C269.663,299.471,266.969,305.978,262.061,310.885z M316.921,256.034l-6.036,6.027
	c-5.051,5.051-11.684,7.576-18.318,7.576c-6.625,0-13.258-2.525-18.309-7.576l-42.191-42.191c-4.899-4.891-7.593-11.39-7.601-18.301
	c0-6.92,2.694-13.427,7.601-18.334l6.036-6.027c10.102-10.085,26.525-10.102,36.627,0l42.191,42.191
	c4.899,4.891,7.601,11.398,7.601,18.318C324.523,244.627,321.82,251.135,316.921,256.034z M371.781,201.165l-6.036,6.036
	c-4.891,4.891-11.398,7.593-18.309,7.593h-0.008c-6.92,0-13.418-2.694-18.318-7.593l-42.183-42.191
	c-4.899-4.899-7.601-11.398-7.601-18.318c0-6.911,2.702-13.418,7.601-18.318l6.019-6.027c4.899-4.891,11.406-7.593,18.318-7.593
	h0.008c6.92,0,13.418,2.694,18.318,7.593l42.191,42.191C381.883,174.64,381.883,191.064,371.781,201.165z M426.633,146.313
	l-6.019,6.036c-5.059,5.042-11.693,7.568-18.326,7.568c-6.642,0-13.275-2.525-18.326-7.576l-42.183-42.183
	c-10.093-10.093-10.093-26.525-0.008-36.635l6.044-6.036c4.891-4.891,11.398-7.593,18.309-7.593h0.008
	c6.92,0,13.418,2.694,18.318,7.593l42.183,42.191c4.899,4.891,7.593,11.398,7.601,18.301
	C434.235,134.899,431.541,141.406,426.633,146.313z"/>
<path style="fill:#F28544;" d="M372.261,79.677c-1.641-1.641-3.813-2.542-6.128-2.542s-4.487,0.901-6.128,2.542l-6.036,6.036
	c-3.376,3.384-3.376,8.881,0,12.257l42.191,42.183c3.384,3.384,8.889,3.376,12.257,0l6.019-6.027
	c1.65-1.641,2.559-3.822,2.559-6.128c-0.008-2.315-0.909-4.487-2.551-6.128L372.261,79.677z"/>
<g>
	<path style="fill:#314E55;" d="M110.158,341.78c-4.899-4.899-11.398-7.593-18.318-7.593h-0.008c-6.911,0-13.418,2.702-18.301,7.593
		l-6.036,6.027c-4.899,4.899-7.601,11.406-7.601,18.318c0,6.92,2.702,13.427,7.601,18.318l42.191,42.191
		c4.899,4.899,11.398,7.593,18.309,7.593c0.008,0,0.008,0,0.017,0c6.911,0,13.41-2.702,18.301-7.593l6.036-6.036
		c10.102-10.102,10.102-26.525,0-36.627L110.158,341.78z M140.16,408.408l-6.036,6.036c-1.641,1.641-3.813,2.542-6.12,2.542h-0.008
		c-2.307,0-4.478-0.901-6.12-2.542l-42.191-42.191v-0.008c-1.641-1.633-2.551-3.805-2.551-6.12c0-2.306,0.909-4.478,2.551-6.12
		l6.044-6.036c1.633-1.641,3.805-2.542,6.111-2.542c2.315,0,4.487,0.901,6.128,2.542l42.191,42.191
		c1.641,1.641,2.542,3.813,2.542,6.12C142.703,404.586,141.801,406.767,140.16,408.408z"/>
	<path style="fill:#314E55;" d="M219.878,232.059c-10.102-10.102-26.534-10.102-36.635,0l-6.044,6.036
		c-10.085,10.11-10.085,26.542,0.008,36.635l42.191,42.191c5.042,5.051,11.676,7.568,18.309,7.568
		c6.633,0,13.275-2.525,18.334-7.568l6.019-6.036c4.908-4.908,7.601-11.415,7.601-18.334c-0.008-6.903-2.702-13.41-7.601-18.301
		L219.878,232.059z M249.863,298.696l-6.019,6.027c-3.392,3.392-8.881,3.367-12.257,0.008l-42.191-42.191
		c-3.376-3.376-3.376-8.873,0-12.257l6.036-6.027c1.692-1.692,3.914-2.542,6.128-2.542c2.222,0,4.436,0.85,6.128,2.534
		l42.183,42.191c1.641,1.641,2.542,3.813,2.551,6.128C252.422,294.874,251.513,297.055,249.863,298.696z"/>
	<path style="fill:#314E55;" d="M329.59,122.347c-4.899-4.899-11.398-7.593-18.318-7.593h-0.008c-6.911,0-13.418,2.702-18.318,7.593
		l-6.019,6.027c-4.899,4.899-7.601,11.406-7.601,18.318c0,6.92,2.702,13.418,7.601,18.318l42.183,42.191
		c4.899,4.899,11.398,7.593,18.318,7.593h0.008c6.911,0,13.418-2.702,18.309-7.593l6.036-6.036
		c10.102-10.102,10.102-26.525,0-36.627L329.59,122.347z M359.592,188.976l-6.036,6.036c-1.641,1.641-3.813,2.542-6.128,2.542
		s-4.487-0.901-6.128-2.542l-42.183-42.191v-0.008c-1.641-1.633-2.551-3.805-2.551-6.12c0-2.307,0.909-4.478,2.559-6.12l6.019-6.036
		c1.641-1.641,3.813-2.542,6.128-2.542c2.315,0,4.487,0.901,6.128,2.542l42.191,42.191c1.641,1.641,2.542,3.813,2.542,6.12
		S361.234,187.334,359.592,188.976z"/>
	<path style="fill:#314E55;" d="M165.018,286.919c-10.102-10.102-26.534-10.102-36.635,0l-6.044,6.036
		c-10.085,10.102-10.076,26.542,0.017,36.635l42.174,42.183c5.051,5.051,11.684,7.576,18.326,7.576
		c6.633,0,13.267-2.525,18.326-7.568l6.027-6.044c4.899-4.899,7.601-11.406,7.593-18.326c0-6.903-2.702-13.41-7.593-18.301
		L165.018,286.919z M195.012,353.548l-6.027,6.036c-3.367,3.376-8.873,3.384-12.257,0l-42.183-42.183
		c-3.376-3.376-3.384-8.881-0.008-12.257l6.036-6.036c1.641-1.641,3.813-2.542,6.128-2.542c2.315,0,4.487,0.901,6.128,2.542
		L195.02,341.3c1.641,1.641,2.542,3.813,2.542,6.12C197.563,349.726,196.662,351.906,195.012,353.548z"/>
	<path style="fill:#314E55;" d="M274.73,177.208c-10.102-10.102-26.525-10.085-36.627,0l-6.036,6.027
		c-4.908,4.908-7.601,11.415-7.601,18.334c0.008,6.911,2.702,13.41,7.601,18.301l42.191,42.191
		c5.051,5.051,11.684,7.576,18.309,7.576c6.633,0,13.267-2.525,18.318-7.576l6.036-6.027c4.899-4.899,7.601-11.406,7.601-18.318
		c0-6.92-2.702-13.427-7.601-18.318L274.73,177.208z M304.732,243.836l-6.036,6.036c-1.641,1.641-3.813,2.542-6.12,2.542h-0.008
		c-2.306,0-4.478-0.901-6.12-2.542l-42.191-42.191c-1.641-1.641-2.542-3.813-2.551-6.12c0-2.307,0.909-4.487,2.551-6.128
		l6.036-6.036c1.641-1.641,3.813-2.542,6.12-2.542h0.008c2.306,0,4.478,0.901,6.12,2.542l42.191,42.199
		c1.641,1.633,2.551,3.805,2.551,6.12C307.283,240.023,306.374,242.194,304.732,243.836z"/>
	<path style="fill:#314E55;" d="M384.45,67.487c-4.899-4.899-11.398-7.593-18.318-7.593h-0.008c-6.911,0-13.418,2.702-18.309,7.593
		l-6.044,6.036c-10.085,10.11-10.085,26.542,0.008,36.635l42.183,42.183c5.051,5.051,11.684,7.576,18.326,7.576
		c6.633,0,13.267-2.525,18.326-7.568l6.019-6.036c4.908-4.908,7.601-11.415,7.601-18.334c-0.008-6.903-2.702-13.41-7.601-18.301
		L384.45,67.487z M414.435,134.124l-6.019,6.027c-3.367,3.376-8.873,3.384-12.257,0l-42.191-42.183
		c-3.376-3.376-3.376-8.873,0-12.257l6.036-6.036c1.641-1.641,3.813-2.542,6.128-2.542c2.315,0,4.487,0.901,6.128,2.542
		l42.183,42.191c1.641,1.641,2.542,3.813,2.551,6.128C416.995,130.302,416.085,132.483,414.435,134.124z"/>
	<path style="fill:#314E55;" d="M499.811,146.288L512,134.099l-18.288-18.288l0.004-0.004L377.91,0L0,377.901l100.57,100.578h0
		L134.091,512l12.189-12.189l-18.284-18.284l12.193-12.193l18.288,18.288l12.189-12.189l-18.288-18.288l12.191-12.191l18.287,18.282
		l12.189-12.189l-18.287-18.282l12.192-12.191l18.284,18.284l12.189-12.189l-18.284-18.284l12.193-12.193l18.288,18.288
		l12.189-12.189l-18.288-18.288l12.189-12.189L256,390.1l12.189-12.189l-18.288-18.288l12.196-12.196l18.281,18.286l12.189-12.189
		l-18.281-18.286l12.188-12.189l18.291,18.286l36.568-36.568l-18.285-18.29l12.193-12.193l18.281,18.286l12.189-12.189
		l-18.281-18.286l12.188-12.189l18.291,18.286l12.189-12.189l-18.291-18.286l12.193-12.193l18.287,18.282l12.189-12.189
		l-18.287-18.282l12.192-12.191l18.284,18.284l12.189-12.189l-18.284-18.284l12.188-12.187l18.285,18.29l12.189-12.189
		l-18.285-18.29l12.195-12.196l18.288,18.288l12.189-12.189l-18.288-18.288l12.189-12.189L499.811,146.288z M316.955,304.766
		l-12.189,12.189l-6.103-6.095l12.198-12.198L316.955,304.766z M310.86,274.284l-36.576,36.576L115.806,469.338l-91.428-91.436
		L377.91,24.379l88.385,88.385l-0.004,0.004l3.043,3.043L310.86,274.284z"/>
</g>
<g>
</g>
<g>
</g>
<g>
</g>
<g>
</g>
<g>
</g>
<g>
</g>
<g>
</g>
<g>
</g>
<g>
</g>
<g>
</g>
<g>
</g>
<g>
</g>
<g>
</g>
<g>
</g>
<g>
</g>
</svg>
