<?xml version="1.0" encoding="iso-8859-1"?>
<!-- Generator: Adobe Illustrator 19.0.0, SVG Export Plug-In . SVG Version: 6.00 Build 0)  -->
<svg version="1.1" id="Layer_1" xmlns="http://www.w3.org/2000/svg" xmlns:xlink="http://www.w3.org/1999/xlink" x="0px" y="0px"
	 viewBox="0 0 512 512" style="enable-background:new 0 0 512 512;" xml:space="preserve">
<path style="fill:#E65F58;" d="M142.769,364.337c0,5.413,4.414,9.817,9.846,9.817c5.519,0,9.846-4.313,9.846-9.817V352.49
	c0-4.683,3.298-8.721,7.894-9.649c11.135-2.26,21.606-6.601,31.125-12.899c3.885-2.582,9.067-2.063,12.394,1.24l8.384,8.38
	c3.837,3.837,10.067,3.812,13.904-0.015c1.875-1.88,2.913-4.356,2.904-6.971c0-2.61-1.019-5.072-2.885-6.928l-8.384-8.389
	c-3.308-3.313-3.837-8.495-1.25-12.399c6.308-9.519,10.654-19.99,12.904-31.125c0.933-4.591,4.971-7.889,9.654-7.889h11.846
	c5.413,0,9.817-4.418,9.817-9.846c0-5.428-4.404-9.846-9.817-9.846h-11.846c-4.683,0-8.721-3.298-9.654-7.889
	c-2.25-11.135-6.596-21.606-12.904-31.125c-2.587-3.904-2.058-9.087,1.25-12.399l8.384-8.384c3.827-3.827,3.817-10.067-0.019-13.904
	c-1.875-1.88-4.346-2.909-6.961-2.909c-0.01,0-0.01,0-0.01,0c-2.606,0-5.067,1.024-6.923,2.885l-8.394,8.389
	c-3.327,3.313-8.51,3.822-12.394,1.24c-9.519-6.298-19.99-10.64-31.125-12.899c-4.596-0.928-7.894-4.967-7.894-9.649v-11.846
	c0-5.413-4.414-9.817-9.846-9.817c-5.519,0-9.846,4.313-9.846,9.817v11.846c0,4.683-3.298,8.721-7.894,9.649
	c-11.135,2.26-21.606,6.601-31.125,12.899c-3.885,2.582-9.077,2.072-12.394-1.24l-8.384-8.38
	c-3.846-3.846-10.077-3.822-13.904,0.015c-1.875,1.88-2.913,4.356-2.904,6.971c0,2.61,1.019,5.072,2.885,6.928l8.375,8.394
	c3.308,3.308,3.827,8.49,1.25,12.389c-6.298,9.524-10.644,20-12.894,31.13c-0.933,4.591-4.971,7.889-9.654,7.889H44.279
	c-5.413,0-9.817,4.418-9.817,9.846c0,5.428,4.404,9.846,9.817,9.846h11.846c4.683,0,8.721,3.298,9.654,7.889
	c2.25,11.13,6.596,21.606,12.894,31.13c2.577,3.899,2.058,9.082-1.25,12.389l-8.375,8.385c-3.827,3.832-3.817,10.072,0.019,13.909
	c1.875,1.88,4.346,2.909,6.961,2.909c0,0,0,0,0.01,0c2.606,0,5.067-1.029,6.933-2.889l8.384-8.385
	c1.904-1.899,4.423-2.88,6.961-2.88c1.885,0,3.779,0.539,5.433,1.639c9.519,6.298,19.99,10.639,31.125,12.899
	c4.596,0.928,7.894,4.966,7.894,9.649L142.769,364.337L142.769,364.337z M113.231,256c0-21.716,17.664-39.385,39.385-39.385
	S192,234.284,192,256s-17.663,39.385-39.385,39.385S113.231,277.716,113.231,256z"/>
<path style="fill:#E9E7D1;" d="M467.692,19.692H172.308c-5.433,0-9.846,4.567-9.846,10.178v90.096
	c11.436,4.072,19.692,14.889,19.692,27.697v4.106c8.115,2.288,15.904,5.519,23.269,9.649l2.913-2.913
	c5.567-5.572,12.971-8.649,20.846-8.654c0,0,0.01,0,0.019,0c7.875,0,15.288,3.082,20.885,8.678
	c11.519,11.514,11.529,30.245,0.019,41.75l-2.913,2.909c4.135,7.375,7.365,15.159,9.654,23.274h4.106
	c16.269,0,29.509,13.25,29.509,29.538c0,16.289-13.24,29.538-29.51,29.538h-4.106c-2.288,8.115-5.519,15.899-9.654,23.274
	l2.913,2.909c5.577,5.572,8.654,12.976,8.654,20.846c0.01,7.875-3.077,15.303-8.673,20.904c-11.51,11.51-30.241,11.529-41.75,0.019
	l-2.913-2.909c-7.365,4.13-15.154,7.361-23.269,9.649v4.106c0,12.808-8.256,23.625-19.692,27.697v89.962
	c0,5.687,4.414,10.312,9.846,10.312h295.385c5.433,0,9.846-4.582,9.846-10.216V29.909C477.538,24.274,473.125,19.692,467.692,19.692
	z M453.25,462.769H192v-19.692h261.25V462.769z M453.25,384H270.769v-19.692H453.25V384z M453.25,305.231H329.846v-19.692H453.25
	V305.231z M453.25,226.462H329.846v-19.692H453.25V226.462z M453.25,147.692H270.769V128H453.25V147.692z M453.25,68.923H192V49.231
	h261.25V68.923z"/>
<g>
	<path style="fill:#314E55;" d="M192,256c0-21.716-17.663-39.385-39.385-39.385S113.231,234.284,113.231,256
		s17.664,39.385,39.385,39.385S192,277.716,192,256z M132.923,256c0-10.861,8.836-19.692,19.692-19.692s19.692,8.832,19.692,19.692
		c0,10.861-8.836,19.692-19.692,19.692S132.923,266.861,132.923,256z"/>
	<path style="fill:#314E55;" d="M467.692,0H172.308c-16.288,0-29.538,13.399-29.538,29.87v90.096
		c-11.436,4.073-19.692,14.889-19.692,27.697v4.106c-8.115,2.288-15.904,5.519-23.269,9.649l-2.913-2.909
		c-11.51-11.51-30.24-11.49-41.75,0.019c-5.596,5.601-8.683,13.029-8.673,20.904c0,7.87,3.077,15.274,8.654,20.841l2.904,2.913
		c-4.125,7.375-7.356,15.164-9.644,23.274h-4.106c-16.269,0-29.51,13.249-29.51,29.538c0,16.289,13.24,29.538,29.51,29.538h4.106
		c2.288,8.111,5.519,15.899,9.644,23.274l-2.904,2.909c-11.51,11.505-11.5,30.236,0.019,41.75c5.596,5.596,13.01,8.678,20.885,8.678
		c0.01,0,0.01,0,0.019,0c7.865-0.005,15.269-3.077,20.846-8.654l2.913-2.913c7.365,4.13,15.154,7.361,23.269,9.649v4.106
		c0,12.808,8.256,23.624,19.692,27.697v89.962c0,16.543,13.25,30.005,29.538,30.005h295.385c16.289,0,29.538-13.418,29.538-29.909
		V29.909C497.231,13.418,483.981,0,467.692,0z M134.875,342.841c-11.135-2.26-21.606-6.601-31.125-12.899
		c-1.654-1.101-3.548-1.639-5.433-1.639c-2.538,0-5.058,0.981-6.961,2.88l-8.384,8.385c-1.865,1.861-4.327,2.889-6.933,2.889
		c-0.01,0-0.01,0-0.01,0c-2.615,0-5.087-1.029-6.961-2.909c-3.837-3.837-3.846-10.077-0.019-13.909l8.375-8.385
		c3.308-3.308,3.827-8.49,1.25-12.389c-6.298-9.524-10.644-20-12.894-31.13c-0.933-4.591-4.972-7.889-9.654-7.889H44.279
		c-5.413,0-9.817-4.418-9.817-9.846c0-5.428,4.404-9.846,9.817-9.846h11.846c4.683,0,8.721-3.298,9.654-7.889
		c2.25-11.13,6.596-21.606,12.894-31.13c2.577-3.899,2.058-9.082-1.25-12.389l-8.375-8.394c-1.865-1.856-2.885-4.317-2.885-6.928
		c-0.01-2.615,1.029-5.091,2.904-6.971c3.827-3.837,10.058-3.861,13.904-0.015l8.384,8.38c3.317,3.313,8.51,3.822,12.394,1.24
		c9.519-6.298,19.99-10.64,31.125-12.899c4.596-0.927,7.894-4.966,7.894-9.649v-11.846c0-5.505,4.327-9.817,9.846-9.817
		c5.433,0,9.846,4.404,9.846,9.817v11.846c0,4.683,3.298,8.721,7.894,9.649c11.135,2.26,21.606,6.601,31.125,12.899
		c3.885,2.582,9.067,2.072,12.394-1.24l8.394-8.389c1.856-1.861,4.317-2.885,6.923-2.885c0,0,0,0,0.01,0
		c2.615,0,5.087,1.029,6.961,2.909c3.837,3.837,3.846,10.077,0.019,13.904l-8.384,8.384c-3.308,3.313-3.837,8.495-1.25,12.399
		c6.308,9.519,10.654,19.99,12.904,31.125c0.932,4.592,4.971,7.89,9.654,7.89h11.846c5.413,0,9.817,4.418,9.817,9.846
		c0,5.428-4.404,9.846-9.817,9.846h-11.846c-4.683,0-8.721,3.298-9.654,7.889c-2.25,11.135-6.596,21.606-12.904,31.125
		c-2.587,3.904-2.058,9.087,1.25,12.399l8.384,8.389c1.865,1.856,2.885,4.317,2.885,6.928c0.01,2.615-1.029,5.091-2.904,6.971
		c-3.837,3.827-10.067,3.851-13.904,0.015l-8.384-8.38c-3.327-3.303-8.51-3.822-12.394-1.24
		c-9.519,6.298-19.99,10.639-31.125,12.899c-4.596,0.928-7.894,4.966-7.894,9.649v11.846c0,5.505-4.327,9.817-9.846,9.817
		c-5.433,0-9.846-4.404-9.846-9.817V352.49C142.769,347.808,139.471,343.769,134.875,342.841z M477.538,482.091
		c0,5.635-4.414,10.216-9.846,10.216H172.308c-5.433,0-9.846-4.625-9.846-10.313v-89.962c11.436-4.072,19.692-14.889,19.692-27.697
		v-4.106c8.115-2.289,15.904-5.519,23.269-9.649l2.913,2.909c11.51,11.51,30.241,11.49,41.75-0.019
		c5.596-5.601,8.683-13.029,8.673-20.904c0-7.87-3.077-15.274-8.654-20.846l-2.913-2.909c4.135-7.375,7.365-15.159,9.654-23.274
		h4.106c16.269,0.001,29.51-13.249,29.51-29.538c0-16.288-13.24-29.538-29.51-29.538h-4.106c-2.288-8.115-5.519-15.899-9.654-23.274
		l2.913-2.909c11.51-11.505,11.5-30.236-0.019-41.75c-5.596-5.596-13.01-8.678-20.885-8.678c-0.01,0-0.019,0-0.019,0
		c-7.875,0.005-15.279,3.082-20.846,8.654l-2.913,2.913c-7.365-4.13-15.154-7.36-23.269-9.649v-4.106
		c0-12.808-8.256-23.625-19.692-27.697V29.87c0-5.611,4.414-10.178,9.846-10.178h295.385c5.433,0,9.846,4.582,9.846,10.216V482.091z
		"/>
	<rect x="192" y="49.231" style="fill:#314E55;" width="261.243" height="19.692"/>
	<rect x="329.846" y="285.538" style="fill:#314E55;" width="123.397" height="19.692"/>
	<rect x="270.769" y="128" style="fill:#314E55;" width="182.474" height="19.692"/>
	<rect x="270.769" y="364.308" style="fill:#314E55;" width="182.474" height="19.692"/>
	<rect x="329.846" y="206.769" style="fill:#314E55;" width="123.397" height="19.692"/>
	<rect x="192" y="443.077" style="fill:#314E55;" width="261.243" height="19.692"/>
</g>
<g>
</g>
<g>
</g>
<g>
</g>
<g>
</g>
<g>
</g>
<g>
</g>
<g>
</g>
<g>
</g>
<g>
</g>
<g>
</g>
<g>
</g>
<g>
</g>
<g>
</g>
<g>
</g>
<g>
</g>
</svg>
