<svg height="511pt" viewBox="0 -2 511.99969 511" width="511pt" xmlns="http://www.w3.org/2000/svg"><path d="m504.496094 84.773438-76.234375 245.832031-52.226563 168.402343h-56.929687v-414.234374zm0 0" fill="#fff"/><path d="m468.742188 84.773438-40.480469 245.832031-52.226563 168.402343h-56.929687v-414.234374zm0 0" fill="#e1eaf8"/><path d="m447.945312 62.304688-46.820312 284.332031-25.089844 152.371093h-89.886718v-436.703124zm0 0" fill="#ffb400"/><path d="m401.125 62.304688v284.332031l-25.089844 152.371093h-89.886718v-436.703124zm0 0" fill="#ffc843"/><path d="m140.082031 42.832031-33.707031-34.832031h-98.875v491.007812h368.535156v-456.175781zm0 0" fill="#fff"/><path d="m348.695312 42.832031h27.339844v456.175781h-27.339844zm0 0" fill="#e1eaf8"/><path d="m64.042969 128.214844h50.957031v50.953125h-50.957031zm0 0" fill="#76ffd9"/><path d="m64.046875 246.003906h50.953125v50.953125h-50.953125zm0 0" fill="#76ffd9"/><path d="m64.042969 363.792969h50.957031v50.953125h-50.957031zm0 0" fill="#76ffd9"/><path d="m510.539062 80.328125c-1.414062-1.917969-3.65625-3.050781-6.039062-3.050781h-51.417969l2.265625-13.75c.355469-2.175782-.257812-4.394532-1.683594-6.074219-1.425781-1.679687-3.515624-2.644531-5.71875-2.644531h-64.410156v-11.976563c0-4.140625-3.355468-7.5-7.5-7.5h-86.886718c-4.140626 0-7.5 3.359375-7.5 7.5s3.359374 7.5 7.5 7.5h79.386718v441.175781h-353.535156v-37.003906c0-4.140625-3.355469-7.5-7.5-7.5s-7.5 3.359375-7.5 7.5v44.503906c0 4.140626 3.355469 7.5 7.5 7.5h368.511719c3.261719 0 6.246093-2.183593 7.199219-5.316406l77.617187-250.28125c1.230469-3.957031-.984375-8.15625-4.9375-9.382812-3.964844-1.230469-8.160156.984375-9.386719 4.941406l-45.371094 146.304688 49.480469-300.496094h43.707031l-39.109374 126.121094c-1.230469 3.957031.984374 8.15625 4.9375 9.382812.742187.230469 1.488281.339844 2.226562.339844 3.199219 0 6.164062-2.066406 7.160156-5.28125l42.128906-135.839844c.703126-2.277344.285157-4.753906-1.125-6.671875-1.414062-1.917969 1.410157 1.917969 0 0zm-71.429687-10.519531-55.574219 337.492187v-337.492187zm0 0" fill="#434c54"/><path d="m7.5 430.671875c4.144531 0 7.5-3.359375 7.5-7.5v-407.671875h88.195312l31.496094 32.546875c1.414063 1.460937 3.359375 2.285156 5.390625 2.285156h117.917969c4.144531 0 7.5-3.359375 7.5-7.5 0-4.144531-3.355469-7.5-7.5-7.5h-114.738281l-31.496094-32.546875c-1.414063-1.460937-3.355469-2.285156-5.390625-2.285156h-98.875c-4.144531 0-7.5 3.359375-7.5 7.5v415.171875c0 4.140625 3.355469 7.5 7.5 7.5zm0 0" fill="#434c54"/><g fill="#969ba1"><path d="m308.246094 164.167969h-164.042969c-4.144531 0-7.5 3.359375-7.5 7.5 0 4.144531 3.355469 7.5 7.5 7.5h164.042969c4.144531 0 7.5-3.355469 7.5-7.5 0-4.140625-3.355469-7.5-7.5-7.5zm0 0"/><path d="m144.203125 154.074219h39.699219c4.144531 0 7.5-3.355469 7.5-7.5 0-4.140625-3.355469-7.5-7.5-7.5h-39.699219c-4.144531 0-7.5 3.359375-7.5 7.5 0 4.144531 3.359375 7.5 7.5 7.5zm0 0"/><path d="m308.246094 281.957031h-164.042969c-4.144531 0-7.5 3.359375-7.5 7.5 0 4.144531 3.355469 7.5 7.5 7.5h164.042969c4.144531 0 7.5-3.355469 7.5-7.5 0-4.140625-3.355469-7.5-7.5-7.5zm0 0"/><path d="m144.203125 271.863281h39.699219c4.144531 0 7.5-3.355469 7.5-7.5 0-4.140625-3.355469-7.5-7.5-7.5h-39.699219c-4.144531 0-7.5 3.359375-7.5 7.5 0 4.144531 3.359375 7.5 7.5 7.5zm0 0"/><path d="m144.203125 414.746094h164.042969c4.144531 0 7.5-3.355469 7.5-7.5 0-4.140625-3.355469-7.5-7.5-7.5h-164.042969c-4.144531 0-7.5 3.359375-7.5 7.5 0 4.144531 3.359375 7.5 7.5 7.5zm0 0"/><path d="m144.203125 389.65625h39.699219c4.144531 0 7.5-3.359375 7.5-7.5 0-4.144531-3.355469-7.5-7.5-7.5h-39.699219c-4.144531 0-7.5 3.355469-7.5 7.5 0 4.140625 3.359375 7.5 7.5 7.5zm0 0"/></g></svg>