<svg height="477pt" viewBox="0 -39 477.008 477" width="477pt" xmlns="http://www.w3.org/2000/svg" xmlns:xlink="http://www.w3.org/1999/xlink"><linearGradient id="a"><stop offset=".322" stop-color="#a163f5"/><stop offset=".466" stop-color="#b074ee"/><stop offset=".752" stop-color="#d8a1dd"/><stop offset=".898" stop-color="#efbad3"/></linearGradient><linearGradient id="b" gradientTransform="matrix(1 0 0 -1 -17.5 457.973044)" gradientUnits="userSpaceOnUse" x1="256.004" x2="256.004" xlink:href="#a" y1="14" y2="444.019"/><linearGradient id="c" gradientTransform="matrix(1 0 0 -1 -17.5 457.973044)" gradientUnits="userSpaceOnUse" x1="336.527" x2="336.527" xlink:href="#a" y1="14" y2="444.019"/><linearGradient id="d" gradientTransform="matrix(1 0 0 -1 -17.5 457.973044)" gradientUnits="userSpaceOnUse" x1="386.214" x2="386.214" xlink:href="#a" y1="14" y2="444.019"/><linearGradient id="e" gradientTransform="matrix(1 0 0 -1 -17.5 457.973044)" gradientUnits="userSpaceOnUse" x1="175.452" x2="175.452" xlink:href="#a" y1="14" y2="444.019"/><linearGradient id="f" gradientTransform="matrix(1 0 0 -1 -17.5 457.973044)" gradientUnits="userSpaceOnUse" x1="125.788" x2="125.788" xlink:href="#a" y1="14" y2="444.019"/><linearGradient id="g" gradientTransform="matrix(1 0 0 -1 -17.5 457.973044)" gradientUnits="userSpaceOnUse" x1="110.227" x2="110.227" xlink:href="#a" y1="14" y2="444.019"/><linearGradient id="h" gradientTransform="matrix(1 0 0 -1 -17.5 457.973044)" gradientUnits="userSpaceOnUse" x1="190.915" x2="190.915" xlink:href="#a" y1="14" y2="444.019"/><path d="m427.003906 195.546875h-178.503906v-92.875c14.550781-4.042969 24.628906-17.285156 24.648438-32.390625v-2.070312c-.019532-18.554688-15.058594-33.589844-33.613282-33.613282h-2.070312c-18.554688.023438-33.59375 15.058594-33.613282 33.613282v2.070312c.019532 15.105469 10.097657 28.347656 24.648438 32.390625v92.871094h-178.5c-27.601562.03125-49.96875 22.398437-50 50v59.769531c.0273438 21.632812 13.941406 40.804688 34.5 47.535156v16.25c.019531 17.042969 13.832031 30.859375 30.878906 30.875h346.242188c17.046875-.015625 30.859375-13.832031 30.878906-30.875v-16.25c20.5625-6.726562 34.480469-25.898437 34.507812-47.53125v-59.769531c-.03125-27.605469-22.398437-49.972656-50.003906-50zm-203.152344-125.261719v-2.070312c.007813-7.515625 6.097657-13.605469 13.613282-13.613282h2.070312c7.515625.007813 13.605469 6.097657 13.613282 13.613282v2.070312c-.007813 7.515625-6.097657 13.605469-13.613282 13.613282h-2.070312c-7.515625-.007813-13.605469-6.097657-13.613282-13.613282zm187.769532 309.6875h-346.242188c-6.003906-.003906-10.871094-4.871094-10.878906-10.875v-13.78125h368v13.78125c-.007812 6.003906-4.875 10.871094-10.878906 10.875zm45.382812-74.65625c-.019531 16.558594-13.4375 29.980469-30 30h-377.003906c-16.5625-.019531-29.980469-13.441406-30-30v-59.769531c.019531-16.5625 13.4375-29.980469 30-30h377.011719c16.558593.019531 29.980469 13.4375 30 30zm0 0" fill="url(#b)"/><path d="m316.101562 66.625c.027344 10.09375-3.980468 19.785156-11.128906 26.910156-3.949218 3.859375-4.027344 10.1875-.175781 14.136719 3.855469 3.953125 10.183594 4.035156 14.136719.183594l.183594-.175781c22.660156-22.6875 22.640624-59.449219-.046876-82.113282-3.910156-3.875-10.21875-3.855468-14.109374.039063-3.890626 3.894531-3.902344 10.203125-.023438 14.113281 7.164062 7.117188 11.183594 16.804688 11.164062 26.90625zm0 0" fill="url(#c)"/><path d="m349.9375 130.308594c3.90625 3.90625 10.238281 3.90625 14.144531 0 35.109375-35.207032 35.109375-92.191406 0-127.398438-3.910156-3.878906-10.21875-3.863281-14.113281.027344-3.894531 3.894531-3.90625 10.199219-.03125 14.113281 27.320312 27.390625 27.320312 71.726563 0 99.121094-3.902344 3.90625-3.898438 10.234375 0 14.136719zm0 0" fill="url(#d)"/><path d="m165 110.574219c4.046875 0 7.691406-2.4375 9.238281-6.175781 1.546875-3.738282.691407-8.042969-2.171875-10.902344-14.871094-14.851563-14.886718-38.949219-.035156-53.824219l.035156-.035156-7.066406-7.074219-7.113281-7.03125c-22.660157 22.6875-22.640625 59.449219.042969 82.109375 1.875 1.878906 4.417968 2.933594 7.070312 2.933594zm0 0" fill="url(#e)"/><path d="m119.992188 133.238281c4.042968 0 7.6875-2.4375 9.238281-6.171875 1.546875-3.738281.691406-8.039062-2.167969-10.898437-27.320312-27.394531-27.320312-71.730469 0-99.125 3.875-3.910157 3.863281-10.21875-.03125-14.109375-3.894531-3.894532-10.203125-3.90625-14.113281-.03125-35.109375 35.210937-35.109375 92.191406 0 127.402344 1.875 1.878906 4.417969 2.933593 7.074219 2.933593zm0 0" fill="url(#f)"/><path d="m92.726562 243.496094c-17.195312 0-31.132812 13.941406-31.132812 31.136718 0 17.191407 13.9375 31.132813 31.132812 31.132813 17.195313 0 31.132813-13.941406 31.132813-31.132813-.019531-17.1875-13.945313-31.117187-31.132813-31.136718zm0 42.269531c-6.148437 0-11.132812-4.984375-11.132812-11.132813 0-6.148437 4.984375-11.136718 11.132812-11.136718 6.148438 0 11.132813 4.988281 11.132813 11.136718-.007813 6.144532-4.988281 11.125-11.132813 11.132813zm0 0" fill="url(#g)"/><path d="m173.414062 243.496094c-17.191406 0-31.132812 13.941406-31.132812 31.136718 0 17.191407 13.941406 31.132813 31.132812 31.132813 17.195313 0 31.132813-13.941406 31.132813-31.132813-.019531-17.1875-13.945313-31.117187-31.132813-31.136718zm0 42.269531c-6.148437 0-11.132812-4.984375-11.132812-11.132813 0-6.148437 4.984375-11.136718 11.132812-11.136718 6.148438 0 11.132813 4.988281 11.132813 11.136718-.003906 6.144532-4.984375 11.125-11.132813 11.132813zm0 0" fill="url(#h)"/></svg>