<svg height="512pt" viewBox="-63 0 511 512" width="512pt" xmlns="http://www.w3.org/2000/svg"><path d="m376.652344 478.382812h-366.941406c-4.328126 0-7.835938-3.507812-7.835938-7.835937s3.507812-7.835937 7.835938-7.835937h366.941406c4.328125 0 7.835937 3.507812 7.835937 7.835937s-3.507812 7.835937-7.835937 7.835937zm0 0" fill="#ff5543"/><path d="m193.179688 452.609375c-4.328126 0-7.835938-3.511719-7.835938-7.839844v-69.859375c0-4.328125 3.507812-7.835937 7.835938-7.835937 4.328124 0 7.835937 3.507812 7.835937 7.835937v69.859375c0 4.328125-3.507813 7.839844-7.835937 7.839844zm0 0" fill="#ff5543"/><path d="m217.402344 429.097656h-48.449219c-9.511719 0-17.226563 7.710938-17.226563 17.226563v48.449219c0 9.511718 7.714844 17.226562 17.226563 17.226562h48.449219c9.515625 0 17.226562-7.714844 17.226562-17.226562v-48.449219c0-9.515625-7.710937-17.226563-17.226562-17.226563zm0 0" fill="#45c1ed"/><path d="m179.242188 494.773438v-48.449219c0-9.515625 7.714843-17.226563 17.226562-17.226563h-27.515625c-9.515625 0-17.226563 7.714844-17.226563 17.226563v48.449219c0 9.515624 7.714844 17.226562 17.226563 17.226562h27.515625c-9.511719 0-17.226562-7.714844-17.226562-17.226562zm0 0" fill="#23a2c4"/><path d="m385.859375 192.679688c0 2.621093-.050781 5.234374-.15625 7.835937-1.984375 49.738281-22.832031 94.613281-55.578125 127.695313-3.675781 3.730468-7.523438 7.304687-11.503906 10.710937-25.652344 22.039063-57.164063 37.429687-91.878906 43.519531-10.894532 1.921875-22.117188 2.917969-33.558594 2.917969-11.453125 0-22.664063-1.003906-33.574219-2.925781-34.710937-6.09375-66.226563-21.484375-91.878906-43.511719-3.980469-3.417969-7.824219-6.988281-11.503907-10.71875-32.734374-33.082031-53.582031-77.960937-55.566406-127.6875-.105468-2.601563-.15625-5.214844-.15625-7.835937 0-2.625.050782-5.234376.15625-7.835938 1.984375-49.726562 22.832032-94.605469 55.566406-127.6875 3.679688-3.730469 7.523438-7.304688 11.503907-10.710938 25.652343-22.035156 57.167969-37.429687 91.878906-43.519531 10.910156-1.921875 22.121094-2.925781 33.574219-2.925781 11.449218 0 22.664062 1.003906 33.570312 2.925781 34.710938 6.089844 66.226563 21.484375 91.878906 43.507813 3.980469 3.417968 7.824219 6.992187 11.503907 10.722656 32.734375 33.082031 53.582031 77.960938 55.566406 127.6875.105469 2.601562.15625 5.210938.15625 7.835938zm0 0" fill="#45c1ed"/><path d="m86.179688 192.679688c0-91.6875 64.046874-168.410157 149.839843-187.890626-13.777343-3.128906-28.113281-4.789062-42.839843-4.789062-106.414063 0-192.679688 86.265625-192.679688 192.679688 0 106.414062 86.265625 192.679687 192.679688 192.679687 14.726562 0 29.0625-1.660156 42.839843-4.789063-85.792969-19.476562-149.839843-96.203124-149.839843-187.890624zm0 0" fill="#23a2c4"/><g fill="#4c5275"><path d="m330.136719 57.15625-.292969.269531c-37.230469 34.691407-85.765625 53.792969-136.671875 53.792969s-99.441406-19.101562-136.664063-53.792969l-.28125-.269531c3.679688-3.730469 7.523438-7.304688 11.503907-10.710938 34.230469 31.671876 78.753906 49.101563 125.441406 49.101563 46.695313 0 91.21875-17.429687 125.460937-49.113281 3.980469 3.417968 7.824219 6.992187 11.503907 10.722656zm0 0"/><path d="m330.125 328.210938c-3.675781 3.730468-7.523438 7.304687-11.503906 10.710937-34.242188-31.671875-78.753906-49.097656-125.449219-49.097656-46.6875 0-91.210937 17.425781-125.441406 49.097656-3.980469-3.417969-7.824219-6.988281-11.503907-10.71875l.28125-.261719c37.222657-34.691406 85.757813-53.792968 136.664063-53.792968s99.441406 19.101562 136.671875 53.792968zm0 0"/><path d="m266.742188 52.996094c-11.253907-23.039063-24.898438-39.996094-39.988282-50.070313-10.90625-1.921875-22.121094-2.925781-33.570312-2.925781-11.453125 0-22.664063 1.003906-33.574219 2.925781-15.089844 10.074219-28.746094 27.03125-40 50.070313-18.285156 37.441406-28.347656 87.050781-28.347656 139.683594 0 52.628906 10.0625 102.242187 28.347656 139.679687 11.253906 23.050781 24.910156 40.011719 40 50.074219 10.910156 1.921875 22.121094 2.925781 33.574219 2.925781 11.441406 0 22.664062-.996094 33.558594-2.917969 15.089843-10.0625 28.746093-27.03125 40-50.082031 18.285156-37.4375 28.347656-87.050781 28.347656-139.679687 0-52.632813-10.0625-102.242188-28.347656-139.683594zm-14.085938 272.488281c-16.382812 33.5625-37.5 52.035156-59.472656 52.035156-21.976563 0-43.105469-18.472656-59.488282-52.035156-17.261718-35.335937-26.757812-82.503906-26.757812-132.804687 0-50.300782 9.496094-97.457032 26.757812-132.808594 16.382813-33.550782 37.511719-52.035156 59.488282-52.035156 21.972656 0 43.089844 18.484374 59.472656 52.035156 17.261719 35.351562 26.761719 82.507812 26.761719 132.808594 0 50.300781-9.5 97.46875-26.761719 132.804687zm0 0"/><path d="m385.859375 192.679688c0 2.621093-.050781 5.234374-.15625 7.835937h-385.042969c-.105468-2.601563-.15625-5.214844-.15625-7.835937 0-2.625.050782-5.234376.15625-7.835938h385.042969c.105469 2.601562.15625 5.210938.15625 7.835938zm0 0"/></g></svg>