<?xml version="1.0" encoding="iso-8859-1"?>
<!-- Generator: Adobe Illustrator 19.0.0, SVG Export Plug-In . SVG Version: 6.00 Build 0)  -->
<svg version="1.1" id="Capa_1" xmlns="http://www.w3.org/2000/svg" xmlns:xlink="http://www.w3.org/1999/xlink" x="0px" y="0px"
	 viewBox="0 0 512 512" style="enable-background:new 0 0 512 512;" xml:space="preserve">
<path style="fill:#4B3F4E;" d="M470.71,49.548H41.29c-4.561,0-8.258,3.697-8.258,8.258v49.548h445.935V57.806
	C478.968,53.245,475.271,49.548,470.71,49.548z"/>
<path style="fill:#00C3FF;" d="M92.327,57.806H81.093c-3.936,0-7.326,2.779-8.098,6.639l-6.93,34.652h41.29l-6.93-34.652
	C99.652,60.585,96.263,57.806,92.327,57.806z"/>
<rect x="16.516" y="132.13" style="fill:#5D5360;" width="478.97" height="297.29"/>
<path style="fill:#6F6571;" d="M503.742,462.452H8.258c-4.561,0-8.258-3.697-8.258-8.258v-16.516c0-4.561,3.697-8.258,8.258-8.258
	h495.484c4.561,0,8.258,3.697,8.258,8.258v16.516C512,458.754,508.303,462.452,503.742,462.452z"/>
<path style="fill:#4B3F4E;" d="M370.371,396.387H141.694c-5.968,0-11.315-3.089-14.306-8.258c-2.984-5.173-2.984-11.347,0-16.516
	l114.339-198.036c2.984-5.169,8.331-8.258,14.306-8.258s11.323,3.089,14.306,8.262l114.339,198.032
	c2.984,5.169,2.984,11.343,0,16.516C381.685,393.298,376.339,396.387,370.371,396.387z"/>
<polygon style="fill:#FFDC64;" points="256.032,181.835 141.694,379.871 370.371,379.871 "/>
<path style="fill:#5D5360;" d="M280.048,291.665c-2.5-3.556-6.581-5.681-10.927-5.681h-21.653l16.323-44.883
	c1.565-4.286-0.653-9.024-4.935-10.585c-4.298-1.565-9.024,0.657-10.581,4.94l-17.879,49.149c-1.476,4.089-0.871,8.653,1.621,12.214
	c2.5,3.556,6.581,5.681,10.927,5.681h21.653l-8.41,23.124c-1.645-1.121-3.679-1.699-5.856-1.362
	c-4.508,0.673-7.613,4.879-6.944,9.387l3.395,22.669c0.468,3.105,2.653,5.677,5.637,6.641c0.831,0.266,1.685,0.395,2.532,0.395
	c2.194,0,4.339-0.875,5.919-2.504l15.976-16.435c3.177-3.27,3.105-8.496-0.161-11.677c-1.338-1.296-3.022-1.911-4.74-2.128
	l9.724-26.731C283.145,299.79,282.54,295.226,280.048,291.665z"/>
<path style="fill:#4B3F4E;" d="M181.677,148.645h313.806v-16.516H16.516v297.29h33.032V280.774
	C49.548,207.801,108.705,148.645,181.677,148.645z"/>
<g>
	<path style="fill:#5D5360;" d="M33.032,454.194v-16.516c0-4.561,3.697-8.258,8.258-8.258H8.258c-4.561,0-8.258,3.697-8.258,8.258
		v16.516c0,4.56,3.697,8.258,8.258,8.258H41.29C36.729,462.452,33.032,458.754,33.032,454.194z"/>
	<path style="fill:#5D5360;" d="M371.613,107.355H140.387V57.806c0-4.561,3.697-8.258,8.258-8.258h214.71
		c4.561,0,8.258,3.697,8.258,8.258L371.613,107.355L371.613,107.355z"/>
</g>
<path style="fill:#6F6571;" d="M503.742,132.129H8.258c-4.561,0-8.258-3.697-8.258-8.258v-16.516c0-4.561,3.697-8.258,8.258-8.258
	h495.484c4.561,0,8.258,3.697,8.258,8.258v16.516C512,128.432,508.303,132.129,503.742,132.129z"/>
<path style="fill:#5D5360;" d="M33.032,123.871v-16.516c0-4.561,3.697-8.258,8.258-8.258H8.258c-4.561,0-8.258,3.697-8.258,8.258
	v16.516c0,4.56,3.697,8.258,8.258,8.258H41.29C36.729,132.129,33.032,128.431,33.032,123.871z"/>
<path style="fill:#00AAF0;" d="M81.093,57.806c-3.936,0-7.326,2.778-8.098,6.639l-6.93,34.652h16.516l5.161-41.29L81.093,57.806
	L81.093,57.806z"/>
<path style="fill:#E6646E;" d="M430.907,57.806h-11.234c-3.936,0-7.326,2.779-8.098,6.639l-6.93,34.652h41.29l-6.93-34.652
	C438.233,60.585,434.844,57.806,430.907,57.806z"/>
<path style="fill:#DC4655;" d="M419.673,57.806c-3.936,0-7.326,2.778-8.098,6.639l-6.93,34.652h16.516l5.161-41.29L419.673,57.806
	L419.673,57.806z"/>
<g>
</g>
<g>
</g>
<g>
</g>
<g>
</g>
<g>
</g>
<g>
</g>
<g>
</g>
<g>
</g>
<g>
</g>
<g>
</g>
<g>
</g>
<g>
</g>
<g>
</g>
<g>
</g>
<g>
</g>
</svg>
