<?xml version="1.0" encoding="iso-8859-1"?>
<!-- Generator: Adobe Illustrator 19.0.0, SVG Export Plug-In . SVG Version: 6.00 Build 0)  -->
<svg version="1.1" id="Layer_1" xmlns="http://www.w3.org/2000/svg" xmlns:xlink="http://www.w3.org/1999/xlink" x="0px" y="0px"
	 viewBox="0 0 511.943 511.943" style="enable-background:new 0 0 511.943 511.943;" xml:space="preserve">
<g>
	<g>
		<path style="fill:#FFEBB7;" d="M423.972,287.943c0,92.634-75.362,168-168,168s-168-75.366-168-168s75.362-168,168-168
			S423.972,195.31,423.972,287.943z"/>
	</g>
	<g>
		<path style="fill:#FFFFFF;" d="M383.972,287.943c0,70.578-57.419,128-128,128s-128-57.422-128-128s57.419-128,128-128
			S383.972,217.365,383.972,287.943z"/>
	</g>
	<g>
		<g>
			<path style="fill:#5D647F;" d="M345.83,113.37c2.883,0,5.664-1.559,7.094-4.281L369.338,77.8
				c2.055-3.91,0.547-8.746-3.367-10.801c-3.93-2.055-8.75-0.539-10.805,3.371l-16.414,31.285c-2.055,3.91-0.547,8.746,3.367,10.801
				C343.307,113.077,344.58,113.37,345.83,113.37z"/>
		</g>
	</g>
	<g>
		<path style="fill:#B4B6BC;" d="M296.666,39.667c19-36.18,63.867-50.187,100.062-31.184c17.523,9.195,30.422,24.672,36.312,43.57
			s4.07,38.961-5.125,56.488c-1.43,2.727-4.211,4.281-7.094,4.281c-1.25,0-2.523-0.293-3.711-0.918L300.034,50.468
			c-1.875-0.984-3.289-2.676-3.922-4.703C295.487,43.742,295.682,41.546,296.666,39.667z"/>
	</g>
	<g>
		<path style="fill:#868491;" d="M396.69,8.466c0.013,0.007,0.026,0.011,0.039,0.018c17.523,9.195,30.422,24.672,36.312,43.57
			s4.07,38.961-5.125,56.488c-1.43,2.727-4.211,4.281-7.094,4.281c-1.25,0-2.523-0.293-3.711-0.918l-58.575-30.738L396.69,8.466z"/>
	</g>
	<g>
		<g>
			<path style="fill:#5D647F;" d="M165.894,113.37c-2.883,0-5.664-1.559-7.094-4.281L142.386,77.8
				c-2.055-3.91-0.547-8.746,3.367-10.801c3.93-2.055,8.75-0.539,10.805,3.371l16.414,31.285c2.055,3.91,0.547,8.746-3.367,10.801
				C168.417,113.077,167.144,113.37,165.894,113.37z"/>
		</g>
	</g>
	<g>
		<g>
			<path style="fill:#5D647F;" d="M127.964,511.943c-1.383,0-2.789-0.359-4.07-1.117c-3.805-2.254-5.055-7.16-2.805-10.961
				l23.703-40c2.25-3.793,7.156-5.055,10.961-2.805c3.805,2.254,5.055,7.16,2.805,10.961l-23.703,40
				C133.362,510.545,130.698,511.943,127.964,511.943z"/>
		</g>
	</g>
	<g>
		<g>
			<path style="fill:#5D647F;" d="M383.979,511.943c-2.734,0-5.398-1.398-6.891-3.922l-24-40.5c-2.25-3.801-1-8.707,2.805-10.961
				c3.82-2.25,8.719-0.996,10.961,2.805l24,40.5c2.25,3.801,1,8.707-2.805,10.961C386.768,511.584,385.362,511.943,383.979,511.943z
				"/>
		</g>
	</g>
	<g>
		<path style="fill:#60DC4D;" d="M255.972,79.943c-114.695,0-208,93.309-208,208s93.305,208,208,208s208-93.309,208-208
			S370.667,79.943,255.972,79.943z M415.972,287.943c0,88.223-71.773,160-160,160s-160-71.777-160-160s71.773-160,160-160
			S415.972,199.721,415.972,287.943z"/>
	</g>
	<g>
		<path style="fill:#00C37A;" d="M255.753,447.932c-88.125-0.12-159.781-71.84-159.781-159.989s71.656-159.869,159.781-159.989
			V79.949C141.158,80.068,47.972,173.325,47.972,287.943s93.186,207.875,207.781,207.995V447.932z"/>
	</g>
	<g>
		<g>
			<path style="fill:#868491;" d="M151.972,295.943h-32c-4.422,0-8-3.582-8-8s3.578-8,8-8h32c4.422,0,8,3.582,8,8
				S156.394,295.943,151.972,295.943z"/>
		</g>
	</g>
	<g>
		<g>
			<path style="fill:#868491;" d="M391.972,295.943h-32c-4.422,0-8-3.582-8-8s3.578-8,8-8h32c4.422,0,8,3.582,8,8
				S396.393,295.943,391.972,295.943z"/>
		</g>
	</g>
	<g>
		<g>
			<path style="fill:#868491;" d="M255.972,431.943c-4.422,0-8-3.582-8-8v-32c0-4.418,3.578-8,8-8c4.422,0,8,3.582,8,8v32
				C263.972,428.361,260.393,431.943,255.972,431.943z"/>
		</g>
	</g>
	<g>
		<g>
			<path style="fill:#868491;" d="M255.972,191.943c-4.422,0-8-3.582-8-8v-32c0-4.418,3.578-8,8-8c4.422,0,8,3.582,8,8v32
				C263.972,188.361,260.393,191.943,255.972,191.943z"/>
		</g>
	</g>
	<g>
		<path style="fill:#B4B6BC;" d="M215.058,39.667c-19-36.18-63.867-50.187-100.062-31.184c-17.524,9.195-30.422,24.672-36.312,43.57
			s-4.07,38.961,5.125,56.488c1.43,2.727,4.211,4.281,7.094,4.281c1.25,0,2.523-0.293,3.711-0.918L211.69,50.468
			c1.875-0.984,3.289-2.676,3.922-4.703C216.237,43.742,216.042,41.546,215.058,39.667z"/>
	</g>
	<g>
		<g>
			<path style="fill:#5D647F;" d="M231.972,295.943h-40c-4.422,0-8-3.582-8-8s3.578-8,8-8h40c4.422,0,8,3.582,8,8
				S236.393,295.943,231.972,295.943z"/>
		</g>
	</g>
	<g>
		<g>
			<path style="fill:#5D647F;" d="M255.972,279.943c-4.422,0-8-3.582-8-8v-56c0-4.418,3.578-8,8-8c4.422,0,8,3.582,8,8v56
				C263.972,276.361,260.393,279.943,255.972,279.943z"/>
		</g>
	</g>
	<g>
		<g>
			<path style="fill:#FF4F19;" d="M335.972,375.943c-2.047,0-4.094-0.781-5.656-2.344l-80-80c-3.125-3.125-3.125-8.187,0-11.312
				s8.188-3.125,11.313,0l80,80c3.125,3.125,3.125,8.188,0,11.313C340.065,375.162,338.018,375.943,335.972,375.943z"/>
		</g>
	</g>
	<g>
		<path style="fill:#868491;" d="M115.034,8.466c-0.013,0.007-0.026,0.011-0.039,0.018c-17.524,9.195-30.422,24.672-36.312,43.57
			s-4.07,38.961,5.125,56.488c1.43,2.727,4.211,4.281,7.094,4.281c1.25,0,2.523-0.293,3.711-0.918l58.575-30.738L115.034,8.466z"/>
	</g>
	<g>
		<circle style="fill:#5C546A;" cx="255.972" cy="287.943" r="24"/>
	</g>
</g>
<g>
</g>
<g>
</g>
<g>
</g>
<g>
</g>
<g>
</g>
<g>
</g>
<g>
</g>
<g>
</g>
<g>
</g>
<g>
</g>
<g>
</g>
<g>
</g>
<g>
</g>
<g>
</g>
<g>
</g>
</svg>
