<?xml version="1.0" encoding="iso-8859-1"?>
<!-- Generator: Adobe Illustrator 19.0.0, SVG Export Plug-In . SVG Version: 6.00 Build 0)  -->
<svg version="1.1" id="Layer_1" xmlns="http://www.w3.org/2000/svg" xmlns:xlink="http://www.w3.org/1999/xlink" x="0px" y="0px"
	 viewBox="0 0 512 512" style="enable-background:new 0 0 512 512;" xml:space="preserve">
<path style="fill:#84A7B7;" d="M405.337,503.916H106.664c-23.812,0-43.116-19.304-43.116-43.116V83.537
	c0-23.812,19.304-43.116,43.116-43.116h298.673c23.812,0,43.116,19.304,43.116,43.116V460.8
	C448.452,484.612,429.148,503.916,405.337,503.916z"/>
<path style="fill:#F2EFE2;" d="M384.127,460.8H127.872c-11.906,0-21.558-9.651-21.558-21.558V51.2
	c0-11.906,9.651-21.558,21.558-21.558h256.254c11.906,0,21.558,9.651,21.558,21.558v388.042
	C405.685,451.148,396.033,460.8,384.127,460.8z"/>
<path style="fill:#80A886;" d="M241.744,196.716v215.579c0,8.929-7.18,16.168-16.038,16.168l0,0
	c-8.857,0-16.038-7.239-16.038-16.168V196.716c0-8.929,7.18-16.168,16.038-16.168l0,0
	C234.564,180.547,241.744,187.786,241.744,196.716z M346.88,180.547c-8.857,0-16.038,7.239-16.038,16.168v215.579
	c0,8.929,7.18,16.168,16.038,16.168s16.038-7.239,16.038-16.168V196.716C362.917,187.786,355.737,180.547,346.88,180.547z"/>
<path style="fill:#A3CCAA;" d="M181.157,326.063v86.232c0,8.929-7.18,16.168-16.038,16.168c-8.858,0-16.038-7.239-16.038-16.168
	v-86.232c0-8.929,7.18-16.168,16.038-16.168C173.977,309.895,181.157,317.134,181.157,326.063z M286.293,115.874L286.293,115.874
	c-8.857,0-16.038,7.239-16.038,16.168v280.253c0,8.929,7.18,16.168,16.038,16.168l0,0c8.857,0,16.038-7.239,16.038-16.168V132.042
	C302.331,123.113,295.151,115.874,286.293,115.874z"/>
<path style="fill:#FCBB9A;" d="M497.901,150.905c0,29.765-23.935,53.895-53.459,53.895c-8.809,0-9.628-2.161-16.955-5.966
	l-76.809,77.434c-1.504,1.517-3.543,2.368-5.67,2.368H166.57L27.252,419.301c-1.566,1.578-3.617,2.368-5.67,2.368
	s-11.588-0.789-13.155-2.368c-3.132-3.157-3.132-8.276,0-11.432l141.667-143.033c1.504-1.517,3.543-2.368,5.67-2.368h178.439
	l72.653-73.245c-9.798-9.769-15.873-23.327-15.873-38.317c0-29.765,23.935-53.895,53.459-53.895
	C473.967,97.011,497.901,121.14,497.901,150.905z"/>
<path style="fill:#FC8059;" d="M182.494,258.695c0,11.906-9.574,21.558-21.383,21.558c-11.809,0-21.383-9.651-21.383-21.558
	s9.574-21.558,21.383-21.558C172.92,237.137,182.494,246.788,182.494,258.695z M59.538,334.147
	c-11.809,0-21.383,9.651-21.383,21.558c0,11.906,9.574,21.558,21.383,21.558s21.383-9.651,21.383-21.558
	C80.922,343.799,71.348,334.147,59.538,334.147z M342.87,237.137c-11.809,0-21.383,9.651-21.383,21.558s9.574,21.558,21.383,21.558
	c11.809,0,21.383-9.651,21.383-21.558S354.68,237.137,342.87,237.137z M444.443,129.347c-11.809,0-21.383,9.651-21.383,21.558
	s9.574,21.558,21.383,21.558s21.383-9.651,21.383-21.558C465.826,138.999,456.252,129.347,444.443,129.347z"/>
<path style="fill:#FED766;" d="M287.814,72.758h-63.628c-17.86,0-32.337-14.477-32.337-32.337l0,0
	c0-17.86,14.477-32.337,32.337-32.337h63.628c17.86,0,32.337,14.477,32.337,32.337l0,0
	C320.151,58.281,305.672,72.758,287.814,72.758z"/>
<path style="fill:#E8BA52;" d="M315.849,24.253c2.731,4.758,4.302,10.277,4.302,16.168l0,0c0,17.86-14.361,32.337-32.075,32.337
	h-64.151c-17.715,0-32.075-14.477-32.075-32.337l0,0c0-5.892,1.57-11.411,4.302-16.168c5.547,9.662,15.903,16.168,27.774,16.168
	h64.151C299.945,40.421,310.302,33.915,315.849,24.253z"/>
<path style="fill:#4C4C4C;" d="M63.548,315.464c4.465,0,8.084-3.618,8.084-8.084V83.537c0-16.524,11.386-30.414,26.65-34.083
	c-0.033,0.578-0.051,1.16-0.051,1.746v221.327c0,4.466,3.62,8.084,8.084,8.084s8.084-3.618,8.084-8.084V51.2
	c0-2.322,0.583-4.511,1.609-6.42c0.14-0.219,0.271-0.445,0.39-0.679c2.349-3.824,6.534-6.375,11.298-6.375h56.156
	c-0.059,0.891-0.089,1.788-0.089,2.695c0,22.289,18.132,40.421,40.421,40.421h63.628c22.289,0,40.421-18.132,40.421-40.421
	c0-0.907-0.03-1.803-0.089-2.695H384.3c4.762,0,8.948,2.548,11.297,6.37c0.121,0.237,0.252,0.466,0.396,0.688
	c1.025,1.909,1.607,4.095,1.607,6.416v32.337c0,4.466,3.62,8.084,8.084,8.084c4.465,0,8.084-3.618,8.084-8.084V51.2
	c0-0.59-0.017-1.176-0.051-1.757c12.524,2.977,22.585,12.795,25.694,25.885c1.032,4.343,5.389,7.029,9.733,5.996
	c4.344-1.033,7.029-5.389,5.996-9.733c-5.385-22.671-25.06-38.637-48.112-39.235c-5.409-6.59-13.59-10.797-22.728-10.797h-60.744
	C316.769,8.747,303.293,0,287.814,0h-63.628c-15.48,0-28.955,8.747-35.744,21.558h-60.744c-9.139,0-17.32,4.207-22.728,10.797
	c-27.421,0.721-49.506,23.403-49.506,51.182V307.38C55.464,311.846,59.082,315.464,63.548,315.464z M224.186,16.168h63.628
	c13.373,0,24.253,10.88,24.253,24.253s-10.879,24.253-24.253,24.253h-63.628c-13.373,0-24.253-10.88-24.253-24.253
	S210.813,16.168,224.186,16.168z M448.451,91.621c-33.934,0-61.543,27.803-61.543,61.979c0,14.182,4.754,27.265,12.741,37.721
	l-42.095,42.439c-3.311-1.299-6.913-2.012-10.674-2.012c-13.464,0-24.847,9.13-28.354,21.558H193.473
	c-3.506-12.428-14.89-21.558-28.354-21.558c-16.248,0-29.467,13.298-29.467,29.642c0,3.807,0.718,7.45,2.023,10.798l-59.818,60.306
	c-4.238-2.379-9.119-3.736-14.309-3.736c-16.248,0-29.467,13.298-29.467,29.642c0,5.244,1.36,10.173,3.746,14.452L4.35,406.601
	c-3.144,3.17-3.124,8.289,0.046,11.433c3.17,3.142,8.288,3.123,11.432-0.046l33.409-33.682c4.239,2.379,9.12,3.736,14.31,3.736
	c16.248,0,29.467-13.298,29.467-29.642c0-5.244-1.36-10.173-3.746-14.452l58.291-58.767c4.908,3.673,10.986,5.851,17.559,5.851
	c13.464,0,24.847-9.13,28.354-21.558h125.053c3.506,12.428,14.89,21.558,28.354,21.558c16.248,0,29.467-13.298,29.467-29.642
	c0-6.636-2.178-12.77-5.855-17.715l40.556-40.887c8.352,6.456,18.39,10.807,29.32,12.258V460.8
	c0,19.317-15.558,35.032-34.682,35.032H106.315c-19.124,0-34.683-15.715-34.683-35.032v-53.895c0-4.466-3.62-8.084-8.084-8.084
	s-8.084,3.618-8.084,8.084V460.8c0,28.231,22.813,51.2,50.852,51.2h299.37c28.039,0,50.851-22.969,50.851-51.2V215.046
	c30.128-3.999,53.459-30.03,53.459-61.446C509.995,119.424,482.387,91.621,448.451,91.621z M63.548,371.874
	c-7.333,0-13.299-6.044-13.299-13.474s5.965-13.474,13.299-13.474s13.299,6.044,13.299,13.474S70.881,371.874,63.548,371.874z
	 M165.12,274.863c-4.481,0-8.451-2.257-10.862-5.707c-0.024-0.034-0.047-0.069-0.072-0.106c-1.491-2.176-2.365-4.817-2.365-7.661
	c0-7.43,5.966-13.474,13.299-13.474c7.333,0,13.299,6.044,13.299,13.474S172.453,274.863,165.12,274.863z M346.88,274.863
	c-7.333,0-13.299-6.044-13.299-13.474s5.966-13.474,13.299-13.474c7.333,0,13.299,6.044,13.299,13.474
	S354.213,274.863,346.88,274.863z M448.451,199.411c-25.019,0-45.375-20.55-45.375-45.811s20.355-45.811,45.375-45.811
	c25.02,0,45.375,20.55,45.375,45.811S473.471,199.411,448.451,199.411z M114.399,358.4v80.842c0,7.43,5.966,13.474,13.299,13.474
	h256.604c7.333,0,13.299-6.044,13.299-13.474V235.52c0-4.466,3.62-8.084,8.084-8.084s8.084,3.618,8.084,8.084v203.722
	c0,16.344-13.219,29.642-29.467,29.642H127.698c-16.248,0-29.467-13.298-29.467-29.642V358.4c0-4.466,3.62-8.084,8.084-8.084
	S114.399,353.934,114.399,358.4z M448.451,123.958c-16.248,0-29.467,13.298-29.467,29.642s13.219,29.642,29.467,29.642
	s29.467-13.298,29.467-29.642S464.701,123.958,448.451,123.958z M448.451,167.074c-7.333,0-13.299-6.044-13.299-13.474
	s5.966-13.474,13.299-13.474s13.299,6.044,13.299,13.474S455.785,167.074,448.451,167.074z"/>
<g>
</g>
<g>
</g>
<g>
</g>
<g>
</g>
<g>
</g>
<g>
</g>
<g>
</g>
<g>
</g>
<g>
</g>
<g>
</g>
<g>
</g>
<g>
</g>
<g>
</g>
<g>
</g>
<g>
</g>
</svg>
