<?xml version="1.0" encoding="iso-8859-1"?>
<!-- Generator: Adobe Illustrator 19.0.0, SVG Export Plug-In . SVG Version: 6.00 Build 0)  -->
<svg version="1.1" id="Layer_1" xmlns="http://www.w3.org/2000/svg" xmlns:xlink="http://www.w3.org/1999/xlink" x="0px" y="0px"
	 viewBox="0 0 512 512" style="enable-background:new 0 0 512 512;" xml:space="preserve">
<g>
	<path style="fill:#5ECC66;" d="M54.857,251.429c-20.165,0-36.571,16.406-36.571,36.571s16.406,36.571,36.571,36.571
		S91.429,308.165,91.429,288S75.022,251.429,54.857,251.429z"/>
	<path style="fill:#5ECC66;" d="M118.857,105.143c-20.165,0-36.571,16.406-36.571,36.571s16.406,36.571,36.571,36.571
		s36.571-16.406,36.571-36.571S139.022,105.143,118.857,105.143z"/>
	<path style="fill:#5ECC66;" d="M457.143,297.143c-20.165,0-36.571,16.406-36.571,36.571s16.406,36.571,36.571,36.571
		s36.571-16.406,36.571-36.571S477.308,297.143,457.143,297.143z"/>
</g>
<path style="fill:#E65F58;" d="M457.143,242.286c20.165,0,36.571-16.406,36.571-36.571s-16.406-36.571-36.571-36.571
	s-36.571,16.406-36.571,36.571S436.978,242.286,457.143,242.286z"/>
<g>
	<path style="fill:#314E55;" d="M457.143,278.857c-27.129,0-49.658,19.813-54.031,45.714h-37.397
		c-30.25,0-54.857,24.594-54.857,54.826V480h18.286V379.397c0-20.147,16.406-36.54,36.571-36.54h37.397
		c4.373,25.902,26.902,45.714,54.031,45.714c30.25,0,54.857-24.607,54.857-54.857C512,303.464,487.393,278.857,457.143,278.857z
		 M457.143,370.286c-20.165,0-36.571-16.406-36.571-36.571s16.406-36.571,36.571-36.571s36.571,16.406,36.571,36.571
		S477.308,370.286,457.143,370.286z"/>
	<path style="fill:#314E55;" d="M210.286,141.714h-36.571c0-30.25-24.607-54.857-54.857-54.857S64,111.464,64,141.714
		s24.607,54.857,54.857,54.857c23.831,0,44.102-15.299,51.657-36.571h39.772c20.165,0,36.571,16.429,36.571,36.625V480h18.286
		V196.625C265.143,166.348,240.536,141.714,210.286,141.714z M118.857,178.286c-20.165,0-36.571-16.406-36.571-36.571
		s16.406-36.571,36.571-36.571s36.571,16.406,36.571,36.571S139.022,178.286,118.857,178.286z"/>
	<path style="fill:#314E55;" d="M146.286,278.857h-37.397c-4.373-25.902-26.902-45.714-54.031-45.714C24.607,233.143,0,257.75,0,288
		s24.607,54.857,54.857,54.857c27.129,0,49.658-19.813,54.031-45.714h37.397c20.165,0,36.571,16.42,36.571,36.603V480h18.286
		V333.746C201.143,303.482,176.536,278.857,146.286,278.857z M54.857,324.571c-20.165,0-36.571-16.406-36.571-36.571
		s16.406-36.571,36.571-36.571S91.429,267.835,91.429,288S75.022,324.571,54.857,324.571z"/>
	<path style="fill:#314E55;" d="M373.625,214.857h29.487c4.373,25.902,26.902,45.714,54.031,45.714
		c30.25,0,54.857-24.607,54.857-54.857s-24.607-54.857-54.857-54.857c-27.129,0-49.658,19.813-54.031,45.714h-29.487
		c-14.393,0-26.103-11.714-26.103-26.116V32h-18.286v138.455C329.237,194.938,349.147,214.857,373.625,214.857z M457.143,169.143
		c20.165,0,36.571,16.406,36.571,36.571s-16.406,36.571-36.571,36.571s-36.571-16.406-36.571-36.571
		S436.978,169.143,457.143,169.143z"/>
</g>
<g>
</g>
<g>
</g>
<g>
</g>
<g>
</g>
<g>
</g>
<g>
</g>
<g>
</g>
<g>
</g>
<g>
</g>
<g>
</g>
<g>
</g>
<g>
</g>
<g>
</g>
<g>
</g>
<g>
</g>
</svg>
