<?xml version="1.0" encoding="iso-8859-1"?>
<!-- Generator: Adobe Illustrator 19.0.0, SVG Export Plug-In . SVG Version: 6.00 Build 0)  -->
<svg version="1.1" id="Layer_1" xmlns="http://www.w3.org/2000/svg" xmlns:xlink="http://www.w3.org/1999/xlink" x="0px" y="0px"
	 viewBox="0 0 512 512" style="enable-background:new 0 0 512 512;" xml:space="preserve">
<g>
	<path style="fill:#EAEAEA;" d="M436.139,369.778c20.917,0,37.935-17.009,37.935-37.917V56.88c0-20.907-17.019-37.917-37.935-37.917
		H75.861c-20.917,0-37.935,17.009-37.935,37.917v274.981c0,20.907,17.019,37.917,37.935,37.917h132.731h104.296H436.139z
		 M182.111,77.815l-80.731,80.732c-1.852,1.852-4.278,2.778-6.704,2.778c-2.426,0-4.852-0.926-6.704-2.778
		c-3.704-3.704-3.704-9.704,0-13.407l80.731-80.732c3.704-3.704,9.704-3.704,13.407,0C185.815,68.111,185.815,74.111,182.111,77.815
		z"/>
	<rect x="284.444" y="455.111" style="fill:#EAEAEA;" width="142.222" height="9.481"/>
</g>
<g>
	<path style="fill:#81A4E3;" d="M37.926,426.667v33.185c0,18.296,14.861,33.185,33.13,33.185h369.889
		c18.268,0,33.13-14.889,33.13-33.185v-33.185H312.889H208.593H37.926z M85.333,469.333c0,5.236-4.245,9.481-9.481,9.481
		s-9.481-4.245-9.481-9.481V450.37c0-5.236,4.245-9.481,9.481-9.481s9.481,4.245,9.481,9.481V469.333z M265.481,436.148H445.63
		v47.407H265.481V436.148z"/>
	<rect x="227.556" y="388.741" style="fill:#81A4E3;" width="66.37" height="18.963"/>
</g>
<g>
	<path style="fill:#314E55;" d="M436.139,388.741c31.375,0,56.898-25.514,56.898-56.88V56.88c0-31.366-25.523-56.88-56.898-56.88
		H75.861C44.486,0,18.963,25.514,18.963,56.88v274.981c0,31.366,25.523,56.88,56.898,56.88h132.731v18.963H18.963v52.148
		c0,28.755,23.37,52.148,52.093,52.148h369.889c28.722,0,52.092-23.393,52.092-52.148v-52.148H312.889v-18.963H436.139z
		 M75.861,369.778c-20.917,0-37.935-17.009-37.935-37.917V56.88c0-20.907,17.019-37.917,37.935-37.917h360.278
		c20.917,0,37.935,17.009,37.935,37.917v274.981c0,20.907-17.019,37.917-37.935,37.917h-123.25H208.593H75.861z M474.074,426.667
		v33.185c0,18.296-14.861,33.185-33.13,33.185H71.056c-18.269,0-33.13-14.889-33.13-33.185v-33.185h170.667h104.296H474.074z
		 M293.926,407.704h-66.37v-18.963h66.37V407.704z"/>
	<path style="fill:#314E55;" d="M445.63,436.148H265.481v47.407H445.63V436.148z M426.667,464.593H284.444v-9.481h142.222V464.593z"
		/>
	<path style="fill:#314E55;" d="M75.852,440.889c-5.236,0-9.481,4.245-9.481,9.481v18.963c0,5.236,4.245,9.481,9.481,9.481
		s9.481-4.245,9.481-9.481V450.37C85.333,445.134,81.088,440.889,75.852,440.889z"/>
	<path style="fill:#314E55;" d="M168.704,64.407l-80.731,80.731c-3.704,3.704-3.704,9.704,0,13.407
		c1.852,1.852,4.278,2.778,6.704,2.778s4.852-0.926,6.704-2.778l80.731-80.732c3.704-3.704,3.704-9.704,0-13.407
		C178.407,60.704,172.407,60.704,168.704,64.407z"/>
</g>
<g>
</g>
<g>
</g>
<g>
</g>
<g>
</g>
<g>
</g>
<g>
</g>
<g>
</g>
<g>
</g>
<g>
</g>
<g>
</g>
<g>
</g>
<g>
</g>
<g>
</g>
<g>
</g>
<g>
</g>
</svg>
