<?xml version="1.0" encoding="UTF-8" standalone="no"?>
<svg
   xmlns:osb="http://www.openswatchbook.org/uri/2009/osb"
   xmlns:dc="http://purl.org/dc/elements/1.1/"
   xmlns:cc="http://creativecommons.org/ns#"
   xmlns:rdf="http://www.w3.org/1999/02/22-rdf-syntax-ns#"
   xmlns:svg="http://www.w3.org/2000/svg"
   xmlns="http://www.w3.org/2000/svg"
   xmlns:sodipodi="http://sodipodi.sourceforge.net/DTD/sodipodi-0.dtd"
   xmlns:inkscape="http://www.inkscape.org/namespaces/inkscape"
   version="1.0"
   width="400"
   height="400"
   viewBox="0 0 4000 4000"
   preserveAspectRatio="xMidYMid meet"
   id="svg40"
   sodipodi:docname="gnulium.svg"
   inkscape:version="0.92.2 5c3e80d, 2017-08-06"
   style="enable-background:new">
  <metadata
     id="metadata46">
    <rdf:RDF>
      <cc:Work
         rdf:about="">
        <dc:format>image/svg+xml</dc:format>
        <dc:type
           rdf:resource="http://purl.org/dc/dcmitype/StillImage" />
        <dc:title></dc:title>
      </cc:Work>
    </rdf:RDF>
  </metadata>
  <defs
     id="defs44">
    <linearGradient
       id="linearGradient4317"
       osb:paint="solid">
      <stop
         style="stop-color:#91908c;stop-opacity:0.06527415;"
         offset="0"
         id="stop4315" />
    </linearGradient>
    <linearGradient
       id="linearGradient4001"
       osb:paint="solid">
      <stop
         style="stop-color:#858557;stop-opacity:0.10182767;"
         offset="0"
         id="stop3999" />
    </linearGradient>
  </defs>
  <sodipodi:namedview
     pagecolor="#ffffff"
     bordercolor="#666666"
     borderopacity="1"
     objecttolerance="10"
     gridtolerance="10"
     guidetolerance="10"
     inkscape:pageopacity="0"
     inkscape:pageshadow="2"
     inkscape:window-width="1366"
     inkscape:window-height="721"
     id="namedview42"
     showgrid="false"
     inkscape:zoom="0.43818181"
     inkscape:cx="-104.48114"
     inkscape:cy="245.20427"
     inkscape:window-x="0"
     inkscape:window-y="21"
     inkscape:window-maximized="1"
     inkscape:current-layer="svg40" />
  <g
     id="layer1"
     style="fill:#462714;stroke:none"
     transform="matrix(1.0828408,0,0,1.0415065,-4166.8399,-1376.1029)">
    <path
       d="m 5636,4990 c -48,-58 -106,-274 -106,-400 0,-186 -34,-314 -114,-429 -41,-60 -45,-95 -25,-236 11,-79 12,-80 54,-108 64,-41 80,-82 78,-199 -1,-54 3,-98 7,-98 23,0 111,46 179,95 190,133 270,221 350,385 l 56,115 v 165 c 0,187 6,164 -126,455 -70,154 -92,180 -196,243 -87,51 -121,54 -157,12 z"
       id="path14"
       inkscape:connector-curvature="0" />
    <path
       d="m 7235,3902 c -22,-1 -85,-11 -140,-22 -154,-29 -163,-29 -275,-13 -245,36 -694,-26 -848,-117 -19,-11 -58,-42 -87,-68 -35,-31 -115,-78 -231,-137 -98,-49 -180,-95 -181,-101 -3,-8 46,-13 159,-17 169,-5 265,-23 364,-66 l 45,-20 10,26 10,27 25,-26 c 19,-19 29,-46 42,-111 9,-52 22,-89 30,-92 7,-3 78,-10 157,-16 l 143,-12 228,58 c 126,31 238,62 249,67 11,6 67,57 125,114 58,56 124,114 148,127 24,13 81,61 128,106 88,87 119,145 104,200 -15,58 -108,100 -205,93 z"
       id="path16"
       inkscape:connector-curvature="0" />
    <path
       d="m 4370,3882 c -121,-32 -230,-129 -230,-203 0,-42 39,-104 126,-199 113,-124 142,-159 203,-253 84,-127 155,-166 337,-189 213,-26 390,44 485,191 16,25 29,57 29,72 0,31 35,85 100,155 61,65 81,104 87,173 9,106 -62,189 -181,213 -49,9 -81,8 -191,-7 -166,-23 -252,-17 -445,30 -161,39 -224,42 -320,17 z"
       id="path18"
       inkscape:connector-curvature="0" />
    <path
       d="m 5495,3402 c 35,-37 432,-192 531,-208 l 41,-6 -8,57 c -5,36 -14,62 -26,71 -27,20 -119,54 -193,70 -82,19 -359,31 -345,16 z"
       id="path20"
       inkscape:connector-curvature="0" />
    <path
       d="m 5510,3366 c 0,-4 48,-60 108,-124 59,-65 129,-145 156,-180 27,-34 53,-62 57,-62 5,0 9,16 9,36 0,50 -41,98 -182,216 -138,114 -148,122 -148,114 z"
       id="path22"
       inkscape:connector-curvature="0" />
    <path
       d="m 5457,3263 c -13,-192 -69,-328 -190,-459 -65,-71 -76,-88 -90,-145 -30,-124 -40,-228 -34,-373 7,-167 31,-290 88,-447 52,-147 69,-206 69,-244 0,-41 25,-75 55,-75 35,0 169,55 245,100 193,114 322,279 382,487 30,104 33,327 5,445 -10,43 -22,80 -26,83 -5,2 -27,-3 -50,-12 -37,-14 -44,-15 -52,-2 -14,20 -2,68 27,113 23,34 24,42 14,65 -21,46 -145,251 -152,251 -4,0 -1,-18 7,-40 39,-111 37,-221 -5,-302 -16,-31 -18,-43 -9,-60 26,-49 -28,-174 -59,-135 -12,15 -22,226 -11,233 4,2 16,-7 27,-21 15,-19 22,-22 30,-12 42,53 41,204 -2,306 -33,78 -87,164 -129,209 -45,47 -51,39 -17,-21 83,-147 92,-294 21,-339 -14,-8 -21,-23 -21,-43 0,-43 -18,-101 -36,-116 -12,-10 -18,-9 -31,4 -16,15 -16,22 0,89 10,40 17,83 17,95 0,33 18,38 32,8 15,-32 28,-28 50,16 24,45 22,90 -5,169 -18,54 -131,270 -141,270 -2,0 -6,-44 -9,-97 z"
       id="path24"
       inkscape:connector-curvature="0" />
    <path
       d="m 5372,3270 c -79,-128 -182,-213 -302,-251 -80,-25 -205,-34 -285,-20 l -60,10 -55,-62 c -109,-123 -227,-234 -345,-322 -191,-145 -208,-167 -185,-249 15,-56 60,-110 113,-139 125,-66 487,19 666,157 69,54 147,152 196,250 20,38 58,93 86,121 105,107 173,242 204,408 9,48 15,105 13,127 l -3,40 z"
       id="path26"
       inkscape:connector-curvature="0" />
    <path
       d="m 5665,3278 c 28,-23 80,-72 118,-108 37,-37 69,-64 72,-62 3,3 5,14 5,24 0,43 46,0 57,-54 7,-30 20,-46 78,-87 39,-28 87,-64 108,-82 l 37,-31 v 40 c 0,47 16,63 29,30 20,-47 32,-157 21,-179 -19,-35 -45,-19 -48,31 -3,37 -10,50 -45,83 -52,47 -161,127 -174,127 -6,0 -17,-21 -25,-47 -15,-47 -15,-49 14,-98 16,-27 47,-87 69,-131 36,-75 44,-85 111,-131 272,-188 507,-212 729,-77 61,36 176,144 218,202 l 21,30 -74,-5 c -98,-8 -136,14 -221,122 -103,132 -213,204 -344,224 -138,21 -238,34 -278,36 -24,1 -49,7 -56,13 -7,6 -35,16 -62,22 -84,18 -205,61 -304,106 -52,24 -97,44 -100,44 -3,0 17,-19 44,-42 z"
       id="path28"
       inkscape:connector-curvature="0" />
  </g>
  <g
     id="layer2"
     style="fill:#efedee;stroke:none"
     transform="translate(22723.334,2244.7404)">
    <flowRoot
       xml:space="preserve"
       id="flowRoot855"
       style="font-style:normal;font-variant:normal;font-weight:normal;font-stretch:normal;font-size:40px;line-height:25px;font-family:'A Duel';-inkscape-font-specification:'A Duel';letter-spacing:0px;word-spacing:0px;fill:#788044;fill-opacity:1;stroke:none;stroke-width:1px;stroke-linecap:butt;stroke-linejoin:miter;stroke-opacity:1"
       transform="matrix(10,0,0,10,-12780.735,387.295)"><flowRegion
         id="flowRegion857"
         style="font-style:normal;font-variant:normal;font-weight:normal;font-stretch:normal;font-family:'A Duel';-inkscape-font-specification:'A Duel';fill:#788044"><rect
           id="rect859"
           width="693.90356"
           height="277.56143"
           x="161.37291"
           y="524.84637"
           style="font-style:normal;font-variant:normal;font-weight:normal;font-stretch:normal;font-family:'A Duel';-inkscape-font-specification:'A Duel';fill:#788044" /></flowRegion><flowPara
         id="flowPara861"
         style="font-style:normal;font-variant:normal;font-weight:normal;font-stretch:normal;font-size:192px;font-family:'A Duel';-inkscape-font-specification:'A Duel';fill:#788044">Gnulimu</flowPara></flowRoot>  </g>
</svg>
