<?xml version="1.0" encoding="iso-8859-1"?>
<!-- Generator: Adobe Illustrator 19.0.0, SVG Export Plug-In . SVG Version: 6.00 Build 0)  -->
<svg version="1.1" id="Layer_1" xmlns="http://www.w3.org/2000/svg" xmlns:xlink="http://www.w3.org/1999/xlink" x="0px" y="0px"
	 viewBox="0 0 512 512" style="enable-background:new 0 0 512 512;" xml:space="preserve">
<path style="fill:#E4AD40;" d="M256,233.544c22.29,0,40.421-18.132,40.421-40.421S278.29,152.702,256,152.702
	s-40.421,18.132-40.421,40.421S233.71,233.544,256,233.544z"/>
<path style="fill:#E65F58;" d="M132.399,366.053c-0.426,0.219-0.868,0.395-1.32,0.544c-2.737,0.877-5.307,2.184-7.636,3.877
	c-12.026,8.737-14.702,25.623-5.969,37.64c8.741,12.035,25.618,14.728,37.645,5.965c2.329-1.693,4.368-3.737,6.044-6.061
	c0.281-0.395,0.592-0.754,0.93-1.097l112.864-113.219L132.399,366.053z M134.737,413.193c-9.908,0-17.965-8.061-17.965-17.965
	c0-9.904,8.057-17.965,17.965-17.965c9.908,0,17.965,8.061,17.965,17.965C152.702,405.132,144.645,413.193,134.737,413.193z"/>
<path style="fill:#73C9C9;" d="M190.897,316.217l125.988-63.945c3.952-1.982,8.741-0.842,11.333,2.728
	c2.592,3.57,2.211,8.5-0.908,11.623l-65.212,65.419c73.933-3.226,133.129-64.206,133.129-138.919
	c0-76.772-62.456-139.228-139.228-139.228s-139.228,62.456-139.228,139.228C116.772,244.851,145.172,291.976,190.897,316.217z
	 M256,134.737c32.193,0,58.386,26.193,58.386,58.386S288.193,251.509,256,251.509s-58.386-26.193-58.386-58.386
	S223.807,134.737,256,134.737z"/>
<path style="fill:#EAEAEA;" d="M62.877,494.035h386.246V17.965H62.877V494.035z M422.175,485.053
	c-9.908,0-17.965-8.061-17.965-17.965c0-9.904,8.057-17.965,17.965-17.965s17.965,8.061,17.965,17.965
	C440.14,476.991,432.083,485.053,422.175,485.053z M422.175,26.947c9.908,0,17.965,8.061,17.965,17.965s-8.057,17.965-17.965,17.965
	s-17.965-8.061-17.965-17.965S412.268,26.947,422.175,26.947z M256,35.93c86.676,0,157.193,70.517,157.193,157.193
	S342.676,350.316,256,350.316c-3.386,0-6.746-0.114-10.074-0.316l0.113-1.847l-70.744,70.969c-2.706,3.632-5.939,6.816-9.614,9.491
	c-7.956,5.781-17.193,8.561-26.342,8.561c-13.908,0-27.623-6.421-36.399-18.5c-14.553-20.035-10.092-48.175,9.939-62.728
	c3.671-2.675,7.702-4.763,11.996-6.219l46.989-23.849c-45.344-28.734-73.055-78.486-73.055-132.757
	C98.807,106.447,169.324,35.93,256,35.93z M89.825,26.947c9.908,0,17.965,8.061,17.965,17.965s-8.057,17.965-17.965,17.965
	S71.86,54.816,71.86,44.912S79.917,26.947,89.825,26.947z M89.825,449.123c9.908,0,17.965,8.061,17.965,17.965
	c0,9.904-8.057,17.965-17.965,17.965s-17.965-8.061-17.965-17.965C71.86,457.184,79.917,449.123,89.825,449.123z"/>
<g>
	<path style="fill:#314E55;" d="M44.912,0v512h422.175V0H44.912z M449.123,494.035H62.877V17.965h386.246V494.035z"/>
	<path style="fill:#314E55;" d="M171.861,325.879l-46.989,23.849c-4.294,1.456-8.324,3.544-11.996,6.219
		c-20.031,14.553-24.491,42.693-9.939,62.728c8.776,12.079,22.491,18.5,36.399,18.5c9.149,0,18.386-2.781,26.342-8.561
		c3.675-2.675,6.908-5.86,9.614-9.491l70.744-70.969L245.925,350c3.329,0.202,6.689,0.316,10.075,0.316
		c86.676,0,157.193-70.517,157.193-157.193S342.676,35.93,256,35.93S98.807,106.447,98.807,193.123
		C98.807,247.394,126.517,297.146,171.861,325.879z M162.092,406.921c-0.338,0.342-0.649,0.702-0.93,1.097
		c-1.675,2.325-3.715,4.368-6.044,6.061c-12.026,8.763-28.904,6.07-37.645-5.965c-8.733-12.018-6.057-28.904,5.969-37.64
		c2.329-1.693,4.899-3,7.636-3.877c0.452-0.149,0.895-0.324,1.32-0.544l142.557-72.351L162.092,406.921z M256,53.895
		c76.772,0,139.228,62.456,139.228,139.228c0,74.713-59.196,135.693-133.129,138.919l65.212-65.419
		c3.118-3.123,3.5-8.053,0.908-11.623c-2.592-3.57-7.382-4.711-11.333-2.728l-125.989,63.945
		c-45.726-24.241-74.125-71.366-74.125-123.094C116.772,116.351,179.228,53.895,256,53.895z"/>
	<path style="fill:#314E55;" d="M256,251.509c32.193,0,58.386-26.193,58.386-58.386S288.193,134.737,256,134.737
		s-58.386,26.193-58.386,58.386S223.807,251.509,256,251.509z M256,152.702c22.29,0,40.421,18.132,40.421,40.421
		S278.29,233.544,256,233.544s-40.421-18.132-40.421-40.421S233.71,152.702,256,152.702z"/>
	<path style="fill:#314E55;" d="M422.175,62.877c9.908,0,17.965-8.061,17.965-17.965s-8.057-17.965-17.965-17.965
		s-17.965,8.061-17.965,17.965S412.268,62.877,422.175,62.877z"/>
	<path style="fill:#314E55;" d="M422.175,449.123c-9.908,0-17.965,8.061-17.965,17.965c0,9.904,8.057,17.965,17.965,17.965
		s17.965-8.061,17.965-17.965C440.14,457.184,432.083,449.123,422.175,449.123z"/>
	<path style="fill:#314E55;" d="M89.825,62.877c9.908,0,17.965-8.061,17.965-17.965s-8.057-17.965-17.965-17.965
		S71.86,35.009,71.86,44.912S79.917,62.877,89.825,62.877z"/>
	<path style="fill:#314E55;" d="M89.825,485.053c9.908,0,17.965-8.061,17.965-17.965c0-9.904-8.057-17.965-17.965-17.965
		s-17.965,8.061-17.965,17.965C71.86,476.991,79.917,485.053,89.825,485.053z"/>
	<path style="fill:#314E55;" d="M134.737,377.263c-9.908,0-17.965,8.061-17.965,17.965c0,9.904,8.057,17.965,17.965,17.965
		c9.908,0,17.965-8.061,17.965-17.965C152.702,385.324,144.645,377.263,134.737,377.263z"/>
</g>
<g>
</g>
<g>
</g>
<g>
</g>
<g>
</g>
<g>
</g>
<g>
</g>
<g>
</g>
<g>
</g>
<g>
</g>
<g>
</g>
<g>
</g>
<g>
</g>
<g>
</g>
<g>
</g>
<g>
</g>
</svg>
