<?xml version="1.0" encoding="iso-8859-1"?>
<!-- Generator: Adobe Illustrator 19.0.0, SVG Export Plug-In . SVG Version: 6.00 Build 0)  -->
<svg version="1.1" id="Layer_1" xmlns="http://www.w3.org/2000/svg" xmlns:xlink="http://www.w3.org/1999/xlink" x="0px" y="0px"
	 viewBox="0 0 440 440" style="enable-background:new 0 0 440 440;" xml:space="preserve">
<g>
	<path style="fill:#EFEFEF;" d="M382,137.5h-36.72c-0.01-0.02-0.03-0.04-0.04-0.06C318.4,96.81,272.33,70,220,70
		c-52.36,0-98.45,26.84-125.28,67.5H58c-32.03,0-58,25.97-58,58v49c0,32.04,25.97,58,58,58h36.72c0.01,0.02,0.02,0.03,0.03,0.05
		C121.59,343.19,167.66,370,220,370c52.36,0,98.45-26.83,125.28-67.5H382c32.03,0,58-25.96,58-58v-49
		C440,163.47,414.03,137.5,382,137.5z"/>
	<path style="fill:#3E81C8;" d="M345.24,137.44h-82.4c-19.98,0.56-36.17,16.76-36.17,36.73V266c0,19.98-16.19,36.17-36.23,36.55
		H94.75c-0.01-0.02-0.02-0.03-0.03-0.05H58c-32.03,0-58-25.96-58-58v-49c0-32.03,25.97-58,58-58h36.72
		C121.55,96.84,167.64,70,220,70C272.33,70,318.4,96.81,345.24,137.44z"/>
	<path style="fill:#37495E;" d="M360.502,207.004c-4.419,0-8,3.582-8,8v48c0,4.418,3.581,8,8,8c4.418,0,8-3.582,8-8v-48
		C368.502,210.586,364.92,207.004,360.502,207.004z"/>
	<path style="fill:#37495E;" d="M360.502,182.004c-4.419,0-8,3.582-8,8v2c0,4.418,3.581,8,8,8c4.418,0,8-3.582,8-8v-2
		C368.502,185.586,364.92,182.004,360.502,182.004z"/>
	<path style="fill:#37495E;" d="M323.502,196.004c4.418,0,8-3.582,8-8s-3.582-8-8-8h-39c-3.527,0-6.515,2.286-7.579,5.455
		c-0.894,1.291-1.421,2.856-1.421,4.545v72c0,4.418,3.581,8,8,8c4.418,0,8-3.582,8-8v-29h32c4.418,0,8-3.582,8-8s-3.582-8-8-8h-32
		v-21H323.502z"/>
	<path style="fill:#37495E;" d="M132.339,181.21c-4.304-0.998-8.604,1.675-9.606,5.978l-9.208,39.542l-9.208-39.542l-0.007,0.002
		c-0.671-2.872-2.903-5.264-5.97-5.979c-4.305-0.998-8.604,1.675-9.606,5.978l-9.208,39.542l-9.208-39.542
		c-1.002-4.304-5.304-6.979-9.606-5.978c-4.303,1.003-6.979,5.304-5.977,9.606l17,73c0.86,3.693,4.149,6.188,7.785,6.188
		c0.601,0,1.211-0.068,1.821-0.21c3.067-0.715,5.298-3.107,5.97-5.979l0.007,0.002l9.208-39.542l9.208,39.542
		c0.86,3.693,4.149,6.188,7.785,6.188c0.601,0,1.211-0.068,1.821-0.21c3.067-0.715,5.298-3.107,5.97-5.979l0.007,0.002l17-73
		C139.318,186.513,136.642,182.213,132.339,181.21z"/>
	<path style="fill:#37495E;" d="M165.524,206.002c-4.418,0-8,3.582-8,8v48c0,4.418,3.582,8,8,8s8-3.582,8-8v-48
		C173.524,209.584,169.943,206.002,165.524,206.002z"/>
	<path style="fill:#37495E;" d="M165.524,181.002c-4.418,0-8,3.582-8,8v2c0,4.418,3.582,8,8,8s8-3.582,8-8v-2
		C173.524,184.584,169.943,181.002,165.524,181.002z"/>
</g>
<g>
</g>
<g>
</g>
<g>
</g>
<g>
</g>
<g>
</g>
<g>
</g>
<g>
</g>
<g>
</g>
<g>
</g>
<g>
</g>
<g>
</g>
<g>
</g>
<g>
</g>
<g>
</g>
<g>
</g>
</svg>
