<?xml version="1.0" encoding="iso-8859-1"?>
<!-- Generator: Adobe Illustrator 19.0.0, SVG Export Plug-In . SVG Version: 6.00 Build 0)  -->
<svg version="1.1" id="Capa_1" xmlns="http://www.w3.org/2000/svg" xmlns:xlink="http://www.w3.org/1999/xlink" x="0px" y="0px"
	 viewBox="0 0 512 512" style="enable-background:new 0 0 512 512;" xml:space="preserve">
<g>
	<path style="fill:#FFD278;" d="M373.925,182.844h-130.75c-3.08-7.83-7.781-15.171-14.11-21.501
		c-24.664-24.663-64.652-24.663-89.316,0c-24.664,24.664-24.664,64.651,0,89.315c24.663,24.664,64.651,24.664,89.316,0
		c7.024-7.025,12.047-15.295,15.069-24.099l0.004-0.002l13.712,0.017l7.485,13.109h21.055l6.738-13.077l13.681,0.01l13.256,13.066
		h11.842l12.852-13.109h6.345l9.828,13.109h9.955l19.863-27.35l-2.064-14.731L373.925,182.844z"/>
	<path style="fill:#E1E6E9;" d="M229.064,250.658c-15.845,15.845-64.652,24.664-89.316,0c-24.664-24.663-24.664-64.652,0-89.315
		c24.663-24.663,73.818-15.496,89.316,0c15.497,15.497,11.03,13.671,14.11,21.501h130.75l14.76,14.759l2.064,14.731l-19.863,27.35
		h-9.955l-9.828-13.109h-6.345l-12.852,13.109h-11.842l-13.256-13.066l-13.681-0.01l-6.738,13.077h-21.055l-7.485-13.109
		l-13.712-0.017l-0.004,0.002C241.111,235.363,244.908,234.814,229.064,250.658L229.064,250.658z M482.001,56H30
		c-11,0-20,8.999-20,20v260h492.001V76C502.001,64.999,493.001,56,482.001,56z"/>
	<g>
		<path style="fill:#80A7FF;" d="M502.001,336H10v20c0,11.001,9,20,20,20h181h90h181.001c11,0,20-8.999,20-20V336z"/>
		<polygon style="fill:#80A7FF;" points="301,375.999 211,375.999 190.999,455.999 321.001,455.999 		"/>
	</g>
	<path d="M482.001,46H30C13.458,46,0,59.458,0,76v280c0,16.542,13.458,30,30,30h168.192l-16.895,67.574
		c-0.747,2.987-0.076,6.152,1.819,8.579s4.803,3.846,7.882,3.846H321c0.008,0.001,0.016,0,0.02,0c5.523,0,10-4.477,10-10
		c0-1.069-0.168-2.1-0.479-3.065L313.807,386H482c16.542,0,30-13.458,30-30V76C512.001,59.458,498.543,46,482.001,46z M30,66
		h452.001c5.514,0,10,4.486,10,10v250H20V76C20,70.486,24.486,66,30,66z M308.193,445.999H203.807L218.808,386h74.385
		L308.193,445.999z M482.001,366H301.012c-0.004,0-0.008,0-0.012,0h-90c-0.004,0-0.008,0-0.012,0H30c-5.514,0-10-4.486-10-10v-10
		h472.001v10C492.001,361.514,487.515,366,482.001,366z"/>
	<path d="M124.082,106h0.475c5.522,0,10-4.477,10-10s-4.478-10-10-10h-0.475c-5.522,0-10,4.477-10,10
		C114.082,101.523,118.56,106,124.082,106z"/>
	<path d="M53.56,106h41.438c5.522,0,10-4.477,10-10s-4.478-10-10-10H53.56c-5.522,0-10,4.477-10,10S48.037,106,53.56,106z"/>
	<path d="M184.406,279.156c19.541,0,37.912-7.609,51.73-21.427c6.215-6.216,11.16-13.311,14.757-21.163l1.148,0.001l4.611,8.075
		c1.779,3.117,5.094,5.041,8.684,5.041h21.055c3.744,0,7.174-2.091,8.89-5.419l3.943-7.653l3.482,0.003l10.34,10.191
		c1.871,1.844,4.393,2.878,7.02,2.878h11.842c2.686,0,5.26-1.081,7.141-2.999l8.293-8.458l5.59,7.457
		c1.889,2.519,4.853,4.001,8.001,4.001h9.955c3.201,0,6.21-1.533,8.091-4.123l19.863-27.35c1.522-2.096,2.172-4.7,1.813-7.264
		l-2.065-14.731c-0.302-2.152-1.296-4.147-2.833-5.684l-14.76-14.759c-1.875-1.875-4.418-2.929-7.07-2.929H249.634
		c-3.471-6.84-7.994-13.066-13.498-18.572c-13.817-13.817-32.189-21.426-51.73-21.426c-19.54,0-37.911,7.609-51.729,21.426
		c-13.817,13.817-21.427,32.188-21.427,51.729s7.609,37.911,21.427,51.729C146.495,271.546,164.865,279.156,184.406,279.156z
		 M146.82,168.413c10.039-10.039,23.388-15.568,37.586-15.568s27.548,5.529,37.587,15.568c5.206,5.208,9.202,11.294,11.876,18.091
		c1.504,3.825,5.195,6.339,9.306,6.339h126.608l9.463,9.462l1.039,7.417l-14.426,19.863l-6.756-9.011
		c-1.889-2.519-4.852-4.002-8.001-4.002h-6.345c-2.687,0-5.26,1.081-7.141,3l-9.911,10.109h-3.542l-10.336-10.188
		c-1.869-1.843-4.388-2.876-7.012-2.878l-13.681-0.01c-0.003,0-0.005,0-0.008,0c-3.744,0-7.174,2.091-8.889,5.419l-3.946,7.657
		h-9.152l-4.607-8.067c-1.777-3.113-5.086-5.037-8.671-5.042l-13.712-0.017c-0.005,0-0.009,0-0.013,0
		c-1.854,0-3.677,0.518-5.255,1.492c-1.969,1.215-3.456,3.075-4.207,5.263c-2.634,7.671-6.9,14.493-12.683,20.274
		c-10.039,10.04-23.389,15.569-37.587,15.569c-14.198,0-27.547-5.529-37.586-15.568c-10.04-10.04-15.569-23.389-15.569-37.587
		C131.251,191.802,136.78,178.453,146.82,168.413z"/>
	<path d="M165.238,221c8.262,0,15-6.738,15-15s-6.738-15-15-15s-15,6.738-15,15S156.977,221,165.238,221z"/>
</g>
<g>
</g>
<g>
</g>
<g>
</g>
<g>
</g>
<g>
</g>
<g>
</g>
<g>
</g>
<g>
</g>
<g>
</g>
<g>
</g>
<g>
</g>
<g>
</g>
<g>
</g>
<g>
</g>
<g>
</g>
</svg>
