<?xml version="1.0" encoding="iso-8859-1"?>
<!-- Generator: Adobe Illustrator 18.0.0, SVG Export Plug-In . SVG Version: 6.00 Build 0)  -->
<!DOCTYPE svg PUBLIC "-//W3C//DTD SVG 1.1//EN" "http://www.w3.org/Graphics/SVG/1.1/DTD/svg11.dtd">
<svg version="1.1" id="Capa_1" xmlns="http://www.w3.org/2000/svg" xmlns:xlink="http://www.w3.org/1999/xlink" x="0px" y="0px"
	 viewBox="0 0 453.58 453.58" style="enable-background:new 0 0 453.58 453.58;" xml:space="preserve">
<g>
	<g>
		<circle style="fill:#C6AB75;" cx="174.285" cy="54.88" r="16.32"/>
		<circle style="fill:#C6AB75;" cx="279.285" cy="54.88" r="16.32"/>
	</g>
	<path style="fill:#E5C888;" d="M356.07,182.21V285c0,17.98-12.53,33.03-29.34,36.91c-2.74,0.63-5.61,0.97-8.55,0.97h-0.32
		c-6.19,0-11.2-5.01-11.2-11.19v-7.53h-5.69c-5.5,0-9.05-5.86-6.48-10.73l12.17-23.1l-10.07-65.76
		c-4.68-30.57,15.62-59.7,46.07-65.15c0.7-0.13,1.41-0.25,2.13-0.36C351.96,151.81,356.07,166.53,356.07,182.21z"/>
	<path style="fill:#E5C888;" d="M352.29,451.51v2.07h-65.22c-8.24,0-15.2-6.14-16.22-14.33l-6.22-49.95l-1.77-14.23l58.37,7.71
		v37.68C338.38,420.46,352.29,434.36,352.29,451.51z"/>
	<path style="fill:#F15A24;" d="M296.59,204.57l10.07,65.76l-12.17,23.1c-2.57,4.87,0.98,10.73,6.48,10.73h5.69v7.53
		c0,6.18,5.01,11.19,11.2,11.19h0.32c2.94,0,5.81-0.34,8.55-0.97l2.22-0.494V383.8l-7.72-1.02l-58.37-7.71l-70.98-9.38l-59.54-7.87
		l-12.89-1.7v-36.75c4.84,2.25,10.25,3.51,15.94,3.51h0.32c6.18,0,11.19-5.01,11.19-11.19v-7.53h5.7c5.5,0,9.04-5.86,6.47-10.73
		l-12.17-23.1l10.07-65.77h18.64c47.51,0,87.76-34.99,94.37-82.04c7.57-3.34,12.45-10.83,12.45-19.11V95.3
		c7.5,1.24,14.68,3.42,21.42,6.43c4.13,1.84,8.09,3.99,11.86,6.43c12.02,7.76,22.04,18.38,29.08,30.9
		c-0.72,0.11-1.43,0.23-2.13,0.36C312.21,144.87,291.91,174,296.59,204.57z"/>
	<path style="fill:#8C7954;" d="M282.43,55.65V95.3v8.11c0,8.28-4.88,15.77-12.45,19.11l-35.26,15.55c-5.06,2.23-10.82,2.23-15.88,0
		l-35.25-15.55c-7.57-3.34-12.45-10.83-12.45-19.11V95.3V55.65c0-0.26,0-0.51,0.01-0.77c0.2,11.2,9.33,20.21,20.57,20.21h70.12
		c11.24,0,20.38-9.01,20.58-20.21C282.43,55.14,282.43,55.39,282.43,55.65z"/>
	<path style="fill:#E5C888;" d="M282.42,54.88c-0.2,11.2-9.34,20.21-20.58,20.21h-70.12c-11.24,0-20.37-9.01-20.57-20.21
		c0.24-18.08,9.11-34.08,22.67-44.06l0.36,0.5c9.04,6.92,20.34,11.04,32.61,11.04c12.26,0,23.57-4.12,32.6-11.04l0.36-0.5
		c2.26,1.66,4.4,3.5,6.38,5.48C276.03,26.2,282.22,39.82,282.42,54.88z"/>
	<path style="fill:#E5C888;" d="M156.97,204.56l-10.07,65.77l12.17,23.1c2.57,4.87-0.97,10.73-6.47,10.73h-5.7v7.53
		c0,6.18-5.01,11.19-11.19,11.19h-0.32c-5.69,0-11.1-1.26-15.94-3.51c-12.96-6.02-21.94-19.14-21.94-34.37V182.21
		c0-43.73,31.85-80.02,73.62-86.91h0.01v8.11c0,8.28,4.88,15.77,12.45,19.11l35.25,15.55c5.06,2.23,10.82,2.23,15.88,0l35.26-15.55
		c-6.61,47.05-46.86,82.04-94.37,82.04H156.97z"/>
	<path style="fill:#8C7954;" d="M259.75,10.82l-0.36,0.5c-9.03,6.92-20.34,11.04-32.6,11.04c-12.27,0-23.57-4.12-32.61-11.04
		l-0.36-0.5C203.05,4.02,214.44,0,226.78,0C239.12,0,250.52,4.02,259.75,10.82z"/>
	<path style="fill:#E5C888;" d="M191.88,365.69l-1.72,13.77l-7.44,59.79c-1.02,8.19-7.98,14.33-16.22,14.33h-65.22v-2.07
		c0-8.58,3.48-16.34,9.1-21.96c5.62-5.62,13.38-9.09,21.96-9.09v-62.64L191.88,365.69z"/>
	<g>
		<path style="fill:#808080;" d="M199.025,55.557c-2.209,0-4-1.791-4-4V40.918c0-2.209,1.791-4,4-4s4,1.791,4,4v10.638
			C203.025,53.766,201.234,55.557,199.025,55.557z"/>
		<path style="fill:#808080;" d="M254.54,55.557c-2.209,0-4-1.791-4-4V40.918c0-2.209,1.791-4,4-4s4,1.791,4,4v10.638
			C258.54,53.766,256.749,55.557,254.54,55.557z"/>
	</g>
	<path style="fill:#FFFFFF;" d="M245.07,92.12h-36.576c-2.761,0-5-2.239-5-5s2.239-5,5-5h36.576c2.761,0,5,2.239,5,5
		S247.832,92.12,245.07,92.12z"/>
	<path style="fill:#A5997F;" d="M226.782,69.56L226.782,69.56c-3.59,0-6.5-2.91-6.5-6.5V40.918h13V63.06
		C233.282,66.65,230.372,69.56,226.782,69.56z"/>
	<polygon style="fill:#C6AB75;" points="132.332,420.456 159.081,420.456 132.337,405.06 	"/>
	<polygon style="fill:#C6AB75;" points="321.231,420.456 294.482,420.456 321.227,408.06 	"/>
	<g>
		<path style="fill:#666666;" d="M178.111,256.74c-3.59,0-6.5-2.91-6.5-6.5v-20.088c0-3.59,2.91-6.5,6.5-6.5s6.5,2.91,6.5,6.5
			v20.088C184.611,253.83,181.701,256.74,178.111,256.74z"/>
		<path style="fill:#666666;" d="M214.058,288.457c-3.59,0-6.5-2.91-6.5-6.5v-20.088c0-3.59,2.91-6.5,6.5-6.5s6.5,2.91,6.5,6.5
			v20.088C220.558,285.547,217.647,288.457,214.058,288.457z"/>
		<path style="fill:#666666;" d="M266.887,247.979c-3.59,0-6.5-2.91-6.5-6.5v-20.088c0-3.59,2.91-6.5,6.5-6.5s6.5,2.91,6.5,6.5
			v20.088C273.387,245.069,270.477,247.979,266.887,247.979z"/>
		<path style="fill:#666666;" d="M252.747,325.117c-3.59,0-6.5-2.91-6.5-6.5v-20.088c0-3.59,2.91-6.5,6.5-6.5s6.5,2.91,6.5,6.5
			v20.088C259.247,322.207,256.337,325.117,252.747,325.117z"/>
		<path style="fill:#666666;" d="M184.455,328.632c-3.59,0-6.5-2.91-6.5-6.5v-20.088c0-3.59,2.91-6.5,6.5-6.5s6.5,2.91,6.5,6.5
			v20.088C190.955,325.722,188.044,328.632,184.455,328.632z"/>
		<path style="fill:#666666;" d="M290.179,358.235c-3.59,0-6.5-2.91-6.5-6.5v-20.088c0-3.59,2.91-6.5,6.5-6.5s6.5,2.91,6.5,6.5
			v20.088C296.679,355.325,293.769,358.235,290.179,358.235z"/>
		<path style="fill:#666666;" d="M278.55,180.618c-3.59,0-6.5-2.91-6.5-6.5V154.03c0-3.59,2.91-6.5,6.5-6.5s6.5,2.91,6.5,6.5v20.087
			C285.05,177.707,282.14,180.618,278.55,180.618z"/>
		<path style="fill:#666666;" d="M315.71,108.16v17.32c0,3.59-2.91,6.5-6.5,6.5c-3.59,0-6.5-2.91-6.5-6.5V105.4
			c0-1.36,0.42-2.62,1.14-3.67C307.98,103.57,311.94,105.72,315.71,108.16z"/>
	</g>
	<polygon style="fill:#C6AB75;" points="156.97,204.56 164.29,168.06 168.29,204.56 	"/>
	<path style="fill:#8C7954;" d="M259.112,45.418h-64.659c-2.485,0-4.5-2.015-4.5-4.5s2.015-4.5,4.5-4.5h64.659
		c2.485,0,4.5,2.015,4.5,4.5S261.597,45.418,259.112,45.418z"/>
	<polygon style="fill:#C6AB75;" points="132.34,357.82 191.88,365.69 190.16,379.46 132.34,371.82 	"/>
	<polygon style="fill:#C6AB75;" points="321.23,382.78 321.23,396.78 264.63,389.3 262.86,375.07 	"/>
</g>
<g>
</g>
<g>
</g>
<g>
</g>
<g>
</g>
<g>
</g>
<g>
</g>
<g>
</g>
<g>
</g>
<g>
</g>
<g>
</g>
<g>
</g>
<g>
</g>
<g>
</g>
<g>
</g>
<g>
</g>
</svg>
