<?xml version="1.0" encoding="iso-8859-1"?>
<!-- Generator: Adobe Illustrator 19.0.0, SVG Export Plug-In . SVG Version: 6.00 Build 0)  -->
<svg version="1.1" id="Capa_1" xmlns="http://www.w3.org/2000/svg" xmlns:xlink="http://www.w3.org/1999/xlink" x="0px" y="0px"
	 viewBox="0 0 512 512" style="enable-background:new 0 0 512 512;" xml:space="preserve">
<path style="fill:#FE834D;" d="M186.068,39.961c-20.691,0-37.463,16.773-37.463,37.463v120.564l-59.941,79.241h134.868
	l27.246-124.084l-27.246-75.721C223.532,56.734,206.759,39.961,186.068,39.961z"/>
<path style="fill:#FEA680;" d="M410.849,99.902c-20.691,0-37.463,16.773-37.463,37.463l-27.246,148.605h102.173V137.366
	C448.312,116.675,431.54,99.902,410.849,99.902z"/>
<path style="fill:#FE834D;" d="M335.922,39.961c-20.691,0-37.463,16.773-37.463,37.463l-27.246,75.721l27.246,124.084h74.927V77.424
	C373.385,56.734,356.613,39.961,335.922,39.961z"/>
<path style="fill:#FEA680;" d="M260.995,0c-20.691,0-37.463,16.773-37.463,37.463v239.766h74.927V37.463
	C298.459,16.773,281.686,0,260.995,0z"/>
<path style="fill:#FFC1A6;" d="M373.385,256H106.146v71.68L298.459,512h96.221l4.483-5.19c31.695-36.694,49.15-83.634,49.15-132.176
	v-88.663L373.385,256z"/>
<path style="fill:#FEA680;" d="M148.605,342.166V202.302c0-23.411-19.046-42.459-42.459-42.459s-42.459,19.047-42.459,42.459
	v171.831c-0.003,48.541,17.45,95.481,49.146,132.177l4.483,5.19l181.142,0.5v-29.971
	C298.459,399.267,231.367,342.166,148.605,342.166z"/>
<g>
</g>
<g>
</g>
<g>
</g>
<g>
</g>
<g>
</g>
<g>
</g>
<g>
</g>
<g>
</g>
<g>
</g>
<g>
</g>
<g>
</g>
<g>
</g>
<g>
</g>
<g>
</g>
<g>
</g>
</svg>
