<?xml version="1.0" encoding="iso-8859-1"?>
<!-- Generator: Adobe Illustrator 18.1.1, SVG Export Plug-In . SVG Version: 6.00 Build 0)  -->
<svg version="1.1" id="Capa_1" xmlns="http://www.w3.org/2000/svg" xmlns:xlink="http://www.w3.org/1999/xlink" x="0px" y="0px"
	 viewBox="0 0 534.888 534.888" style="enable-background:new 0 0 534.888 534.888;" xml:space="preserve">
<g>
	<g>
		<path style="fill:#010002;" d="M531.215,103.887c-2.447-3.06-5.916-4.998-10.402-5.814L271.116,47.889
			c-2.448-0.408-4.896-0.408-7.343,0L14.076,98.073c-4.488,0.816-7.956,2.754-10.404,5.814C1.224,106.947,0,110.721,0,115.209
			v147.492v9.183v147.492c0,4.484,1.224,8.26,3.672,11.318c2.448,3.063,5.916,4.998,10.404,5.814l249.696,50.184
			c2.448,0.816,4.896,0.816,7.343,0l249.697-50.184c4.486-0.816,7.955-2.754,10.402-5.814c2.447-3.059,3.674-6.834,3.674-11.32
			V271.882V262.7V115.209C534.889,110.721,533.662,106.947,531.215,103.887z M232.56,332.47
			c-17.136,37.941-43.86,56.916-80.172,56.916c-15.096,0-28.764-2.959-41.004-8.875c-12.24-5.916-22.746-14.178-31.518-24.785
			c-8.772-10.609-15.606-23.359-20.502-38.25c-4.896-14.893-7.344-31.518-7.344-49.879c0-18.36,2.448-35.087,7.344-50.184
			s11.73-27.948,20.502-38.556s19.278-18.87,31.518-24.786c12.24-5.916,25.908-8.874,41.004-8.874
			c35.904,0,62.424,17.952,79.56,53.856c1.632,2.856,1.836,6.324,0.612,10.404c-1.632,3.672-4.08,6.12-7.344,7.344l-28.764,12.852
			c-3.264,1.632-6.63,1.734-10.098,0.306c-3.468-1.428-6.018-3.774-7.65-7.038c-2.04-4.488-5.202-8.976-9.486-13.464
			c-4.284-4.488-9.894-6.732-16.83-6.732c-11.016,0-20.094,5.916-27.234,17.748s-10.71,27.54-10.71,47.124
			c0,19.176,3.57,34.68,10.71,46.512s16.218,17.748,27.234,17.748c8.16,0,14.28-2.854,18.36-8.564
			c4.08-5.715,6.732-10.201,7.956-13.467c1.224-3.672,3.672-6.119,7.344-7.344c3.264-2.041,6.732-2.041,10.404,0l29.376,12.24
			c3.264,2.039,5.508,4.488,6.732,7.344C233.784,325.737,233.784,329.204,232.56,332.47z M481.645,332.47
			c-17.137,37.941-43.861,56.916-80.172,56.916c-15.1,0-28.768-2.959-41.004-8.875c-12.242-5.916-22.748-14.178-31.521-24.785
			c-8.77-10.609-15.604-23.359-20.502-38.25c-4.895-14.893-7.344-31.518-7.344-49.879c0-18.36,2.449-35.087,7.344-50.184
			c4.898-15.096,11.732-27.948,20.502-38.556c8.773-10.608,19.279-18.87,31.521-24.786c12.236-5.916,25.904-8.874,41.004-8.874
			c36.311,0,63.035,17.952,80.172,53.856c1.223,3.264,1.223,6.732,0,10.404c-1.631,3.672-3.877,6.12-6.732,7.344l-29.377,12.852
			c-3.264,1.632-6.525,1.734-9.791,0.306c-3.264-1.428-5.713-3.774-7.344-7.038c-2.041-4.488-5.303-8.976-9.793-13.464
			c-4.488-4.488-10.199-6.732-17.135-6.732c-11.02,0-19.992,5.916-26.932,17.748c-6.934,11.832-10.4,27.54-10.4,47.124
			c0,19.176,3.467,34.68,10.4,46.512c6.939,11.832,15.912,17.748,26.932,17.748c8.158,0,14.277-2.854,18.357-8.566
			s6.732-10.199,7.955-13.465c1.227-3.264,3.672-5.713,7.346-7.344c3.674-2.041,7.141-2.041,10.402,0l29.377,12.24
			c3.672,2.447,6.119,4.895,7.346,7.344C483.48,326.146,483.275,329.612,481.645,332.47z"/>
	</g>
</g>
<g>
</g>
<g>
</g>
<g>
</g>
<g>
</g>
<g>
</g>
<g>
</g>
<g>
</g>
<g>
</g>
<g>
</g>
<g>
</g>
<g>
</g>
<g>
</g>
<g>
</g>
<g>
</g>
<g>
</g>
</svg>
