<?xml version="1.0" encoding="iso-8859-1"?>
<!-- Generator: Adobe Illustrator 19.0.0, SVG Export Plug-In . SVG Version: 6.00 Build 0)  -->
<svg version="1.1" id="Capa_1" xmlns="http://www.w3.org/2000/svg" xmlns:xlink="http://www.w3.org/1999/xlink" x="0px" y="0px"
	 viewBox="0 0 380 380" style="enable-background:new 0 0 380 380;" xml:space="preserve">
<g id="XMLID_2_">
	<polygon id="XMLID_1476_" style="fill:#FFDA44;" points="351,335 270,155 236.521,229.396 273.077,335 	"/>
	<polygon id="XMLID_1477_" style="fill:#FF9811;" points="194.375,335 273.077,335 236.521,229.396 190,95 155.172,195.613 	"/>
	<polygon id="XMLID_1478_" style="fill:#FF5023;" points="190,335 194.375,335 155.172,195.613 110,35 25.625,335 	"/>
	<rect id="XMLID_1479_" x="150" y="5" style="fill:#ACABB1;" width="40" height="30"/>
	<rect id="XMLID_1480_" x="110" y="5" style="fill:#CDCDD0;" width="40" height="30"/>
	<rect id="XMLID_1481_" x="230" y="65" style="fill:#ACABB1;" width="40" height="30"/>
	<rect id="XMLID_1482_" x="190" y="65" style="fill:#CDCDD0;" width="40" height="30"/>
	<rect id="XMLID_1483_" x="310" y="125" style="fill:#ACABB1;" width="40" height="30"/>
	<rect id="XMLID_1484_" x="270" y="125" style="fill:#CDCDD0;" width="40" height="30"/>
	<polygon id="XMLID_1485_" style="fill:#CDCDD0;" points="190,335 25.625,335 0,335 0,375 190,375 	"/>
	<polygon id="XMLID_1486_" style="fill:#ACABB1;" points="351,335 273.077,335 194.375,335 190,335 190,375 380,375 380,335 	"/>
</g>
<g>
</g>
<g>
</g>
<g>
</g>
<g>
</g>
<g>
</g>
<g>
</g>
<g>
</g>
<g>
</g>
<g>
</g>
<g>
</g>
<g>
</g>
<g>
</g>
<g>
</g>
<g>
</g>
<g>
</g>
</svg>
