<?xml version="1.0" encoding="iso-8859-1"?>
<!-- Generator: Adobe Illustrator 19.0.0, SVG Export Plug-In . SVG Version: 6.00 Build 0)  -->
<svg version="1.1" id="Capa_1" xmlns="http://www.w3.org/2000/svg" xmlns:xlink="http://www.w3.org/1999/xlink" x="0px" y="0px"
	 viewBox="0 0 512.274 512.274" style="enable-background:new 0 0 512.274 512.274;" xml:space="preserve">
<path style="fill:#84DBFF;" d="M509.867,1.25c-16-11.733-93.867,67.2-188.8,161.067S146.133,332.984,156.8,347.917
	c10.667,14.933,113.067-38.4,212.267-137.6C469.333,113.25,524.8,11.917,509.867,1.25z"/>
<path style="fill:#FFD15C;" d="M241.067,355.384c-11.733-39.467-36.267-68.267-71.467-89.6C128,270.05,82.133,312.717,0,312.717
	c9.6,64,72.533,167.467,131.2,199.467C170.667,432.184,226.133,396.984,241.067,355.384z"/>
<g>
	<path style="fill:#F8B64C;" d="M165.333,411.917c10.667-13.867,19.2-24.533,24.533-32c5.333-8.533,8.533-12.8,8.533-12.8
		s-3.2,4.267-8.533,11.733c-6.4,7.467-14.933,18.133-25.6,30.933c-17.067,20.267-38.4,46.933-56.533,85.333
		c2.133,1.067,3.2,3.2,5.333,4.267C129.067,459.917,149.333,433.25,165.333,411.917z"/>
	<path style="fill:#F8B64C;" d="M153.6,380.984c4.267-7.467,7.467-10.667,7.467-10.667
		C161.067,369.25,157.867,373.517,153.6,380.984c-5.333,6.4-12.8,16-22.4,27.733c-13.867,17.067-30.933,37.333-48,64
		c2.133,2.133,3.2,4.267,4.267,5.333c14.933-28.8,32-50.133,44.8-68.267C141.867,396.984,148.267,387.384,153.6,380.984z"/>
	<path style="fill:#F8B64C;" d="M119.467,389.517C131.2,375.65,137.6,364.984,137.6,364.984s-7.467,9.6-20.267,22.4
		S86.4,417.25,68.267,434.317c-3.2,3.2-6.4,5.333-9.6,8.533c2.133,3.2,4.267,6.4,6.4,8.533c3.2-3.2,5.333-6.4,8.533-9.6
		C91.733,422.584,107.733,403.384,119.467,389.517z"/>
	<path style="fill:#F8B64C;" d="M32,399.117c2.133,4.267,5.333,8.533,7.467,13.867c21.333-11.733,42.667-25.6,62.933-39.467
		C81.067,385.25,57.6,393.784,32,399.117z"/>
	<path style="fill:#F8B64C;" d="M137.6,309.517c8.533-3.2,13.867-5.333,13.867-5.333C150.4,304.184,146.133,306.317,137.6,309.517
		c-8.533,2.133-21.333,7.467-37.333,12.8C76.8,329.784,44.8,339.384,5.333,336.184c1.067,2.133,1.067,4.267,2.133,6.4
		c39.467,1.067,70.4-9.6,93.867-18.133C116.267,318.05,128,312.717,137.6,309.517z"/>
	<path style="fill:#F8B64C;" d="M126.933,343.65c7.467-2.133,12.8-4.267,12.8-4.267C138.667,339.384,134.4,340.45,126.933,343.65
		c-8.533,2.133-19.2,5.333-33.067,9.6c-20.267,6.4-45.867,12.8-76.8,13.867c1.067,2.133,2.133,4.267,3.2,6.4
		c28.8-3.2,54.4-11.733,74.667-18.133C107.733,350.05,118.4,346.85,126.933,343.65z"/>
</g>
<path style="fill:#334A5E;" d="M241.067,357.517C224,318.05,198.4,289.25,168.533,266.85h1.067
	C217.6,263.65,256,307.384,241.067,357.517C241.067,356.45,241.067,357.517,241.067,357.517z"/>
<g>
	<ellipse style="fill:#40596B;" cx="234.667" cy="430.05" rx="9.6" ry="14.933"/>
	<ellipse style="fill:#40596B;" cx="292.267" cy="408.717" rx="6.4" ry="11.733"/>
	<path style="fill:#40596B;" d="M248.533,471.65c-6.4,4.267-8.533,9.6-6.4,11.733c2.133,2.133,8.533,0,14.933-5.333
		c6.4-4.267,8.533-9.6,6.4-11.733C260.267,464.184,253.867,466.317,248.533,471.65z"/>
	<path style="fill:#40596B;" d="M290.133,497.25c-6.4-4.267-13.867-5.333-14.933-4.267c-2.133,2.133,2.133,6.4,8.533,10.667
		s13.867,5.333,14.933,4.267C300.8,506.85,296.533,501.517,290.133,497.25z"/>
	<ellipse style="fill:#40596B;" cx="347.733" cy="482.317" rx="18.133" ry="5.333"/>
	<ellipse style="fill:#40596B;" cx="289.067" cy="436.45" rx="9.6" ry="8.533"/>
	<path style="fill:#40596B;" d="M228.267,485.517c-6.4-1.067-11.733,1.067-12.8,4.267c-1.067,3.2,3.2,6.4,9.6,7.467
		c6.4,1.067,11.733-1.067,12.8-4.267C238.933,490.85,234.667,486.584,228.267,485.517z"/>
	<ellipse style="fill:#40596B;" cx="194.133" cy="486.584" rx="7.467" ry="14.933"/>
	<ellipse style="fill:#40596B;" cx="311.467" cy="457.784" rx="6.4" ry="4.267"/>
	<ellipse style="fill:#40596B;" cx="328.533" cy="408.717" rx="6.4" ry="6.4"/>
	<ellipse style="fill:#40596B;" cx="260.267" cy="390.584" rx="4.267" ry="3.2"/>
	<ellipse style="fill:#40596B;" cx="295.467" cy="474.85" rx="4.267" ry="5.333"/>
	<ellipse style="fill:#40596B;" cx="216.533" cy="453.517" rx="8.533" ry="6.4"/>
</g>
<g>
</g>
<g>
</g>
<g>
</g>
<g>
</g>
<g>
</g>
<g>
</g>
<g>
</g>
<g>
</g>
<g>
</g>
<g>
</g>
<g>
</g>
<g>
</g>
<g>
</g>
<g>
</g>
<g>
</g>
</svg>
