<?xml version="1.0" encoding="iso-8859-1"?>
<!-- Generator: Adobe Illustrator 19.0.0, SVG Export Plug-In . SVG Version: 6.00 Build 0)  -->
<svg version="1.1" id="Capa_1" xmlns="http://www.w3.org/2000/svg" xmlns:xlink="http://www.w3.org/1999/xlink" x="0px" y="0px"
	 viewBox="0 0 512 512" style="enable-background:new 0 0 512 512;" xml:space="preserve">
<path style="fill:#FF3535;" d="M255.233,78.216c-0.465,8.932-0.941,18.275-0.205,27.226c0.369,4.484-0.411,16.871,2.883,20.139
	c1.774,1.76,7.962,3.212,10.46,4.186c4.638,1.808,9.524,3.292,14.415,4.076c3.839,0.615,7.235,0.165,10.773-1.519
	c4.845-2.306,6.072-7.271,8.798-11.94c4.758-8.146,7.538-17.279,12.397-25.392c4.154-6.936,7.288-14.25,9.779-21.962
	c2.666-8.25,4.364-17.009,7.965-24.882c4.083-8.927,14-21.445,8.285-31.792c-3.212-5.814-11.47-5.886-17.731-6.488
	c-1.789-0.172-3.497-0.529-5.188-0.857c-1.516-0.295-2.778,0.147-4.296,0.134c-1.903-0.016-4.033,0.021-5.927-0.197
	c-2.784-0.32-5.36-1.097-8.219-1.11c-3.636-0.016-7.266-0.124-10.901-0.155c-3.823-0.032-7.712,0.254-11.505-0.313
	c-3.479-0.521-6.842-1.332-10.374-1.469c-2.645-0.102-5.588-0.461-8.1,0.592c-2.947,1.235-2.793,4.203-3.056,7.053
	c-0.641,6.957,0.355,13.922,0.408,20.881C256.008,49.026,255.993,63.633,255.233,78.216z"/>
<path style="fill:#FF8225;" d="M163.31,20.666c-1.584,3.928,0.301,9.205,2.309,13.367c1.666,3.454,3.434,6.906,4.798,10.49
	c2.763,7.264,5.412,14.641,8.63,21.717c2.505,5.507,5.033,10.946,7.388,16.534c1.081,2.565,2.097,5.146,3.067,7.743
	c1.293,3.465,3.176,6.556,4.765,9.889c3.257,6.832,6.64,13.619,10.52,20.123c1.721,2.884,3.62,5.599,4.991,8.618
	c1.233,2.716,3.839,4.742,6.835,5.111c5.138,0.632,9.036,0.057,14.02-1.1c4.546-1.055,9.219-1.595,13.776-2.616
	c2.357-0.528,7.046-2.105,8.493-4.222c1.003-1.467,1.314-3.945,1.556-5.659c0.683-4.83-0.158-9.922,0.197-14.798
	c0.607-8.345,1.819-16.622,1.997-25.011c0.135-6.337,0.183-12.694-0.151-18.978c-0.361-6.781-1.568-13.424-2.16-20.18
	c-0.579-6.604-0.094-13.226,0.251-19.828c0.15-2.866,0.286-5.676,0.662-8.491c0.232-1.736-0.067-4.53-1.965-5.331
	c-0.98-0.414-2.359-0.196-3.402-0.198c-2.199-0.005-4.334-0.207-6.526-0.367c-5.011-0.365-9.992-0.036-14.998-0.222
	c-6.073-0.225-11.865-0.616-17.945-0.06c-7.044,0.644-13.703,1.681-20.647,3.007c-5.661,1.081-11.106,2.603-16.546,4.505
	c-1.727,0.604-3.64,0.995-5.322,1.681C165.453,17.387,164.026,18.889,163.31,20.666z"/>
<path style="fill:#FFA100;" d="M83.303,73.858c0.128,1.167,1.563,1.998,2.415,2.738c2.002,1.739,3.412,3.988,5.411,5.733
	c4.583,4.001,9.115,8.228,13.25,12.684c5.259,5.667,10.147,11.739,15.718,17.104c4.961,4.777,8.839,10.299,13.582,15.259
	c1.794,1.876,3.54,3.981,5.498,5.682c1.85,1.607,3.966,2.901,5.778,4.552c3.489,3.18,6.186,6.934,9.474,10.279
	c2.919,2.971,6.502,5.153,9.809,7.635c0.892,0.669,2.002,1.662,3.018,2.106c1.74,0.76,3.176-0.198,4.796-0.811
	c2.794-1.057,5.358-2.171,7.99-3.597c3.729-2.021,7.654-3.388,11.127-5.87c2.754-1.968,5.853-3.21,8.659-5.045
	c2.042-1.335,3.607-3.294,5.34-4.973c1.765-1.71,2.876-3.177,2.552-5.783c-0.219-1.763-1.188-3.079-1.999-4.616
	c-1.128-2.138-1.938-4.426-2.868-6.653c-1.272-3.047-3.296-5.845-5.132-8.593c-1.926-2.882-2.992-5.555-4.358-8.7
	c-2.932-6.746-5.886-13.452-8.63-20.273c-2.054-5.105-3.3-10.755-4.834-16.044c-1.519-5.237-3.161-10.26-5.55-15.166
	c-2.42-4.969-5.617-9.48-7.772-14.571c-1.057-2.495-1.427-5.433-2.593-7.827c-0.65-1.335-1.835-4.129-2.958-4.934
	c-1.589-1.14-5.475-0.741-7.219-0.279c-4.875,1.292-9.306,3.713-13.704,6.115c-11.347,6.199-23.217,11.832-34.087,18.872
	c-4.663,3.02-8.951,6.597-13.369,9.961c-2.349,1.789-4.361,4.078-5.948,6.554c-0.515,0.803-1.268,1.623-1.534,2.554
	C84.812,69.182,85.302,70.526,83.303,73.858z"/>
<path style="fill:#71D182;" d="M135.887,199.193c-0.181-0.093-0.363-0.182-0.544-0.269c-7.548-3.619-15.364-6.645-23.17-9.668
	c-12.255-4.745-24.509-9.489-36.764-14.234c-6.127-2.372-12.255-4.745-18.382-7.117c-2.791-1.081-5.797-2.728-8.771-3.163
	c-1.95-0.285-4.538-0.344-6.262-1.366c-1.466-0.868-2.397-2.039-4.159-2.587c-3.378-1.051-7.319-0.476-10.081,1.795
	c-3.85,3.166-4.977,8.501-5.796,13.418c-3.32,19.94-5.529,40.047-7.736,60.141c-0.205,1.863-0.304,4.026,1.07,5.3
	c0.807,0.748,1.947,0.996,3.036,1.157c5.638,0.833,11.37,0.098,17.061-0.21c28.671-1.553,57.257,7.753,85.836,4.981
	c2.244-0.218,4.671-0.602,6.222-2.237c1.206-1.272,1.648-3.066,2.045-4.773c2.772-11.927,5.544-23.854,8.317-35.78
	c0.3-1.292,0.58-2.735-0.098-3.874C137.3,200.017,136.609,199.568,135.887,199.193z"/>
<path style="fill:#FFDC0F;" d="M162.959,152.88c2.228,2.689,4.793,4.891,3.435,8.608c-1.202,3.29-3.61,5.966-5.631,8.827
	c-3.139,4.443-5.388,9.417-8.108,14.11c-3.034,5.236-6.7,8.881-11.297,12.757c-0.94,0.792-1.921,1.601-3.103,1.938
	c-1.275,0.363-2.637,0.135-3.932-0.15c-8.964-1.975-17.102-6.533-25.353-10.555c-10.91-5.317-22.238-9.775-33.845-13.32
	c-11.047-3.374-22.439-5.957-32.744-11.174c-1.761-0.892-3.518-1.884-4.841-3.347c-3.717-4.11-2.971-10.494-1.495-15.836
	c3.674-13.303,10.371-25.547,17.218-37.53c4.562-7.984,9.448-16.114,16.374-22.298c2.89-2.58,6.926-5.995,10.873-6.644
	c4.384-0.721,8.102,3.846,11.095,6.38c16.114,13.645,32.203,27.36,47.263,42.177C147.301,135.122,155.408,143.765,162.959,152.88z"
	/>
<path style="fill:#00935F;" d="M130.303,293.509c0.166,1.797,0.318,3.688-0.423,5.333c-1.314,2.918-4.829,3.979-7.914,4.83
	c-8.788,2.425-17.302,5.736-25.799,9.042c-24.384,9.487-48.769,18.973-73.153,28.46c-2.076,0.808-4.538,1.585-6.41,0.378
	c-1.18-0.761-1.795-2.131-2.308-3.438c-6.607-16.82-6.733-35.432-5.745-53.476c0.647-11.804,1.777-23.784,6.171-34.759
	c0.379-0.948,0.796-1.907,1.492-2.653c1.988-2.133,5.371-1.822,8.277-1.582c9.022,0.746,18.057-0.795,27.095-1.314
	c11.661-0.67,23.345,0.364,34.979,1.397c5.995,0.532,11.991,1.064,17.976,1.697c5.476,0.58,11.578,0.684,16.866,2.287
	c3.215,0.974,4.706,3.147,5.328,6.36c1.054,5.451,1.144,11.216,1.655,16.741C129.027,279.71,129.665,286.609,130.303,293.509z"/>
<path style="fill:#14DDF7;" d="M137.601,364.552c-5.759,5.991-10.472,12.903-15.985,19.123c-6.36,7.175-13.731,13.372-21.073,19.539
	c-9,7.56-17.999,15.121-26.999,22.681c-2.419,2.033-5.048,4.156-8.193,4.457c-5.225,0.501-9.414-4.079-12.444-8.365
	c-10.132-14.337-17.828-30.228-25.237-46.145c-3.969-8.526-7.91-17.21-9.445-26.489c-0.433-2.614-0.625-5.478,0.76-7.737
	c1.343-2.191,3.861-3.319,6.228-4.32c8.133-3.438,16.273-6.862,24.418-10.271c24.282-10.162,48.922-20.28,74.96-24.149
	c1.281-0.191,2.636-0.358,3.835,0.132c1.212,0.494,2.069,1.579,2.835,2.64c5.574,7.723,9.405,16.503,14.392,24.587
	c2.471,4.006,5.238,7.863,8.598,11.177c1.591,1.569,3.756,2.772,2.28,5.077c-1.339,2.091-3.703,3.937-5.501,5.626
	C146.585,356.294,141.834,360.148,137.601,364.552z"/>
<path style="fill:#0087C3;" d="M196.984,368.934c2.456,1.294,5.051,2.721,6.367,5.166c1.525,2.834,0.947,6.302,0.18,9.428
	c-6.326,25.781-22.446,47.97-32.321,72.611c-3.599,8.98-6.43,18.414-11.904,26.391c-0.979,1.427-2.199,2.902-3.902,3.208
	c-1.33,0.239-2.664-0.294-3.91-0.816c-8.233-3.447-16.466-6.894-24.7-10.341c-11.998-5.023-24.025-10.061-35.379-16.407
	c-6.646-3.715-13.124-7.936-18.256-13.561c-2.993-3.28-5.612-7.465-5.041-11.869c0.523-4.033,3.565-7.213,6.454-10.075
	c11.793-11.681,23.694-23.253,35.702-34.713c14.061-13.42,28.421-26.802,45.178-36.652c1.152-0.678,2.409-1.36,3.741-1.249
	c0.951,0.08,1.817,0.558,2.65,1.026c2.811,1.579,5.682,3.643,8.732,4.711c2.667,0.933,5.029,1.881,7.564,3.216
	c3.17,1.67,6.34,3.34,9.51,5.009C188.675,364.557,196.984,368.121,196.984,368.934z"/>
<path style="fill:#008EE5;" d="M236.127,379.336c5.148,0.473,10.258,1.348,15.27,2.616c1.817,0.46,3.827,1.133,4.656,2.814
	c0.577,1.171,0.428,2.554,0.271,3.85c-2.431,20.031-3.524,40.248-2.67,60.408c0.729,17.194,2.87,34.407,1.509,51.562
	c-0.166,2.09-0.542,4.455-2.286,5.62c-1.403,0.938-3.242,0.778-4.916,0.57c-26.468-3.273-52.531-9.176-78.541-15.069
	c-1.414-0.32-2.854-0.651-4.104-1.385c-1.638-0.961-2.824-2.547-3.706-4.228c-3.372-6.423-2.7-14.323-0.18-21.126
	s6.706-12.835,10.376-19.093c3.246-5.534,6.11-11.292,8.566-17.219c3.449-8.323,6.095-16.979,9.94-25.126
	c3.285-6.963,7.415-13.489,11.533-19.994c1.896-2.994,4.102-6.225,7.527-7.133c1.899-0.503,3.907-0.202,5.847,0.101
	c5.236,0.819,10.471,1.638,15.707,2.456C232.898,379.269,234.138,379.154,236.127,379.336z"/>
<path style="fill:#857DAF;" d="M310.176,381.695c18.208,28.943,23.469,64.202,38.991,94.67c1.747,3.428,3.666,7.377,2.222,10.944
	c-1.475,3.644-5.747,5.122-9.532,6.184c-27.212,7.635-55.175,15.344-83.317,12.735c-1.251-0.116-2.554-0.271-3.603-0.963
	c-2.747-1.814-2.234-5.896-1.633-9.133c0.35-1.886,0.62-3.787,0.825-5.695c1.374-12.797-0.193-25.66,0.183-38.486
	c0.09-3.086,0.088-6.379,0.727-9.41c0.388-1.84,1.477-3.414,1.651-5.302c0.563-6.108-2.018-12.54-2.198-18.683
	c-0.099-3.394,0.282-6.773,0.706-10.135c0.373-2.957,1.329-6.453,0.777-9.392c-0.897-4.772-1.268-10.291,3.016-13.747
	c1.786-1.441,4.065-2.104,6.301-2.624c6.357-1.479,12.868-2.077,19.336-2.857c3.255-0.392,6.509-0.824,9.73-1.442
	c3.181-0.61,6.217-1.829,9.358-2.475C306.729,375.267,308.758,379.441,310.176,381.695z"/>
<path style="fill:#954EA5;" d="M427.922,423.685c3.083,3.494,6.175,6.999,8.785,10.859c0.716,1.059,1.418,2.214,1.445,3.492
	c0.045,2.103-1.694,3.761-3.295,5.124c-21.501,18.3-43.986,36.547-70.693,45.709c-2.32,0.796-5.05,1.474-7.086,0.104
	c-0.93-0.625-1.561-1.595-2.167-2.538c-7.371-11.471-14.813-23.085-19.219-35.988c-2.232-6.536-3.654-13.316-5.365-20.008
	c-4.111-16.076-9.923-31.717-17.307-46.576c-0.958-1.929-1.969-3.961-1.846-6.111c0.287-5.002,6.024-7.466,10.702-9.259
	c8.575-3.286,16.59-8.008,23.632-13.9c2.704-2.262,6.343-5.91,10.26-5.105c3.395,0.698,6.46,4.781,8.857,7.013
	c14.486,13.492,28.104,27.882,41.381,42.556C413.38,407.206,420.651,415.446,427.922,423.685z"/>
<path style="fill:#F3429E;" d="M435.775,319.355c18.038,6.818,36.506,12.771,53.482,21.919c1.029,0.554,2.119,1.191,2.596,2.258
	c0.44,0.983,0.261,2.12,0.062,3.179c-2.048,10.876-5.437,21.447-8.818,31.986c-2.599,8.101-5.198,16.204-8.077,24.209
	c-1.589,4.417-3.289,8.855-5.981,12.701c-5.08,7.258-13.231,11.762-21.502,14.936c-2.198,0.843-4.486,1.621-6.839,1.558
	c-5.848-0.157-10.184-5.222-13.972-9.68c-21.345-25.116-50.143-44.067-66.843-72.484c-0.94-1.6-1.86-3.294-1.979-5.146
	c-0.137-2.125,0.797-4.165,1.841-6.021c6.225-11.064,17.053-19.484,19.922-32.313c0.564-2.522,0.713-5.852,3.372-7.136
	c2.163-1.045,4.901-0.166,6.999,0.607c7.114,2.618,13.918,6.357,20.883,9.366C419.125,312.84,427.413,316.195,435.775,319.355z"/>
<path style="fill:#A00056;" d="M396.194,246.563c25.464-1.194,50.976-1.388,76.407-3.141c4.772-0.329,9.635-0.706,14.285,0.417
	s9.144,4.033,10.877,8.492c0.695,1.79,0.915,3.725,1.089,5.637c0.872,9.587,0.75,19.233,0.627,28.859
	c-0.158,12.411-0.317,24.822-0.475,37.233c-0.062,4.875-0.219,10.067-2.96,14.099c-0.826,1.214-1.91,2.311-3.281,2.836
	c-1.887,0.723-4.004,0.272-5.949-0.28c-10.638-3.019-20.261-8.747-30.061-13.871c-17.32-9.055-35.552-16.367-54.33-21.787
	c-3.627-1.047-7.31-2.038-10.631-3.831c-3.321-1.794-6.304-4.505-7.619-8.044c-0.864-2.325-0.964-4.855-1.022-7.335
	c-0.18-7.609-0.062-15.226,0.351-22.826c0.219-4.025-0.713-12.18,3.273-14.846C389.341,246.46,393.267,246.7,396.194,246.563z"/>
<path style="fill:#880000;" d="M345.915,21.081c-4.63,5.595-6.812,15.61-9.825,22.462c-3.387,7.702-6.912,14.659-9.526,22.73
	c-4.143,12.795-10.246,24.358-14.703,36.957c-3.023,8.546-6.732,16.639-9.704,25.033c-4.166,11.763,6.233,11.673,15.355,15.725
	c6.287,2.793,19.477,17.732,26.757,14.235c2.801-1.345,6.94-9.509,9.443-12.052c3.884-3.945,8.163-7.483,12.325-11.125
	c8.031-7.028,16.458-13.022,23.975-20.552c7.024-7.036,14.392-13.722,21.339-20.835c4.679-4.791,16.608-14.547,15.707-21.46
	c-1.544-11.838-24.453-20.815-32.997-26.538C380.327,36.463,365.384,27.495,345.915,21.081z"/>
<path style="fill:#8B003B;" d="M478.905,154.072c-20.602,5.202-43.24,15.919-62.62,24.91c-15.884,7.368-32.127,13.623-47.708,21.734
	c5.544,8.712,8.186,20.318,11.731,30.021c1.301,3.561,1.954,10.991,4.363,13.748c3.137,3.59,7.78,1.899,13.549,1.906
	c20.784,0.023,41.557,0.44,62.259-0.502c13.371-0.609,27.077,2.206,40.279,1.05c1.482-15.525-4.178-33.943-7.955-48.913
	C488.961,182.802,483.184,168.185,478.905,154.072z"/>
<path style="fill:#910A4D;" d="M423.601,77.097c-7.737,4.016-15.115,17.792-20.603,22.629c-8.889,7.834-17.912,15.211-25.965,23.928
	c-6.982,7.558-14.184,14.808-21.305,22.237c-5.111,5.333-13.309,10.281-16.216,17.087c9.02,6.432,16.04,17.305,22.731,25.985
	c7.577,9.828,7.644,7.485,19.777,3.053c20.011-7.309,39.425-15.539,58.954-24.073c12.203-5.333,24.578-12.534,37.184-16.565
	c0.706-10.866-10.815-26.905-16.008-35.899c-6.98-12.089-18.481-30.448-30.368-38.215C429.056,75.482,426.306,75.693,423.601,77.097
	z"/>
<path d="M505.702,244.58c-2.369-27.722-5.82-55.837-14.823-82.28c-16.919-49.697-51.909-97.749-96.236-126.36
	c-22.824-14.731-46.567-22.496-72.796-28.66c-20.775-4.882-44.273-9.212-65.856-6.379c-21.583-2.834-45.081,1.497-65.856,6.379
	c-26.229,6.164-49.974,13.929-72.797,28.66C73.012,64.551,38.022,112.604,21.102,162.3c-9.003,26.443-12.453,54.558-14.823,82.28
	c-0.14,1.637-0.241,3.277-0.364,4.916c-0.047,0.1-0.07,0.193-0.118,0.293c0.032,0.001,0.064,0.001,0.096,0.001
	c-1.888,25.537-1.62,51.236,1.795,76.62c3.88,28.824,10.551,53.897,25.688,78.927c14.067,23.263,34.986,42.506,57.03,58.183
	c24.151,17.176,51.628,28.919,80.368,35.621c29.634,6.911,59.806,12.296,90.304,12.836c27.2,0.482,53.691-6.671,80.128-12.836
	c28.74-6.702,56.217-18.445,80.369-35.621c22.043-15.677,42.962-34.92,57.03-58.183c15.137-25.031,21.809-50.103,25.687-78.927
	C507.941,299.299,508.032,271.828,505.702,244.58z M490.203,336.901c-12.649-5.489-25.486-10.587-38.17-15.804
	c-21.23-8.733-42.081-18.356-63.338-27.024c2.626-13.802,2.942-28.151,1.187-42.411c1.592,0.031,3.185,0.061,4.777,0.096
	c24.079,0.523,48.093-1.208,72.159-1.71c9.089-0.189,18.173-0.125,27.258-0.02C495.888,279.161,494.517,308.605,490.203,336.901z
	 M493.554,242.546c-8.897-0.342-17.803-0.562-26.737-0.499c-23.269,0.163-46.482,1.707-69.757,1.243
	c-2.828-0.056-5.656-0.109-8.485-0.162c-2.566-14.178-7.128-28.128-13.442-41.214c3.626-1.422,7.251-2.846,10.878-4.258
	c22.444-8.737,43.965-19.531,66.005-29.209c7.954-3.493,15.996-6.768,24.052-10.005c3.426,8.971,6.284,18.114,8.514,27.356
	C489.031,204.228,491.99,223.289,493.554,242.546z M223.796,372.005c-27.484-5.446-52.532-15.748-69.596-39.254
	c-17.342-23.888-24.405-51.65-21.358-80.875c3.114-29.885,16.337-64.991,38.642-85.994c27.979-26.347,82.26-40.553,121.471-26.032
	c-0.003,0.006-0.005,0.012-0.008,0.018c0.704,0.232,1.389,0.515,2.088,0.758c7.188,2.89,13.834,6.778,19.663,11.784
	c10.1,8.674,22.1,15.302,30.301,26.066c29.833,39.153,45.878,89.436,24.702,136.767
	C345.603,369.101,276.566,382.461,223.796,372.005z M137.736,194.453c-3.869-1.626-7.742-3.246-11.604-4.883
	c-22.174-9.399-45.124-16.68-67.666-25.122c-7.234-2.71-14.395-5.594-21.54-8.517c10.806-27.338,26.898-52.966,46.728-74.754
	C89.37,87.33,95.15,93.428,101.15,99.344c16.569,16.338,34.074,31.661,50.204,48.446c3.613,3.76,7.239,7.512,10.861,11.266
	C152.216,169.353,144.116,181.467,137.736,194.453z M473.251,151.494c-8.151,3.023-16.263,6.167-24.298,9.563
	c-21.433,9.061-42.286,19.375-63.964,27.858c-4.592,1.797-9.183,3.605-13.773,5.412c-0.514-0.935-1.02-1.875-1.552-2.799
	c-6.374-11.072-14.069-21.313-22.866-30.324c3.516-3.392,7.028-6.788,10.555-10.165c17.397-16.656,33.153-34.861,49.816-52.233
	c6.357-6.627,12.896-13.066,19.461-19.478C446.154,100.337,462.17,125.048,473.251,151.494z M403.334,57.369
	c6.32,5.168,12.364,10.743,18.159,16.605c-6.772,6.258-13.483,12.587-19.98,19.175c-16.338,16.569-31.661,34.074-48.447,50.204
	c-4.13,3.969-8.25,7.953-12.371,11.933c-10.516-9.532-22.429-17.31-35.462-22.744c2.015-4.805,4.021-9.616,6.053-14.411
	c9.4-22.175,16.68-45.124,25.122-67.667c3.033-8.098,6.281-16.108,9.567-24.101C366.765,33.183,385.969,43.172,403.334,57.369z
	 M327.101,21.103c3.952,0.914,7.848,1.935,11.697,3.047c-3.41,7.716-6.744,15.469-9.822,23.354
	c-8.461,21.676-15.62,43.812-24.667,65.262c-2.359,5.594-4.699,11.199-7.045,16.801c-11.373-3.665-24.376-5.566-37.834-5.77
	c0.103-5.867,0.199-11.736,0.327-17.599c0.523-24.079-1.208-48.093-1.71-72.159c-0.148-7.153-0.136-14.304-0.079-21.454
	C280.534,12.742,303.15,15.563,327.101,21.103z M250.37,12.641c-0.226,7.122-0.372,14.251-0.322,21.399
	c0.163,23.269,1.707,46.482,1.243,69.756c-0.134,6.697-0.247,13.397-0.361,20.096c-13.271,0.493-26.731,2.582-39.277,6.228
	c-2.005-5.09-4.012-10.18-5.995-15.275c-8.736-22.444-19.531-43.965-29.21-66.005c-3.309-7.537-6.421-15.153-9.493-22.783
	c5.854-1.889,11.826-3.543,17.926-4.954C207.522,15.866,228.987,13.063,250.37,12.641z M108.648,57.369
	c15.632-12.779,32.75-22.154,51.176-28.874c2.922,7.852,5.96,15.666,9.234,23.408c9.061,21.433,19.375,42.286,27.858,63.964
	c2.202,5.625,4.416,11.248,6.631,16.87c-10.42,3.723-19.981,8.585-27.975,14.547c-2.499,1.863-4.882,3.855-7.201,5.913
	c-3.113-3.23-6.23-6.457-9.331-9.695c-16.657-17.396-34.862-33.153-52.233-49.815c-6.131-5.88-12.095-11.922-18.032-17.99
	C95.079,69.19,101.705,63.044,108.648,57.369z M27.397,185.798c1.855-7.687,4.191-15.293,6.88-22.801
	c7.017,3.077,14.067,6.087,21.227,8.882c21.676,8.461,43.812,15.62,65.261,24.666c4.462,1.882,8.932,3.752,13.4,5.626
	c-3.008,7.008-5.547,14.207-7.631,21.462c-1.85,6.446-3.285,13.002-4.313,19.604c-2.028-0.018-4.058-0.052-6.085-0.058
	c-32.5-0.096-65.013-1.686-97.51-2.824C20.234,221.846,23.119,203.528,27.397,185.798z M43.222,250.208
	c23.474,0.26,46.923,1.547,70.399,1.685c2.492,0.015,4.988,0.059,7.482,0.088c-1.449,15.062-0.545,30.239,3.176,44.866
	C90.419,310.719,55.84,322.9,21.627,335.897c-4.198-28.009-5.514-57.123-3.716-85.933C26.364,250.062,34.813,250.115,43.222,250.208
	z M23.257,345.76c12.598-4.797,25.066-9.972,37.508-14.968c21.785-8.748,43.939-16.539,65.679-25.4
	c0.099-0.04,0.199-0.079,0.298-0.119c1.183,3.516,2.526,6.994,4.066,10.417c4.944,10.983,11.492,21.249,19.369,30.306
	c-27.481,27.031-56.318,52.726-84.227,79.305C44.888,403.307,29.331,376.703,23.257,345.76z M72.843,432.154
	c11.936-10.934,23.394-22.441,34.912-33.707c15.922-15.573,32.462-30.5,48.377-46.08c10.173,10.066,22.183,18.207,35.663,23.492
	c2.142,0.839,4.341,1.622,6.565,2.377c-14.013,34.423-29.692,68.199-44.385,102.337c-12.888-4.184-25.393-9.227-37.585-16.259
	C100.655,455.237,85.876,444.493,72.843,432.154z M163.386,483.48c5.711-13.06,10.98-26.334,16.374-39.448
	c8.714-21.182,18.312-41.987,26.965-63.195c13.909,3.905,29.037,6.22,44.43,6.739c-0.204,36.645-2.212,73.304-3.277,109.938
	c-22.602-0.585-45.075-3.602-66.34-9.085C175.393,486.844,169.35,485.221,163.386,483.48z M330.442,488.428
	c-23.272,6-47.995,9.047-72.75,9.182c0.378-13.339,0.369-26.703,0.516-39.975c0.258-23.324,1.526-46.625,1.677-69.951
	c15.853-0.175,31.784-2.295,46.767-6.605c13.796,34.094,26.012,68.857,39.166,103.202
	C340.755,485.72,335.637,487.089,330.442,488.428z M395.591,464.314c-13.076,7.542-26.502,12.819-40.386,17.175
	c-5.19-13.923-10.903-27.678-16.413-41.398c-8.214-20.456-15.616-41.227-23.822-61.685c15.741-5.547,30.138-13.694,41.902-24.757
	c26.422,27.049,51.674,55.285,77.775,82.626C422.746,446.897,409.546,456.264,395.591,464.314z M441.674,429.702
	c-11.382-12.546-23.434-24.544-35.227-36.601c-14.706-15.036-28.851-30.608-43.499-45.699c0.281-0.316,0.58-0.613,0.856-0.932
	c11.2-12.941,18.69-27.884,22.93-43.771c34.228,13.952,67.82,29.536,101.77,44.149C481.857,379.415,464.685,407.14,441.674,429.702z
	"/>
<g>
</g>
<g>
</g>
<g>
</g>
<g>
</g>
<g>
</g>
<g>
</g>
<g>
</g>
<g>
</g>
<g>
</g>
<g>
</g>
<g>
</g>
<g>
</g>
<g>
</g>
<g>
</g>
<g>
</g>
</svg>
